<svg width="316" height="20" viewBox="0 0 316 20" fill="none" xmlns="http://www.w3.org/2000/svg">
<path d="M3.7398 14.69V2.72L1.0398 4.34L-0.000195265 2.53L3.7398 0.290002H5.83981V14.69H3.7398ZM13.7834 14.98C12.4634 14.98 11.3967 14.7 10.5834 14.14C9.77007 13.5733 9.2534 12.7467 9.0334 11.66L11.1834 11.32C11.4967 12.5333 12.3767 13.14 13.8234 13.14C14.4901 13.14 15.0201 13.0133 15.4134 12.76C15.8067 12.5 16.0034 12.1333 16.0034 11.66C16.0034 11.5267 15.9867 11.4067 15.9534 11.3C15.9267 11.1867 15.8734 11.0833 15.7934 10.99C15.7201 10.8967 15.6167 10.81 15.4834 10.73C15.3567 10.65 15.1934 10.57 14.9934 10.49C14.8067 10.4233 14.5567 10.3433 14.2434 10.25C13.9367 10.1567 13.5767 10.0533 13.1634 9.94C12.5767 9.78667 12.0467 9.62334 11.5734 9.45C11.1067 9.27 10.7101 9.06 10.3834 8.82C10.0634 8.58 9.81673 8.29667 9.6434 7.97C9.47007 7.64334 9.3834 7.25334 9.3834 6.8C9.3834 6.32 9.4834 5.88334 9.6834 5.49C9.89007 5.09667 10.1767 4.76 10.5434 4.48C10.9167 4.19334 11.3634 3.97334 11.8834 3.82C12.4034 3.66667 12.9767 3.59 13.6034 3.59C14.2167 3.59 14.7801 3.66667 15.2934 3.82C15.8134 3.96667 16.2667 4.17667 16.6534 4.45C17.0467 4.72334 17.3667 5.05667 17.6134 5.45C17.8601 5.84334 18.0167 6.28 18.0834 6.76L15.9434 7.15C15.9034 6.88334 15.8167 6.64334 15.6834 6.43C15.5567 6.21667 15.3901 6.03667 15.1834 5.89C14.9767 5.73667 14.7334 5.62 14.4534 5.54C14.1734 5.46 13.8667 5.42 13.5334 5.42C13.2401 5.42 12.9667 5.45334 12.7134 5.52C12.4601 5.58 12.2401 5.67 12.0534 5.79C11.8734 5.90334 11.7301 6.04 11.6234 6.2C11.5234 6.35334 11.4734 6.52667 11.4734 6.72C11.4734 6.90667 11.5234 7.06667 11.6234 7.2C11.7234 7.33334 11.8567 7.45 12.0234 7.55C12.1967 7.65 12.3901 7.73667 12.6034 7.81C12.8234 7.88334 13.0534 7.95667 13.2934 8.03C13.5734 8.11 13.8834 8.20334 14.2234 8.31C14.5701 8.41 14.9367 8.51667 15.3234 8.63C15.8301 8.78334 16.2601 8.95334 16.6134 9.14C16.9734 9.32667 17.2667 9.53667 17.4934 9.77C17.7201 10.0033 17.8834 10.27 17.9834 10.57C18.0901 10.8633 18.1434 11.1967 18.1434 11.57C18.1434 12.0967 18.0434 12.5733 17.8434 13C17.6434 13.42 17.3534 13.7767 16.9734 14.07C16.6001 14.3633 16.1434 14.5867 15.6034 14.74C15.0701 14.9 14.4634 14.98 13.7834 14.98ZM20.1961 12.7L26.2861 7.17C26.5861 6.89667 26.8427 6.64 27.0561 6.4C27.2694 6.15334 27.4427 5.91334 27.5761 5.68C27.7161 5.44667 27.8161 5.21334 27.8761 4.98C27.9427 4.74 27.9761 4.49 27.9761 4.23C27.9761 3.85 27.9061 3.52 27.7661 3.24C27.6327 2.95333 27.4427 2.72 27.1961 2.54C26.9561 2.35334 26.6727 2.21334 26.3461 2.12C26.0194 2.02667 25.6661 1.98 25.2861 1.98C24.4461 1.98 23.7561 2.21334 23.2161 2.68C22.6761 3.14 22.3327 3.78 22.1861 4.6L19.9561 4.22C20.0961 3.56 20.3194 2.97 20.6261 2.45C20.9394 1.92333 21.3227 1.48 21.7761 1.12C22.2361 0.753335 22.7594 0.476669 23.3461 0.290002C23.9327 0.0966682 24.5727 1.43051e-06 25.2661 1.43051e-06C25.9527 1.43051e-06 26.5961 0.0866682 27.1961 0.260002C27.7961 0.433335 28.3161 0.696668 28.7561 1.05C29.2027 1.40333 29.5527 1.84667 29.8061 2.38C30.0594 2.91334 30.1794 3.54 30.1661 4.26C30.1594 4.7 30.0927 5.12 29.9661 5.52C29.8461 5.92 29.6861 6.29667 29.4861 6.65C29.2927 6.99667 29.0727 7.32 28.8261 7.62C28.5794 7.91334 28.3294 8.17667 28.0761 8.41L23.3461 12.7H30.1761V14.69H20.1961V12.7ZM36.1226 14.69V2.72L33.4226 4.34L32.3826 2.53L36.1226 0.290002H38.2226V14.69H36.1226ZM41.8562 12.7L47.9462 7.17C48.2462 6.89667 48.5029 6.64 48.7162 6.4C48.9295 6.15334 49.1029 5.91334 49.2362 5.68C49.3762 5.44667 49.4762 5.21334 49.5362 4.98C49.6029 4.74 49.6362 4.49 49.6362 4.23C49.6362 3.85 49.5662 3.52 49.4262 3.24C49.2929 2.95333 49.1029 2.72 48.8562 2.54C48.6162 2.35334 48.3329 2.21334 48.0062 2.12C47.6795 2.02667 47.3262 1.98 46.9462 1.98C46.1062 1.98 45.4162 2.21334 44.8762 2.68C44.3362 3.14 43.9929 3.78 43.8462 4.6L41.6162 4.22C41.7562 3.56 41.9795 2.97 42.2862 2.45C42.5995 1.92333 42.9829 1.48 43.4362 1.12C43.8962 0.753335 44.4195 0.476669 45.0062 0.290002C45.5929 0.0966682 46.2329 1.43051e-06 46.9262 1.43051e-06C47.6129 1.43051e-06 48.2562 0.0866682 48.8562 0.260002C49.4562 0.433335 49.9762 0.696668 50.4162 1.05C50.8629 1.40333 51.2129 1.84667 51.4662 2.38C51.7195 2.91334 51.8395 3.54 51.8262 4.26C51.8195 4.7 51.7529 5.12 51.6262 5.52C51.5062 5.92 51.3462 6.29667 51.1462 6.65C50.9529 6.99667 50.7329 7.32 50.4862 7.62C50.2395 7.91334 49.9895 8.17667 49.7362 8.41L45.0062 12.7H51.8362V14.69H41.8562V12.7ZM54.2328 0.290002H56.3228V5.46C56.6561 4.87334 57.1061 4.41667 57.6728 4.09C58.2394 3.75667 58.9461 3.59 59.7928 3.59C60.5194 3.59 61.1828 3.73 61.7828 4.01C62.3828 4.28334 62.8961 4.67334 63.3228 5.18C63.7561 5.68 64.0928 6.28 64.3328 6.98C64.5728 7.68 64.6928 8.45334 64.6928 9.3C64.6928 10.1333 64.5728 10.9 64.3328 11.6C64.0994 12.2933 63.7661 12.8933 63.3328 13.4C62.9061 13.9 62.3894 14.29 61.7828 14.57C61.1828 14.85 60.5194 14.99 59.7928 14.99C58.9461 14.99 58.2394 14.8267 57.6728 14.5C57.1128 14.1667 56.6628 13.7067 56.3228 13.12V14.69H54.2328V0.290002ZM59.3928 5.56C58.8861 5.56 58.4394 5.65 58.0528 5.83C57.6728 6.00334 57.3528 6.25334 57.0928 6.58C56.8394 6.9 56.6461 7.29 56.5128 7.75C56.3861 8.21 56.3228 8.72667 56.3228 9.3C56.3228 9.84667 56.3828 10.35 56.5028 10.81C56.6294 11.2633 56.8194 11.6567 57.0728 11.99C57.3261 12.3167 57.6428 12.57 58.0228 12.75C58.4094 12.93 58.8661 13.02 59.3928 13.02C59.9061 13.02 60.3528 12.9333 60.7328 12.76C61.1194 12.58 61.4394 12.33 61.6928 12.01C61.9528 11.6833 62.1461 11.2933 62.2728 10.84C62.4061 10.38 62.4728 9.86667 62.4728 9.3C62.4728 8.74667 62.4094 8.24334 62.2828 7.79C62.1561 7.33 61.9628 6.93667 61.7028 6.61C61.4494 6.27667 61.1294 6.02 60.7428 5.84C60.3561 5.65334 59.9061 5.56 59.3928 5.56ZM70.9029 0.290002H72.3829V7.12L78.9529 0.290002H80.8329L74.1229 7.24L81.3829 14.69H79.4629L72.3829 7.47V14.69H70.9029V0.290002ZM82.7779 19.49V3.89H84.2479V5.7C84.6013 5.04 85.0879 4.52334 85.7079 4.15C86.3279 3.77667 87.0913 3.59 87.9979 3.59C88.7646 3.59 89.4513 3.73 90.0579 4.01C90.6713 4.29 91.1879 4.68334 91.6079 5.19C92.0346 5.69 92.3579 6.29 92.5779 6.99C92.8046 7.68334 92.9179 8.44667 92.9179 9.28C92.9179 10.1267 92.8046 10.9033 92.5779 11.61C92.3513 12.31 92.0246 12.91 91.5979 13.41C91.1713 13.91 90.6546 14.3 90.0479 14.58C89.4413 14.8533 88.7579 14.99 87.9979 14.99C87.0846 14.99 86.3213 14.8033 85.7079 14.43C85.0946 14.0567 84.6079 13.54 84.2479 12.88V19.49H82.7779ZM87.7979 13.58C88.3979 13.58 88.9213 13.4767 89.3679 13.27C89.8146 13.0567 90.1846 12.7633 90.4779 12.39C90.7713 12.01 90.9913 11.5567 91.1379 11.03C91.2846 10.5033 91.3579 9.92 91.3579 9.28C91.3579 8.62667 91.2846 8.03667 91.1379 7.51C90.9913 6.98334 90.7679 6.53667 90.4679 6.17C90.1746 5.79667 89.8046 5.51 89.3579 5.31C88.9113 5.10334 88.3913 5 87.7979 5C87.1913 5 86.6646 5.10667 86.2179 5.32C85.7779 5.52667 85.4113 5.82 85.1179 6.2C84.8246 6.57334 84.6046 7.02334 84.4579 7.55C84.3179 8.07 84.2479 8.64667 84.2479 9.28C84.2479 9.92667 84.3213 10.5167 84.4679 11.05C84.6213 11.5767 84.8446 12.03 85.1379 12.41C85.4379 12.7833 85.8079 13.0733 86.2479 13.28C86.6946 13.48 87.2113 13.58 87.7979 13.58ZM103.752 14.99C103.005 14.99 102.332 14.87 101.732 14.63C101.138 14.39 100.625 14.0533 100.192 13.62C99.7583 13.18 99.4117 12.6567 99.1517 12.05C98.8983 11.4367 98.7383 10.76 98.6717 10.02H96.5817V14.69H95.1117V3.89H96.5817V8.56H98.6717C98.7383 7.80667 98.9017 7.12667 99.1617 6.52C99.4283 5.90667 99.7783 5.38334 100.212 4.95C100.645 4.51667 101.158 4.18334 101.752 3.95C102.352 3.71 103.018 3.59 103.752 3.59C104.558 3.59 105.278 3.73 105.912 4.01C106.545 4.29 107.082 4.68334 107.522 5.19C107.962 5.69 108.295 6.29 108.522 6.99C108.755 7.68334 108.872 8.44667 108.872 9.28C108.872 10.1267 108.755 10.9033 108.522 11.61C108.288 12.31 107.952 12.91 107.512 13.41C107.072 13.91 106.535 14.3 105.902 14.58C105.268 14.8533 104.552 14.99 103.752 14.99ZM103.752 13.58C104.352 13.58 104.872 13.4767 105.312 13.27C105.758 13.0567 106.128 12.7633 106.422 12.39C106.722 12.01 106.945 11.5567 107.092 11.03C107.238 10.5033 107.312 9.92 107.312 9.28C107.312 8.62667 107.235 8.03667 107.082 7.51C106.935 6.98334 106.712 6.53667 106.412 6.17C106.118 5.79667 105.748 5.51 105.302 5.31C104.862 5.10334 104.345 5 103.752 5C103.145 5 102.618 5.10667 102.172 5.32C101.732 5.52667 101.365 5.82 101.072 6.2C100.778 6.57334 100.558 7.02334 100.412 7.55C100.272 8.07 100.202 8.64667 100.202 9.28C100.202 9.92667 100.275 10.5167 100.422 11.05C100.575 11.5767 100.798 12.03 101.092 12.41C101.392 12.7833 101.762 13.0733 102.202 13.28C102.648 13.48 103.165 13.58 103.752 13.58ZM111.069 3.89H112.539V9.09L117.359 3.89H119.319L114.259 9.29L119.979 14.69H117.839L112.539 9.49V14.69H111.069V3.89ZM129.465 14.99C128.672 14.99 127.962 14.8567 127.335 14.59C126.708 14.3167 126.175 13.9333 125.735 13.44C125.302 12.94 124.968 12.34 124.735 11.64C124.502 10.9333 124.385 10.15 124.385 9.29C124.385 8.41667 124.502 7.63 124.735 6.93C124.968 6.23 125.305 5.63334 125.745 5.14C126.185 4.64 126.718 4.25667 127.345 3.99C127.978 3.72334 128.688 3.59 129.475 3.59C130.022 3.59 130.535 3.66 131.015 3.8C131.502 3.94 131.938 4.14 132.325 4.4C132.718 4.65334 133.058 4.96667 133.345 5.34C133.632 5.70667 133.848 6.12 133.995 6.58L132.555 7.04C132.428 6.72 132.262 6.43334 132.055 6.18C131.848 5.92667 131.612 5.71334 131.345 5.54C131.085 5.36667 130.795 5.23334 130.475 5.14C130.155 5.04667 129.818 5 129.465 5C128.898 5 128.395 5.1 127.955 5.3C127.515 5.5 127.145 5.78667 126.845 6.16C126.552 6.52667 126.328 6.97667 126.175 7.51C126.022 8.03667 125.945 8.63 125.945 9.29C125.945 9.93667 126.018 10.5233 126.165 11.05C126.318 11.5767 126.542 12.03 126.835 12.41C127.128 12.7833 127.495 13.0733 127.935 13.28C128.375 13.48 128.885 13.58 129.465 13.58C130.212 13.58 130.838 13.4133 131.345 13.08C131.852 12.74 132.242 12.2467 132.515 11.6L133.995 12.04C133.588 13.0067 132.998 13.74 132.225 14.24C131.458 14.74 130.538 14.99 129.465 14.99ZM139.063 13.54C139.236 13.5933 139.386 13.62 139.513 13.62C139.793 13.62 140.026 13.5133 140.213 13.3C140.406 13.0867 140.56 12.78 140.673 12.38C140.793 11.98 140.876 11.4933 140.923 10.92C140.97 10.34 140.993 9.68667 140.993 8.96V3.89H148.733V14.69H147.263V5.29H142.383V9.29C142.383 11.25 142.183 12.69 141.783 13.61C141.383 14.53 140.773 14.99 139.953 14.99C139.68 14.99 139.383 14.94 139.063 14.84V13.54ZM156.098 13.6C156.905 13.6 157.578 13.42 158.118 13.06C158.658 12.7 159.088 12.1867 159.408 11.52L160.798 12.03C160.365 12.9833 159.741 13.7167 158.928 14.23C158.121 14.7367 157.178 14.99 156.098 14.99C155.318 14.99 154.608 14.8567 153.968 14.59C153.335 14.3167 152.791 13.9333 152.338 13.44C151.891 12.9467 151.545 12.35 151.298 11.65C151.051 10.9433 150.928 10.1567 150.928 9.29C150.928 8.41667 151.048 7.63 151.288 6.93C151.528 6.22334 151.871 5.62334 152.318 5.13C152.765 4.63667 153.301 4.25667 153.928 3.99C154.555 3.72334 155.258 3.59 156.038 3.59C156.851 3.59 157.571 3.73 158.198 4.01C158.825 4.29 159.351 4.69334 159.778 5.22C160.205 5.74667 160.521 6.38667 160.728 7.14C160.941 7.89334 161.035 8.74667 161.008 9.7H152.498C152.531 10.3133 152.638 10.8633 152.818 11.35C152.998 11.83 153.241 12.2367 153.548 12.57C153.861 12.9033 154.231 13.16 154.658 13.34C155.091 13.5133 155.571 13.6 156.098 13.6ZM159.458 8.47C159.365 7.33 159.025 6.46 158.438 5.86C157.851 5.25334 157.051 4.95 156.038 4.95C155.031 4.95 154.225 5.25667 153.618 5.87C153.011 6.48334 152.648 7.35 152.528 8.47H159.458ZM167.497 14.69H163.217V3.89H167.387C168.66 3.89 169.624 4.13334 170.277 4.62C170.937 5.10667 171.267 5.83 171.267 6.79C171.267 7.39667 171.127 7.89 170.847 8.27C170.567 8.65 170.2 8.92667 169.747 9.1C170 9.17334 170.237 9.28667 170.457 9.44C170.684 9.59334 170.877 9.78334 171.037 10.01C171.204 10.2367 171.334 10.4933 171.427 10.78C171.527 11.0667 171.577 11.3767 171.577 11.71C171.577 12.69 171.23 13.4333 170.537 13.94C169.85 14.44 168.837 14.69 167.497 14.69ZM167.367 5.15H164.607V8.56H167.767C168.074 8.56 168.35 8.52667 168.597 8.46C168.85 8.39334 169.067 8.29334 169.247 8.16C169.427 8.02667 169.567 7.85667 169.667 7.65C169.767 7.44334 169.817 7.2 169.817 6.92C169.817 6.60667 169.77 6.34 169.677 6.12C169.59 5.89334 169.45 5.71 169.257 5.57C169.064 5.42334 168.81 5.31667 168.497 5.25C168.184 5.18334 167.807 5.15 167.367 5.15ZM167.467 13.43C168.36 13.43 169.027 13.29 169.467 13.01C169.907 12.73 170.127 12.2767 170.127 11.65C170.127 11.31 170.067 11.0233 169.947 10.79C169.834 10.5567 169.677 10.3667 169.477 10.22C169.277 10.0733 169.04 9.96667 168.767 9.9C168.494 9.83334 168.2 9.8 167.887 9.8H164.617V13.43H167.467ZM177.789 3.59C180.655 3.59 182.089 5.08667 182.089 8.08V14.69H180.629V12.87C180.242 13.5633 179.719 14.09 179.059 14.45C178.399 14.81 177.615 14.99 176.709 14.99C176.129 14.99 175.609 14.9167 175.149 14.77C174.689 14.63 174.299 14.4267 173.979 14.16C173.659 13.8867 173.412 13.5567 173.239 13.17C173.065 12.7833 172.979 12.3467 172.979 11.86C172.979 11.2933 173.082 10.81 173.289 10.41C173.502 10.0033 173.799 9.66667 174.179 9.4C174.565 9.12667 175.029 8.91 175.569 8.75C176.115 8.59 176.719 8.47 177.379 8.39L180.629 7.98C180.629 6.92 180.399 6.15 179.939 5.67C179.479 5.18334 178.755 4.94 177.769 4.94C176.142 4.94 175.145 5.61667 174.779 6.97L173.389 6.64C173.642 5.65334 174.145 4.9 174.899 4.38C175.659 3.85334 176.622 3.59 177.789 3.59ZM177.519 9.58C176.972 9.64667 176.502 9.74 176.109 9.86C175.722 9.98 175.402 10.13 175.149 10.31C174.902 10.4833 174.722 10.6933 174.609 10.94C174.495 11.18 174.439 11.46 174.439 11.78C174.439 13.0467 175.282 13.68 176.969 13.68C177.435 13.68 177.865 13.6167 178.259 13.49C178.652 13.3567 178.999 13.17 179.299 12.93C179.605 12.6833 179.859 12.3867 180.059 12.04C180.259 11.6933 180.402 11.3067 180.489 10.88C180.555 10.6067 180.595 10.32 180.609 10.02C180.622 9.71334 180.629 9.44 180.629 9.2L177.519 9.58ZM188.686 14.69V3.89H190.156V8.59H196.246V3.89H197.716V14.69H196.246V9.99H190.156V14.69H188.686ZM205.082 13.6C205.889 13.6 206.562 13.42 207.102 13.06C207.642 12.7 208.072 12.1867 208.392 11.52L209.782 12.03C209.349 12.9833 208.726 13.7167 207.912 14.23C207.106 14.7367 206.162 14.99 205.082 14.99C204.302 14.99 203.592 14.8567 202.952 14.59C202.319 14.3167 201.776 13.9333 201.322 13.44C200.876 12.9467 200.529 12.35 200.282 11.65C200.036 10.9433 199.912 10.1567 199.912 9.29C199.912 8.41667 200.032 7.63 200.272 6.93C200.512 6.22334 200.856 5.62334 201.302 5.13C201.749 4.63667 202.286 4.25667 202.912 3.99C203.539 3.72334 204.242 3.59 205.022 3.59C205.836 3.59 206.556 3.73 207.182 4.01C207.809 4.29 208.336 4.69334 208.762 5.22C209.189 5.74667 209.506 6.38667 209.712 7.14C209.926 7.89334 210.019 8.74667 209.992 9.7H201.482C201.516 10.3133 201.622 10.8633 201.802 11.35C201.982 11.83 202.226 12.2367 202.532 12.57C202.846 12.9033 203.216 13.16 203.642 13.34C204.076 13.5133 204.556 13.6 205.082 13.6ZM208.442 8.47C208.349 7.33 208.009 6.46 207.422 5.86C206.836 5.25334 206.036 4.95 205.022 4.95C204.016 4.95 203.209 5.25667 202.602 5.87C201.996 6.48334 201.632 7.35 201.512 8.47H208.442ZM220.485 14.69H216.205V3.89H220.375C221.649 3.89 222.612 4.13334 223.265 4.62C223.925 5.10667 224.255 5.83 224.255 6.79C224.255 7.39667 224.115 7.89 223.835 8.27C223.555 8.65 223.189 8.92667 222.735 9.1C222.989 9.17334 223.225 9.28667 223.445 9.44C223.672 9.59334 223.865 9.78334 224.025 10.01C224.192 10.2367 224.322 10.4933 224.415 10.78C224.515 11.0667 224.565 11.3767 224.565 11.71C224.565 12.69 224.219 13.4333 223.525 13.94C222.839 14.44 221.825 14.69 220.485 14.69ZM220.355 5.15H217.595V8.56H220.755C221.062 8.56 221.339 8.52667 221.585 8.46C221.839 8.39334 222.055 8.29334 222.235 8.16C222.415 8.02667 222.555 7.85667 222.655 7.65C222.755 7.44334 222.805 7.2 222.805 6.92C222.805 6.60667 222.759 6.34 222.665 6.12C222.579 5.89334 222.439 5.71 222.245 5.57C222.052 5.42334 221.799 5.31667 221.485 5.25C221.172 5.18334 220.795 5.15 220.355 5.15ZM220.455 13.43C221.349 13.43 222.015 13.29 222.455 13.01C222.895 12.73 223.115 12.2767 223.115 11.65C223.115 11.31 223.055 11.0233 222.935 10.79C222.822 10.5567 222.665 10.3667 222.465 10.22C222.265 10.0733 222.029 9.96667 221.755 9.9C221.482 9.83334 221.189 9.8 220.875 9.8H217.605V13.43H220.455ZM236.357 14.69V3.89H237.827V14.69H236.357ZM231.357 14.69H226.567V3.89H228.037V8H231.357C231.97 8 232.507 8.08334 232.967 8.25C233.434 8.41667 233.824 8.64667 234.137 8.94C234.45 9.23334 234.684 9.58667 234.837 10C234.997 10.4067 235.077 10.8533 235.077 11.34C235.077 11.8267 234.997 12.2767 234.837 12.69C234.684 13.0967 234.45 13.45 234.137 13.75C233.824 14.0433 233.434 14.2733 232.967 14.44C232.507 14.6067 231.97 14.69 231.357 14.69ZM231.197 13.41C231.604 13.41 231.957 13.36 232.257 13.26C232.564 13.1533 232.817 13.01 233.017 12.83C233.217 12.6433 233.364 12.4233 233.457 12.17C233.557 11.9167 233.607 11.64 233.607 11.34C233.607 11.04 233.557 10.7633 233.457 10.51C233.364 10.2567 233.217 10.04 233.017 9.86C232.817 9.68 232.564 9.54 232.257 9.44C231.957 9.33334 231.604 9.28 231.197 9.28H228.037V13.41H231.197ZM239.829 13.29H240.879C241.046 13.09 241.183 12.82 241.289 12.48C241.396 12.14 241.479 11.7433 241.539 11.29C241.606 10.8367 241.653 10.3333 241.679 9.78C241.706 9.22667 241.719 8.64 241.719 8.02V3.89H249.559V13.29H250.959V16.96H249.489V14.69H241.299V16.96H239.829V13.29ZM248.089 13.29V5.29H243.109V8.84C243.109 9.32667 243.093 9.79667 243.059 10.25C243.033 10.6967 242.989 11.1133 242.929 11.5C242.876 11.88 242.809 12.2233 242.729 12.53C242.656 12.8367 242.569 13.09 242.469 13.29H248.089ZM257.224 14.69H252.944V3.89H257.114C258.387 3.89 259.35 4.13334 260.004 4.62C260.664 5.10667 260.994 5.83 260.994 6.79C260.994 7.39667 260.854 7.89 260.574 8.27C260.294 8.65 259.927 8.92667 259.474 9.1C259.727 9.17334 259.964 9.28667 260.184 9.44C260.41 9.59334 260.604 9.78334 260.764 10.01C260.93 10.2367 261.06 10.4933 261.154 10.78C261.254 11.0667 261.304 11.3767 261.304 11.71C261.304 12.69 260.957 13.4333 260.264 13.94C259.577 14.44 258.564 14.69 257.224 14.69ZM257.094 5.15H254.334V8.56H257.494C257.8 8.56 258.077 8.52667 258.324 8.46C258.577 8.39334 258.794 8.29334 258.974 8.16C259.154 8.02667 259.294 7.85667 259.394 7.65C259.494 7.44334 259.544 7.2 259.544 6.92C259.544 6.60667 259.497 6.34 259.404 6.12C259.317 5.89334 259.177 5.71 258.984 5.57C258.79 5.42334 258.537 5.31667 258.224 5.25C257.91 5.18334 257.534 5.15 257.094 5.15ZM257.194 13.43C258.087 13.43 258.754 13.29 259.194 13.01C259.634 12.73 259.854 12.2767 259.854 11.65C259.854 11.31 259.794 11.0233 259.674 10.79C259.56 10.5567 259.404 10.3667 259.204 10.22C259.004 10.0733 258.767 9.96667 258.494 9.9C258.22 9.83334 257.927 9.8 257.614 9.8H254.344V13.43H257.194ZM271.885 3.89V14.69H270.415V6.22L264.765 14.69H263.295V3.89H264.765V12.36L270.415 3.89H271.885ZM274.682 14.69V3.89H276.152V8.59H282.242V3.89H283.712V14.69H282.242V9.99H276.152V14.69H274.682ZM288.048 19.49L289.828 14.67L285.438 3.89H286.998L290.538 12.77L293.818 3.89H295.318L289.518 19.49H288.048ZM299.955 14.69V5.29H296.155V3.89H305.225V5.29H301.425V14.69H299.955ZM311.913 14.69H307.123V3.89H308.583V8H311.913C312.527 8 313.063 8.08334 313.523 8.25C313.99 8.41667 314.377 8.64667 314.683 8.94C314.997 9.23334 315.23 9.58667 315.383 10C315.543 10.4067 315.623 10.8533 315.623 11.34C315.623 11.8267 315.543 12.2767 315.383 12.69C315.23 13.0967 314.997 13.45 314.683 13.75C314.377 14.0433 313.99 14.2733 313.523 14.44C313.063 14.6067 312.527 14.69 311.913 14.69ZM311.743 13.41C312.157 13.41 312.513 13.36 312.813 13.26C313.113 13.1533 313.363 13.01 313.563 12.83C313.763 12.6433 313.91 12.4233 314.003 12.17C314.103 11.9167 314.153 11.64 314.153 11.34C314.153 11.04 314.103 10.7633 314.003 10.51C313.91 10.2567 313.763 10.04 313.563 9.86C313.363 9.68 313.113 9.54 312.813 9.44C312.513 9.33334 312.157 9.28 311.743 9.28H308.583V13.41H311.743Z" fill="black"/>
</svg>
