<svg width="18" height="9" viewBox="0 0 18 9" fill="none" xmlns="http://www.w3.org/2000/svg">
<path d="M8.45468e-05 8.52701V0.11502H2.94099C3.52699 0.11502 4.01029 0.216336 4.39091 0.418969C4.77153 0.618863 5.05494 0.888583 5.24115 1.22813C5.42735 1.56494 5.52045 1.93871 5.52045 2.34945C5.52045 2.71091 5.4561 3.00938 5.3274 3.24487C5.20144 3.48036 5.03441 3.66657 4.8263 3.80348C4.62093 3.94039 4.39776 4.04171 4.15679 4.10743V4.18958C4.41419 4.20601 4.67295 4.29637 4.93309 4.46067C5.19323 4.62496 5.41092 4.86045 5.58617 5.16714C5.76142 5.47383 5.84904 5.84897 5.84904 6.29257C5.84904 6.71427 5.75321 7.09352 5.56153 7.43033C5.36985 7.76714 5.06727 8.03412 4.65379 8.23127C4.24031 8.42843 3.70224 8.52701 3.03957 8.52701H8.45468e-05ZM1.01872 7.62338H3.03957C3.70497 7.62338 4.17733 7.49468 4.45663 7.23728C4.73867 6.97714 4.87969 6.66224 4.87969 6.29257C4.87969 6.00779 4.80713 5.74492 4.662 5.50395C4.51687 5.26024 4.31013 5.06583 4.04178 4.9207C3.77343 4.77283 3.45579 4.6989 3.08886 4.6989H1.01872V7.62338ZM1.01872 3.81169H2.90814C3.21482 3.81169 3.49139 3.75145 3.73783 3.63097C3.98702 3.51048 4.18417 3.34071 4.3293 3.12165C4.47717 2.90259 4.5511 2.64519 4.5511 2.34945C4.5511 1.97979 4.4224 1.66625 4.165 1.40886C3.90761 1.14872 3.4996 1.01865 2.94099 1.01865H1.01872V3.81169ZM10.3329 8.64202C9.79077 8.64202 9.30746 8.54891 8.88303 8.36271C8.46133 8.17651 8.1259 7.91774 7.87671 7.58641C7.63027 7.25234 7.49609 6.86487 7.47419 6.42401H8.50925C8.53116 6.6951 8.62426 6.92922 8.78856 7.12638C8.95285 7.3208 9.16781 7.4714 9.43342 7.57819C9.69904 7.68499 9.9934 7.73838 10.3165 7.73838C10.678 7.73838 10.9983 7.6754 11.2777 7.54944C11.557 7.42348 11.776 7.24823 11.9348 7.02369C12.0937 6.79916 12.1731 6.53902 12.1731 6.24328C12.1731 5.93386 12.0964 5.6614 11.9431 5.42591C11.7897 5.18768 11.5652 5.00148 11.2694 4.8673C10.9737 4.73312 10.6123 4.66604 10.1851 4.66604H9.51146V3.76241H10.1851C10.5191 3.76241 10.8121 3.70216 11.0641 3.58168C11.3187 3.46119 11.5173 3.29142 11.6596 3.07236C11.8048 2.8533 11.8773 2.5959 11.8773 2.30016C11.8773 2.01538 11.8144 1.76757 11.6884 1.55672C11.5624 1.34588 11.3844 1.18158 11.1544 1.06383C10.9272 0.946087 10.6588 0.887214 10.3494 0.887214C10.0591 0.887214 9.78529 0.940611 9.52789 1.0474C9.27323 1.15146 9.06512 1.30343 8.90357 1.50333C8.74201 1.70048 8.65438 1.93871 8.64069 2.21802H7.65491C7.67134 1.77715 7.80415 1.39106 8.05333 1.05973C8.30251 0.725655 8.62837 0.465519 9.0309 0.279317C9.43616 0.0931136 9.88113 1.20966e-05 10.3658 1.20966e-05C10.8861 1.20966e-05 11.3324 0.105436 11.7048 0.316283C12.0772 0.524392 12.3634 0.799589 12.5633 1.14187C12.7632 1.48416 12.8631 1.85383 12.8631 2.25088C12.8631 2.7246 12.7385 3.12849 12.4893 3.46256C12.2429 3.79663 11.9075 4.02802 11.483 4.15672V4.22244C12.0142 4.31006 12.4291 4.53597 12.7276 4.90016C13.026 5.26161 13.1753 5.70932 13.1753 6.24328C13.1753 6.70058 13.0507 7.11132 12.8015 7.47551C12.5551 7.83696 12.2183 8.12174 11.7911 8.32985C11.3639 8.53796 10.8779 8.64202 10.3329 8.64202ZM17.9282 0.11502V8.52701H16.9096V1.18295H16.8603L14.8066 2.54661V1.51154L16.9096 0.11502H17.9282Z" fill="black"/>
</svg>
