<svg width="133" height="45" viewBox="0 0 133 45" fill="none" xmlns="http://www.w3.org/2000/svg">
<path d="M0 12C0 5.37258 5.37258 0 12 0H121C127.627 0 133 5.37258 133 12V45H0V12Z" fill="#D0FF00"/>
<path d="M30.568 26.984C30.568 27.888 30.4 28.676 30.064 29.348C29.736 30.02 29.276 30.58 28.684 31.028C28.1 31.476 27.408 31.808 26.608 32.024C25.808 32.248 24.936 32.36 23.992 32.36C23.128 32.36 22.308 32.256 21.532 32.048C20.756 31.848 20.056 31.532 19.432 31.1C18.808 30.668 18.272 30.116 17.824 29.444C17.384 28.772 17.068 27.972 16.876 27.044L19.48 26.648C19.632 27.184 19.832 27.66 20.08 28.076C20.328 28.492 20.636 28.844 21.004 29.132C21.372 29.412 21.804 29.628 22.3 29.78C22.804 29.924 23.384 29.996 24.04 29.996C24.584 29.996 25.092 29.936 25.564 29.816C26.036 29.688 26.444 29.504 26.788 29.264C27.14 29.016 27.416 28.712 27.616 28.352C27.816 27.984 27.916 27.56 27.916 27.08C27.916 26.632 27.836 26.24 27.676 25.904C27.516 25.568 27.292 25.288 27.004 25.064C26.724 24.832 26.392 24.66 26.008 24.548C25.632 24.436 25.224 24.38 24.784 24.38H21.736V21.992H24.616C25.088 21.992 25.5 21.924 25.852 21.788C26.204 21.652 26.496 21.468 26.728 21.236C26.96 20.996 27.132 20.72 27.244 20.408C27.364 20.096 27.424 19.764 27.424 19.412C27.424 18.956 27.328 18.564 27.136 18.236C26.944 17.9 26.684 17.624 26.356 17.408C26.036 17.184 25.66 17.02 25.228 16.916C24.804 16.804 24.352 16.748 23.872 16.748C22.76 16.748 21.872 17.016 21.208 17.552C20.544 18.088 20.096 18.868 19.864 19.892L17.176 19.436C17.384 18.548 17.696 17.784 18.112 17.144C18.528 16.504 19.028 15.98 19.612 15.572C20.196 15.156 20.852 14.852 21.58 14.66C22.308 14.468 23.092 14.372 23.932 14.372C24.804 14.372 25.608 14.48 26.344 14.696C27.088 14.904 27.732 15.224 28.276 15.656C28.82 16.08 29.244 16.608 29.548 17.24C29.86 17.872 30.016 18.608 30.016 19.448C30.016 19.88 29.96 20.288 29.848 20.672C29.744 21.048 29.596 21.396 29.404 21.716C29.22 22.036 29 22.32 28.744 22.568C28.488 22.808 28.208 23.004 27.904 23.156C28.248 23.26 28.58 23.432 28.9 23.672C29.22 23.904 29.504 24.188 29.752 24.524C30 24.86 30.196 25.24 30.34 25.664C30.492 26.08 30.568 26.52 30.568 26.984ZM38.2973 18.68C40.1053 18.68 41.4533 19.14 42.3413 20.06C43.2293 20.972 43.6733 22.372 43.6733 24.26V32H41.1533V30.104C40.2653 31.608 38.8133 32.36 36.7973 32.36C36.1253 32.36 35.5173 32.268 34.9733 32.084C34.4373 31.908 33.9773 31.652 33.5933 31.316C33.2173 30.98 32.9253 30.576 32.7173 30.104C32.5093 29.632 32.4053 29.104 32.4053 28.52C32.4053 27.872 32.5213 27.304 32.7533 26.816C32.9853 26.32 33.3213 25.9 33.7613 25.556C34.2093 25.204 34.7533 24.924 35.3933 24.716C36.0413 24.5 36.7733 24.34 37.5893 24.236L41.1533 23.792C41.1373 22.8 40.8893 22.076 40.4093 21.62C39.9373 21.156 39.2253 20.924 38.2733 20.924C37.4253 20.924 36.7493 21.088 36.2453 21.416C35.7493 21.736 35.3973 22.24 35.1893 22.928L32.8733 22.316C33.2093 21.132 33.8373 20.232 34.7573 19.616C35.6853 18.992 36.8653 18.68 38.2973 18.68ZM37.9013 26.096C36.8453 26.224 36.0773 26.468 35.5973 26.828C35.1173 27.18 34.8773 27.68 34.8773 28.328C34.8773 29.6 35.7093 30.236 37.3733 30.236C37.8213 30.236 38.2373 30.176 38.6213 30.056C39.0133 29.936 39.3613 29.768 39.6653 29.552C39.9693 29.328 40.2253 29.064 40.4333 28.76C40.6493 28.448 40.8093 28.108 40.9133 27.74C41.0333 27.428 41.1013 27.096 41.1173 26.744C41.1413 26.384 41.1533 26.06 41.1533 25.772V25.688L37.9013 26.096ZM46.7774 19.04H49.2854V25.28L54.3734 19.04H57.5654L52.1894 25.52L58.1174 32H54.7094L49.2854 25.748V32H46.7774V19.04ZM59.3284 37.76V19.04H61.8364V20.924C62.2444 20.22 62.7844 19.672 63.4564 19.28C64.1364 18.88 64.9844 18.68 66.0004 18.68C66.8724 18.68 67.6684 18.848 68.3884 19.184C69.1164 19.52 69.7364 19.992 70.2484 20.6C70.7684 21.2 71.1684 21.92 71.4484 22.76C71.7364 23.592 71.8804 24.508 71.8804 25.508C71.8804 26.524 71.7364 27.452 71.4484 28.292C71.1604 29.132 70.7564 29.856 70.2364 30.464C69.7244 31.064 69.1084 31.532 68.3884 31.868C67.6684 32.196 66.8724 32.36 66.0004 32.36C64.9844 32.36 64.1364 32.164 63.4564 31.772C62.7764 31.372 62.2364 30.82 61.8364 30.116V37.76H59.3284ZM65.5204 29.996C66.1364 29.996 66.6764 29.888 67.1404 29.672C67.6044 29.448 67.9884 29.14 68.2924 28.748C68.6044 28.348 68.8364 27.876 68.9884 27.332C69.1404 26.78 69.2164 26.172 69.2164 25.508C69.2164 24.828 69.1364 24.216 68.9764 23.672C68.8244 23.12 68.5924 22.652 68.2804 22.268C67.9764 21.876 67.5924 21.576 67.1284 21.368C66.6724 21.152 66.1364 21.044 65.5204 21.044C64.8884 21.044 64.3404 21.152 63.8764 21.368C63.4204 21.584 63.0404 21.892 62.7364 22.292C62.4324 22.684 62.2044 23.152 62.0524 23.696C61.9084 24.24 61.8364 24.844 61.8364 25.508C61.8364 26.188 61.9124 26.808 62.0644 27.368C62.2244 27.92 62.4564 28.392 62.7604 28.784C63.0724 29.168 63.4564 29.468 63.9124 29.684C64.3764 29.892 64.9124 29.996 65.5204 29.996ZM86.4919 32V19.04H88.9999V32H86.4919ZM80.3839 32H74.5159V19.04H77.0239V23.636H80.3839C81.1759 23.636 81.8639 23.744 82.4479 23.96C83.0399 24.176 83.5279 24.476 83.9119 24.86C84.3039 25.236 84.5959 25.68 84.7879 26.192C84.9799 26.696 85.0759 27.24 85.0759 27.824C85.0759 28.408 84.9799 28.956 84.7879 29.468C84.5959 29.972 84.3039 30.412 83.9119 30.788C83.5279 31.164 83.0399 31.46 82.4479 31.676C81.8639 31.892 81.1759 32 80.3839 32ZM80.0239 29.924C80.4639 29.924 80.8439 29.872 81.1639 29.768C81.4839 29.656 81.7439 29.508 81.9439 29.324C82.1519 29.14 82.3039 28.92 82.3999 28.664C82.5039 28.4 82.5559 28.12 82.5559 27.824C82.5559 27.52 82.5039 27.24 82.3999 26.984C82.3039 26.728 82.1519 26.508 81.9439 26.324C81.7439 26.132 81.4839 25.984 81.1639 25.88C80.8439 25.768 80.4639 25.712 80.0239 25.712H77.0239V29.924H80.0239ZM95.6159 32V21.392H91.2719V19.04H102.468V21.392H98.1239V32H95.6159ZM110.606 32H104.738V19.04H107.258V23.636H110.606C111.398 23.636 112.09 23.744 112.682 23.96C113.274 24.176 113.762 24.476 114.146 24.86C114.538 25.236 114.83 25.68 115.022 26.192C115.214 26.696 115.31 27.24 115.31 27.824C115.31 28.408 115.214 28.956 115.022 29.468C114.83 29.972 114.538 30.412 114.146 30.788C113.762 31.164 113.274 31.46 112.682 31.676C112.09 31.892 111.398 32 110.606 32ZM110.258 29.924C110.698 29.924 111.074 29.872 111.386 29.768C111.706 29.656 111.97 29.508 112.178 29.324C112.386 29.14 112.538 28.92 112.634 28.664C112.738 28.4 112.79 28.12 112.79 27.824C112.79 27.52 112.738 27.24 112.634 26.984C112.538 26.728 112.386 26.508 112.178 26.324C111.97 26.132 111.706 25.984 111.386 25.88C111.074 25.768 110.698 25.712 110.258 25.712H107.258V29.924H110.258Z" fill="black"/>
</svg>
