<svg width="176" height="926" viewBox="0 0 176 926" fill="none" xmlns="http://www.w3.org/2000/svg">
<rect width="176" height="925.75" fill="#202833"/>
<circle cx="38" cy="85.4639" r="11.5" fill="#FFDA00" stroke="#FFDA00" stroke-width="5"/>
<circle cx="95" cy="85.4639" r="11.5" fill="#350F0F" stroke="#581717" stroke-width="5"/>
<circle cx="39" cy="181.464" r="11.5" fill="#FFDA00" stroke="#FFDA00" stroke-width="5"/>
<circle cx="96" cy="181.464" r="11.5" fill="#350F0F" stroke="#581717" stroke-width="5"/>
<circle cx="39" cy="229.464" r="11.5" fill="#FFDA00" stroke="#FFDA00" stroke-width="5"/>
<circle cx="96" cy="229.464" r="11.5" fill="#350F0F" stroke="#581717" stroke-width="5"/>
<circle cx="39" cy="277.464" r="11.5" fill="#584F17" stroke="#9A8818" stroke-width="5"/>
<circle cx="96" cy="277.464" r="11.5" fill="#350F0F" stroke="#581717" stroke-width="5"/>
<circle cx="39" cy="325.464" r="11.5" fill="#584F17" stroke="#9A8818" stroke-width="5"/>
<circle cx="96" cy="325.464" r="11.5" fill="#350F0F" stroke="#581717" stroke-width="5"/>
<circle cx="96" cy="373.464" r="14" fill="#FF0000"/>
<circle cx="39" cy="373.464" r="11.5" fill="#FFDA00" stroke="#FFDA00" stroke-width="5"/>
<circle cx="39" cy="421.464" r="11.5" fill="#FFDA00" stroke="#FFDA00" stroke-width="5"/>
<circle cx="96" cy="421.464" r="11.5" fill="#350F0F" stroke="#581717" stroke-width="5"/>
<circle cx="39" cy="469.464" r="11.5" fill="#FFDA00" stroke="#FFDA00" stroke-width="5"/>
<circle cx="96" cy="469.464" r="11.5" fill="#350F0F" stroke="#581717" stroke-width="5"/>
<circle cx="39" cy="517.464" r="11.5" fill="#FFDA00" stroke="#FFDA00" stroke-width="5"/>
<circle cx="96" cy="517.464" r="11.5" fill="#350F0F" stroke="#581717" stroke-width="5"/>
<circle cx="39" cy="565.464" r="11.5" fill="#FFDA00" stroke="#FFDA00" stroke-width="5"/>
<circle cx="96" cy="565.464" r="11.5" fill="#350F0F" stroke="#581717" stroke-width="5"/>
<circle cx="39" cy="613.464" r="11.5" fill="#FFDA00" stroke="#FFDA00" stroke-width="5"/>
<circle cx="96" cy="613.464" r="11.5" fill="#350F0F" stroke="#581717" stroke-width="5"/>
<circle cx="39" cy="661.464" r="11.5" fill="#FFDA00" stroke="#FFDA00" stroke-width="5"/>
<circle cx="96" cy="661.464" r="11.5" fill="#350F0F" stroke="#581717" stroke-width="5"/>
<circle cx="39" cy="709.464" r="11.5" fill="#FFDA00" stroke="#FFDA00" stroke-width="5"/>
<circle cx="96" cy="709.464" r="11.5" fill="#350F0F" stroke="#581717" stroke-width="5"/>
<circle cx="38" cy="757.464" r="11.5" fill="#584F17" stroke="#9A8818" stroke-width="5"/>
<circle cx="95" cy="757.464" r="11.5" fill="#350F0F" stroke="#581717" stroke-width="5"/>
<circle cx="39" cy="799.464" r="11.5" fill="#584F17" stroke="#9A8818" stroke-width="5"/>
<circle cx="96" cy="801.464" r="11.5" fill="#350F0F" stroke="#581717" stroke-width="5"/>
<circle cx="38" cy="133.464" r="11.5" fill="#FFDA00" stroke="#FFDA00" stroke-width="5"/>
<circle cx="95" cy="133.464" r="11.5" fill="#350F0F" stroke="#581717" stroke-width="5"/>
<path d="M142.424 98.9439C140.984 98.9439 139.693 98.6773 138.552 98.1439C137.411 97.6106 136.445 96.8373 135.656 95.8239C134.877 94.7999 134.28 93.5466 133.864 92.0639C133.448 90.5706 133.24 88.8639 133.24 86.9439C133.24 85.0239 133.448 83.3226 133.864 81.8399C134.28 80.3466 134.877 79.0933 135.656 78.0799C136.445 77.0559 137.411 76.2773 138.552 75.7439C139.693 75.2106 140.984 74.9439 142.424 74.9439C143.875 74.9439 145.165 75.2106 146.296 75.7439C147.437 76.2773 148.403 77.0559 149.192 78.0799C149.981 79.0933 150.584 80.3466 151 81.8399C151.416 83.3226 151.624 85.0239 151.624 86.9439C151.624 88.8639 151.416 90.5706 151 92.0639C150.584 93.5466 149.981 94.7999 149.192 95.8239C148.403 96.8373 147.437 97.6106 146.296 98.1439C145.165 98.6773 143.875 98.9439 142.424 98.9439ZM142.424 95.7599C143.341 95.7599 144.147 95.5626 144.84 95.1679C145.544 94.7733 146.136 94.1973 146.616 93.4399C147.096 92.6826 147.459 91.7599 147.704 90.6719C147.949 89.5733 148.072 88.3306 148.072 86.9439C148.072 85.5466 147.949 84.3039 147.704 83.2159C147.459 82.1279 147.096 81.2053 146.616 80.4479C146.136 79.6906 145.544 79.1146 144.84 78.7199C144.147 78.3253 143.341 78.1279 142.424 78.1279C141.517 78.1279 140.712 78.3253 140.008 78.7199C139.315 79.1146 138.728 79.6906 138.248 80.4479C137.768 81.1946 137.405 82.1173 137.16 83.2159C136.915 84.3039 136.792 85.5466 136.792 86.9439C136.792 88.3306 136.915 89.5733 137.16 90.6719C137.405 91.7599 137.763 92.6826 138.232 93.4399C138.712 94.1866 139.304 94.7626 140.008 95.1679C140.712 95.5626 141.517 95.7599 142.424 95.7599Z" fill="white"/>
<path d="M134.984 191.28L144.728 182.432C145.208 181.995 145.619 181.584 145.96 181.2C146.301 180.805 146.579 180.421 146.792 180.048C147.016 179.675 147.176 179.301 147.272 178.928C147.379 178.544 147.432 178.144 147.432 177.728C147.432 177.12 147.32 176.592 147.096 176.144C146.883 175.685 146.579 175.312 146.184 175.024C145.8 174.725 145.347 174.501 144.824 174.352C144.301 174.203 143.736 174.128 143.128 174.128C141.784 174.128 140.68 174.501 139.816 175.248C138.952 175.984 138.403 177.008 138.168 178.32L134.6 177.712C134.824 176.656 135.181 175.712 135.672 174.88C136.173 174.037 136.787 173.328 137.512 172.752C138.248 172.165 139.085 171.723 140.024 171.424C140.963 171.115 141.987 170.96 143.096 170.96C144.195 170.96 145.224 171.099 146.184 171.376C147.144 171.653 147.976 172.075 148.68 172.64C149.395 173.205 149.955 173.915 150.36 174.768C150.765 175.621 150.957 176.624 150.936 177.776C150.925 178.48 150.819 179.152 150.616 179.792C150.424 180.432 150.168 181.035 149.848 181.6C149.539 182.155 149.187 182.672 148.792 183.152C148.397 183.621 147.997 184.043 147.592 184.416L140.024 191.28H150.952V194.464H134.984V191.28Z" fill="white"/>
<path d="M141.81 146.464V127.312L137.49 129.904L135.826 127.008L141.81 123.424H145.17V146.464H141.81Z" fill="white"/>
<path d="M150.624 235.408C150.624 236.581 150.416 237.637 150 238.576C149.584 239.504 149.003 240.293 148.256 240.944C147.52 241.584 146.64 242.08 145.616 242.432C144.592 242.773 143.467 242.944 142.24 242.944C141.141 242.944 140.101 242.805 139.12 242.528C138.149 242.261 137.269 241.84 136.48 241.264C135.701 240.688 135.035 239.952 134.48 239.056C133.925 238.16 133.525 237.093 133.28 235.856L136.736 235.328C136.907 236.043 137.136 236.677 137.424 237.232C137.712 237.787 138.08 238.256 138.528 238.64C138.976 239.013 139.509 239.301 140.128 239.504C140.747 239.696 141.472 239.792 142.304 239.792C143.029 239.792 143.685 239.68 144.272 239.456C144.869 239.232 145.376 238.928 145.792 238.544C146.219 238.16 146.544 237.712 146.768 237.2C147.003 236.677 147.12 236.123 147.12 235.536C147.12 234.203 146.693 233.2 145.84 232.528C144.997 231.845 143.797 231.504 142.24 231.504H139.728V228.752L145.584 222.576H134.576V219.424H149.712V222.576L143.712 228.8C145.963 228.981 147.675 229.621 148.848 230.72C150.032 231.819 150.624 233.381 150.624 235.408Z" fill="white"/>
<path d="M145.152 291.464V287.224H133.6V284.072L141.2 268.424H144.896L137.296 284.072H145.152V276.584H148.512V284.072H150.768V287.224H148.512V291.464H145.152Z" fill="white"/>
<path d="M150.944 332.408C150.944 333.581 150.736 334.637 150.32 335.576C149.904 336.504 149.323 337.293 148.576 337.944C147.84 338.584 146.96 339.08 145.936 339.432C144.912 339.773 143.787 339.944 142.56 339.944C141.461 339.944 140.421 339.805 139.44 339.528C138.469 339.261 137.589 338.84 136.8 338.264C136.021 337.688 135.355 336.952 134.8 336.056C134.245 335.16 133.845 334.093 133.6 332.856L137.056 332.328C137.227 333.043 137.456 333.677 137.744 334.232C138.032 334.787 138.4 335.256 138.848 335.64C139.296 336.013 139.829 336.301 140.448 336.504C141.067 336.696 141.792 336.792 142.624 336.792C143.349 336.792 144.005 336.68 144.592 336.456C145.189 336.232 145.696 335.928 146.112 335.544C146.539 335.16 146.864 334.712 147.088 334.2C147.323 333.677 147.44 333.123 147.44 332.536C147.44 331.203 147.013 330.2 146.16 329.528C145.317 328.845 144.117 328.504 142.56 328.504H135.216L135.968 316.424H149.392V319.576H139.136L138.768 325.32H142.624C143.968 325.32 145.157 325.485 146.192 325.816C147.227 326.136 148.096 326.6 148.8 327.208C149.504 327.816 150.037 328.557 150.4 329.432C150.763 330.307 150.944 331.299 150.944 332.408Z" fill="white"/>
<path d="M141.656 386.944C138.701 386.944 136.504 386.059 135.064 384.288C133.635 382.517 132.888 379.803 132.824 376.144C132.749 371.707 133.437 368.4 134.888 366.224C136.339 364.037 138.616 362.944 141.72 362.944C144.035 362.944 145.901 363.488 147.32 364.576C148.749 365.653 149.72 367.248 150.232 369.36L146.824 369.92C146.472 368.587 145.891 367.616 145.08 367.008C144.269 366.4 143.16 366.096 141.752 366.096C139.907 366.096 138.52 366.725 137.592 367.984C136.675 369.232 136.189 371.147 136.136 373.728L136.12 374.528C136.408 374.048 136.765 373.632 137.192 373.28C137.629 372.928 138.115 372.64 138.648 372.416C139.192 372.192 139.768 372.027 140.376 371.92C140.995 371.803 141.635 371.744 142.296 371.744C143.437 371.744 144.493 371.899 145.464 372.208C146.445 372.517 147.293 372.987 148.008 373.616C148.723 374.235 149.283 375.019 149.688 375.968C150.104 376.907 150.312 378.016 150.312 379.296C150.312 380.565 150.083 381.68 149.624 382.64C149.176 383.589 148.557 384.384 147.768 385.024C146.989 385.664 146.072 386.144 145.016 386.464C143.971 386.784 142.851 386.944 141.656 386.944ZM141.656 383.792C142.467 383.792 143.187 383.691 143.816 383.488C144.445 383.285 144.979 382.992 145.416 382.608C145.853 382.224 146.184 381.76 146.408 381.216C146.643 380.672 146.76 380.064 146.76 379.392C146.76 378.72 146.643 378.117 146.408 377.584C146.184 377.04 145.853 376.576 145.416 376.192C144.979 375.808 144.445 375.515 143.816 375.312C143.187 375.109 142.467 375.008 141.656 375.008C140.845 375.008 140.125 375.109 139.496 375.312C138.867 375.515 138.333 375.808 137.896 376.192C137.459 376.576 137.123 377.04 136.888 377.584C136.664 378.117 136.552 378.72 136.552 379.392C136.552 380.064 136.664 380.672 136.888 381.216C137.123 381.76 137.459 382.224 137.896 382.608C138.333 382.992 138.867 383.285 139.496 383.488C140.125 383.691 140.845 383.792 141.656 383.792Z" fill="white"/>
<path d="M136.152 434.464L145.432 414.592H134.28V411.424H149.096V414.592L139.848 434.464H136.152Z" fill="white"/>
<path d="M142.368 458.96C143.509 458.96 144.555 459.109 145.504 459.408C146.453 459.696 147.269 460.128 147.952 460.704C148.635 461.269 149.168 461.973 149.552 462.816C149.936 463.659 150.128 464.629 150.128 465.728C150.128 466.261 150.064 466.779 149.936 467.28C149.808 467.781 149.616 468.245 149.36 468.672C149.115 469.099 148.805 469.477 148.432 469.808C148.069 470.139 147.653 470.405 147.184 470.608C147.717 470.768 148.203 471.019 148.64 471.36C149.088 471.701 149.472 472.101 149.792 472.56C150.123 473.019 150.379 473.525 150.56 474.08C150.741 474.635 150.832 475.2 150.832 475.776C150.832 476.939 150.624 477.968 150.208 478.864C149.792 479.749 149.205 480.496 148.448 481.104C147.701 481.712 146.811 482.171 145.776 482.48C144.741 482.789 143.605 482.944 142.368 482.944C141.141 482.944 140.011 482.789 138.976 482.48C137.941 482.171 137.045 481.712 136.288 481.104C135.541 480.496 134.96 479.749 134.544 478.864C134.128 477.968 133.92 476.939 133.92 475.776C133.92 475.2 134.011 474.635 134.192 474.08C134.373 473.525 134.624 473.019 134.944 472.56C135.264 472.101 135.648 471.701 136.096 471.36C136.544 471.019 137.035 470.768 137.568 470.608C137.088 470.416 136.661 470.155 136.288 469.824C135.925 469.483 135.616 469.099 135.36 468.672C135.115 468.245 134.928 467.781 134.8 467.28C134.672 466.779 134.608 466.261 134.608 465.728C134.608 464.629 134.8 463.659 135.184 462.816C135.568 461.973 136.101 461.269 136.784 460.704C137.477 460.128 138.299 459.696 139.248 459.408C140.197 459.109 141.237 458.96 142.368 458.96ZM142.368 469.12C143.115 469.12 143.76 469.029 144.304 468.848C144.848 468.656 145.296 468.405 145.648 468.096C146.011 467.776 146.277 467.408 146.448 466.992C146.619 466.576 146.704 466.139 146.704 465.68C146.704 465.115 146.597 464.613 146.384 464.176C146.171 463.739 145.872 463.371 145.488 463.072C145.115 462.763 144.661 462.528 144.128 462.368C143.595 462.208 143.008 462.128 142.368 462.128C141.728 462.128 141.141 462.208 140.608 462.368C140.085 462.528 139.632 462.763 139.248 463.072C138.875 463.371 138.581 463.739 138.368 464.176C138.165 464.613 138.064 465.115 138.064 465.68C138.064 466.139 138.149 466.576 138.32 466.992C138.491 467.408 138.752 467.776 139.104 468.096C139.456 468.405 139.899 468.656 140.432 468.848C140.976 469.029 141.621 469.12 142.368 469.12ZM142.368 472.304C140.768 472.304 139.541 472.619 138.688 473.248C137.845 473.867 137.424 474.752 137.424 475.904C137.424 476.491 137.531 477.024 137.744 477.504C137.968 477.984 138.293 478.395 138.72 478.736C139.147 479.077 139.664 479.339 140.272 479.52C140.891 479.701 141.589 479.792 142.368 479.792C143.157 479.792 143.856 479.701 144.464 479.52C145.083 479.339 145.6 479.077 146.016 478.736C146.443 478.395 146.768 477.984 146.992 477.504C147.216 477.024 147.328 476.491 147.328 475.904C147.328 474.752 146.901 473.867 146.048 473.248C145.205 472.619 143.979 472.304 142.368 472.304Z" fill="white"/>
<path d="M141.96 506.96C144.915 506.96 147.107 507.845 148.536 509.616C149.976 511.387 150.728 514.101 150.792 517.76C150.867 522.197 150.179 525.509 148.728 527.696C147.277 529.872 145 530.96 141.896 530.96C139.581 530.96 137.709 530.421 136.28 529.344C134.861 528.256 133.896 526.656 133.384 524.544L136.792 523.984C137.144 525.317 137.725 526.288 138.536 526.896C139.347 527.504 140.456 527.808 141.864 527.808C143.709 527.808 145.091 527.184 146.008 525.936C146.936 524.677 147.427 522.757 147.48 520.176L147.496 519.376C147.208 519.856 146.845 520.272 146.408 520.624C145.981 520.976 145.496 521.264 144.952 521.488C144.419 521.712 143.843 521.883 143.224 522C142.616 522.107 141.981 522.16 141.32 522.16C140.179 522.16 139.117 522.005 138.136 521.696C137.165 521.387 136.323 520.923 135.608 520.304C134.893 519.675 134.328 518.891 133.912 517.952C133.507 517.003 133.304 515.888 133.304 514.608C133.304 513.339 133.528 512.229 133.976 511.28C134.435 510.32 135.053 509.52 135.832 508.88C136.621 508.24 137.539 507.76 138.584 507.44C139.64 507.12 140.765 506.96 141.96 506.96ZM141.96 510.112C141.149 510.112 140.429 510.213 139.8 510.416C139.171 510.619 138.637 510.912 138.2 511.296C137.763 511.68 137.427 512.144 137.192 512.688C136.968 513.232 136.856 513.84 136.856 514.512C136.856 515.184 136.968 515.792 137.192 516.336C137.427 516.869 137.763 517.328 138.2 517.712C138.637 518.096 139.171 518.389 139.8 518.592C140.429 518.795 141.149 518.896 141.96 518.896C142.771 518.896 143.491 518.795 144.12 518.592C144.749 518.389 145.283 518.096 145.72 517.712C146.157 517.328 146.488 516.869 146.712 516.336C146.947 515.792 147.064 515.184 147.064 514.512C147.064 513.84 146.947 513.232 146.712 512.688C146.488 512.144 146.157 511.68 145.72 511.296C145.283 510.912 144.749 510.619 144.12 510.416C143.491 510.213 142.771 510.112 141.96 510.112Z" fill="white"/>
<path d="M152.512 579.464H148.976L147.232 574.264H137.84L136.112 579.464H132.56L140.336 556.424H144.736L152.512 579.464ZM146.192 571.128L142.528 560.184L138.88 571.128H146.192Z" fill="white"/>
<path d="M142.848 627.464H134.24V604.424H142.608C143.696 604.424 144.704 604.547 145.632 604.792C146.56 605.037 147.365 605.411 148.048 605.912C148.731 606.403 149.264 607.027 149.648 607.784C150.043 608.541 150.24 609.427 150.24 610.44C150.24 611.176 150.139 611.832 149.936 612.408C149.733 612.973 149.467 613.469 149.136 613.896C148.816 614.312 148.448 614.659 148.032 614.936C147.627 615.203 147.221 615.4 146.816 615.528C147.296 615.613 147.781 615.795 148.272 616.072C148.763 616.349 149.205 616.717 149.6 617.176C150.005 617.635 150.336 618.189 150.592 618.84C150.848 619.491 150.976 620.232 150.976 621.064C150.976 622.184 150.763 623.149 150.336 623.96C149.92 624.771 149.344 625.437 148.608 625.96C147.883 626.472 147.024 626.851 146.032 627.096C145.051 627.341 143.989 627.464 142.848 627.464ZM142.672 607.576H137.616V614.04H142.992C143.536 614.04 144.037 613.981 144.496 613.864C144.965 613.747 145.371 613.56 145.712 613.304C146.053 613.037 146.32 612.696 146.512 612.28C146.715 611.864 146.816 611.357 146.816 610.76C146.816 610.163 146.709 609.661 146.496 609.256C146.293 608.851 146.005 608.525 145.632 608.28C145.269 608.035 144.832 607.859 144.32 607.752C143.819 607.635 143.269 607.576 142.672 607.576ZM142.848 624.312C143.488 624.312 144.096 624.259 144.672 624.152C145.248 624.045 145.749 623.859 146.176 623.592C146.613 623.325 146.96 622.957 147.216 622.488C147.472 622.019 147.6 621.427 147.6 620.712C147.6 620.019 147.472 619.448 147.216 619C146.971 618.541 146.635 618.173 146.208 617.896C145.792 617.619 145.312 617.427 144.768 617.32C144.224 617.203 143.664 617.144 143.088 617.144H137.616V624.312H142.848Z" fill="white"/>
<path d="M134.24 770.464V747.424H148.976V750.576H137.616V757.04H147.056V760.192H137.616V767.312H148.976V770.464H134.24Z" fill="white"/>
<path d="M135.24 813.464V790.424H149.4V793.576H138.616V800.968H147.416V804.12H138.616V813.464H135.24Z" fill="white"/>
<rect x="18" y="15.4639" width="42" height="42" rx="21" stroke="white" stroke-width="2"/>
<path d="M38.904 48.4639V29.3119L34.584 31.9039L32.92 29.0079L38.904 25.4239H42.264V48.4639H38.904Z" fill="white"/>
<rect x="75" y="15.4639" width="42" height="42" rx="21" stroke="white" stroke-width="2"/>
<path d="M95.924 48.9439C94.484 48.9439 93.1933 48.6773 92.052 48.1439C90.9107 47.6106 89.9453 46.8373 89.156 45.8239C88.3773 44.7999 87.78 43.5466 87.364 42.0639C86.948 40.5706 86.74 38.8639 86.74 36.9439C86.74 35.0239 86.948 33.3226 87.364 31.8399C87.78 30.3466 88.3773 29.0933 89.156 28.0799C89.9453 27.0559 90.9107 26.2773 92.052 25.7439C93.1933 25.2106 94.484 24.9439 95.924 24.9439C97.3747 24.9439 98.6653 25.2106 99.796 25.7439C100.937 26.2773 101.903 27.0559 102.692 28.0799C103.481 29.0933 104.084 30.3466 104.5 31.8399C104.916 33.3226 105.124 35.0239 105.124 36.9439C105.124 38.8639 104.916 40.5706 104.5 42.0639C104.084 43.5466 103.481 44.7999 102.692 45.8239C101.903 46.8373 100.937 47.6106 99.796 48.1439C98.6653 48.6773 97.3747 48.9439 95.924 48.9439ZM95.924 45.7599C96.8413 45.7599 97.6467 45.5626 98.34 45.1679C99.044 44.7733 99.636 44.1973 100.116 43.4399C100.596 42.6826 100.959 41.7599 101.204 40.6719C101.449 39.5733 101.572 38.3306 101.572 36.9439C101.572 35.5466 101.449 34.3039 101.204 33.2159C100.959 32.1279 100.596 31.2053 100.116 30.4479C99.636 29.6906 99.044 29.1146 98.34 28.7199C97.6467 28.3253 96.8413 28.1279 95.924 28.1279C95.0173 28.1279 94.212 28.3253 93.508 28.7199C92.8147 29.1146 92.228 29.6906 91.748 30.4479C91.268 31.1946 90.9053 32.1173 90.66 33.2159C90.4147 34.3039 90.292 35.5466 90.292 36.9439C90.292 38.3306 90.4147 39.5733 90.66 40.6719C90.9053 41.7599 91.2627 42.6826 91.732 43.4399C92.212 44.1866 92.804 44.7626 93.508 45.1679C94.212 45.5626 95.0173 45.7599 95.924 45.7599Z" fill="white"/>
<rect y="823.464" width="176" height="101.75" fill="black"/>
<path d="M66.224 889.816C65.3707 890.499 64.3893 891.027 63.28 891.4C62.1707 891.763 60.9333 891.944 59.568 891.944C57.8507 891.944 56.3307 891.651 55.008 891.064C53.6853 890.477 52.576 889.656 51.68 888.6C50.784 887.544 50.1067 886.28 49.648 884.808C49.1893 883.336 48.96 881.715 48.96 879.944C48.96 878.173 49.1893 876.552 49.648 875.08C50.1067 873.608 50.784 872.344 51.68 871.288C52.576 870.232 53.6853 869.411 55.008 868.824C56.3307 868.237 57.8507 867.944 59.568 867.944C61.296 867.944 62.8213 868.237 64.144 868.824C65.4667 869.411 66.576 870.232 67.472 871.288C68.368 872.344 69.0453 873.608 69.504 875.08C69.9627 876.552 70.192 878.173 70.192 879.944C70.192 881.619 69.9893 883.155 69.584 884.552C69.1787 885.939 68.5813 887.155 67.792 888.2L69.904 890.328L68.336 891.928L66.224 889.816ZM59.568 889.688C60.592 889.688 61.5147 889.555 62.336 889.288C63.1573 889.021 63.888 888.632 64.528 888.12L60.816 884.424L62.416 882.824L66.032 886.456C66.5867 885.613 67.0027 884.643 67.28 883.544C67.5573 882.445 67.696 881.245 67.696 879.944C67.696 878.504 67.5253 877.187 67.184 875.992C66.8427 874.797 66.3307 873.773 65.648 872.92C64.976 872.056 64.1333 871.389 63.12 870.92C62.1067 870.44 60.9227 870.2 59.568 870.2C58.2133 870.2 57.0293 870.44 56.016 870.92C55.0133 871.389 54.176 872.056 53.504 872.92C52.832 873.773 52.3253 874.797 51.984 875.992C51.6427 877.187 51.4667 878.504 51.456 879.944C51.4453 881.384 51.6053 882.701 51.936 883.896C52.2773 885.091 52.784 886.12 53.456 886.984C54.1387 887.837 54.9867 888.504 56 888.984C57.024 889.453 58.2133 889.688 59.568 889.688ZM73.7163 891.464V868.424H76.0683V889.208H87.0123V891.464H73.7163ZM103.065 891.944C101.582 891.944 100.291 891.731 99.1925 891.304C98.1045 890.867 97.2032 890.205 96.4885 889.32C95.7845 888.435 95.2565 887.309 94.9045 885.944C94.5525 884.568 94.3658 882.947 94.3445 881.08C94.3232 878.84 94.4778 876.899 94.8085 875.256C95.1498 873.603 95.6778 872.237 96.3925 871.16C97.1072 870.072 98.0138 869.267 99.1125 868.744C100.211 868.211 101.513 867.944 103.017 867.944C105.289 867.944 107.118 868.488 108.505 869.576C109.902 870.664 110.825 872.275 111.273 874.408L108.921 874.808C108.558 873.219 107.897 872.056 106.937 871.32C105.977 870.573 104.649 870.2 102.953 870.2C100.894 870.2 99.3525 870.941 98.3285 872.424C97.3152 873.907 96.7712 876.205 96.6965 879.32L96.6805 880.056C96.9472 879.523 97.3045 879.053 97.7525 878.648C98.2005 878.232 98.7125 877.885 99.2885 877.608C99.8752 877.32 100.515 877.107 101.209 876.968C101.902 876.819 102.627 876.744 103.385 876.744C104.59 876.744 105.689 876.909 106.681 877.24C107.683 877.571 108.542 878.056 109.257 878.696C109.971 879.336 110.526 880.125 110.921 881.064C111.326 882.003 111.529 883.085 111.529 884.312C111.529 885.539 111.315 886.627 110.889 887.576C110.473 888.515 109.891 889.309 109.145 889.96C108.398 890.611 107.507 891.107 106.473 891.448C105.438 891.779 104.302 891.944 103.065 891.944ZM103.065 889.688C104.003 889.688 104.841 889.565 105.577 889.32C106.323 889.075 106.953 888.723 107.465 888.264C107.977 887.805 108.366 887.251 108.633 886.6C108.899 885.939 109.033 885.197 109.033 884.376C109.033 883.555 108.894 882.813 108.617 882.152C108.35 881.491 107.961 880.931 107.449 880.472C106.937 880.013 106.313 879.661 105.577 879.416C104.841 879.171 104.003 879.048 103.065 879.048C102.126 879.048 101.289 879.171 100.553 879.416C99.8165 879.661 99.1925 880.013 98.6805 880.472C98.1685 880.931 97.7792 881.491 97.5125 882.152C97.2458 882.813 97.1125 883.555 97.1125 884.376C97.1125 885.197 97.2458 885.939 97.5125 886.6C97.7792 887.251 98.1685 887.805 98.6805 888.264C99.1925 888.723 99.8165 889.075 100.553 889.32C101.289 889.565 102.126 889.688 103.065 889.688ZM125.349 891.944C123.632 891.944 122.112 891.651 120.789 891.064C119.467 890.477 118.357 889.656 117.461 888.6C116.565 887.544 115.888 886.28 115.429 884.808C114.971 883.336 114.741 881.715 114.741 879.944C114.741 878.173 114.971 876.552 115.429 875.08C115.888 873.608 116.565 872.344 117.461 871.288C118.357 870.232 119.467 869.411 120.789 868.824C122.112 868.237 123.632 867.944 125.349 867.944C126.683 867.944 127.899 868.125 128.997 868.488C130.096 868.84 131.067 869.347 131.909 870.008C132.752 870.659 133.461 871.453 134.037 872.392C134.624 873.32 135.077 874.36 135.397 875.512L132.997 876.136C132.752 875.229 132.411 874.413 131.973 873.688C131.536 872.952 130.997 872.328 130.357 871.816C129.717 871.293 128.981 870.893 128.149 870.616C127.317 870.339 126.384 870.2 125.349 870.2C124.016 870.2 122.843 870.44 121.829 870.92C120.816 871.389 119.968 872.056 119.285 872.92C118.603 873.773 118.085 874.797 117.733 875.992C117.392 877.187 117.221 878.504 117.221 879.944C117.221 881.384 117.392 882.701 117.733 883.896C118.075 885.091 118.581 886.12 119.253 886.984C119.936 887.837 120.784 888.504 121.797 888.984C122.811 889.453 123.995 889.688 125.349 889.688C126.384 889.688 127.317 889.549 128.149 889.272C128.981 888.995 129.717 888.6 130.357 888.088C130.997 887.565 131.536 886.941 131.973 886.216C132.411 885.48 132.752 884.659 132.997 883.752L135.397 884.376C135.077 885.528 134.624 886.573 134.037 887.512C133.461 888.44 132.752 889.235 131.909 889.896C131.067 890.547 130.096 891.053 128.997 891.416C127.899 891.768 126.683 891.944 125.349 891.944Z" fill="white"/>
<path d="M142.356 674.944C140.628 674.944 139.087 674.656 137.732 674.08C136.388 673.493 135.247 672.672 134.308 671.616C133.38 670.56 132.671 669.296 132.18 667.824C131.7 666.352 131.46 664.725 131.46 662.944C131.46 661.163 131.7 659.536 132.18 658.064C132.671 656.592 133.38 655.328 134.308 654.272C135.247 653.216 136.388 652.4 137.732 651.824C139.087 651.237 140.628 650.944 142.356 650.944C143.689 650.944 144.905 651.12 146.004 651.472C147.113 651.813 148.1 652.309 148.964 652.96C149.828 653.611 150.564 654.395 151.172 655.312C151.78 656.219 152.255 657.243 152.596 658.384L149.204 659.296C148.745 657.685 147.945 656.421 146.804 655.504C145.663 654.587 144.18 654.128 142.356 654.128C141.161 654.128 140.105 654.341 139.188 654.768C138.271 655.184 137.497 655.781 136.868 656.56C136.249 657.328 135.78 658.256 135.46 659.344C135.151 660.421 134.996 661.621 134.996 662.944C134.996 664.267 135.151 665.472 135.46 666.56C135.769 667.637 136.228 668.565 136.836 669.344C137.455 670.112 138.223 670.709 139.14 671.136C140.057 671.552 141.129 671.76 142.356 671.76C144.18 671.76 145.663 671.301 146.804 670.384C147.945 669.467 148.745 668.203 149.204 666.592L152.596 667.504C152.255 668.635 151.78 669.659 151.172 670.576C150.564 671.493 149.828 672.277 148.964 672.928C148.1 673.579 147.113 674.08 146.004 674.432C144.905 674.773 143.689 674.944 142.356 674.944Z" fill="white"/>
<path d="M132.74 722.464V699.424H139.828C141.652 699.424 143.263 699.675 144.66 700.176C146.068 700.677 147.247 701.419 148.196 702.4C149.156 703.371 149.881 704.576 150.372 706.016C150.873 707.445 151.124 709.088 151.124 710.944C151.124 712.8 150.873 714.443 150.372 715.872C149.881 717.301 149.156 718.507 148.196 719.488C147.247 720.459 146.068 721.2 144.66 721.712C143.263 722.213 141.652 722.464 139.828 722.464H132.74ZM136.148 719.312H139.476C142.217 719.312 144.255 718.624 145.588 717.248C146.932 715.861 147.604 713.76 147.604 710.944C147.604 708.139 146.932 706.043 145.588 704.656C144.244 703.269 142.207 702.576 139.476 702.576H136.148V719.312Z" fill="white"/>
</svg>
