<svg width="87" height="110" viewBox="0 0 87 110" fill="none" xmlns="http://www.w3.org/2000/svg">
<path d="M27.1881 107.507L84.533 59.9152C84.9824 59.5422 85.0224 58.8668 84.6202 58.4434L67.0067 39.9027C66.6182 39.4938 66.6402 38.8458 67.0556 38.4642L82.7966 24.0045C83.214 23.6211 83.2339 22.9693 82.8408 22.5611L63.339 2.30925C62.9719 1.92804 62.3727 1.8951 61.966 2.23376L2.36322 51.8701C1.89593 52.2593 1.87633 52.9703 2.32149 53.3846L20.9904 70.7596C21.4066 71.147 21.4209 71.8015 21.022 72.2066L9.51158 83.8969C9.16345 84.2504 9.12394 84.8046 9.41839 85.204L25.7312 107.33C26.0755 107.797 26.7417 107.878 27.1881 107.507Z" fill="#2A2A2A" fill-opacity="0.5" stroke="#2A2A2A" stroke-width="4"/>
</svg>
