<svg width="95" height="41" viewBox="0 0 95 41" fill="none" xmlns="http://www.w3.org/2000/svg">
<path d="M92.432 12.7204C92.3645 20.8537 92.2834 33.7162 92.3812 37.7404C92.3964 38.3639 91.8727 38.9254 91.2489 38.9254H20.3089C19.7514 38.9254 19.2995 38.4735 19.2995 37.9161V14.1343C19.2995 13.5769 18.8477 13.125 18.2902 13.125H3.00987C2.40489 13.125 1.93581 12.5964 2.0077 11.9958L3.09745 2.88939C3.15817 2.38197 3.58857 2 4.09961 2H73.915C74.4724 2 74.9243 2.45189 74.9243 3.00932V10.6954C74.9243 11.2529 75.3762 11.7048 75.9336 11.7048H91.4225C91.9833 11.7048 92.4366 12.1596 92.432 12.7204Z" fill="#2A2A2A" fill-opacity="0.5" stroke="#2A2A2A" stroke-width="4"/>
</svg>
