<svg width="77" height="145" viewBox="0 0 77 145" fill="none" xmlns="http://www.w3.org/2000/svg">
<path d="M51.6962 142.189H10.891C10.3335 142.189 9.88165 141.737 9.88165 141.179V102.663C9.88165 102.326 9.713 102.011 9.43221 101.823L2.44944 97.1682C2.16866 96.981 2 96.6658 2 96.3284V45.6369L5.21052 2.9337C5.25138 2.39021 5.71634 1.97732 6.26085 2.001L64.7455 4.54383C65.2854 4.56731 65.711 5.01182 65.711 5.55221V45.108C65.711 45.4392 65.8735 45.7494 66.1458 45.9379L73.7718 51.2175C74.0676 51.4222 74.232 51.7689 74.2035 52.1274L69.8265 107.109C69.7679 107.846 68.9635 108.272 68.3212 107.906L59.451 102.859C58.831 102.506 58.0506 102.89 57.9522 103.597L52.6958 141.319C52.6263 141.818 52.1998 142.189 51.6962 142.189Z" fill="#14E401" fill-opacity="0.5" stroke="#14E401" stroke-width="4"/>
</svg>
