<svg width="81" height="136" viewBox="0 0 81 136" fill="none" xmlns="http://www.w3.org/2000/svg">
<path d="M50.6701 133.754H3.00973C2.4107 133.754 1.94349 133.235 2.0059 132.639L8.34016 72.1695C8.34971 72.0783 8.3468 71.9863 8.33148 71.8959L3.08356 40.9078C3.0566 40.7486 3.06823 40.5852 3.11748 40.4314L15.2009 2.70151C15.3404 2.26604 15.7552 1.97873 16.2119 2.00126L71.0006 4.70385C71.49 4.72799 71.8913 5.10007 71.9523 5.58619L78.6546 58.9563C78.6692 59.0721 78.6635 59.1896 78.6379 59.3035L69.2919 100.869C69.1672 101.423 68.6094 101.765 68.0585 101.625L55.3099 98.3842C54.7003 98.2292 54.0989 98.6635 54.0544 99.291L51.6769 132.816C51.6395 133.344 51.1999 133.754 50.6701 133.754Z" fill="#14E401" fill-opacity="0.5" stroke="#14E401" stroke-width="4"/>
</svg>
