<svg width="63" height="85" viewBox="0 0 63 85" fill="none" xmlns="http://www.w3.org/2000/svg">
<path d="M60.3129 48.8606C58.333 59.4277 53.0229 79.823 51.639 81.9291C51.5529 82.0601 51.4044 82.0956 51.2477 82.0956H3.01054C2.37439 82.0956 1.89687 81.5142 2.02045 80.8902L6.29654 59.2974C6.31294 59.2146 6.31889 59.13 6.31424 59.0458L4.73789 30.4571C4.73393 30.3852 4.73766 30.3131 4.74903 30.242L9.13179 2.84986C9.21158 2.35117 9.64769 1.98822 10.1526 2.00029L55.7962 3.09217C56.3132 3.10453 56.7372 3.50563 56.7782 4.02112L60.3262 48.5993C60.3332 48.6878 60.3292 48.7734 60.3129 48.8606Z" fill="#14E401" fill-opacity="0.5" stroke="#14E401" stroke-width="4"/>
</svg>
