<svg width="104" height="55" viewBox="0 0 104 55" fill="none" xmlns="http://www.w3.org/2000/svg">
<path d="M3.00932 52.5811H77.1069C77.6643 52.5811 78.1162 52.1292 78.1162 51.5718V24.8308C78.1162 24.2733 78.5681 23.8214 79.1255 23.8214H100.616C101.208 23.8214 101.672 23.3152 101.622 22.726L100.034 4.18616C99.9895 3.67068 99.5627 3.27206 99.0454 3.26314L25.7946 2.00017C25.2068 1.99004 24.7348 2.48237 24.7696 3.0692L25.9389 22.7523C25.9734 23.3322 25.5123 23.8214 24.9314 23.8214H3.00932C2.45189 23.8214 2 24.2733 2 24.8308V51.5718C2 52.1292 2.45189 52.5811 3.00932 52.5811Z" fill="#2A2A2A" fill-opacity="0.5" stroke="#2A2A2A" stroke-width="4"/>
</svg>
