<svg width="71" height="128" viewBox="0 0 71 128" fill="none" xmlns="http://www.w3.org/2000/svg">
<path d="M65.1595 125.689C47.6454 125.788 10.9509 125.702 4.5568 125.686C4.01174 125.685 3.58405 125.251 3.56835 124.706L2.00048 70.2683C1.99662 70.1341 2.01956 70.0005 2.06797 69.8753L15.6843 34.6539L25.8586 2.70308C25.9948 2.27518 26.3974 1.98877 26.8463 2.00034L67.466 3.04754C68.0589 3.06282 68.5108 3.58353 68.4426 4.17266L64.3378 39.6107C64.3291 39.6856 64.3288 39.7613 64.337 39.8363L68.5608 78.5543C68.5667 78.6082 68.5682 78.6626 68.5653 78.7168L66.1436 124.733C66.1155 125.267 65.6939 125.686 65.1595 125.689Z" fill="#14E401" fill-opacity="0.5" stroke="#14E401" stroke-width="4"/>
</svg>
