<svg width="113" height="22" viewBox="0 0 113 22" fill="none" xmlns="http://www.w3.org/2000/svg">
<path d="M-0.000199199 15.54H1.4398C1.7198 15.212 1.9438 14.74 2.1118 14.124C2.2878 13.5 2.4198 12.78 2.5078 11.964C2.6038 11.148 2.6638 10.26 2.6878 9.29999C2.7198 8.33199 2.7358 7.33999 2.7358 6.32399V0.623991H14.7118V15.54H16.6558V21.18H14.1238V17.904H2.5078V21.18H-0.000199199V15.54ZM12.1798 15.54V2.98799H5.0998V7.72799C5.0998 8.68799 5.0758 9.57999 5.0278 10.404C4.9798 11.228 4.9118 11.976 4.8238 12.648C4.7358 13.312 4.6318 13.888 4.5118 14.376C4.3918 14.864 4.2598 15.252 4.1158 15.54H12.1798ZM24.9497 15.924C25.7737 15.924 26.4537 15.752 26.9897 15.408C27.5337 15.056 27.9657 14.54 28.2857 13.86L30.7577 14.616C30.2457 15.784 29.4857 16.684 28.4777 17.316C27.4777 17.948 26.3017 18.264 24.9497 18.264C23.9897 18.264 23.1177 18.1 22.3337 17.772C21.5577 17.436 20.8897 16.968 20.3297 16.368C19.7697 15.768 19.3377 15.048 19.0337 14.208C18.7297 13.368 18.5777 12.44 18.5777 11.424C18.5777 10.392 18.7297 9.45599 19.0337 8.61599C19.3377 7.77599 19.7697 7.05599 20.3297 6.45599C20.8897 5.85599 21.5577 5.39599 22.3337 5.07599C23.1177 4.74799 23.9817 4.58399 24.9257 4.58399C25.9337 4.58399 26.8257 4.75999 27.6017 5.11199C28.3777 5.46399 29.0217 5.96799 29.5337 6.62399C30.0537 7.27199 30.4297 8.06399 30.6617 8.99999C30.9017 9.92799 30.9897 10.972 30.9257 12.132H21.2777C21.3897 13.34 21.7657 14.276 22.4057 14.94C23.0457 15.596 23.8937 15.924 24.9497 15.924ZM28.3457 10.176C28.2577 9.10399 27.9177 8.27999 27.3257 7.70399C26.7337 7.12799 25.9337 6.83999 24.9257 6.83999C23.9257 6.83999 23.1177 7.12799 22.5017 7.70399C21.8937 8.27999 21.5057 9.10399 21.3377 10.176H28.3457ZM39.402 3.45599C38.77 3.45599 38.19 3.30399 37.662 2.99999C37.134 2.68799 36.714 2.26799 36.402 1.73999C36.098 1.21199 35.946 0.63199 35.946 -9.53674e-06H37.938C37.938 0.26399 38.002 0.50799 38.13 0.73199C38.266 0.95599 38.446 1.13599 38.67 1.27199C38.894 1.39999 39.138 1.46399 39.402 1.46399C39.674 1.46399 39.918 1.39999 40.134 1.27199C40.358 1.13599 40.534 0.95599 40.662 0.73199C40.798 0.50799 40.866 0.26399 40.866 -9.53674e-06H42.858C42.858 0.63199 42.702 1.21199 42.39 1.73999C42.086 2.26799 41.67 2.68799 41.142 2.99999C40.614 3.30399 40.034 3.45599 39.402 3.45599ZM44.538 4.94399V17.904H42.03V8.84399L36.114 17.904H33.606V4.94399H36.114V14.004L42.03 4.94399H44.538ZM53.4354 18.264C52.4594 18.264 51.5834 18.096 50.8074 17.76C50.0314 17.424 49.3714 16.956 48.8274 16.356C48.2914 15.748 47.8794 15.024 47.5914 14.184C47.3114 13.344 47.1714 12.424 47.1714 11.424C47.1714 10.408 47.3154 9.47999 47.6034 8.63999C47.8994 7.79999 48.3194 7.07999 48.8634 6.47999C49.4074 5.87999 50.0674 5.41599 50.8434 5.08799C51.6274 4.75199 52.5034 4.58399 53.4714 4.58399C54.1834 4.58399 54.8434 4.67599 55.4514 4.85999C56.0674 5.04399 56.6154 5.30799 57.0954 5.65199C57.5834 5.98799 57.9954 6.39999 58.3314 6.88799C58.6754 7.37599 58.9274 7.92399 59.0874 8.53199L56.5914 9.25199C56.3434 8.52399 55.9354 7.95999 55.3674 7.55999C54.8074 7.15199 54.1634 6.94799 53.4354 6.94799C52.8354 6.94799 52.3114 7.05599 51.8634 7.27199C51.4154 7.48799 51.0394 7.79199 50.7354 8.18399C50.4394 8.57599 50.2154 9.04799 50.0634 9.59999C49.9114 10.144 49.8354 10.752 49.8354 11.424C49.8354 12.096 49.9114 12.708 50.0634 13.26C50.2154 13.804 50.4394 14.272 50.7354 14.664C51.0394 15.056 51.4154 15.36 51.8634 15.576C52.3194 15.792 52.8434 15.9 53.4354 15.9C54.2514 15.9 54.9074 15.716 55.4034 15.348C55.9074 14.972 56.2874 14.436 56.5434 13.74L59.0874 14.34C58.6554 15.62 57.9554 16.596 56.9874 17.268C56.0194 17.932 54.8354 18.264 53.4354 18.264ZM64.3273 17.904V7.29599H59.9833V4.94399H71.1793V7.29599H66.8353V17.904H64.3273ZM79.1257 17.904H73.4497V4.94399H78.8137C80.3257 4.94399 81.4777 5.23999 82.2697 5.83199C83.0617 6.42399 83.4577 7.29199 83.4577 8.43599C83.4577 9.15599 83.2977 9.74399 82.9777 10.2C82.6657 10.656 82.2457 10.988 81.7177 11.196C82.0297 11.276 82.3137 11.412 82.5697 11.604C82.8337 11.788 83.0617 12.016 83.2537 12.288C83.4457 12.552 83.5937 12.856 83.6977 13.2C83.8017 13.544 83.8537 13.916 83.8537 14.316C83.8537 15.492 83.4537 16.384 82.6537 16.992C81.8537 17.6 80.6777 17.904 79.1257 17.904ZM78.8257 6.95999H75.7897V10.296H79.0657C79.3617 10.296 79.6297 10.268 79.8697 10.212C80.1177 10.148 80.3297 10.052 80.5057 9.92399C80.6817 9.78799 80.8177 9.61999 80.9137 9.41999C81.0177 9.21199 81.0697 8.96399 81.0697 8.67599C81.0697 8.05199 80.8857 7.61199 80.5177 7.35599C80.1497 7.09199 79.5857 6.95999 78.8257 6.95999ZM79.1017 15.888C79.8617 15.888 80.4457 15.748 80.8537 15.468C81.2697 15.18 81.4777 14.724 81.4777 14.1C81.4777 13.78 81.4217 13.508 81.3097 13.284C81.2057 13.052 81.0577 12.864 80.8657 12.72C80.6817 12.568 80.4617 12.46 80.2057 12.396C79.9497 12.324 79.6697 12.288 79.3657 12.288H75.8017V15.888H79.1017ZM97.1786 4.94399V17.904H94.6706V8.84399L88.7546 17.904H86.2466V4.94399H88.7546V14.004L94.6706 4.94399H97.1786ZM106.184 15.924C107.008 15.924 107.688 15.752 108.224 15.408C108.768 15.056 109.2 14.54 109.52 13.86L111.992 14.616C111.48 15.784 110.72 16.684 109.712 17.316C108.712 17.948 107.536 18.264 106.184 18.264C105.224 18.264 104.352 18.1 103.568 17.772C102.792 17.436 102.124 16.968 101.564 16.368C101.004 15.768 100.572 15.048 100.268 14.208C99.9641 13.368 99.8121 12.44 99.8121 11.424C99.8121 10.392 99.9641 9.45599 100.268 8.61599C100.572 7.77599 101.004 7.05599 101.564 6.45599C102.124 5.85599 102.792 5.39599 103.568 5.07599C104.352 4.74799 105.216 4.58399 106.16 4.58399C107.168 4.58399 108.06 4.75999 108.836 5.11199C109.612 5.46399 110.256 5.96799 110.768 6.62399C111.288 7.27199 111.664 8.06399 111.896 8.99999C112.136 9.92799 112.224 10.972 112.16 12.132H102.512C102.624 13.34 103 14.276 103.64 14.94C104.28 15.596 105.128 15.924 106.184 15.924ZM109.58 10.176C109.492 9.10399 109.152 8.27999 108.56 7.70399C107.968 7.12799 107.168 6.83999 106.16 6.83999C105.16 6.83999 104.352 7.12799 103.736 7.70399C103.128 8.27999 102.74 9.10399 102.572 10.176H109.58Z" fill="black"/>
</svg>
