<svg width="188" height="20" viewBox="0 0 188 20" fill="none" xmlns="http://www.w3.org/2000/svg">
<path d="M9.76622e-05 14.4V-6.67572e-06H1.4701V6.48999H9.4301V-6.67572e-06H10.9001V14.4H9.4301V7.89999H1.4701V14.4H9.76622e-05ZM18.2615 13.31C19.0682 13.31 19.7415 13.13 20.2815 12.77C20.8215 12.41 21.2515 11.8967 21.5715 11.23L22.9615 11.74C22.5282 12.6933 21.9048 13.4267 21.0915 13.94C20.2848 14.4467 19.3415 14.7 18.2615 14.7C17.4815 14.7 16.7715 14.5667 16.1315 14.3C15.4982 14.0267 14.9548 13.6433 14.5015 13.15C14.0548 12.6567 13.7082 12.06 13.4615 11.36C13.2148 10.6533 13.0915 9.86666 13.0915 8.99999C13.0915 8.12666 13.2115 7.33999 13.4515 6.63999C13.6915 5.93333 14.0348 5.33333 14.4815 4.83999C14.9282 4.34666 15.4648 3.96666 16.0915 3.69999C16.7182 3.43333 17.4215 3.29999 18.2015 3.29999C19.0148 3.29999 19.7348 3.43999 20.3615 3.71999C20.9882 3.99999 21.5148 4.40333 21.9415 4.92999C22.3682 5.45666 22.6848 6.09666 22.8915 6.84999C23.1048 7.60333 23.1982 8.45666 23.1715 9.40999H14.6615C14.6948 10.0233 14.8015 10.5733 14.9815 11.06C15.1615 11.54 15.4048 11.9467 15.7115 12.28C16.0248 12.6133 16.3948 12.87 16.8215 13.05C17.2548 13.2233 17.7348 13.31 18.2615 13.31ZM21.6215 8.17999C21.5282 7.03999 21.1882 6.16999 20.6015 5.56999C20.0148 4.96333 19.2148 4.65999 18.2015 4.65999C17.1948 4.65999 16.3882 4.96666 15.7815 5.57999C15.1748 6.19333 14.8115 7.05999 14.6915 8.17999H21.6215ZM29.3846 14.4V3.59999H37.8746V14.4H36.4046V4.99999H30.8546V14.4H29.3846ZM40.6837 19.2V3.59999H42.1537V5.40999C42.507 4.74999 42.9937 4.23333 43.6137 3.85999C44.2337 3.48666 44.997 3.29999 45.9037 3.29999C46.6704 3.29999 47.357 3.43999 47.9637 3.71999C48.577 3.99999 49.0937 4.39333 49.5137 4.89999C49.9404 5.39999 50.2637 5.99999 50.4837 6.69999C50.7104 7.39333 50.8237 8.15666 50.8237 8.98999C50.8237 9.83666 50.7104 10.6133 50.4837 11.32C50.257 12.02 49.9304 12.62 49.5037 13.12C49.077 13.62 48.5604 14.01 47.9537 14.29C47.347 14.5633 46.6637 14.7 45.9037 14.7C44.9904 14.7 44.227 14.5133 43.6137 14.14C43.0004 13.7667 42.5137 13.25 42.1537 12.59V19.2H40.6837ZM45.7037 13.29C46.3037 13.29 46.827 13.1867 47.2737 12.98C47.7204 12.7667 48.0904 12.4733 48.3837 12.1C48.677 11.72 48.897 11.2667 49.0437 10.74C49.1904 10.2133 49.2637 9.62999 49.2637 8.98999C49.2637 8.33666 49.1904 7.74666 49.0437 7.21999C48.897 6.69333 48.6737 6.24666 48.3737 5.87999C48.0804 5.50666 47.7104 5.21999 47.2637 5.01999C46.817 4.81333 46.297 4.70999 45.7037 4.70999C45.097 4.70999 44.5704 4.81666 44.1237 5.02999C43.6837 5.23666 43.317 5.52999 43.0237 5.90999C42.7304 6.28333 42.5104 6.73333 42.3637 7.25999C42.2237 7.77999 42.1537 8.35666 42.1537 8.98999C42.1537 9.63666 42.227 10.2267 42.3737 10.76C42.527 11.2867 42.7504 11.74 43.0437 12.12C43.3437 12.4933 43.7137 12.7833 44.1537 12.99C44.6004 13.19 45.117 13.29 45.7037 13.29ZM57.5374 14.7C56.7374 14.7 56.0208 14.56 55.3874 14.28C54.7541 14 54.2174 13.61 53.7774 13.11C53.3374 12.6033 53.0008 12 52.7674 11.3C52.5408 10.6 52.4274 9.82999 52.4274 8.98999C52.4274 8.14333 52.5441 7.36999 52.7774 6.66999C53.0174 5.96999 53.3574 5.36999 53.7974 4.86999C54.2374 4.36999 54.7741 3.98333 55.4074 3.70999C56.0408 3.43666 56.7508 3.29999 57.5374 3.29999C58.3441 3.29999 59.0641 3.43999 59.6974 3.71999C60.3308 3.99999 60.8674 4.38999 61.3074 4.88999C61.7474 5.38999 62.0808 5.98999 62.3074 6.68999C62.5408 7.38333 62.6574 8.14999 62.6574 8.98999C62.6574 9.83666 62.5408 10.6133 62.3074 11.32C62.0741 12.02 61.7374 12.62 61.2974 13.12C60.8574 13.62 60.3208 14.01 59.6874 14.29C59.0541 14.5633 58.3374 14.7 57.5374 14.7ZM57.5374 13.29C58.1308 13.29 58.6474 13.1867 59.0874 12.98C59.5341 12.7733 59.9041 12.4833 60.1974 12.11C60.4974 11.7367 60.7208 11.2867 60.8674 10.76C61.0208 10.2267 61.0974 9.63666 61.0974 8.98999C61.0974 8.32999 61.0208 7.73666 60.8674 7.20999C60.7208 6.68333 60.4974 6.23666 60.1974 5.86999C59.8974 5.49666 59.5241 5.20999 59.0774 5.00999C58.6374 4.80999 58.1241 4.70999 57.5374 4.70999C56.9441 4.70999 56.4241 4.81333 55.9774 5.01999C55.5374 5.21999 55.1674 5.50999 54.8674 5.88999C54.5741 6.26333 54.3541 6.71333 54.2074 7.23999C54.0608 7.76666 53.9874 8.34999 53.9874 8.98999C53.9874 9.64999 54.0641 10.2467 54.2174 10.78C54.3708 11.3067 54.5941 11.7567 54.8874 12.13C55.1874 12.5033 55.5574 12.79 55.9974 12.99C56.4441 13.19 56.9574 13.29 57.5374 13.29ZM63.4681 14.4L67.6881 8.93999L63.5581 3.59999H65.3181L68.5481 7.80999L71.7481 3.59999H73.5081L69.3781 8.93999L73.6081 14.4H71.8381L68.5481 10.07L65.2381 14.4H63.4681ZM79.3343 14.7C78.5343 14.7 77.8176 14.56 77.1843 14.28C76.551 14 76.0143 13.61 75.5743 13.11C75.1343 12.6033 74.7976 12 74.5643 11.3C74.3376 10.6 74.2243 9.82999 74.2243 8.98999C74.2243 8.14333 74.341 7.36999 74.5743 6.66999C74.8143 5.96999 75.1543 5.36999 75.5943 4.86999C76.0343 4.36999 76.571 3.98333 77.2043 3.70999C77.8376 3.43666 78.5476 3.29999 79.3343 3.29999C80.141 3.29999 80.861 3.43999 81.4943 3.71999C82.1277 3.99999 82.6643 4.38999 83.1043 4.88999C83.5443 5.38999 83.8777 5.98999 84.1043 6.68999C84.3377 7.38333 84.4543 8.14999 84.4543 8.98999C84.4543 9.83666 84.3377 10.6133 84.1043 11.32C83.871 12.02 83.5343 12.62 83.0943 13.12C82.6543 13.62 82.1177 14.01 81.4843 14.29C80.851 14.5633 80.1343 14.7 79.3343 14.7ZM79.3343 13.29C79.9276 13.29 80.4443 13.1867 80.8843 12.98C81.331 12.7733 81.701 12.4833 81.9943 12.11C82.2943 11.7367 82.5177 11.2867 82.6643 10.76C82.8177 10.2267 82.8943 9.63666 82.8943 8.98999C82.8943 8.32999 82.8177 7.73666 82.6643 7.20999C82.5177 6.68333 82.2943 6.23666 81.9943 5.86999C81.6943 5.49666 81.321 5.20999 80.8743 5.00999C80.4343 4.80999 79.921 4.70999 79.3343 4.70999C78.741 4.70999 78.221 4.81333 77.7743 5.01999C77.3343 5.21999 76.9643 5.50999 76.6643 5.88999C76.371 6.26333 76.151 6.71333 76.0043 7.23999C75.8576 7.76666 75.7843 8.34999 75.7843 8.98999C75.7843 9.64999 75.861 10.2467 76.0143 10.78C76.1676 11.3067 76.391 11.7567 76.6843 12.13C76.9843 12.5033 77.3543 12.79 77.7943 12.99C78.241 13.19 78.7543 13.29 79.3343 13.29ZM85.8603 13H86.9103C87.0769 12.8 87.2136 12.53 87.3203 12.19C87.4269 11.85 87.5103 11.4533 87.5703 11C87.6369 10.5467 87.6836 10.0433 87.7103 9.48999C87.7369 8.93666 87.7503 8.34999 87.7503 7.72999V3.59999H95.5903V13H96.9903V16.67H95.5203V14.4H87.3303V16.67H85.8603V13ZM94.1203 13V4.99999H89.1403V8.54999C89.1403 9.03666 89.1236 9.50666 89.0903 9.95999C89.0636 10.4067 89.0203 10.8233 88.9603 11.21C88.9069 11.59 88.8403 11.9333 88.7603 12.24C88.6869 12.5467 88.6003 12.8 88.5003 13H94.1203ZM107.564 3.59999V14.4H106.094V5.92999L100.444 14.4H98.9745V3.59999H100.444V12.07L106.094 3.59999H107.564ZM113.271 14.4V4.99999H109.471V3.59999H118.541V4.99999H114.741V14.4H113.271ZM128.933 14.7C128.14 14.7 127.43 14.5667 126.803 14.3C126.177 14.0267 125.643 13.6433 125.203 13.15C124.77 12.65 124.437 12.05 124.203 11.35C123.97 10.6433 123.853 9.85999 123.853 8.99999C123.853 8.12666 123.97 7.33999 124.203 6.63999C124.437 5.93999 124.773 5.34333 125.213 4.84999C125.653 4.34999 126.187 3.96666 126.813 3.69999C127.447 3.43333 128.157 3.29999 128.943 3.29999C129.49 3.29999 130.003 3.36999 130.483 3.50999C130.97 3.64999 131.407 3.84999 131.793 4.10999C132.187 4.36333 132.527 4.67666 132.813 5.04999C133.1 5.41666 133.317 5.82999 133.463 6.28999L132.023 6.74999C131.897 6.42999 131.73 6.14333 131.523 5.88999C131.317 5.63666 131.08 5.42333 130.813 5.24999C130.553 5.07666 130.263 4.94333 129.943 4.84999C129.623 4.75666 129.287 4.70999 128.933 4.70999C128.367 4.70999 127.863 4.80999 127.423 5.00999C126.983 5.20999 126.613 5.49666 126.313 5.86999C126.02 6.23666 125.797 6.68666 125.643 7.21999C125.49 7.74666 125.413 8.33999 125.413 8.99999C125.413 9.64666 125.487 10.2333 125.633 10.76C125.787 11.2867 126.01 11.74 126.303 12.12C126.597 12.4933 126.963 12.7833 127.403 12.99C127.843 13.19 128.353 13.29 128.933 13.29C129.68 13.29 130.307 13.1233 130.813 12.79C131.32 12.45 131.71 11.9567 131.983 11.31L133.463 11.75C133.057 12.7167 132.467 13.45 131.693 13.95C130.927 14.45 130.007 14.7 128.933 14.7ZM144.107 3.59999V14.4H142.637V5.92999L136.987 14.4H135.517V3.59999H136.987V12.07L142.637 3.59999H144.107ZM146.914 14.4V3.59999H153.914V4.99999H148.384V14.4H146.914ZM155.81 14.4V3.59999H157.28V8.29999H163.37V3.59999H164.84V14.4H163.37V9.69999H157.28V14.4H155.81ZM171.847 3.29999C174.713 3.29999 176.147 4.79666 176.147 7.78999V14.4H174.687V12.58C174.3 13.2733 173.777 13.8 173.117 14.16C172.457 14.52 171.673 14.7 170.767 14.7C170.187 14.7 169.667 14.6267 169.207 14.48C168.747 14.34 168.357 14.1367 168.037 13.87C167.717 13.5967 167.47 13.2667 167.297 12.88C167.123 12.4933 167.037 12.0567 167.037 11.57C167.037 11.0033 167.14 10.52 167.347 10.12C167.56 9.71333 167.857 9.37666 168.237 9.10999C168.623 8.83666 169.087 8.61999 169.627 8.45999C170.173 8.29999 170.777 8.17999 171.437 8.09999L174.687 7.68999C174.687 6.62999 174.457 5.85999 173.997 5.37999C173.537 4.89333 172.813 4.64999 171.827 4.64999C170.2 4.64999 169.203 5.32666 168.837 6.67999L167.447 6.34999C167.7 5.36333 168.203 4.60999 168.957 4.08999C169.717 3.56333 170.68 3.29999 171.847 3.29999ZM171.577 9.28999C171.03 9.35666 170.56 9.44999 170.167 9.56999C169.78 9.68999 169.46 9.83999 169.207 10.02C168.96 10.1933 168.78 10.4033 168.667 10.65C168.553 10.89 168.497 11.17 168.497 11.49C168.497 12.7567 169.34 13.39 171.027 13.39C171.493 13.39 171.923 13.3267 172.317 13.2C172.71 13.0667 173.057 12.88 173.357 12.64C173.663 12.3933 173.917 12.0967 174.117 11.75C174.317 11.4033 174.46 11.0167 174.547 10.59C174.613 10.3167 174.653 10.03 174.667 9.72999C174.68 9.42333 174.687 9.14999 174.687 8.90999L171.577 9.28999ZM177.75 13.25C177.923 13.3033 178.073 13.33 178.2 13.33C178.48 13.33 178.713 13.2233 178.9 13.01C179.093 12.7967 179.247 12.49 179.36 12.09C179.48 11.69 179.563 11.2033 179.61 10.63C179.657 10.05 179.68 9.39666 179.68 8.66999V3.59999H187.42V14.4H185.95V4.99999H181.07V8.99999C181.07 10.96 180.87 12.4 180.47 13.32C180.07 14.24 179.46 14.7 178.64 14.7C178.367 14.7 178.07 14.65 177.75 14.55V13.25Z" fill="black"/>
</svg>
