<svg width="181" height="24" viewBox="0 0 181 24" fill="none" xmlns="http://www.w3.org/2000/svg">
<path d="M-0.000175774 17.28V-1.90735e-06H2.53182V7.452H11.1478V-1.90735e-06H13.6798V17.28H11.1478V9.816H2.53182V17.28H-0.000175774ZM22.6909 15.3C23.5149 15.3 24.1949 15.128 24.7309 14.784C25.2749 14.432 25.7069 13.916 26.0269 13.236L28.4989 13.992C27.9869 15.16 27.2269 16.06 26.2189 16.692C25.2189 17.324 24.0429 17.64 22.6909 17.64C21.7309 17.64 20.8589 17.476 20.0749 17.148C19.2989 16.812 18.6309 16.344 18.0709 15.744C17.5109 15.144 17.0789 14.424 16.7749 13.584C16.4709 12.744 16.3189 11.816 16.3189 10.8C16.3189 9.768 16.4709 8.832 16.7749 7.992C17.0789 7.152 17.5109 6.432 18.0709 5.832C18.6309 5.232 19.2989 4.772 20.0749 4.452C20.8589 4.124 21.7229 3.96 22.6669 3.96C23.6749 3.96 24.5669 4.136 25.3429 4.488C26.1189 4.84 26.7629 5.344 27.2749 6C27.7949 6.648 28.1709 7.44 28.4029 8.376C28.6429 9.304 28.7309 10.348 28.6669 11.508H19.0189C19.1309 12.716 19.5069 13.652 20.1469 14.316C20.7869 14.972 21.6349 15.3 22.6909 15.3ZM26.0869 9.552C25.9989 8.48 25.6589 7.656 25.0669 7.08C24.4749 6.504 23.6749 6.216 22.6669 6.216C21.6669 6.216 20.8589 6.504 20.2429 7.08C19.6349 7.656 19.2469 8.48 19.0789 9.552H26.0869ZM42.2792 4.32V17.28H39.7712V8.22L33.8552 17.28H31.3472V4.32H33.8552V13.38L39.7712 4.32H42.2792ZM51.1766 17.64C50.2006 17.64 49.3246 17.472 48.5486 17.136C47.7726 16.8 47.1126 16.332 46.5686 15.732C46.0326 15.124 45.6206 14.4 45.3326 13.56C45.0526 12.72 44.9126 11.8 44.9126 10.8C44.9126 9.784 45.0566 8.856 45.3446 8.016C45.6406 7.176 46.0606 6.456 46.6046 5.856C47.1486 5.256 47.8086 4.792 48.5846 4.464C49.3686 4.128 50.2446 3.96 51.2126 3.96C51.9246 3.96 52.5846 4.052 53.1926 4.236C53.8086 4.42 54.3566 4.684 54.8366 5.028C55.3246 5.364 55.7366 5.776 56.0726 6.264C56.4166 6.752 56.6686 7.3 56.8286 7.908L54.3326 8.628C54.0846 7.9 53.6766 7.336 53.1086 6.936C52.5486 6.528 51.9046 6.324 51.1766 6.324C50.5766 6.324 50.0526 6.432 49.6046 6.648C49.1566 6.864 48.7806 7.168 48.4766 7.56C48.1806 7.952 47.9566 8.424 47.8046 8.976C47.6526 9.52 47.5766 10.128 47.5766 10.8C47.5766 11.472 47.6526 12.084 47.8046 12.636C47.9566 13.18 48.1806 13.648 48.4766 14.04C48.7806 14.432 49.1566 14.736 49.6046 14.952C50.0606 15.168 50.5846 15.276 51.1766 15.276C51.9926 15.276 52.6486 15.092 53.1446 14.724C53.6486 14.348 54.0286 13.812 54.2846 13.116L56.8286 13.716C56.3966 14.996 55.6966 15.972 54.7286 16.644C53.7606 17.308 52.5766 17.64 51.1766 17.64ZM59.2613 17.28V4.32H70.0733V17.28H67.5653V6.672H61.7693V17.28H59.2613ZM73.4295 23.04V4.32H75.9375V6.204C76.3455 5.5 76.8855 4.952 77.5575 4.56C78.2375 4.16 79.0855 3.96 80.1015 3.96C80.9735 3.96 81.7695 4.128 82.4895 4.464C83.2175 4.8 83.8375 5.272 84.3495 5.88C84.8695 6.48 85.2695 7.2 85.5495 8.04C85.8375 8.872 85.9815 9.788 85.9815 10.788C85.9815 11.804 85.8375 12.732 85.5495 13.572C85.2615 14.412 84.8575 15.136 84.3375 15.744C83.8255 16.344 83.2095 16.812 82.4895 17.148C81.7695 17.476 80.9735 17.64 80.1015 17.64C79.0855 17.64 78.2375 17.444 77.5575 17.052C76.8775 16.652 76.3375 16.1 75.9375 15.396V23.04H73.4295ZM79.6215 15.276C80.2375 15.276 80.7775 15.168 81.2415 14.952C81.7055 14.728 82.0895 14.42 82.3935 14.028C82.7055 13.628 82.9375 13.156 83.0895 12.612C83.2415 12.06 83.3175 11.452 83.3175 10.788C83.3175 10.108 83.2375 9.496 83.0775 8.952C82.9255 8.4 82.6935 7.932 82.3815 7.548C82.0775 7.156 81.6935 6.856 81.2295 6.648C80.7735 6.432 80.2375 6.324 79.6215 6.324C78.9895 6.324 78.4415 6.432 77.9775 6.648C77.5215 6.864 77.1415 7.172 76.8375 7.572C76.5335 7.964 76.3055 8.432 76.1535 8.976C76.0095 9.52 75.9375 10.124 75.9375 10.788C75.9375 11.468 76.0135 12.088 76.1655 12.648C76.3255 13.2 76.5575 13.672 76.8615 14.064C77.1735 14.448 77.5575 14.748 78.0135 14.964C78.4775 15.172 79.0135 15.276 79.6215 15.276ZM93.789 3.96C95.597 3.96 96.945 4.42 97.833 5.34C98.721 6.252 99.165 7.652 99.165 9.54V17.28H96.645V15.384C95.757 16.888 94.305 17.64 92.289 17.64C91.617 17.64 91.009 17.548 90.465 17.364C89.929 17.188 89.469 16.932 89.085 16.596C88.709 16.26 88.417 15.856 88.209 15.384C88.001 14.912 87.897 14.384 87.897 13.8C87.897 13.152 88.013 12.584 88.245 12.096C88.477 11.6 88.813 11.18 89.253 10.836C89.701 10.484 90.245 10.204 90.885 9.996C91.533 9.78 92.265 9.62 93.081 9.516L96.645 9.072C96.629 8.08 96.381 7.356 95.901 6.9C95.429 6.436 94.717 6.204 93.765 6.204C92.917 6.204 92.241 6.368 91.737 6.696C91.241 7.016 90.889 7.52 90.681 8.208L88.365 7.596C88.701 6.412 89.329 5.512 90.249 4.896C91.177 4.272 92.357 3.96 93.789 3.96ZM93.393 11.376C92.337 11.504 91.569 11.748 91.089 12.108C90.609 12.46 90.369 12.96 90.369 13.608C90.369 14.88 91.201 15.516 92.865 15.516C93.313 15.516 93.729 15.456 94.113 15.336C94.505 15.216 94.853 15.048 95.157 14.832C95.461 14.608 95.717 14.344 95.925 14.04C96.141 13.728 96.301 13.388 96.405 13.02C96.525 12.708 96.593 12.376 96.609 12.024C96.633 11.664 96.645 11.34 96.645 11.052V10.968L93.393 11.376ZM107.945 17.28H102.269V4.32H107.633C109.145 4.32 110.297 4.616 111.089 5.208C111.881 5.8 112.277 6.668 112.277 7.812C112.277 8.532 112.117 9.12 111.797 9.576C111.485 10.032 111.065 10.364 110.537 10.572C110.849 10.652 111.133 10.788 111.389 10.98C111.653 11.164 111.881 11.392 112.073 11.664C112.265 11.928 112.413 12.232 112.517 12.576C112.621 12.92 112.673 13.292 112.673 13.692C112.673 14.868 112.273 15.76 111.473 16.368C110.673 16.976 109.497 17.28 107.945 17.28ZM107.645 6.336H104.609V9.672H107.885C108.181 9.672 108.449 9.644 108.689 9.588C108.937 9.524 109.149 9.428 109.325 9.3C109.501 9.164 109.637 8.996 109.733 8.796C109.837 8.588 109.889 8.34 109.889 8.052C109.889 7.428 109.705 6.988 109.337 6.732C108.969 6.468 108.405 6.336 107.645 6.336ZM107.921 15.264C108.681 15.264 109.265 15.124 109.673 14.844C110.089 14.556 110.297 14.1 110.297 13.476C110.297 13.156 110.241 12.884 110.129 12.66C110.025 12.428 109.877 12.24 109.685 12.096C109.501 11.944 109.281 11.836 109.025 11.772C108.769 11.7 108.489 11.664 108.185 11.664H104.621V15.264H107.921ZM115.066 17.28V4.32H117.574V9.624H123.898V4.32H126.406V17.28H123.898V11.976H117.574V17.28H115.066ZM135.401 17.64C134.433 17.64 133.557 17.472 132.773 17.136C131.997 16.8 131.333 16.332 130.781 15.732C130.229 15.124 129.801 14.4 129.497 13.56C129.201 12.72 129.053 11.796 129.053 10.788C129.053 9.78 129.201 8.856 129.497 8.016C129.801 7.176 130.229 6.456 130.781 5.856C131.341 5.256 132.009 4.792 132.785 4.464C133.569 4.128 134.441 3.96 135.401 3.96C136.369 3.96 137.245 4.128 138.029 4.464C138.813 4.792 139.481 5.26 140.033 5.868C140.585 6.468 141.009 7.188 141.305 8.028C141.609 8.86 141.761 9.78 141.761 10.788C141.761 11.804 141.609 12.732 141.305 13.572C141.009 14.412 140.585 15.136 140.033 15.744C139.481 16.344 138.813 16.812 138.029 17.148C137.245 17.476 136.369 17.64 135.401 17.64ZM135.401 15.276C136.001 15.276 136.529 15.172 136.985 14.964C137.449 14.756 137.837 14.46 138.149 14.076C138.461 13.684 138.697 13.212 138.857 12.66C139.017 12.1 139.097 11.476 139.097 10.788C139.097 10.092 139.017 9.468 138.857 8.916C138.697 8.364 138.461 7.896 138.149 7.512C137.837 7.128 137.449 6.836 136.985 6.636C136.529 6.428 136.001 6.324 135.401 6.324C134.793 6.324 134.257 6.428 133.793 6.636C133.337 6.844 132.953 7.14 132.641 7.524C132.337 7.908 132.105 8.376 131.945 8.928C131.793 9.48 131.717 10.1 131.717 10.788C131.717 11.484 131.797 12.112 131.957 12.672C132.117 13.224 132.353 13.692 132.665 14.076C132.977 14.46 133.361 14.756 133.817 14.964C134.281 15.172 134.809 15.276 135.401 15.276ZM149.942 17.64C148.966 17.64 148.09 17.472 147.314 17.136C146.538 16.8 145.878 16.332 145.334 15.732C144.798 15.124 144.386 14.4 144.098 13.56C143.818 12.72 143.678 11.8 143.678 10.8C143.678 9.784 143.822 8.856 144.11 8.016C144.406 7.176 144.826 6.456 145.37 5.856C145.914 5.256 146.574 4.792 147.35 4.464C148.134 4.128 149.01 3.96 149.978 3.96C150.69 3.96 151.35 4.052 151.958 4.236C152.574 4.42 153.122 4.684 153.602 5.028C154.09 5.364 154.502 5.776 154.838 6.264C155.182 6.752 155.434 7.3 155.594 7.908L153.098 8.628C152.85 7.9 152.442 7.336 151.874 6.936C151.314 6.528 150.67 6.324 149.942 6.324C149.342 6.324 148.818 6.432 148.37 6.648C147.922 6.864 147.546 7.168 147.242 7.56C146.946 7.952 146.722 8.424 146.57 8.976C146.418 9.52 146.342 10.128 146.342 10.8C146.342 11.472 146.418 12.084 146.57 12.636C146.722 13.18 146.946 13.648 147.242 14.04C147.546 14.432 147.922 14.736 148.37 14.952C148.826 15.168 149.35 15.276 149.942 15.276C150.758 15.276 151.414 15.092 151.91 14.724C152.414 14.348 152.794 13.812 153.05 13.116L155.594 13.716C155.162 14.996 154.462 15.972 153.494 16.644C152.526 17.308 151.342 17.64 149.942 17.64ZM160.834 17.28V6.672H156.49V4.32H167.686V6.672H163.342V17.28H160.834ZM175.825 17.28H169.957V4.32H172.477V8.916H175.825C176.617 8.916 177.309 9.024 177.901 9.24C178.493 9.456 178.981 9.756 179.365 10.14C179.757 10.516 180.049 10.96 180.241 11.472C180.433 11.976 180.529 12.52 180.529 13.104C180.529 13.688 180.433 14.236 180.241 14.748C180.049 15.252 179.757 15.692 179.365 16.068C178.981 16.444 178.493 16.74 177.901 16.956C177.309 17.172 176.617 17.28 175.825 17.28ZM175.477 15.204C175.917 15.204 176.293 15.152 176.605 15.048C176.925 14.936 177.189 14.788 177.397 14.604C177.605 14.42 177.757 14.2 177.853 13.944C177.957 13.68 178.009 13.4 178.009 13.104C178.009 12.8 177.957 12.52 177.853 12.264C177.757 12.008 177.605 11.788 177.397 11.604C177.189 11.412 176.925 11.264 176.605 11.16C176.293 11.048 175.917 10.992 175.477 10.992H172.477V15.204H175.477Z" fill="black"/>
</svg>
