<svg width="132" height="20" viewBox="0 0 132 20" fill="none" xmlns="http://www.w3.org/2000/svg">
<path d="M6.6299 15C5.55657 15 4.60657 14.8167 3.7799 14.45C2.95324 14.0833 2.2599 13.57 1.6999 12.91C1.1399 12.25 0.716569 11.46 0.429902 10.54C0.143236 9.62001 -9.76324e-05 8.60668 -9.76324e-05 7.50001C-9.76324e-05 6.39335 0.143236 5.38001 0.429902 4.46001C0.716569 3.54001 1.1399 2.75001 1.6999 2.09001C2.2599 1.43001 2.95324 0.916679 3.7799 0.550011C4.60657 0.183345 5.55657 1.19209e-05 6.6299 1.19209e-05C7.7099 1.19209e-05 8.66324 0.183345 9.4899 0.550011C10.3166 0.916679 11.0099 1.43001 11.5699 2.09001C12.1299 2.75001 12.5532 3.54001 12.8399 4.46001C13.1266 5.38001 13.2699 6.39335 13.2699 7.50001C13.2699 8.60668 13.1266 9.62001 12.8399 10.54C12.5532 11.46 12.1299 12.25 11.5699 12.91C11.0099 13.57 10.3166 14.0833 9.4899 14.45C8.66324 14.8167 7.7099 15 6.6299 15ZM6.6299 13.59C7.47657 13.59 8.21657 13.4433 8.8499 13.15C9.48324 12.85 10.0099 12.4333 10.4299 11.9C10.8566 11.36 11.1766 10.7167 11.3899 9.97001C11.6032 9.22335 11.7099 8.40001 11.7099 7.50001C11.7099 6.60001 11.6032 5.77668 11.3899 5.03001C11.1766 4.28335 10.8566 3.64335 10.4299 3.11001C10.0099 2.57001 9.48324 2.15335 8.8499 1.86001C8.21657 1.56001 7.47657 1.41001 6.6299 1.41001C5.78324 1.41001 5.04324 1.56001 4.4099 1.86001C3.78324 2.15335 3.2599 2.57001 2.8399 3.11001C2.4199 3.64335 2.10324 4.28335 1.8899 5.03001C1.67657 5.77668 1.56657 6.60001 1.5599 7.50001C1.55324 8.40001 1.65324 9.22335 1.8599 9.97001C2.07324 10.7167 2.3899 11.36 2.8099 11.9C3.23657 12.4333 3.76657 12.85 4.3999 13.15C5.0399 13.4433 5.78324 13.59 6.6299 13.59ZM19.5326 15.01C18.7659 15.0033 18.0859 14.87 17.4926 14.61C16.9059 14.35 16.4092 13.9733 16.0026 13.48C15.5959 12.98 15.2826 12.37 15.0626 11.65C14.8426 10.93 14.7192 10.11 14.6926 9.19001C14.6792 8.76335 14.6792 8.28001 14.6926 7.74001C14.7059 7.20001 14.7426 6.67001 14.8026 6.15001C14.8759 5.57668 14.9659 5.05668 15.0726 4.59001C15.1859 4.11668 15.3259 3.69335 15.4926 3.32001C15.6659 2.94001 15.8726 2.60668 16.1126 2.32001C16.3592 2.02668 16.6526 1.77335 16.9926 1.56001C17.4792 1.25335 17.9792 1.03335 18.4926 0.900011C19.0059 0.760012 19.5426 0.653345 20.1026 0.580012C20.6692 0.506678 21.2659 0.436678 21.8926 0.370011C22.5259 0.296678 23.2026 0.173345 23.9226 1.19209e-05L24.0426 1.40001C23.3826 1.56668 22.7592 1.68334 22.1726 1.75001C21.5926 1.81668 21.0426 1.88001 20.5226 1.94001C20.0092 2.00001 19.5292 2.08001 19.0826 2.18001C18.6426 2.28001 18.2326 2.44668 17.8526 2.68001C17.5926 2.84001 17.3659 3.02668 17.1726 3.24001C16.9859 3.45334 16.8259 3.71668 16.6926 4.03001C16.5659 4.33668 16.4592 4.70335 16.3726 5.13001C16.2926 5.55001 16.2259 6.04668 16.1726 6.62001C16.6059 5.93334 17.1292 5.43334 17.7426 5.12001C18.3626 4.80668 19.0792 4.65001 19.8926 4.65001C20.5859 4.65001 21.2159 4.77335 21.7826 5.02001C22.3559 5.26668 22.8459 5.61668 23.2526 6.07001C23.6659 6.51668 23.9859 7.06001 24.2126 7.70001C24.4392 8.33335 24.5526 9.03668 24.5526 9.81001C24.5526 10.6033 24.4326 11.32 24.1926 11.96C23.9526 12.6 23.6126 13.1467 23.1726 13.6C22.7392 14.0533 22.2126 14.4033 21.5926 14.65C20.9792 14.89 20.2926 15.01 19.5326 15.01ZM19.5726 13.6C20.1126 13.6 20.5926 13.5133 21.0126 13.34C21.4392 13.1667 21.7992 12.9167 22.0926 12.59C22.3926 12.2633 22.6192 11.87 22.7726 11.41C22.9259 10.95 23.0026 10.43 23.0026 9.85001C23.0026 9.27001 22.9292 8.74668 22.7826 8.28001C22.6359 7.80668 22.4192 7.40668 22.1326 7.08001C21.8526 6.75335 21.5059 6.50335 21.0926 6.33001C20.6792 6.15001 20.2092 6.06001 19.6826 6.06001C19.1359 6.06001 18.6492 6.14668 18.2226 6.32001C17.8026 6.49335 17.4459 6.74335 17.1526 7.07001C16.8659 7.39668 16.6459 7.79335 16.4926 8.26001C16.3392 8.72668 16.2626 9.25668 16.2626 9.85001C16.2626 10.4167 16.3392 10.9333 16.4926 11.4C16.6459 11.86 16.8659 12.2533 17.1526 12.58C17.4392 12.9067 17.7859 13.16 18.1926 13.34C18.6059 13.5133 19.0659 13.6 19.5726 13.6ZM26.7569 19.5V3.90001H28.2269V5.71001C28.5803 5.05001 29.0669 4.53335 29.6869 4.16001C30.3069 3.78668 31.0703 3.60001 31.9769 3.60001C32.7436 3.60001 33.4303 3.74001 34.0369 4.02001C34.6503 4.30001 35.1669 4.69335 35.5869 5.20001C36.0136 5.70001 36.3369 6.30001 36.5569 7.00001C36.7836 7.69335 36.8969 8.45668 36.8969 9.29001C36.8969 10.1367 36.7836 10.9133 36.5569 11.62C36.3303 12.32 36.0036 12.92 35.5769 13.42C35.1503 13.92 34.6336 14.31 34.0269 14.59C33.4203 14.8633 32.7369 15 31.9769 15C31.0636 15 30.3003 14.8133 29.6869 14.44C29.0736 14.0667 28.5869 13.55 28.2269 12.89V19.5H26.7569ZM31.7769 13.59C32.3769 13.59 32.9003 13.4867 33.3469 13.28C33.7936 13.0667 34.1636 12.7733 34.4569 12.4C34.7503 12.02 34.9703 11.5667 35.1169 11.04C35.2636 10.5133 35.3369 9.93001 35.3369 9.29001C35.3369 8.63668 35.2636 8.04668 35.1169 7.52001C34.9703 6.99335 34.7469 6.54668 34.4469 6.18001C34.1536 5.80668 33.7836 5.52001 33.3369 5.32001C32.8903 5.11335 32.3703 5.01001 31.7769 5.01001C31.1703 5.01001 30.6436 5.11668 30.1969 5.33001C29.7569 5.53668 29.3903 5.83001 29.0969 6.21001C28.8036 6.58335 28.5836 7.03335 28.4369 7.56001C28.2969 8.08001 28.2269 8.65668 28.2269 9.29001C28.2269 9.93668 28.3003 10.5267 28.4469 11.06C28.6003 11.5867 28.8236 12.04 29.1169 12.42C29.4169 12.7933 29.7869 13.0833 30.2269 13.29C30.6736 13.49 31.1903 13.59 31.7769 13.59ZM48.8907 14.7V3.90001H50.3607V14.7H48.8907ZM43.8907 14.7H39.1007V3.90001H40.5707V8.01001H43.8907C44.504 8.01001 45.0407 8.09335 45.5007 8.26001C45.9674 8.42668 46.3574 8.65668 46.6707 8.95001C46.984 9.24335 47.2174 9.59668 47.3707 10.01C47.5307 10.4167 47.6107 10.8633 47.6107 11.35C47.6107 11.8367 47.5307 12.2867 47.3707 12.7C47.2174 13.1067 46.984 13.46 46.6707 13.76C46.3574 14.0533 45.9674 14.2833 45.5007 14.45C45.0407 14.6167 44.504 14.7 43.8907 14.7ZM43.7307 13.42C44.1374 13.42 44.4907 13.37 44.7907 13.27C45.0974 13.1633 45.3507 13.02 45.5507 12.84C45.7507 12.6533 45.8974 12.4333 45.9907 12.18C46.0907 11.9267 46.1407 11.65 46.1407 11.35C46.1407 11.05 46.0907 10.7733 45.9907 10.52C45.8974 10.2667 45.7507 10.05 45.5507 9.87001C45.3507 9.69001 45.0974 9.55001 44.7907 9.45001C44.4907 9.34335 44.1374 9.29001 43.7307 9.29001H40.5707V13.42H43.7307ZM57.4332 14.7H53.1532V3.90001H57.3232C58.5965 3.90001 59.5599 4.14334 60.2132 4.63001C60.8732 5.11668 61.2032 5.84001 61.2032 6.80001C61.2032 7.40668 61.0632 7.90001 60.7832 8.28001C60.5032 8.66001 60.1365 8.93668 59.6832 9.11001C59.9365 9.18335 60.1732 9.29668 60.3932 9.45001C60.6199 9.60335 60.8132 9.79335 60.9732 10.02C61.1399 10.2467 61.2699 10.5033 61.3632 10.79C61.4632 11.0767 61.5132 11.3867 61.5132 11.72C61.5132 12.7 61.1665 13.4433 60.4732 13.95C59.7865 14.45 58.7732 14.7 57.4332 14.7ZM57.3032 5.16001H54.5432V8.57001H57.7032C58.0099 8.57001 58.2865 8.53668 58.5332 8.47001C58.7865 8.40335 59.0032 8.30335 59.1832 8.17001C59.3632 8.03668 59.5032 7.86668 59.6032 7.66001C59.7032 7.45335 59.7532 7.21001 59.7532 6.93001C59.7532 6.61668 59.7065 6.35001 59.6132 6.13001C59.5265 5.90335 59.3865 5.72001 59.1932 5.58001C58.9999 5.43335 58.7465 5.32668 58.4332 5.26001C58.1199 5.19334 57.7432 5.16001 57.3032 5.16001ZM57.4032 13.44C58.2965 13.44 58.9632 13.3 59.4032 13.02C59.8432 12.74 60.0632 12.2867 60.0632 11.66C60.0632 11.32 60.0032 11.0333 59.8832 10.8C59.7699 10.5667 59.6132 10.3767 59.4132 10.23C59.2132 10.0833 58.9765 9.97668 58.7032 9.91001C58.4299 9.84335 58.1365 9.81001 57.8232 9.81001H54.5532V13.44H57.4032ZM67.5087 3.90001H68.9787V9.10001L73.7987 3.90001H75.7587L70.6987 9.30001L76.4187 14.7H74.2787L68.9787 9.50001V14.7H67.5087V3.90001ZM81.631 3.60001C84.4977 3.60001 85.931 5.09668 85.931 8.09001V14.7H84.471V12.88C84.0843 13.5733 83.561 14.1 82.901 14.46C82.241 14.82 81.4577 15 80.551 15C79.971 15 79.451 14.9267 78.991 14.78C78.531 14.64 78.141 14.4367 77.821 14.17C77.501 13.8967 77.2543 13.5667 77.081 13.18C76.9077 12.7933 76.821 12.3567 76.821 11.87C76.821 11.3033 76.9243 10.82 77.131 10.42C77.3443 10.0133 77.641 9.67668 78.021 9.41001C78.4077 9.13668 78.871 8.92001 79.411 8.76001C79.9577 8.60001 80.561 8.48001 81.221 8.40001L84.471 7.99001C84.471 6.93001 84.241 6.16001 83.781 5.68001C83.321 5.19335 82.5977 4.95001 81.611 4.95001C79.9843 4.95001 78.9877 5.62668 78.621 6.98001L77.231 6.65001C77.4843 5.66334 77.9877 4.91001 78.741 4.39001C79.501 3.86335 80.4643 3.60001 81.631 3.60001ZM81.361 9.59001C80.8143 9.65668 80.3443 9.75001 79.951 9.87001C79.5643 9.99001 79.2443 10.14 78.991 10.32C78.7443 10.4933 78.5643 10.7033 78.451 10.95C78.3377 11.19 78.281 11.47 78.281 11.79C78.281 13.0567 79.1243 13.69 80.811 13.69C81.2777 13.69 81.7077 13.6267 82.101 13.5C82.4943 13.3667 82.841 13.18 83.141 12.94C83.4477 12.6933 83.701 12.3967 83.901 12.05C84.101 11.7033 84.2443 11.3167 84.331 10.89C84.3977 10.6167 84.4377 10.33 84.451 10.03C84.4643 9.72335 84.471 9.45001 84.471 9.21001L81.361 9.59001ZM92.7943 15.01C92.0276 15.0033 91.3476 14.87 90.7543 14.61C90.1676 14.35 89.6709 13.9733 89.2643 13.48C88.8576 12.98 88.5443 12.37 88.3243 11.65C88.1043 10.93 87.9809 10.11 87.9543 9.19001C87.9409 8.76335 87.9409 8.28001 87.9543 7.74001C87.9676 7.20001 88.0043 6.67001 88.0643 6.15001C88.1376 5.57668 88.2276 5.05668 88.3343 4.59001C88.4476 4.11668 88.5876 3.69335 88.7543 3.32001C88.9276 2.94001 89.1343 2.60668 89.3743 2.32001C89.6209 2.02668 89.9143 1.77335 90.2543 1.56001C90.7409 1.25335 91.2409 1.03335 91.7543 0.900011C92.2676 0.760012 92.8043 0.653345 93.3643 0.580012C93.9309 0.506678 94.5276 0.436678 95.1543 0.370011C95.7876 0.296678 96.4643 0.173345 97.1843 1.19209e-05L97.3043 1.40001C96.6443 1.56668 96.0209 1.68334 95.4343 1.75001C94.8543 1.81668 94.3043 1.88001 93.7843 1.94001C93.2709 2.00001 92.7909 2.08001 92.3443 2.18001C91.9043 2.28001 91.4943 2.44668 91.1143 2.68001C90.8543 2.84001 90.6276 3.02668 90.4343 3.24001C90.2476 3.45334 90.0876 3.71668 89.9543 4.03001C89.8276 4.33668 89.7209 4.70335 89.6343 5.13001C89.5543 5.55001 89.4876 6.04668 89.4343 6.62001C89.8676 5.93334 90.3909 5.43334 91.0043 5.12001C91.6243 4.80668 92.3409 4.65001 93.1543 4.65001C93.8476 4.65001 94.4776 4.77335 95.0443 5.02001C95.6176 5.26668 96.1076 5.61668 96.5143 6.07001C96.9276 6.51668 97.2476 7.06001 97.4743 7.70001C97.7009 8.33335 97.8143 9.03668 97.8143 9.81001C97.8143 10.6033 97.6943 11.32 97.4543 11.96C97.2143 12.6 96.8743 13.1467 96.4343 13.6C96.0009 14.0533 95.4743 14.4033 94.8543 14.65C94.2409 14.89 93.5543 15.01 92.7943 15.01ZM92.8343 13.6C93.3743 13.6 93.8543 13.5133 94.2743 13.34C94.7009 13.1667 95.0609 12.9167 95.3543 12.59C95.6543 12.2633 95.8809 11.87 96.0343 11.41C96.1876 10.95 96.2643 10.43 96.2643 9.85001C96.2643 9.27001 96.1909 8.74668 96.0443 8.28001C95.8976 7.80668 95.6809 7.40668 95.3943 7.08001C95.1143 6.75335 94.7676 6.50335 94.3543 6.33001C93.9409 6.15001 93.4709 6.06001 92.9443 6.06001C92.3976 6.06001 91.9109 6.14668 91.4843 6.32001C91.0643 6.49335 90.7076 6.74335 90.4143 7.07001C90.1276 7.39668 89.9076 7.79335 89.7543 8.26001C89.6009 8.72668 89.5243 9.25668 89.5243 9.85001C89.5243 10.4167 89.6009 10.9333 89.7543 11.4C89.9076 11.86 90.1276 12.2533 90.4143 12.58C90.7009 12.9067 91.0476 13.16 91.4543 13.34C91.8676 13.5133 92.3276 13.6 92.8343 13.6ZM104.589 13.61C105.395 13.61 106.069 13.43 106.609 13.07C107.149 12.71 107.579 12.1967 107.899 11.53L109.289 12.04C108.855 12.9933 108.232 13.7267 107.419 14.24C106.612 14.7467 105.669 15 104.589 15C103.809 15 103.099 14.8667 102.459 14.6C101.825 14.3267 101.282 13.9433 100.829 13.45C100.382 12.9567 100.035 12.36 99.7887 11.66C99.542 10.9533 99.4187 10.1667 99.4187 9.30001C99.4187 8.42668 99.5387 7.64001 99.7787 6.94001C100.019 6.23335 100.362 5.63335 100.809 5.14001C101.255 4.64668 101.792 4.26668 102.419 4.00001C103.045 3.73335 103.749 3.60001 104.529 3.60001C105.342 3.60001 106.062 3.74001 106.689 4.02001C107.315 4.30001 107.842 4.70335 108.269 5.23001C108.695 5.75668 109.012 6.39668 109.219 7.15001C109.432 7.90335 109.525 8.75668 109.499 9.71001H100.989C101.022 10.3233 101.129 10.8733 101.309 11.36C101.489 11.84 101.732 12.2467 102.039 12.58C102.352 12.9133 102.722 13.17 103.149 13.35C103.582 13.5233 104.062 13.61 104.589 13.61ZM107.949 8.48001C107.855 7.34001 107.515 6.47001 106.929 5.87001C106.342 5.26335 105.542 4.96001 104.529 4.96001C103.522 4.96001 102.715 5.26668 102.109 5.88001C101.502 6.49335 101.139 7.36001 101.019 8.48001H107.949ZM110.718 13.55C110.891 13.6033 111.041 13.63 111.168 13.63C111.448 13.63 111.681 13.5233 111.868 13.31C112.061 13.0967 112.215 12.79 112.328 12.39C112.448 11.99 112.531 11.5033 112.578 10.93C112.625 10.35 112.648 9.69668 112.648 8.97001V3.90001H120.388V14.7H118.918V5.30001H114.038V9.30001C114.038 11.26 113.838 12.7 113.438 13.62C113.038 14.54 112.428 15 111.608 15C111.335 15 111.038 14.95 110.718 14.85V13.55ZM122.693 14.7L124.753 10.35C124.053 10.1033 123.526 9.71001 123.173 9.17001C122.819 8.62335 122.643 7.98334 122.643 7.25001C122.643 6.76335 122.719 6.31668 122.873 5.91001C123.033 5.49668 123.269 5.14334 123.583 4.85001C123.896 4.55001 124.283 4.31668 124.743 4.15001C125.209 3.98335 125.749 3.90001 126.363 3.90001H131.153V14.7H129.683V10.59H126.363H126.213L124.243 14.7H122.693ZM126.523 5.18001C126.116 5.18001 125.759 5.23335 125.453 5.34001C125.153 5.44001 124.903 5.58334 124.703 5.77001C124.503 5.95001 124.353 6.16668 124.253 6.42001C124.159 6.67335 124.113 6.95001 124.113 7.25001C124.113 7.55001 124.159 7.82668 124.253 8.08001C124.353 8.33335 124.503 8.55001 124.703 8.73001C124.903 8.91001 125.153 9.05335 125.453 9.16001C125.759 9.26001 126.116 9.31001 126.523 9.31001H129.683V5.18001H126.523Z" fill="black"/>
</svg>
