<svg width="310" height="20" viewBox="0 0 310 20" fill="none" xmlns="http://www.w3.org/2000/svg">
<path d="M9.76622e-05 14.7V0.299996H10.6301V14.7H9.1601V1.71H1.4701V14.7H9.76622e-05ZM13.4376 19.5V3.9H14.9076V5.71C15.2609 5.05 15.7476 4.53333 16.3676 4.16C16.9876 3.78666 17.7509 3.6 18.6576 3.6C19.4243 3.6 20.1109 3.74 20.7176 4.02C21.3309 4.3 21.8476 4.69333 22.2676 5.2C22.6943 5.7 23.0176 6.3 23.2376 7C23.4643 7.69333 23.5776 8.45666 23.5776 9.29C23.5776 10.1367 23.4643 10.9133 23.2376 11.62C23.0109 12.32 22.6843 12.92 22.2576 13.42C21.8309 13.92 21.3143 14.31 20.7076 14.59C20.1009 14.8633 19.4176 15 18.6576 15C17.7443 15 16.9809 14.8133 16.3676 14.44C15.7543 14.0667 15.2676 13.55 14.9076 12.89V19.5H13.4376ZM18.4576 13.59C19.0576 13.59 19.5809 13.4867 20.0276 13.28C20.4743 13.0667 20.8443 12.7733 21.1376 12.4C21.4309 12.02 21.6509 11.5667 21.7976 11.04C21.9443 10.5133 22.0176 9.93 22.0176 9.29C22.0176 8.63666 21.9443 8.04666 21.7976 7.52C21.6509 6.99333 21.4276 6.54666 21.1276 6.18C20.8343 5.80666 20.4643 5.52 20.0176 5.32C19.5709 5.11333 19.0509 5.01 18.4576 5.01C17.8509 5.01 17.3243 5.11666 16.8776 5.33C16.4376 5.53666 16.0709 5.83 15.7776 6.21C15.4843 6.58333 15.2643 7.03333 15.1176 7.56C14.9776 8.08 14.9076 8.65666 14.9076 9.29C14.9076 9.93666 14.9809 10.5267 15.1276 11.06C15.2809 11.5867 15.5043 12.04 15.7976 12.42C16.0976 12.7933 16.4676 13.0833 16.9076 13.29C17.3543 13.49 17.8709 13.59 18.4576 13.59ZM30.2913 15C29.4913 15 28.7747 14.86 28.1413 14.58C27.508 14.3 26.9713 13.91 26.5313 13.41C26.0913 12.9033 25.7547 12.3 25.5213 11.6C25.2947 10.9 25.1813 10.13 25.1813 9.29C25.1813 8.44333 25.298 7.67 25.5313 6.97C25.7713 6.27 26.1113 5.67 26.5513 5.17C26.9913 4.67 27.528 4.28333 28.1613 4.01C28.7947 3.73666 29.5047 3.6 30.2913 3.6C31.098 3.6 31.818 3.74 32.4513 4.02C33.0847 4.3 33.6213 4.69 34.0613 5.19C34.5013 5.69 34.8347 6.29 35.0613 6.99C35.2947 7.68333 35.4113 8.45 35.4113 9.29C35.4113 10.1367 35.2947 10.9133 35.0613 11.62C34.828 12.32 34.4913 12.92 34.0513 13.42C33.6113 13.92 33.0747 14.31 32.4413 14.59C31.808 14.8633 31.0913 15 30.2913 15ZM30.2913 13.59C30.8847 13.59 31.4013 13.4867 31.8413 13.28C32.288 13.0733 32.658 12.7833 32.9513 12.41C33.2513 12.0367 33.4747 11.5867 33.6213 11.06C33.7747 10.5267 33.8513 9.93666 33.8513 9.29C33.8513 8.63 33.7747 8.03666 33.6213 7.51C33.4747 6.98333 33.2513 6.53666 32.9513 6.17C32.6513 5.79666 32.278 5.51 31.8313 5.31C31.3913 5.11 30.878 5.01 30.2913 5.01C29.698 5.01 29.178 5.11333 28.7313 5.32C28.2913 5.52 27.9213 5.81 27.6213 6.19C27.328 6.56333 27.108 7.01333 26.9613 7.54C26.8147 8.06666 26.7413 8.65 26.7413 9.29C26.7413 9.95 26.818 10.5467 26.9713 11.08C27.1247 11.6067 27.348 12.0567 27.6413 12.43C27.9413 12.8033 28.3113 13.09 28.7513 13.29C29.198 13.49 29.7113 13.59 30.2913 13.59ZM41.8873 14.7H37.6073V3.9H41.7773C43.0506 3.9 44.014 4.14333 44.6673 4.63C45.3273 5.11666 45.6573 5.84 45.6573 6.8C45.6573 7.40666 45.5173 7.9 45.2373 8.28C44.9573 8.66 44.5906 8.93666 44.1373 9.11C44.3906 9.18333 44.6273 9.29666 44.8473 9.45C45.074 9.60333 45.2673 9.79333 45.4273 10.02C45.594 10.2467 45.724 10.5033 45.8173 10.79C45.9173 11.0767 45.9673 11.3867 45.9673 11.72C45.9673 12.7 45.6206 13.4433 44.9273 13.95C44.2406 14.45 43.2273 14.7 41.8873 14.7ZM41.7573 5.16H38.9973V8.57H42.1573C42.464 8.57 42.7406 8.53666 42.9873 8.47C43.2406 8.40333 43.4573 8.30333 43.6373 8.17C43.8173 8.03666 43.9573 7.86666 44.0573 7.66C44.1573 7.45333 44.2073 7.21 44.2073 6.93C44.2073 6.61666 44.1606 6.35 44.0673 6.13C43.9806 5.90333 43.8406 5.72 43.6473 5.58C43.454 5.43333 43.2006 5.32666 42.8873 5.26C42.574 5.19333 42.1973 5.16 41.7573 5.16ZM41.8573 13.44C42.7506 13.44 43.4173 13.3 43.8573 13.02C44.2973 12.74 44.5173 12.2867 44.5173 11.66C44.5173 11.32 44.4573 11.0333 44.3373 10.8C44.224 10.5667 44.0673 10.3767 43.8673 10.23C43.6673 10.0833 43.4306 9.97666 43.1573 9.91C42.884 9.84333 42.5906 9.81 42.2773 9.81H39.0073V13.44H41.8573ZM52.5388 13.61C53.3455 13.61 54.0188 13.43 54.5588 13.07C55.0988 12.71 55.5288 12.1967 55.8488 11.53L57.2388 12.04C56.8055 12.9933 56.1822 13.7267 55.3688 14.24C54.5622 14.7467 53.6188 15 52.5388 15C51.7588 15 51.0488 14.8667 50.4088 14.6C49.7755 14.3267 49.2322 13.9433 48.7788 13.45C48.3322 12.9567 47.9855 12.36 47.7388 11.66C47.4922 10.9533 47.3688 10.1667 47.3688 9.3C47.3688 8.42666 47.4888 7.64 47.7288 6.94C47.9688 6.23333 48.3122 5.63333 48.7588 5.14C49.2055 4.64666 49.7422 4.26666 50.3688 4C50.9955 3.73333 51.6988 3.6 52.4788 3.6C53.2922 3.6 54.0122 3.74 54.6388 4.02C55.2655 4.3 55.7922 4.70333 56.2188 5.23C56.6455 5.75666 56.9622 6.39666 57.1688 7.15C57.3822 7.90333 57.4755 8.75666 57.4488 9.71H48.9388C48.9722 10.3233 49.0788 10.8733 49.2588 11.36C49.4388 11.84 49.6822 12.2467 49.9888 12.58C50.3022 12.9133 50.6722 13.17 51.0988 13.35C51.5322 13.5233 52.0122 13.61 52.5388 13.61ZM55.8988 8.48C55.8055 7.34 55.4655 6.47 54.8788 5.87C54.2922 5.26333 53.4922 4.96 52.4788 4.96C51.4722 4.96 50.6655 5.26666 50.0588 5.88C49.4522 6.49333 49.0888 7.36 48.9688 8.48H55.8988ZM59.6681 19.5V3.9H61.1381V5.71C61.4914 5.05 61.9781 4.53333 62.5981 4.16C63.2181 3.78666 63.9814 3.6 64.8881 3.6C65.6547 3.6 66.3414 3.74 66.9481 4.02C67.5614 4.3 68.0781 4.69333 68.4981 5.2C68.9247 5.7 69.2481 6.3 69.4681 7C69.6947 7.69333 69.8081 8.45666 69.8081 9.29C69.8081 10.1367 69.6947 10.9133 69.4681 11.62C69.2414 12.32 68.9147 12.92 68.4881 13.42C68.0614 13.92 67.5447 14.31 66.9381 14.59C66.3314 14.8633 65.6481 15 64.8881 15C63.9747 15 63.2114 14.8133 62.5981 14.44C61.9847 14.0667 61.4981 13.55 61.1381 12.89V19.5H59.6681ZM64.6881 13.59C65.2881 13.59 65.8114 13.4867 66.2581 13.28C66.7047 13.0667 67.0747 12.7733 67.3681 12.4C67.6614 12.02 67.8814 11.5667 68.0281 11.04C68.1747 10.5133 68.2481 9.93 68.2481 9.29C68.2481 8.63666 68.1747 8.04666 68.0281 7.52C67.8814 6.99333 67.6581 6.54666 67.3581 6.18C67.0647 5.80666 66.6947 5.52 66.2481 5.32C65.8014 5.11333 65.2814 5.01 64.6881 5.01C64.0814 5.01 63.5547 5.11666 63.1081 5.33C62.6681 5.53666 62.3014 5.83 62.0081 6.21C61.7147 6.58333 61.4947 7.03333 61.3481 7.56C61.2081 8.08 61.1381 8.65666 61.1381 9.29C61.1381 9.93666 61.2114 10.5267 61.3581 11.06C61.5114 11.5867 61.7347 12.04 62.0281 12.42C62.3281 12.7933 62.6981 13.0833 63.1381 13.29C63.5847 13.49 64.1014 13.59 64.6881 13.59ZM80.5918 3.9V14.7H79.1218V6.23L73.4718 14.7H72.0018V3.9H73.4718V12.37L79.1218 3.9H80.5918ZM86.2985 14.7V5.3H82.4985V3.9H91.5685V5.3H87.7685V14.7H86.2985ZM98.2567 14.7H93.4667V3.9H94.9267V8.01H98.2567C98.87 8.01 99.4067 8.09333 99.8667 8.26C100.333 8.42666 100.72 8.65666 101.027 8.95C101.34 9.24333 101.573 9.59666 101.727 10.01C101.887 10.4167 101.967 10.8633 101.967 11.35C101.967 11.8367 101.887 12.2867 101.727 12.7C101.573 13.1067 101.34 13.46 101.027 13.76C100.72 14.0533 100.333 14.2833 99.8667 14.45C99.4067 14.6167 98.87 14.7 98.2567 14.7ZM98.0867 13.42C98.5 13.42 98.8567 13.37 99.1567 13.27C99.4567 13.1633 99.7067 13.02 99.9067 12.84C100.107 12.6533 100.253 12.4333 100.347 12.18C100.447 11.9267 100.497 11.65 100.497 11.35C100.497 11.05 100.447 10.7733 100.347 10.52C100.253 10.2667 100.107 10.05 99.9067 9.87C99.7067 9.69 99.4567 9.55 99.1567 9.45C98.8567 9.34333 98.5 9.29 98.0867 9.29H94.9267V13.42H98.0867ZM108.154 14.7V3.9H116.644V14.7H115.174V5.3H109.624V14.7H108.154ZM123.963 15C123.163 15 122.447 14.86 121.813 14.58C121.18 14.3 120.643 13.91 120.203 13.41C119.763 12.9033 119.427 12.3 119.193 11.6C118.967 10.9 118.853 10.13 118.853 9.29C118.853 8.44333 118.97 7.67 119.203 6.97C119.443 6.27 119.783 5.67 120.223 5.17C120.663 4.67 121.2 4.28333 121.833 4.01C122.467 3.73666 123.177 3.6 123.963 3.6C124.77 3.6 125.49 3.74 126.123 4.02C126.757 4.3 127.293 4.69 127.733 5.19C128.173 5.69 128.507 6.29 128.733 6.99C128.967 7.68333 129.083 8.45 129.083 9.29C129.083 10.1367 128.967 10.9133 128.733 11.62C128.5 12.32 128.163 12.92 127.723 13.42C127.283 13.92 126.747 14.31 126.113 14.59C125.48 14.8633 124.763 15 123.963 15ZM123.963 13.59C124.557 13.59 125.073 13.4867 125.513 13.28C125.96 13.0733 126.33 12.7833 126.623 12.41C126.923 12.0367 127.147 11.5867 127.293 11.06C127.447 10.5267 127.523 9.93666 127.523 9.29C127.523 8.63 127.447 8.03666 127.293 7.51C127.147 6.98333 126.923 6.53666 126.623 6.17C126.323 5.79666 125.95 5.51 125.503 5.31C125.063 5.11 124.55 5.01 123.963 5.01C123.37 5.01 122.85 5.11333 122.403 5.32C121.963 5.52 121.593 5.81 121.293 6.19C121 6.56333 120.78 7.01333 120.633 7.54C120.487 8.06666 120.413 8.65 120.413 9.29C120.413 9.95 120.49 10.5467 120.643 11.08C120.797 11.6067 121.02 12.0567 121.313 12.43C121.613 12.8033 121.983 13.09 122.423 13.29C122.87 13.49 123.383 13.59 123.963 13.59ZM130.489 13.3H131.539C131.706 13.1 131.842 12.83 131.949 12.49C132.056 12.15 132.139 11.7533 132.199 11.3C132.266 10.8467 132.312 10.3433 132.339 9.79C132.366 9.23666 132.379 8.65 132.379 8.03V3.9H140.219V13.3H141.619V16.97H140.149V14.7H131.959V16.97H130.489V13.3ZM138.749 13.3V5.3H133.769V8.85C133.769 9.33666 133.752 9.80666 133.719 10.26C133.692 10.7067 133.649 11.1233 133.589 11.51C133.536 11.89 133.469 12.2333 133.389 12.54C133.316 12.8467 133.229 13.1 133.129 13.3H138.749ZM143.603 3.9H145.073V9.1L149.893 3.9H151.853L146.793 9.3L152.513 14.7H150.373L145.073 9.5V14.7H143.603V3.9ZM152.32 13.55C152.494 13.6033 152.644 13.63 152.77 13.63C153.05 13.63 153.284 13.5233 153.47 13.31C153.664 13.0967 153.817 12.79 153.93 12.39C154.05 11.99 154.134 11.5033 154.18 10.93C154.227 10.35 154.25 9.69666 154.25 8.97V3.9H161.99V14.7H160.52V5.3H155.64V9.3C155.64 11.26 155.44 12.7 155.04 13.62C154.64 14.54 154.03 15 153.21 15C152.937 15 152.64 14.95 152.32 14.85V13.55ZM173.415 15C172.669 15 171.995 14.88 171.395 14.64C170.802 14.4 170.289 14.0633 169.855 13.63C169.422 13.19 169.075 12.6667 168.815 12.06C168.562 11.4467 168.402 10.77 168.335 10.03H166.245V14.7H164.775V3.9H166.245V8.57H168.335C168.402 7.81666 168.565 7.13666 168.825 6.53C169.092 5.91666 169.442 5.39333 169.875 4.96C170.309 4.52666 170.822 4.19333 171.415 3.96C172.015 3.72 172.682 3.6 173.415 3.6C174.222 3.6 174.942 3.74 175.575 4.02C176.209 4.3 176.745 4.69333 177.185 5.2C177.625 5.7 177.959 6.3 178.185 7C178.419 7.69333 178.535 8.45666 178.535 9.29C178.535 10.1367 178.419 10.9133 178.185 11.62C177.952 12.32 177.615 12.92 177.175 13.42C176.735 13.92 176.199 14.31 175.565 14.59C174.932 14.8633 174.215 15 173.415 15ZM173.415 13.59C174.015 13.59 174.535 13.4867 174.975 13.28C175.422 13.0667 175.792 12.7733 176.085 12.4C176.385 12.02 176.609 11.5667 176.755 11.04C176.902 10.5133 176.975 9.93 176.975 9.29C176.975 8.63666 176.899 8.04666 176.745 7.52C176.599 6.99333 176.375 6.54666 176.075 6.18C175.782 5.80666 175.412 5.52 174.965 5.32C174.525 5.11333 174.009 5.01 173.415 5.01C172.809 5.01 172.282 5.11666 171.835 5.33C171.395 5.53666 171.029 5.83 170.735 6.21C170.442 6.58333 170.222 7.03333 170.075 7.56C169.935 8.08 169.865 8.65666 169.865 9.29C169.865 9.93666 169.939 10.5267 170.085 11.06C170.239 11.5867 170.462 12.04 170.755 12.42C171.055 12.7933 171.425 13.0833 171.865 13.29C172.312 13.49 172.829 13.59 173.415 13.59ZM186.772 14.7V10.37C186.392 10.59 185.959 10.76 185.472 10.88C184.992 10.9933 184.449 11.05 183.842 11.05C183.202 11.05 182.649 10.97 182.182 10.81C181.716 10.6433 181.329 10.39 181.022 10.05C180.722 9.70333 180.499 9.27 180.352 8.75C180.212 8.22333 180.142 7.6 180.142 6.88V3.9H181.612V6.68C181.612 7.22 181.649 7.68333 181.722 8.07C181.802 8.45666 181.936 8.77666 182.122 9.03C182.316 9.27666 182.569 9.46 182.882 9.58C183.202 9.7 183.599 9.76 184.072 9.76C184.632 9.76 185.129 9.69666 185.562 9.57C185.996 9.44333 186.399 9.25333 186.772 9V3.9H188.232V14.7H186.772ZM195.605 13.61C196.412 13.61 197.085 13.43 197.625 13.07C198.165 12.71 198.595 12.1967 198.915 11.53L200.305 12.04C199.872 12.9933 199.249 13.7267 198.435 14.24C197.629 14.7467 196.685 15 195.605 15C194.825 15 194.115 14.8667 193.475 14.6C192.842 14.3267 192.299 13.9433 191.845 13.45C191.399 12.9567 191.052 12.36 190.805 11.66C190.559 10.9533 190.435 10.1667 190.435 9.3C190.435 8.42666 190.555 7.64 190.795 6.94C191.035 6.23333 191.379 5.63333 191.825 5.14C192.272 4.64666 192.809 4.26666 193.435 4C194.062 3.73333 194.765 3.6 195.545 3.6C196.359 3.6 197.079 3.74 197.705 4.02C198.332 4.3 198.859 4.70333 199.285 5.23C199.712 5.75666 200.029 6.39666 200.235 7.15C200.449 7.90333 200.542 8.75666 200.515 9.71H192.005C192.039 10.3233 192.145 10.8733 192.325 11.36C192.505 11.84 192.749 12.2467 193.055 12.58C193.369 12.9133 193.739 13.17 194.165 13.35C194.599 13.5233 195.079 13.61 195.605 13.61ZM198.965 8.48C198.872 7.34 198.532 6.47 197.945 5.87C197.359 5.26333 196.559 4.96 195.545 4.96C194.539 4.96 193.732 5.26666 193.125 5.88C192.519 6.49333 192.155 7.36 192.035 8.48H198.965ZM202.724 14.7V3.9H204.194V8.6H210.284V3.9H211.754V14.7H210.284V10H204.194V14.7H202.724ZM223.131 3.9V14.7H221.661V6.23L216.011 14.7H214.541V3.9H216.011V12.37L221.661 3.9H223.131ZM230.508 13.61C231.314 13.61 231.988 13.43 232.528 13.07C233.068 12.71 233.498 12.1967 233.818 11.53L235.208 12.04C234.774 12.9933 234.151 13.7267 233.338 14.24C232.531 14.7467 231.588 15 230.508 15C229.728 15 229.018 14.8667 228.378 14.6C227.744 14.3267 227.201 13.9433 226.748 13.45C226.301 12.9567 225.954 12.36 225.708 11.66C225.461 10.9533 225.338 10.1667 225.338 9.3C225.338 8.42666 225.458 7.64 225.698 6.94C225.938 6.23333 226.281 5.63333 226.728 5.14C227.174 4.64666 227.711 4.26666 228.338 4C228.964 3.73333 229.668 3.6 230.448 3.6C231.261 3.6 231.981 3.74 232.608 4.02C233.234 4.3 233.761 4.70333 234.188 5.23C234.614 5.75666 234.931 6.39666 235.138 7.15C235.351 7.90333 235.444 8.75666 235.418 9.71H226.908C226.941 10.3233 227.048 10.8733 227.228 11.36C227.408 11.84 227.651 12.2467 227.958 12.58C228.271 12.9133 228.641 13.17 229.068 13.35C229.501 13.5233 229.981 13.61 230.508 13.61ZM233.868 8.48C233.774 7.34 233.434 6.47 232.848 5.87C232.261 5.26333 231.461 4.96 230.448 4.96C229.441 4.96 228.634 5.26666 228.028 5.88C227.421 6.49333 227.058 7.36 226.938 8.48H233.868ZM245.911 14.7H241.631V3.9H245.801C247.074 3.9 248.037 4.14333 248.691 4.63C249.351 5.11666 249.681 5.84 249.681 6.8C249.681 7.40666 249.541 7.9 249.261 8.28C248.981 8.66 248.614 8.93666 248.161 9.11C248.414 9.18333 248.651 9.29666 248.871 9.45C249.097 9.60333 249.291 9.79333 249.451 10.02C249.617 10.2467 249.747 10.5033 249.841 10.79C249.941 11.0767 249.991 11.3867 249.991 11.72C249.991 12.7 249.644 13.4433 248.951 13.95C248.264 14.45 247.251 14.7 245.911 14.7ZM245.781 5.16H243.021V8.57H246.181C246.487 8.57 246.764 8.53666 247.011 8.47C247.264 8.40333 247.481 8.30333 247.661 8.17C247.841 8.03666 247.981 7.86666 248.081 7.66C248.181 7.45333 248.231 7.21 248.231 6.93C248.231 6.61666 248.184 6.35 248.091 6.13C248.004 5.90333 247.864 5.72 247.671 5.58C247.477 5.43333 247.224 5.32666 246.911 5.26C246.597 5.19333 246.221 5.16 245.781 5.16ZM245.881 13.44C246.774 13.44 247.441 13.3 247.881 13.02C248.321 12.74 248.541 12.2867 248.541 11.66C248.541 11.32 248.481 11.0333 248.361 10.8C248.247 10.5667 248.091 10.3767 247.891 10.23C247.691 10.0833 247.454 9.97666 247.181 9.91C246.907 9.84333 246.614 9.81 246.301 9.81H243.031V13.44H245.881ZM260.256 15.01C259.49 15.0033 258.81 14.87 258.216 14.61C257.63 14.35 257.133 13.9733 256.726 13.48C256.32 12.98 256.006 12.37 255.786 11.65C255.566 10.93 255.443 10.11 255.416 9.19C255.403 8.76333 255.403 8.28 255.416 7.74C255.43 7.2 255.466 6.67 255.526 6.15C255.6 5.57666 255.69 5.05666 255.796 4.59C255.91 4.11666 256.05 3.69333 256.216 3.32C256.39 2.94 256.596 2.60666 256.836 2.32C257.083 2.02666 257.376 1.77333 257.716 1.56C258.203 1.25333 258.703 1.03333 259.216 0.899996C259.73 0.759996 260.266 0.65333 260.826 0.579996C261.393 0.506663 261.99 0.436663 262.616 0.369996C263.25 0.296662 263.926 0.173329 264.646 -3.33786e-06L264.766 1.4C264.106 1.56666 263.483 1.68333 262.896 1.75C262.316 1.81666 261.766 1.88 261.246 1.94C260.733 2 260.253 2.08 259.806 2.18C259.366 2.28 258.956 2.44666 258.576 2.68C258.316 2.84 258.09 3.02666 257.896 3.24C257.71 3.45333 257.55 3.71666 257.416 4.03C257.29 4.33666 257.183 4.70333 257.096 5.13C257.016 5.55 256.95 6.04666 256.896 6.62C257.33 5.93333 257.853 5.43333 258.466 5.12C259.086 4.80666 259.803 4.65 260.616 4.65C261.31 4.65 261.94 4.77333 262.506 5.02C263.08 5.26666 263.57 5.61666 263.976 6.07C264.39 6.51666 264.71 7.06 264.936 7.7C265.163 8.33333 265.276 9.03666 265.276 9.81C265.276 10.6033 265.156 11.32 264.916 11.96C264.676 12.6 264.336 13.1467 263.896 13.6C263.463 14.0533 262.936 14.4033 262.316 14.65C261.703 14.89 261.016 15.01 260.256 15.01ZM260.296 13.6C260.836 13.6 261.316 13.5133 261.736 13.34C262.163 13.1667 262.523 12.9167 262.816 12.59C263.116 12.2633 263.343 11.87 263.496 11.41C263.65 10.95 263.726 10.43 263.726 9.85C263.726 9.27 263.653 8.74666 263.506 8.28C263.36 7.80666 263.143 7.40666 262.856 7.08C262.576 6.75333 262.23 6.50333 261.816 6.33C261.403 6.15 260.933 6.06 260.406 6.06C259.86 6.06 259.373 6.14666 258.946 6.32C258.526 6.49333 258.17 6.74333 257.876 7.07C257.59 7.39666 257.37 7.79333 257.216 8.26C257.063 8.72666 256.986 9.25666 256.986 9.85C256.986 10.4167 257.063 10.9333 257.216 11.4C257.37 11.86 257.59 12.2533 257.876 12.58C258.163 12.9067 258.51 13.16 258.916 13.34C259.33 13.5133 259.79 13.6 260.296 13.6ZM266.481 13.55C266.654 13.6033 266.804 13.63 266.931 13.63C267.211 13.63 267.444 13.5233 267.631 13.31C267.824 13.0967 267.977 12.79 268.091 12.39C268.211 11.99 268.294 11.5033 268.341 10.93C268.387 10.35 268.411 9.69666 268.411 8.97V3.9H276.151V14.7H274.681V5.3H269.801V9.3C269.801 11.26 269.601 12.7 269.201 13.62C268.801 14.54 268.191 15 267.371 15C267.097 15 266.801 14.95 266.481 14.85V13.55ZM283.455 15C282.655 15 281.939 14.86 281.305 14.58C280.672 14.3 280.135 13.91 279.695 13.41C279.255 12.9033 278.919 12.3 278.685 11.6C278.459 10.9 278.345 10.13 278.345 9.29C278.345 8.44333 278.462 7.67 278.695 6.97C278.935 6.27 279.275 5.67 279.715 5.17C280.155 4.67 280.692 4.28333 281.325 4.01C281.959 3.73666 282.669 3.6 283.455 3.6C284.262 3.6 284.982 3.74 285.615 4.02C286.249 4.3 286.785 4.69 287.225 5.19C287.665 5.69 287.999 6.29 288.225 6.99C288.459 7.68333 288.575 8.45 288.575 9.29C288.575 10.1367 288.459 10.9133 288.225 11.62C287.992 12.32 287.655 12.92 287.215 13.42C286.775 13.92 286.239 14.31 285.605 14.59C284.972 14.8633 284.255 15 283.455 15ZM283.455 13.59C284.049 13.59 284.565 13.4867 285.005 13.28C285.452 13.0733 285.822 12.7833 286.115 12.41C286.415 12.0367 286.639 11.5867 286.785 11.06C286.939 10.5267 287.015 9.93666 287.015 9.29C287.015 8.63 286.939 8.03666 286.785 7.51C286.639 6.98333 286.415 6.53666 286.115 6.17C285.815 5.79666 285.442 5.51 284.995 5.31C284.555 5.11 284.042 5.01 283.455 5.01C282.862 5.01 282.342 5.11333 281.895 5.32C281.455 5.52 281.085 5.81 280.785 6.19C280.492 6.56333 280.272 7.01333 280.125 7.54C279.979 8.06666 279.905 8.65 279.905 9.29C279.905 9.95 279.982 10.5467 280.135 11.08C280.289 11.6067 280.512 12.0567 280.805 12.43C281.105 12.8033 281.475 13.09 281.915 13.29C282.362 13.49 282.875 13.59 283.455 13.59ZM290.771 3.9H292.241V9.1L297.061 3.9H299.021L293.961 9.3L299.681 14.7H297.541L292.241 9.5V14.7H290.771V3.9ZM304.863 13.61C305.67 13.61 306.343 13.43 306.883 13.07C307.423 12.71 307.853 12.1967 308.173 11.53L309.563 12.04C309.13 12.9933 308.506 13.7267 307.693 14.24C306.886 14.7467 305.943 15 304.863 15C304.083 15 303.373 14.8667 302.733 14.6C302.1 14.3267 301.556 13.9433 301.103 13.45C300.656 12.9567 300.31 12.36 300.063 11.66C299.816 10.9533 299.693 10.1667 299.693 9.3C299.693 8.42666 299.813 7.64 300.053 6.94C300.293 6.23333 300.636 5.63333 301.083 5.14C301.53 4.64666 302.066 4.26666 302.693 4C303.32 3.73333 304.023 3.6 304.803 3.6C305.616 3.6 306.336 3.74 306.963 4.02C307.59 4.3 308.116 4.70333 308.543 5.23C308.97 5.75666 309.286 6.39666 309.493 7.15C309.706 7.90333 309.8 8.75666 309.773 9.71H301.263C301.296 10.3233 301.403 10.8733 301.583 11.36C301.763 11.84 302.006 12.2467 302.313 12.58C302.626 12.9133 302.996 13.17 303.423 13.35C303.856 13.5233 304.336 13.61 304.863 13.61ZM308.223 8.48C308.13 7.34 307.79 6.47 307.203 5.87C306.616 5.26333 305.816 4.96 304.803 4.96C303.796 4.96 302.99 5.26666 302.383 5.88C301.776 6.49333 301.413 7.36 301.293 8.48H308.223Z" fill="black"/>
</svg>
