<svg width="99" height="24" viewBox="0 0 99 24" fill="none" xmlns="http://www.w3.org/2000/svg">
<path d="M-0.000175774 17.28V-1.90735e-06H13.2838V17.28H10.7518V2.364H2.53182V17.28H-0.000175774ZM16.6404 23.04V4.32H19.1484V6.204C19.5564 5.5 20.0964 4.952 20.7684 4.56C21.4484 4.16 22.2964 3.96 23.3124 3.96C24.1844 3.96 24.9804 4.128 25.7004 4.464C26.4284 4.8 27.0484 5.272 27.5605 5.88C28.0804 6.48 28.4804 7.2 28.7605 8.04C29.0485 8.872 29.1925 9.788 29.1925 10.788C29.1925 11.804 29.0485 12.732 28.7605 13.572C28.4725 14.412 28.0684 15.136 27.5484 15.744C27.0364 16.344 26.4204 16.812 25.7004 17.148C24.9804 17.476 24.1844 17.64 23.3124 17.64C22.2964 17.64 21.4484 17.444 20.7684 17.052C20.0884 16.652 19.5484 16.1 19.1484 15.396V23.04H16.6404ZM22.8324 15.276C23.4484 15.276 23.9884 15.168 24.4524 14.952C24.9164 14.728 25.3004 14.42 25.6044 14.028C25.9164 13.628 26.1484 13.156 26.3004 12.612C26.4524 12.06 26.5284 11.452 26.5284 10.788C26.5284 10.108 26.4484 9.496 26.2885 8.952C26.1365 8.4 25.9044 7.932 25.5924 7.548C25.2884 7.156 24.9044 6.856 24.4404 6.648C23.9844 6.432 23.4484 6.324 22.8324 6.324C22.2004 6.324 21.6524 6.432 21.1884 6.648C20.7324 6.864 20.3524 7.172 20.0484 7.572C19.7444 7.964 19.5164 8.432 19.3644 8.976C19.2204 9.52 19.1484 10.124 19.1484 10.788C19.1484 11.468 19.2244 12.088 19.3764 12.648C19.5364 13.2 19.7684 13.672 20.0724 14.064C20.3844 14.448 20.7684 14.748 21.2244 14.964C21.6884 15.172 22.2244 15.276 22.8324 15.276ZM42.748 4.32V17.28H40.2399V8.22L34.3239 17.28H31.8159V4.32H34.3239V13.38L40.2399 4.32H42.748ZM53.2174 17.28V12.384C52.8094 12.632 52.3254 12.824 51.7654 12.96C51.2054 13.096 50.5894 13.164 49.9174 13.164C48.3734 13.164 47.2294 12.76 46.4854 11.952C45.7494 11.136 45.3814 9.888 45.3814 8.208V4.32H47.8894V7.848C47.8894 8.368 47.9294 8.824 48.0094 9.216C48.0974 9.6 48.2374 9.92 48.4294 10.176C48.6294 10.432 48.8934 10.624 49.2214 10.752C49.5574 10.88 49.9694 10.944 50.4574 10.944C51.0094 10.944 51.5054 10.876 51.9454 10.74C52.3934 10.596 52.8174 10.384 53.2174 10.104V4.32H55.7374V17.28H53.2174ZM70.0058 4.32V17.28H67.4978V8.22L61.5818 17.28H59.0738V4.32H61.5818V13.38L67.4978 4.32H70.0058ZM73.3472 17.28V4.32H75.8552V9.624H82.1792V4.32H84.6872V17.28H82.1792V11.976H75.8552V17.28H73.3472ZM93.2265 3.96C95.0345 3.96 96.3825 4.42 97.2705 5.34C98.1585 6.252 98.6025 7.652 98.6025 9.54V17.28H96.0825V15.384C95.1945 16.888 93.7425 17.64 91.7265 17.64C91.0545 17.64 90.4465 17.548 89.9025 17.364C89.3665 17.188 88.9065 16.932 88.5225 16.596C88.1465 16.26 87.8545 15.856 87.6465 15.384C87.4385 14.912 87.3345 14.384 87.3345 13.8C87.3345 13.152 87.4505 12.584 87.6825 12.096C87.9145 11.6 88.2505 11.18 88.6905 10.836C89.1385 10.484 89.6825 10.204 90.3225 9.996C90.9705 9.78 91.7025 9.62 92.5185 9.516L96.0825 9.072C96.0665 8.08 95.8185 7.356 95.3385 6.9C94.8665 6.436 94.1545 6.204 93.2025 6.204C92.3545 6.204 91.6785 6.368 91.1745 6.696C90.6785 7.016 90.3265 7.52 90.1185 8.208L87.8025 7.596C88.1385 6.412 88.7665 5.512 89.6865 4.896C90.6145 4.272 91.7945 3.96 93.2265 3.96ZM92.8305 11.376C91.7745 11.504 91.0065 11.748 90.5265 12.108C90.0465 12.46 89.8065 12.96 89.8065 13.608C89.8065 14.88 90.6385 15.516 92.3025 15.516C92.7505 15.516 93.1665 15.456 93.5505 15.336C93.9425 15.216 94.2905 15.048 94.5945 14.832C94.8985 14.608 95.1545 14.344 95.3625 14.04C95.5785 13.728 95.7385 13.388 95.8425 13.02C95.9625 12.708 96.0305 12.376 96.0465 12.024C96.0705 11.664 96.0825 11.34 96.0825 11.052V10.968L92.8305 11.376Z" fill="black"/>
</svg>
