<svg width="104" height="19" viewBox="0 0 104 19" fill="none" xmlns="http://www.w3.org/2000/svg">
<path d="M8.17179 18C6.87579 18 5.71979 17.784 4.70379 17.352C3.69579 16.912 2.83979 16.296 2.13579 15.504C1.43979 14.712 0.907785 13.764 0.539785 12.66C0.179785 11.556 -0.000214815 10.336 -0.000214815 9.00001C-0.000214815 7.66401 0.179785 6.44401 0.539785 5.34001C0.907785 4.23601 1.43979 3.28801 2.13579 2.49601C2.83979 1.70401 3.69579 1.09201 4.70379 0.660014C5.71979 0.220014 6.87579 1.43051e-05 8.17179 1.43051e-05C9.17179 1.43051e-05 10.0838 0.132014 10.9078 0.396014C11.7398 0.652014 12.4798 1.02401 13.1278 1.51201C13.7758 2.00001 14.3278 2.58801 14.7838 3.27601C15.2398 3.95601 15.5958 4.72401 15.8518 5.58001L13.3078 6.26401C12.9638 5.05601 12.3638 4.10801 11.5078 3.42001C10.6518 2.73201 9.53979 2.38801 8.17179 2.38801C7.27579 2.38801 6.48379 2.54801 5.79579 2.86801C5.10779 3.18001 4.52779 3.62801 4.05579 4.21201C3.59179 4.78801 3.23979 5.48401 2.99979 6.30001C2.76779 7.10801 2.65179 8.00801 2.65179 9.00001C2.65179 9.99201 2.76779 10.896 2.99979 11.712C3.23179 12.52 3.57579 13.216 4.03179 13.8C4.49579 14.376 5.07179 14.824 5.75979 15.144C6.44779 15.456 7.25179 15.612 8.17179 15.612C9.53979 15.612 10.6518 15.268 11.5078 14.58C12.3638 13.892 12.9638 12.944 13.3078 11.736L15.8518 12.42C15.5958 13.268 15.2398 14.036 14.7838 14.724C14.3278 15.412 13.7758 16 13.1278 16.488C12.4798 16.976 11.7398 17.352 10.9078 17.616C10.0838 17.872 9.17179 18 8.17179 18ZM24.119 18C23.151 18 22.275 17.832 21.491 17.496C20.715 17.16 20.051 16.692 19.499 16.092C18.947 15.484 18.519 14.76 18.215 13.92C17.919 13.08 17.771 12.156 17.771 11.148C17.771 10.14 17.919 9.21601 18.215 8.37601C18.519 7.53601 18.947 6.81601 19.499 6.21601C20.059 5.61601 20.727 5.15201 21.503 4.82401C22.287 4.48801 23.159 4.32001 24.119 4.32001C25.087 4.32001 25.963 4.48801 26.747 4.82401C27.531 5.15201 28.199 5.62001 28.751 6.22801C29.303 6.82801 29.727 7.54801 30.023 8.38801C30.327 9.22001 30.479 10.14 30.479 11.148C30.479 12.164 30.327 13.092 30.023 13.932C29.727 14.772 29.303 15.496 28.751 16.104C28.199 16.704 27.531 17.172 26.747 17.508C25.963 17.836 25.087 18 24.119 18ZM24.119 15.636C24.719 15.636 25.247 15.532 25.703 15.324C26.167 15.116 26.555 14.82 26.867 14.436C27.179 14.044 27.415 13.572 27.575 13.02C27.735 12.46 27.815 11.836 27.815 11.148C27.815 10.452 27.735 9.82801 27.575 9.27601C27.415 8.72401 27.179 8.25601 26.867 7.87201C26.555 7.48801 26.167 7.19601 25.703 6.99601C25.247 6.78801 24.719 6.68401 24.119 6.68401C23.511 6.68401 22.975 6.78801 22.511 6.99601C22.055 7.20401 21.671 7.50001 21.359 7.88401C21.055 8.26801 20.823 8.73601 20.663 9.28801C20.511 9.84001 20.435 10.46 20.435 11.148C20.435 11.844 20.515 12.472 20.675 13.032C20.835 13.584 21.071 14.052 21.383 14.436C21.695 14.82 22.079 15.116 22.535 15.324C22.999 15.532 23.527 15.636 24.119 15.636ZM38.396 18.012C37.476 18.004 36.66 17.848 35.948 17.544C35.236 17.232 34.628 16.788 34.124 16.212C33.628 15.636 33.236 14.936 32.948 14.112C32.668 13.28 32.496 12.348 32.432 11.316C32.416 11.052 32.404 10.764 32.396 10.452C32.388 10.14 32.388 9.82001 32.396 9.49201C32.404 9.16401 32.42 8.82801 32.444 8.48401C32.468 8.14001 32.5 7.80801 32.54 7.48801C32.612 6.87201 32.704 6.29201 32.816 5.74801C32.936 5.20401 33.096 4.70001 33.296 4.23601C33.496 3.76401 33.744 3.33601 34.04 2.95201C34.344 2.56801 34.716 2.23201 35.156 1.94401C35.748 1.55201 36.376 1.26801 37.04 1.09201C37.704 0.908014 38.4 0.768014 39.128 0.672014C39.856 0.576014 40.612 0.488013 41.396 0.408013C42.18 0.328013 42.988 0.196013 43.82 0.0120134L44 2.35201C43.152 2.53601 42.376 2.66801 41.672 2.74801C40.968 2.82001 40.32 2.89201 39.728 2.96401C39.144 3.02801 38.604 3.11601 38.108 3.22801C37.612 3.33201 37.14 3.51201 36.692 3.76801C36.396 3.93601 36.14 4.13201 35.924 4.35601C35.716 4.57201 35.54 4.83601 35.396 5.14801C35.26 5.45201 35.148 5.81201 35.06 6.22801C34.98 6.64401 34.916 7.13601 34.868 7.70401C35.348 6.96001 35.948 6.42001 36.668 6.08401C37.388 5.74001 38.184 5.56801 39.056 5.56801C39.88 5.56801 40.632 5.72001 41.312 6.02401C41.992 6.32001 42.576 6.74001 43.064 7.28401C43.552 7.82001 43.932 8.46801 44.204 9.22801C44.476 9.98001 44.612 10.812 44.612 11.724C44.612 12.676 44.46 13.54 44.156 14.316C43.852 15.092 43.428 15.756 42.884 16.308C42.34 16.86 41.684 17.284 40.916 17.58C40.156 17.876 39.316 18.02 38.396 18.012ZM38.492 15.648C39.044 15.648 39.536 15.556 39.968 15.372C40.4 15.188 40.764 14.932 41.06 14.604C41.356 14.268 41.58 13.864 41.732 13.392C41.884 12.92 41.96 12.396 41.96 11.82C41.96 11.228 41.884 10.696 41.732 10.224C41.58 9.74401 41.356 9.33601 41.06 9.00001C40.772 8.66401 40.416 8.40801 39.992 8.23201C39.576 8.04801 39.1 7.95601 38.564 7.95601C38.012 7.95601 37.52 8.04801 37.088 8.23201C36.656 8.40801 36.292 8.66401 35.996 9.00001C35.708 9.33601 35.488 9.74401 35.336 10.224C35.184 10.696 35.108 11.228 35.108 11.82C35.108 12.404 35.184 12.936 35.336 13.416C35.488 13.888 35.708 14.288 35.996 14.616C36.292 14.944 36.648 15.2 37.064 15.384C37.488 15.56 37.964 15.648 38.492 15.648ZM59.2248 17.64V4.68001H61.7328V17.64H59.2248ZM53.1168 17.64H47.2488V4.68001H49.7568V9.27601H53.1168C53.9088 9.27601 54.5968 9.38401 55.1808 9.60001C55.7728 9.81601 56.2608 10.116 56.6448 10.5C57.0368 10.876 57.3288 11.32 57.5208 11.832C57.7128 12.336 57.8088 12.88 57.8088 13.464C57.8088 14.048 57.7128 14.596 57.5208 15.108C57.3288 15.612 57.0368 16.052 56.6448 16.428C56.2608 16.804 55.7728 17.1 55.1808 17.316C54.5968 17.532 53.9088 17.64 53.1168 17.64ZM52.7568 15.564C53.1968 15.564 53.5768 15.512 53.8968 15.408C54.2168 15.296 54.4768 15.148 54.6768 14.964C54.8848 14.78 55.0368 14.56 55.1328 14.304C55.2368 14.04 55.2888 13.76 55.2888 13.464C55.2888 13.16 55.2368 12.88 55.1328 12.624C55.0368 12.368 54.8848 12.148 54.6768 11.964C54.4768 11.772 54.2168 11.624 53.8968 11.52C53.5768 11.408 53.1968 11.352 52.7568 11.352H49.7568V15.564H52.7568ZM68.3488 17.64V7.03201H64.0048V4.68001H75.2008V7.03201H70.8568V17.64H68.3488ZM88.4032 4.68001V17.64H85.8952V8.58001L79.9792 17.64H77.4712V4.68001H79.9792V13.74L85.8952 4.68001H88.4032ZM97.4087 15.66C98.2327 15.66 98.9127 15.488 99.4487 15.144C99.9927 14.792 100.425 14.276 100.745 13.596L103.217 14.352C102.705 15.52 101.945 16.42 100.937 17.052C99.9367 17.684 98.7607 18 97.4087 18C96.4487 18 95.5767 17.836 94.7927 17.508C94.0167 17.172 93.3487 16.704 92.7887 16.104C92.2287 15.504 91.7967 14.784 91.4927 13.944C91.1887 13.104 91.0367 12.176 91.0367 11.16C91.0367 10.128 91.1887 9.19201 91.4927 8.35201C91.7967 7.51201 92.2287 6.79201 92.7887 6.19201C93.3487 5.59201 94.0167 5.13201 94.7927 4.81201C95.5767 4.48401 96.4407 4.32001 97.3847 4.32001C98.3927 4.32001 99.2847 4.49601 100.061 4.84801C100.837 5.20001 101.481 5.70401 101.993 6.36001C102.513 7.00801 102.889 7.80001 103.121 8.73601C103.361 9.66401 103.449 10.708 103.385 11.868H93.7367C93.8487 13.076 94.2247 14.012 94.8647 14.676C95.5047 15.332 96.3527 15.66 97.4087 15.66ZM100.805 9.91201C100.717 8.84001 100.377 8.01601 99.7847 7.44001C99.1927 6.86401 98.3927 6.57601 97.3847 6.57601C96.3847 6.57601 95.5767 6.86401 94.9607 7.44001C94.3527 8.01601 93.9647 8.84001 93.7967 9.91201H100.805Z" fill="black"/>
</svg>
