<svg width="54" height="28" viewBox="0 0 54 28" fill="none" xmlns="http://www.w3.org/2000/svg">
  <g transform="translate(-68 -12.0701)">
    <path
      fill-rule="evenodd"
      clip-rule="evenodd"
      d="M77.2197 12.0701H86.7008L95.073 20.4422V36.5193C95.073 38.4715 93.4744 40.0701 91.5222 40.0701H77.2197C75.2675 40.0701 73.6689 38.4715 73.6689 36.5193V15.6209C73.6689 13.6686 75.2675 12.0701 77.2197 12.0701Z"
      fill="#D0FF00"
    />
    <path
      fill-rule="evenodd"
      clip-rule="evenodd"
      d="M86.7012 12.0701L95.0733 20.4422H87.6053C87.1076 20.4422 86.7012 20.0358 86.7012 19.5381V12.0701Z"
      fill="#2A2A2A"
    />
    <path
      fill-rule="evenodd"
      clip-rule="evenodd"
      d="M69.707 23.9929H88.9908C89.4197 23.9929 89.7701 24.3434 89.7701 24.7722V31.8466C89.7701 32.2755 89.4197 32.6259 88.9908 32.6259H69.707C69.2782 32.6259 68.9277 32.2755 68.9277 31.8466V24.7722C68.9277 24.3434 69.2782 23.9929 69.707 23.9929Z"
      fill="#2A2A2A"
    />
    <path
      d="M76.7893 30.7297C76.7893 30.9789 76.5872 31.181 76.338 31.181H73.4288C73.1796 31.181 72.9775 30.9789 72.9775 30.7297V25.8876C72.9775 25.6383 73.1796 25.4363 73.4288 25.4363C73.678 25.4363 73.8801 25.6383 73.8801 25.8876V30.2784H76.338C76.5872 30.2784 76.7893 30.4805 76.7893 30.7297ZM85.2686 28.0814H83.814C83.5648 28.0814 83.3628 28.2834 83.3628 28.5327C83.3628 28.782 83.5648 28.984 83.814 28.984H84.8173V29.9344C84.8173 30.1209 84.6591 30.2784 84.4718 30.2784H83.1548C82.9683 30.2784 82.8108 30.1209 82.8108 29.9344V26.6845C82.8108 26.4971 82.9683 26.3388 83.1548 26.3388H84.4718C84.6623 26.3388 84.8173 26.4939 84.8173 26.6845C84.8173 26.9337 85.0194 27.1357 85.2686 27.1357C85.5178 27.1357 85.7199 26.9337 85.7199 26.6845C85.7199 25.9962 85.1599 25.4363 84.4718 25.4363H83.1548C82.4675 25.4363 81.9083 25.9962 81.9083 26.6845V29.9344C81.9083 30.6217 82.4675 31.181 83.1548 31.181H84.4718C85.16 31.181 85.7199 30.6217 85.7199 29.9344V28.5327C85.7198 28.2835 85.5178 28.0814 85.2686 28.0814ZM80.9081 27.3421V29.2751C80.9081 30.3259 80.0531 31.1809 79.0022 31.1809C77.9514 31.1809 77.0964 30.3259 77.0964 29.2751V27.3421C77.0964 26.2913 77.9514 25.4363 79.0022 25.4363C80.0532 25.4363 80.9081 26.2913 80.9081 27.3421ZM80.0056 27.3421C80.0056 26.7889 79.5555 26.3388 79.0022 26.3388C78.449 26.3388 77.9989 26.7889 77.9989 27.3421V29.2751C77.9989 29.8283 78.449 30.2784 79.0022 30.2784C79.5555 30.2784 80.0056 29.8283 80.0056 29.2751V27.3421Z"
      fill="white"
    />
  </g>
  <path
    d="M42.445 12.409C42.5342 11.8989 42.5833 11.3746 42.5833 10.8387C42.5833 5.96522 38.7327 2 34 2C29.2673 2 25.4168 5.96522 25.4168 10.8387C25.4168 11.3746 25.4661 11.8986 25.5552 12.409C24.8101 12.8849 24.3145 13.717 24.3145 14.6675V23.3203C24.3145 24.8003 25.5144 26 26.9941 26H41.0059C42.4856 26 43.6855 24.8003 43.6855 23.3203H43.6859V14.6675C43.6859 13.7172 43.1905 12.8848 42.445 12.409ZM35.1825 19.9642V21.8447C35.1825 22.4981 34.653 23.0275 34 23.0275C33.3469 23.0275 32.8175 22.4981 32.8175 21.8447V19.9634C32.0586 19.5453 31.5438 18.7387 31.5438 17.811C31.5438 16.4546 32.6436 15.3549 34 15.3549C35.3564 15.3549 36.4563 16.4546 36.4563 17.811C36.4563 18.7391 35.9416 19.5464 35.1825 19.9642ZM39.3173 11.9876H28.6827C28.6098 11.6167 28.5709 11.2321 28.5709 10.8387C28.5709 7.70406 31.0065 5.15417 34 5.15417C36.9935 5.15417 39.4291 7.70387 39.4291 10.8387C39.4291 11.2321 39.3902 11.6167 39.3173 11.9876Z"
    fill="#2A2A2A"
  />
</svg>
