<svg width="188" height="88" viewBox="0 0 188 88" fill="none" xmlns="http://www.w3.org/2000/svg">
<g clip-path="url(#clip0_119_1329)">
<path d="M60 0H176C182.627 0 188 5.37258 188 12V76C188 82.6274 182.627 88 176 88H60V0Z" fill="white"/>
<g clip-path="url(#clip1_119_1329)">
<path fill-rule="evenodd" clip-rule="evenodd" d="M69.2197 12H78.7008L87.073 20.3722V36.4492C87.073 38.4014 85.4744 40 83.5222 40H69.2197C67.2675 40 65.6689 38.4014 65.6689 36.4492V15.5508C65.6689 13.5986 67.2675 12 69.2197 12Z" fill="#D0FF00"/>
<path fill-rule="evenodd" clip-rule="evenodd" d="M78.7012 12L87.0733 20.3722H79.6053C79.1076 20.3722 78.7012 19.9657 78.7012 19.4681V12Z" fill="#2A2A2A"/>
<path fill-rule="evenodd" clip-rule="evenodd" d="M61.707 23.9229H80.9908C81.4197 23.9229 81.7701 24.2733 81.7701 24.7021V31.7765C81.7701 32.2054 81.4197 32.5558 80.9908 32.5558H61.707C61.2782 32.5558 60.9277 32.2054 60.9277 31.7765V24.7021C60.9277 24.2733 61.2782 23.9229 61.707 23.9229Z" fill="#2A2A2A"/>
<path d="M68.7893 30.6596C68.7893 30.9088 68.5872 31.1109 68.338 31.1109H65.4288C65.1796 31.1109 64.9775 30.9088 64.9775 30.6596V25.8175C64.9775 25.5683 65.1796 25.3662 65.4288 25.3662C65.678 25.3662 65.8801 25.5683 65.8801 25.8175V30.2084H68.338C68.5872 30.2084 68.7893 30.4104 68.7893 30.6596ZM77.2686 28.0113H75.814C75.5648 28.0113 75.3628 28.2134 75.3628 28.4626C75.3628 28.7119 75.5648 28.9139 75.814 28.9139H76.8173V29.8644C76.8173 30.0509 76.6591 30.2084 76.4718 30.2084H75.1548C74.9683 30.2084 74.8108 30.0509 74.8108 29.8644V26.6144C74.8108 26.427 74.9683 26.2688 75.1548 26.2688H76.4718C76.6623 26.2688 76.8173 26.4238 76.8173 26.6144C76.8173 26.8636 77.0194 27.0657 77.2686 27.0657C77.5178 27.0657 77.7199 26.8636 77.7199 26.6144C77.7199 25.9261 77.1599 25.3662 76.4718 25.3662H75.1548C74.4675 25.3662 73.9083 25.9262 73.9083 26.6144V29.8644C73.9083 30.5517 74.4675 31.1109 75.1548 31.1109H76.4718C77.16 31.1109 77.7199 30.5517 77.7199 29.8644V28.4626C77.7198 28.2134 77.5178 28.0113 77.2686 28.0113ZM72.9081 27.2721V29.2051C72.9081 30.2559 72.0531 31.1109 71.0022 31.1109C69.9514 31.1109 69.0964 30.2559 69.0964 29.2051V27.2721C69.0964 26.2212 69.9514 25.3662 71.0022 25.3662C72.0532 25.3662 72.9081 26.2212 72.9081 27.2721ZM72.0056 27.2721C72.0056 26.7188 71.5555 26.2687 71.0022 26.2687C70.449 26.2687 69.9989 26.7188 69.9989 27.2721V29.2051C69.9989 29.7583 70.449 30.2084 71.0022 30.2084C71.5555 30.2084 72.0056 29.7583 72.0056 29.2051V27.2721Z" fill="white"/>
</g>
<g clip-path="url(#clip2_119_1329)">
<path d="M101.445 24.409C101.534 23.8992 101.583 23.3748 101.583 22.8387C101.583 17.9652 97.7328 14 93.0002 14C88.2673 14 84.4168 17.9652 84.4168 22.8387C84.4168 23.3748 84.4661 23.8988 84.5553 24.409C83.81 24.8849 83.3145 25.7171 83.3145 26.6675V35.3203C83.3145 36.8003 84.5143 38 85.994 38H100.006C101.485 38 102.685 36.8003 102.685 35.3203H102.686V26.6675C102.686 25.7173 102.191 24.8849 101.445 24.409ZM94.1825 31.9643V33.8446C94.1825 34.4982 93.6531 35.0276 92.9997 35.0276C92.3464 35.0276 91.817 34.4982 91.817 33.8446V31.9634C91.0584 31.5454 90.5438 30.7387 90.5438 29.8111C90.5438 28.4547 91.6434 27.3549 93.0002 27.3549C94.3569 27.3549 95.4567 28.4547 95.4567 29.8111C95.4567 30.7391 94.9417 31.5464 94.1825 31.9643ZM98.3174 23.9876H87.6827C87.6098 23.6168 87.5709 23.2321 87.5709 22.8387C87.5709 19.7042 90.0064 17.1542 93.0002 17.1542C95.9937 17.1542 98.4289 19.7039 98.4289 22.8387C98.4289 23.2321 98.3905 23.6168 98.3174 23.9876Z" fill="#2A2A2A"/>
</g>
<path d="M67.005 55.9525L62.445 61H60.15L65.115 55.495L60.465 50.2H62.685L67.005 55.225V50.2H68.82V55.225L73.1325 50.2H75.3525L70.71 55.495L75.675 61H73.38L68.82 55.9525V61H67.005V55.9525ZM80.1103 61H78.1453L79.7803 57.5275L76.1428 50.2H78.1228L80.7028 55.585L83.2378 50.2H85.1953L80.1103 61ZM86.4574 61V50.2H90.7249C91.3649 50.2 91.9224 50.28 92.3974 50.44C92.8774 50.6 93.2749 50.8325 93.5899 51.1375C93.9099 51.4375 94.1499 51.805 94.3099 52.24C94.4699 52.675 94.5499 53.1675 94.5499 53.7175C94.5499 54.2675 94.4699 54.76 94.3099 55.195C94.1499 55.63 93.9099 55.9975 93.5899 56.2975C93.2699 56.5975 92.8699 56.8275 92.3899 56.9875C91.9149 57.1475 91.3599 57.2275 90.7249 57.2275H88.2799V61H86.4574ZM88.2799 55.54H90.7099C91.3649 55.54 91.8649 55.385 92.2099 55.075C92.5549 54.76 92.7274 54.3075 92.7274 53.7175C92.7274 53.1275 92.5549 52.6775 92.2099 52.3675C91.8649 52.0525 91.3649 51.895 90.7099 51.895H88.2799V55.54ZM96.2021 61V50.2H98.0171V54.745H103.125V50.2H104.94V61H103.125V56.44H98.0171V61H96.2021ZM115.952 60.9925H114.047L113.282 58.6525H109.067L108.302 60.9925H106.397L109.974 50.1925H112.382L115.952 60.9925ZM112.734 56.965L111.174 52.1725L109.614 56.965H112.734ZM117.124 59.5C117.284 59.54 117.422 59.56 117.537 59.56C117.772 59.56 117.967 59.4975 118.122 59.3725C118.282 59.2425 118.409 59.06 118.504 58.825C118.604 58.59 118.679 58.305 118.729 57.97C118.784 57.635 118.822 57.2625 118.842 56.8525C118.862 56.4375 118.872 55.99 118.872 55.51C118.877 55.03 118.879 54.525 118.879 53.995V50.2H126.462V61H124.647V51.895H120.567V55.63C120.567 56.73 120.504 57.64 120.379 58.36C120.259 59.08 120.089 59.6525 119.869 60.0775C119.654 60.4975 119.399 60.7925 119.104 60.9625C118.814 61.1325 118.497 61.2175 118.152 61.2175C117.987 61.2175 117.817 61.2025 117.642 61.1725C117.472 61.1425 117.299 61.1 117.124 61.045V59.5ZM65.6175 75.225C64.8075 75.225 64.0825 75.09 63.4425 74.82C62.8075 74.545 62.2675 74.1625 61.8225 73.6725C61.3775 73.1775 61.0375 72.585 60.8025 71.895C60.5675 71.205 60.45 70.44 60.45 69.6C60.45 68.76 60.5675 67.995 60.8025 67.305C61.0375 66.615 61.3775 66.025 61.8225 65.535C62.2675 65.04 62.8075 64.6575 63.4425 64.3875C64.0825 64.1125 64.8075 63.975 65.6175 63.975C66.2375 63.975 66.8075 64.055 67.3275 64.215C67.8525 64.375 68.32 64.605 68.73 64.905C69.14 65.205 69.4925 65.5675 69.7875 65.9925C70.0825 66.4175 70.3125 66.895 70.4775 67.425L68.655 67.9275C68.55 67.5775 68.4075 67.265 68.2275 66.99C68.0525 66.71 67.8375 66.4725 67.5825 66.2775C67.3325 66.0825 67.0425 65.935 66.7125 65.835C66.3875 65.73 66.0225 65.6775 65.6175 65.6775C65.0925 65.6775 64.625 65.7725 64.215 65.9625C63.81 66.1475 63.4675 66.4125 63.1875 66.7575C62.9125 67.0975 62.7025 67.51 62.5575 67.995C62.4175 68.475 62.3475 69.01 62.3475 69.6C62.3475 70.19 62.415 70.7275 62.55 71.2125C62.69 71.6925 62.895 72.105 63.165 72.45C63.44 72.79 63.78 73.055 64.185 73.245C64.595 73.43 65.0725 73.5225 65.6175 73.5225C66.0225 73.5225 66.3875 73.4725 66.7125 73.3725C67.0425 73.2675 67.3325 73.1175 67.5825 72.9225C67.8375 72.7275 68.0525 72.4925 68.2275 72.2175C68.4075 71.9375 68.55 71.6225 68.655 71.2725L70.4775 71.775C70.3125 72.305 70.0825 72.7825 69.7875 73.2075C69.4925 73.6325 69.14 73.995 68.73 74.295C68.32 74.595 67.8525 74.825 67.3275 74.985C66.8075 75.145 66.2375 75.225 65.6175 75.225ZM76.8417 75.225C76.0317 75.225 75.3067 75.09 74.6667 74.82C74.0317 74.545 73.4917 74.1625 73.0467 73.6725C72.6017 73.1775 72.2617 72.585 72.0267 71.895C71.7917 71.205 71.6742 70.44 71.6742 69.6C71.6742 68.76 71.7917 67.995 72.0267 67.305C72.2617 66.615 72.6017 66.025 73.0467 65.535C73.4917 65.04 74.0317 64.6575 74.6667 64.3875C75.3067 64.1125 76.0317 63.975 76.8417 63.975C77.6517 63.975 78.3767 64.1125 79.0167 64.3875C79.6567 64.6575 80.1992 65.04 80.6442 65.535C81.0892 66.025 81.4292 66.615 81.6642 67.305C81.8992 67.995 82.0167 68.76 82.0167 69.6C82.0167 70.44 81.8992 71.205 81.6642 71.895C81.4292 72.585 81.0892 73.1775 80.6442 73.6725C80.1992 74.1625 79.6567 74.545 79.0167 74.82C78.3767 75.09 77.6517 75.225 76.8417 75.225ZM76.8417 73.5225C77.3867 73.5225 77.8617 73.43 78.2667 73.245C78.6767 73.055 79.0167 72.79 79.2867 72.45C79.5617 72.105 79.7667 71.6925 79.9017 71.2125C80.0367 70.7275 80.1042 70.19 80.1042 69.6C80.1042 69.01 80.0367 68.475 79.9017 67.995C79.7667 67.51 79.5617 67.0975 79.2867 66.7575C79.0167 66.4125 78.6767 66.1475 78.2667 65.9625C77.8617 65.7725 77.3867 65.6775 76.8417 65.6775C76.2967 65.6775 75.8217 65.7725 75.4167 65.9625C75.0117 66.1475 74.6742 66.4125 74.4042 66.7575C74.1342 67.0975 73.9292 67.51 73.7892 67.995C73.6542 68.475 73.5867 69.01 73.5867 69.6C73.5867 70.19 73.6542 70.7275 73.7892 71.2125C73.9242 71.6925 74.1267 72.105 74.3967 72.45C74.6667 72.79 75.0042 73.055 75.4092 73.245C75.8192 73.43 76.2967 73.5225 76.8417 73.5225ZM83.6596 64.2H90.8971V65.895H85.4746V68.145H88.0621C88.6521 68.145 89.1746 68.23 89.6296 68.4C90.0896 68.565 90.4771 68.7975 90.7921 69.0975C91.1071 69.3975 91.3446 69.7575 91.5046 70.1775C91.6696 70.5975 91.7521 71.0625 91.7521 71.5725C91.7521 72.0775 91.6696 72.54 91.5046 72.96C91.3446 73.38 91.1071 73.7425 90.7921 74.0475C90.4771 74.3475 90.0896 74.5825 89.6296 74.7525C89.1746 74.9175 88.6521 75 88.0621 75H83.6596V64.2ZM87.8446 73.305C88.1996 73.305 88.5071 73.2625 88.7671 73.1775C89.0321 73.0925 89.2496 72.975 89.4196 72.825C89.5896 72.67 89.7146 72.4875 89.7946 72.2775C89.8796 72.0625 89.9221 71.8275 89.9221 71.5725C89.9221 71.3175 89.8796 71.085 89.7946 70.875C89.7146 70.66 89.5896 70.4775 89.4196 70.3275C89.2496 70.1725 89.0321 70.0525 88.7671 69.9675C88.5071 69.8825 88.1996 69.84 87.8446 69.84H85.4746V73.305H87.8446ZM95.2268 67.9725H97.6718C98.3118 67.9725 98.8693 68.0525 99.3443 68.2125C99.8243 68.3725 100.222 68.6025 100.537 68.9025C100.857 69.2025 101.097 69.57 101.257 70.005C101.417 70.44 101.497 70.9325 101.497 71.4825C101.497 72.0325 101.417 72.525 101.257 72.96C101.097 73.395 100.857 73.765 100.537 74.07C100.222 74.37 99.8243 74.6 99.3443 74.76C98.8693 74.92 98.3118 75 97.6718 75H93.4118V64.2H95.2268V67.9725ZM97.6568 73.305C98.3118 73.305 98.8118 73.15 99.1568 72.84C99.5018 72.525 99.6743 72.0725 99.6743 71.4825C99.6743 70.8925 99.5018 70.4425 99.1568 70.1325C98.8118 69.8175 98.3118 69.66 97.6568 69.66H95.2268V73.305H97.6568ZM102.929 75V64.2H104.752V75H102.929ZM109.462 75V65.895H106.244V64.2H114.487V65.895H111.284V75H109.462ZM124.918 75H123.103V67.32L118.071 75H116.248V64.2H118.071V71.88L123.103 64.2H124.918V75ZM131.492 63.285C131.077 63.285 130.695 63.185 130.345 62.985C130 62.78 129.725 62.505 129.52 62.16C129.32 61.81 129.22 61.4275 129.22 61.0125H130.63C130.63 61.1725 130.667 61.3175 130.742 61.4475C130.822 61.5775 130.927 61.6825 131.057 61.7625C131.187 61.8375 131.332 61.875 131.492 61.875C131.652 61.875 131.797 61.8375 131.927 61.7625C132.057 61.6825 132.16 61.5775 132.235 61.4475C132.315 61.3175 132.355 61.1725 132.355 61.0125H133.765C133.765 61.4275 133.662 61.81 133.457 62.16C133.257 62.505 132.982 62.78 132.632 62.985C132.287 63.185 131.907 63.285 131.492 63.285ZM134.02 75V67.32L128.987 75H127.165V64.2H128.987V71.88L134.02 64.2H135.835V75H134.02Z" fill="#2A2A2A"/>
<rect width="24" height="88" transform="translate(164)" fill="#2A2A2A"/>
<path d="M172 36L180 43.9999L172 52" stroke="white" stroke-width="2" stroke-linecap="round" stroke-linejoin="round"/>
</g>
<rect width="60" height="88" fill="white"/>
<defs>
<clipPath id="clip0_119_1329">
<path d="M60 0H176C182.627 0 188 5.37258 188 12V76C188 82.6274 182.627 88 176 88H60V0Z" fill="white"/>
</clipPath>
<clipPath id="clip1_119_1329">
<rect width="28" height="28" fill="white" transform="translate(60 12)"/>
</clipPath>
<clipPath id="clip2_119_1329">
<rect width="24" height="24" fill="white" transform="translate(81 14)"/>
</clipPath>
</defs>
</svg>
