<svg width="145" height="60" viewBox="0 0 145 60" fill="none" xmlns="http://www.w3.org/2000/svg">
<path d="M29.5709 23.6179H22.4287V27.1289H29.5709V23.6179Z" fill="white"/>
<path d="M32.874 18.8438H31.7529C31.5178 18.8438 31.299 18.7617 31.1732 18.6305C29.992 17.3781 27.5693 16.6016 25.9998 16.6016C24.4521 16.6016 22.1607 17.3672 21.0123 18.6523C20.9029 18.7727 20.717 18.8438 20.5037 18.8438H19.1201C17.5068 18.8438 16.1943 20.1562 16.1943 21.7695V35.518C16.1943 37.1312 17.5068 38.4437 19.1201 38.4437H19.8803L17.7529 41.6648C17.4139 42.1789 17.5561 42.8734 18.0701 43.2125C18.2615 43.3383 19.1584 43.6828 19.6178 42.8953L20.4271 41.6703H31.5615L32.3709 42.8953C32.8357 43.6664 33.7271 43.3383 33.9186 43.2125C34.4326 42.8734 34.5748 42.1789 34.2357 41.6648L32.1084 38.4437H32.8686C34.4818 38.4437 35.7943 37.1312 35.7943 35.518V21.7695C35.7998 20.1562 34.4873 18.8438 32.874 18.8438ZM20.4982 33.3742C20.4982 32.6961 21.0506 32.1438 21.7287 32.1438C22.4068 32.1438 22.9592 32.6961 22.9592 33.3742C22.9592 34.0523 22.4068 34.6047 21.7287 34.6047C21.0506 34.6047 20.4982 34.0523 20.4982 33.3742ZM21.9092 39.4391L22.5654 38.4437H29.4396L30.0959 39.4391H21.9092ZM30.3475 34.6047C29.6693 34.6047 29.117 34.0523 29.117 33.3742C29.117 32.6961 29.6693 32.1438 30.3475 32.1438C31.0256 32.1438 31.5779 32.6961 31.5779 33.3742C31.5779 34.0578 31.0311 34.6047 30.3475 34.6047ZM31.8021 28.2445C31.8021 28.8625 31.3045 29.3602 30.6865 29.3602H21.3131C20.6951 29.3602 20.1975 28.8625 20.1975 28.2445V22.5023C20.1975 21.8844 20.6951 21.3867 21.3131 21.3867H30.6865C31.3045 21.3867 31.8021 21.8844 31.8021 22.5023V28.2445Z" fill="white"/>
<path d="M61.68 38V20.72H74.964V38H72.432V23.084H64.212V38H61.68ZM83.9486 38.36C82.9806 38.36 82.1046 38.192 81.3206 37.856C80.5446 37.52 79.8806 37.052 79.3286 36.452C78.7766 35.844 78.3486 35.12 78.0446 34.28C77.7486 33.44 77.6006 32.516 77.6006 31.508C77.6006 30.5 77.7486 29.576 78.0446 28.736C78.3486 27.896 78.7766 27.176 79.3286 26.576C79.8886 25.976 80.5566 25.512 81.3326 25.184C82.1166 24.848 82.9886 24.68 83.9486 24.68C84.9166 24.68 85.7926 24.848 86.5766 25.184C87.3606 25.512 88.0286 25.98 88.5806 26.588C89.1326 27.188 89.5566 27.908 89.8526 28.748C90.1566 29.58 90.3086 30.5 90.3086 31.508C90.3086 32.524 90.1566 33.452 89.8526 34.292C89.5566 35.132 89.1326 35.856 88.5806 36.464C88.0286 37.064 87.3606 37.532 86.5766 37.868C85.7926 38.196 84.9166 38.36 83.9486 38.36ZM83.9486 35.996C84.5486 35.996 85.0766 35.892 85.5326 35.684C85.9966 35.476 86.3846 35.18 86.6966 34.796C87.0086 34.404 87.2446 33.932 87.4046 33.38C87.5646 32.82 87.6446 32.196 87.6446 31.508C87.6446 30.812 87.5646 30.188 87.4046 29.636C87.2446 29.084 87.0086 28.616 86.6966 28.232C86.3846 27.848 85.9966 27.556 85.5326 27.356C85.0766 27.148 84.5486 27.044 83.9486 27.044C83.3406 27.044 82.8046 27.148 82.3406 27.356C81.8846 27.564 81.5006 27.86 81.1886 28.244C80.8846 28.628 80.6526 29.096 80.4926 29.648C80.3406 30.2 80.2646 30.82 80.2646 31.508C80.2646 32.204 80.3446 32.832 80.5046 33.392C80.6646 33.944 80.9006 34.412 81.2126 34.796C81.5246 35.18 81.9086 35.476 82.3646 35.684C82.8286 35.892 83.3566 35.996 83.9486 35.996ZM98.5976 36.02C99.4216 36.02 100.102 35.848 100.638 35.504C101.182 35.152 101.614 34.636 101.934 33.956L104.406 34.712C103.894 35.88 103.134 36.78 102.126 37.412C101.126 38.044 99.9496 38.36 98.5976 38.36C97.6376 38.36 96.7656 38.196 95.9816 37.868C95.2056 37.532 94.5376 37.064 93.9776 36.464C93.4176 35.864 92.9856 35.144 92.6816 34.304C92.3776 33.464 92.2256 32.536 92.2256 31.52C92.2256 30.488 92.3776 29.552 92.6816 28.712C92.9856 27.872 93.4176 27.152 93.9776 26.552C94.5376 25.952 95.2056 25.492 95.9816 25.172C96.7656 24.844 97.6296 24.68 98.5736 24.68C99.5816 24.68 100.474 24.856 101.25 25.208C102.026 25.56 102.67 26.064 103.182 26.72C103.702 27.368 104.078 28.16 104.31 29.096C104.55 30.024 104.638 31.068 104.574 32.228H94.9256C95.0376 33.436 95.4136 34.372 96.0536 35.036C96.6936 35.692 97.5416 36.02 98.5976 36.02ZM101.994 30.272C101.906 29.2 101.566 28.376 100.974 27.8C100.382 27.224 99.5816 26.936 98.5736 26.936C97.5736 26.936 96.7656 27.224 96.1496 27.8C95.5416 28.376 95.1536 29.2 94.9856 30.272H101.994ZM111.345 38.36C110.561 38.36 109.845 38.272 109.197 38.096C108.557 37.92 107.993 37.656 107.505 37.304C107.025 36.952 106.629 36.512 106.317 35.984C106.013 35.448 105.801 34.824 105.681 34.112L108.045 33.692C108.173 34.532 108.521 35.152 109.089 35.552C109.657 35.952 110.385 36.152 111.273 36.152C112.201 36.152 112.917 35.976 113.421 35.624C113.925 35.272 114.177 34.788 114.177 34.172C114.177 33.844 114.117 33.568 113.997 33.344C113.877 33.112 113.709 32.924 113.493 32.78C113.285 32.628 113.033 32.52 112.737 32.456C112.449 32.384 112.129 32.348 111.777 32.348H109.833V30.32H111.777C112.457 30.32 112.969 30.188 113.313 29.924C113.665 29.652 113.841 29.272 113.841 28.784C113.841 28.168 113.609 27.7 113.145 27.38C112.689 27.052 112.061 26.888 111.261 26.888C110.389 26.888 109.713 27.064 109.233 27.416C108.753 27.76 108.433 28.272 108.273 28.952L105.897 28.52C106.065 27.8 106.321 27.196 106.665 26.708C107.017 26.22 107.429 25.828 107.901 25.532C108.381 25.228 108.909 25.012 109.485 24.884C110.069 24.748 110.677 24.68 111.309 24.68C112.101 24.68 112.805 24.772 113.421 24.956C114.037 25.132 114.557 25.392 114.981 25.736C115.405 26.08 115.729 26.496 115.953 26.984C116.177 27.472 116.289 28.028 116.289 28.652C116.289 29.916 115.757 30.792 114.693 31.28C114.981 31.376 115.241 31.516 115.473 31.7C115.713 31.876 115.921 32.092 116.097 32.348C116.273 32.596 116.409 32.88 116.505 33.2C116.601 33.52 116.649 33.86 116.649 34.22C116.649 34.828 116.529 35.384 116.289 35.888C116.049 36.392 115.701 36.828 115.245 37.196C114.789 37.564 114.233 37.848 113.577 38.048C112.921 38.256 112.177 38.36 111.345 38.36ZM118.329 35.648H119.589C119.797 35.408 119.961 35.072 120.081 34.64C120.209 34.208 120.305 33.72 120.369 33.176C120.433 32.632 120.473 32.056 120.489 31.448C120.505 30.832 120.513 30.228 120.513 29.636V25.04H130.425V35.648H132.105V40.796H129.597V38H120.837V40.796H118.329V35.648ZM127.917 35.648V27.392H122.853V30.908C122.853 31.412 122.837 31.896 122.805 32.36C122.781 32.824 122.741 33.26 122.685 33.668C122.629 34.076 122.561 34.448 122.481 34.784C122.401 35.12 122.313 35.408 122.217 35.648H127.917Z" fill="white"/>
</svg>
