<svg width="103" height="45" viewBox="0 0 103 45" fill="none" xmlns="http://www.w3.org/2000/svg">
<path d="M0 12C0 5.37258 5.37258 0 12 0H91C97.6274 0 103 5.37258 103 12V33C103 39.6274 97.6274 45 91 45H12C5.37258 45 0 39.6274 0 33V12Z" fill="#D0FF00"/>
<path d="M24.136 32H17.68V14.72H23.956C24.772 14.72 25.528 14.812 26.224 14.996C26.92 15.18 27.524 15.46 28.036 15.836C28.548 16.204 28.948 16.672 29.236 17.24C29.532 17.808 29.68 18.472 29.68 19.232C29.68 19.784 29.604 20.276 29.452 20.708C29.3 21.132 29.1 21.504 28.852 21.824C28.612 22.136 28.336 22.396 28.024 22.604C27.72 22.804 27.416 22.952 27.112 23.048C27.472 23.112 27.836 23.248 28.204 23.456C28.572 23.664 28.904 23.94 29.2 24.284C29.504 24.628 29.752 25.044 29.944 25.532C30.136 26.02 30.232 26.576 30.232 27.2C30.232 28.04 30.072 28.764 29.752 29.372C29.44 29.98 29.008 30.48 28.456 30.872C27.912 31.256 27.268 31.54 26.524 31.724C25.788 31.908 24.992 32 24.136 32ZM24.004 17.084H20.212V21.932H24.244C24.652 21.932 25.028 21.888 25.372 21.8C25.724 21.712 26.028 21.572 26.284 21.38C26.54 21.18 26.74 20.924 26.884 20.612C27.036 20.3 27.112 19.92 27.112 19.472C27.112 19.024 27.032 18.648 26.872 18.344C26.72 18.04 26.504 17.796 26.224 17.612C25.952 17.428 25.624 17.296 25.24 17.216C24.864 17.128 24.452 17.084 24.004 17.084ZM24.136 29.636C24.616 29.636 25.072 29.596 25.504 29.516C25.936 29.436 26.312 29.296 26.632 29.096C26.96 28.896 27.22 28.62 27.412 28.268C27.604 27.916 27.7 27.472 27.7 26.936C27.7 26.416 27.604 25.988 27.412 25.652C27.228 25.308 26.976 25.032 26.656 24.824C26.344 24.616 25.984 24.472 25.576 24.392C25.168 24.304 24.748 24.26 24.316 24.26H20.212V29.636H24.136ZM38.2377 32.36C37.2697 32.36 36.3937 32.192 35.6097 31.856C34.8337 31.52 34.1697 31.052 33.6177 30.452C33.0657 29.844 32.6377 29.12 32.3337 28.28C32.0377 27.44 31.8897 26.516 31.8897 25.508C31.8897 24.5 32.0377 23.576 32.3337 22.736C32.6377 21.896 33.0657 21.176 33.6177 20.576C34.1777 19.976 34.8457 19.512 35.6217 19.184C36.4057 18.848 37.2777 18.68 38.2377 18.68C39.2057 18.68 40.0817 18.848 40.8657 19.184C41.6497 19.512 42.3177 19.98 42.8697 20.588C43.4217 21.188 43.8457 21.908 44.1417 22.748C44.4457 23.58 44.5977 24.5 44.5977 25.508C44.5977 26.524 44.4457 27.452 44.1417 28.292C43.8457 29.132 43.4217 29.856 42.8697 30.464C42.3177 31.064 41.6497 31.532 40.8657 31.868C40.0817 32.196 39.2057 32.36 38.2377 32.36ZM38.2377 29.996C38.8377 29.996 39.3657 29.892 39.8217 29.684C40.2857 29.476 40.6737 29.18 40.9857 28.796C41.2977 28.404 41.5337 27.932 41.6937 27.38C41.8537 26.82 41.9337 26.196 41.9337 25.508C41.9337 24.812 41.8537 24.188 41.6937 23.636C41.5337 23.084 41.2977 22.616 40.9857 22.232C40.6737 21.848 40.2857 21.556 39.8217 21.356C39.3657 21.148 38.8377 21.044 38.2377 21.044C37.6297 21.044 37.0937 21.148 36.6297 21.356C36.1737 21.564 35.7897 21.86 35.4777 22.244C35.1737 22.628 34.9417 23.096 34.7817 23.648C34.6297 24.2 34.5537 24.82 34.5537 25.508C34.5537 26.204 34.6337 26.832 34.7937 27.392C34.9537 27.944 35.1897 28.412 35.5017 28.796C35.8137 29.18 36.1977 29.476 36.6537 29.684C37.1177 29.892 37.6457 29.996 38.2377 29.996ZM53.0187 17.552C52.3867 17.552 51.8067 17.4 51.2787 17.096C50.7507 16.784 50.3307 16.364 50.0187 15.836C49.7147 15.308 49.5627 14.728 49.5627 14.096H51.5547C51.5547 14.36 51.6187 14.604 51.7467 14.828C51.8827 15.052 52.0627 15.232 52.2867 15.368C52.5107 15.496 52.7547 15.56 53.0187 15.56C53.2907 15.56 53.5347 15.496 53.7507 15.368C53.9747 15.232 54.1507 15.052 54.2787 14.828C54.4147 14.604 54.4827 14.36 54.4827 14.096H56.4747C56.4747 14.728 56.3187 15.308 56.0067 15.836C55.7027 16.364 55.2867 16.784 54.7587 17.096C54.2307 17.4 53.6507 17.552 53.0187 17.552ZM58.1547 19.04V32H55.6467V22.94L49.7307 32H47.2227V19.04H49.7307V28.1L55.6467 19.04H58.1547ZM64.7721 32V21.392H60.4281V19.04H71.6241V21.392H67.2801V32H64.7721ZM84.8266 19.04V32H82.3186V22.94L76.4026 32H73.8946V19.04H76.4026V28.1L82.3186 19.04H84.8266Z" fill="black"/>
</svg>
