<svg width="888" height="48" viewBox="0 0 888 48" fill="none" xmlns="http://www.w3.org/2000/svg">
<mask id="path-1-inside-1_109_221" fill="white">
<path d="M0 0H888V48H0V0Z"/>
</mask>
<path d="M0 0H888V48H0V0Z" fill="#FF0000" fill-opacity="0.5"/>
<path d="M0 48H3V0H0H-3V48H0Z" fill="#FF0000" mask="url(#path-1-inside-1_109_221)"/>
<path d="M19.23 32.3C18.1567 32.3 17.2067 32.1167 16.38 31.75C15.5533 31.3833 14.86 30.87 14.3 30.21C13.74 29.55 13.3167 28.76 13.03 27.84C12.7433 26.92 12.6 25.9067 12.6 24.8C12.6 23.6933 12.7433 22.68 13.03 21.76C13.3167 20.84 13.74 20.05 14.3 19.39C14.86 18.73 15.5533 18.2167 16.38 17.85C17.2067 17.4833 18.1567 17.3 19.23 17.3C20.31 17.3 21.2633 17.4833 22.09 17.85C22.9167 18.2167 23.61 18.73 24.17 19.39C24.73 20.05 25.1533 20.84 25.44 21.76C25.7267 22.68 25.87 23.6933 25.87 24.8C25.87 25.9067 25.7267 26.92 25.44 27.84C25.1533 28.76 24.73 29.55 24.17 30.21C23.61 30.87 22.9167 31.3833 22.09 31.75C21.2633 32.1167 20.31 32.3 19.23 32.3ZM19.23 30.89C20.0767 30.89 20.8167 30.7433 21.45 30.45C22.0833 30.15 22.61 29.7333 23.03 29.2C23.4567 28.66 23.7767 28.0167 23.99 27.27C24.2033 26.5233 24.31 25.7 24.31 24.8C24.31 23.9 24.2033 23.0767 23.99 22.33C23.7767 21.5833 23.4567 20.9433 23.03 20.41C22.61 19.87 22.0833 19.4533 21.45 19.16C20.8167 18.86 20.0767 18.71 19.23 18.71C18.3833 18.71 17.6433 18.86 17.01 19.16C16.3833 19.4533 15.86 19.87 15.44 20.41C15.02 20.9433 14.7033 21.5833 14.49 22.33C14.2767 23.0767 14.1667 23.9 14.16 24.8C14.1533 25.7 14.2533 26.5233 14.46 27.27C14.6733 28.0167 14.99 28.66 15.41 29.2C15.8367 29.7333 16.3667 30.15 17 30.45C17.64 30.7433 18.3833 30.89 19.23 30.89ZM32.1327 32.31C31.366 32.3033 30.686 32.17 30.0927 31.91C29.506 31.65 29.0093 31.2733 28.6027 30.78C28.196 30.28 27.8827 29.67 27.6627 28.95C27.4427 28.23 27.3193 27.41 27.2927 26.49C27.2793 26.0633 27.2793 25.58 27.2927 25.04C27.306 24.5 27.3427 23.97 27.4027 23.45C27.476 22.8767 27.566 22.3567 27.6727 21.89C27.786 21.4167 27.926 20.9933 28.0927 20.62C28.266 20.24 28.4727 19.9067 28.7127 19.62C28.9593 19.3267 29.2527 19.0733 29.5927 18.86C30.0793 18.5533 30.5793 18.3333 31.0927 18.2C31.606 18.06 32.1427 17.9533 32.7027 17.88C33.2693 17.8067 33.866 17.7367 34.4927 17.67C35.126 17.5967 35.8027 17.4733 36.5227 17.3L36.6427 18.7C35.9827 18.8667 35.3593 18.9833 34.7727 19.05C34.1927 19.1167 33.6427 19.18 33.1227 19.24C32.6093 19.3 32.1293 19.38 31.6827 19.48C31.2427 19.58 30.8327 19.7467 30.4527 19.98C30.1927 20.14 29.966 20.3267 29.7727 20.54C29.586 20.7533 29.426 21.0167 29.2927 21.33C29.166 21.6367 29.0593 22.0033 28.9727 22.43C28.8927 22.85 28.826 23.3467 28.7727 23.92C29.206 23.2333 29.7293 22.7333 30.3427 22.42C30.9627 22.1067 31.6793 21.95 32.4927 21.95C33.186 21.95 33.816 22.0733 34.3827 22.32C34.956 22.5667 35.446 22.9167 35.8527 23.37C36.266 23.8167 36.586 24.36 36.8127 25C37.0393 25.6333 37.1527 26.3367 37.1527 27.11C37.1527 27.9033 37.0327 28.62 36.7927 29.26C36.5527 29.9 36.2127 30.4467 35.7727 30.9C35.3393 31.3533 34.8127 31.7033 34.1927 31.95C33.5793 32.19 32.8927 32.31 32.1327 32.31ZM32.1727 30.9C32.7127 30.9 33.1927 30.8133 33.6127 30.64C34.0393 30.4667 34.3993 30.2167 34.6927 29.89C34.9927 29.5633 35.2193 29.17 35.3727 28.71C35.526 28.25 35.6027 27.73 35.6027 27.15C35.6027 26.57 35.5293 26.0467 35.3827 25.58C35.236 25.1067 35.0193 24.7067 34.7327 24.38C34.4527 24.0533 34.106 23.8033 33.6927 23.63C33.2793 23.45 32.8093 23.36 32.2827 23.36C31.736 23.36 31.2493 23.4467 30.8227 23.62C30.4027 23.7933 30.046 24.0433 29.7527 24.37C29.466 24.6967 29.246 25.0933 29.0927 25.56C28.9393 26.0267 28.8627 26.5567 28.8627 27.15C28.8627 27.7167 28.9393 28.2333 29.0927 28.7C29.246 29.16 29.466 29.5533 29.7527 29.88C30.0393 30.2067 30.386 30.46 30.7927 30.64C31.206 30.8133 31.666 30.9 32.1727 30.9ZM39.357 36.8V21.2H40.827V23.01C41.1804 22.35 41.667 21.8333 42.287 21.46C42.907 21.0867 43.6704 20.9 44.577 20.9C45.3437 20.9 46.0304 21.04 46.637 21.32C47.2504 21.6 47.767 21.9933 48.187 22.5C48.6137 23 48.937 23.6 49.157 24.3C49.3837 24.9933 49.497 25.7567 49.497 26.59C49.497 27.4367 49.3837 28.2133 49.157 28.92C48.9304 29.62 48.6037 30.22 48.177 30.72C47.7504 31.22 47.2337 31.61 46.627 31.89C46.0204 32.1633 45.337 32.3 44.577 32.3C43.6637 32.3 42.9004 32.1133 42.287 31.74C41.6737 31.3667 41.187 30.85 40.827 30.19V36.8H39.357ZM44.377 30.89C44.977 30.89 45.5004 30.7867 45.947 30.58C46.3937 30.3667 46.7637 30.0733 47.057 29.7C47.3504 29.32 47.5704 28.8667 47.717 28.34C47.8637 27.8133 47.937 27.23 47.937 26.59C47.937 25.9367 47.8637 25.3467 47.717 24.82C47.5704 24.2933 47.347 23.8467 47.047 23.48C46.7537 23.1067 46.3837 22.82 45.937 22.62C45.4904 22.4133 44.9704 22.31 44.377 22.31C43.7704 22.31 43.2437 22.4167 42.797 22.63C42.357 22.8367 41.9904 23.13 41.697 23.51C41.4037 23.8833 41.1837 24.3333 41.037 24.86C40.897 25.38 40.827 25.9567 40.827 26.59C40.827 27.2367 40.9004 27.8267 41.047 28.36C41.2004 28.8867 41.4237 29.34 41.717 29.72C42.017 30.0933 42.387 30.3833 42.827 30.59C43.2737 30.79 43.7904 30.89 44.377 30.89ZM61.4908 32V21.2H62.9608V32H61.4908ZM56.4908 32H51.7008V21.2H53.1708V25.31H56.4908C57.1041 25.31 57.6408 25.3933 58.1008 25.56C58.5674 25.7267 58.9574 25.9567 59.2708 26.25C59.5841 26.5433 59.8174 26.8967 59.9708 27.31C60.1308 27.7167 60.2108 28.1633 60.2108 28.65C60.2108 29.1367 60.1308 29.5867 59.9708 30C59.8174 30.4067 59.5841 30.76 59.2708 31.06C58.9574 31.3533 58.5674 31.5833 58.1008 31.75C57.6408 31.9167 57.1041 32 56.4908 32ZM56.3308 30.72C56.7374 30.72 57.0908 30.67 57.3908 30.57C57.6974 30.4633 57.9508 30.32 58.1508 30.14C58.3508 29.9533 58.4974 29.7333 58.5908 29.48C58.6908 29.2267 58.7408 28.95 58.7408 28.65C58.7408 28.35 58.6908 28.0733 58.5908 27.82C58.4974 27.5667 58.3508 27.35 58.1508 27.17C57.9508 26.99 57.6974 26.85 57.3908 26.75C57.0908 26.6433 56.7374 26.59 56.3308 26.59H53.1708V30.72H56.3308ZM70.0333 32H65.7533V21.2H69.9233C71.1966 21.2 72.1599 21.4433 72.8133 21.93C73.4733 22.4167 73.8033 23.14 73.8033 24.1C73.8033 24.7067 73.6633 25.2 73.3833 25.58C73.1033 25.96 72.7366 26.2367 72.2833 26.41C72.5366 26.4833 72.7733 26.5967 72.9933 26.75C73.2199 26.9033 73.4133 27.0933 73.5733 27.32C73.7399 27.5467 73.8699 27.8033 73.9633 28.09C74.0633 28.3767 74.1133 28.6867 74.1133 29.02C74.1133 30 73.7666 30.7433 73.0733 31.25C72.3866 31.75 71.3733 32 70.0333 32ZM69.9033 22.46H67.1433V25.87H70.3033C70.6099 25.87 70.8866 25.8367 71.1333 25.77C71.3866 25.7033 71.6033 25.6033 71.7833 25.47C71.9633 25.3367 72.1033 25.1667 72.2033 24.96C72.3033 24.7533 72.3533 24.51 72.3533 24.23C72.3533 23.9167 72.3066 23.65 72.2133 23.43C72.1266 23.2033 71.9866 23.02 71.7933 22.88C71.5999 22.7333 71.3466 22.6267 71.0333 22.56C70.7199 22.4933 70.3433 22.46 69.9033 22.46ZM70.0033 30.74C70.8966 30.74 71.5633 30.6 72.0033 30.32C72.4433 30.04 72.6633 29.5867 72.6633 28.96C72.6633 28.62 72.6033 28.3333 72.4833 28.1C72.3699 27.8667 72.2133 27.6767 72.0133 27.53C71.8133 27.3833 71.5766 27.2767 71.3033 27.21C71.0299 27.1433 70.7366 27.11 70.4233 27.11H67.1533V30.74H70.0033ZM88.6288 34.27V32H80.1088V21.2H81.5788V30.6H87.2288V21.2H88.6988V30.6H90.0988V34.27H88.6288ZM96.2708 30.91C97.0774 30.91 97.7508 30.73 98.2908 30.37C98.8308 30.01 99.2608 29.4967 99.5808 28.83L100.971 29.34C100.537 30.2933 99.9141 31.0267 99.1008 31.54C98.2941 32.0467 97.3508 32.3 96.2708 32.3C95.4908 32.3 94.7808 32.1667 94.1408 31.9C93.5074 31.6267 92.9641 31.2433 92.5108 30.75C92.0641 30.2567 91.7174 29.66 91.4708 28.96C91.2241 28.2533 91.1008 27.4667 91.1008 26.6C91.1008 25.7267 91.2208 24.94 91.4608 24.24C91.7008 23.5333 92.0441 22.9333 92.4908 22.44C92.9374 21.9467 93.4741 21.5667 94.1008 21.3C94.7274 21.0333 95.4308 20.9 96.2108 20.9C97.0241 20.9 97.7441 21.04 98.3708 21.32C98.9974 21.6 99.5241 22.0033 99.9508 22.53C100.377 23.0567 100.694 23.6967 100.901 24.45C101.114 25.2033 101.207 26.0567 101.181 27.01H92.6708C92.7041 27.6233 92.8108 28.1733 92.9908 28.66C93.1708 29.14 93.4141 29.5467 93.7208 29.88C94.0341 30.2133 94.4041 30.47 94.8308 30.65C95.2641 30.8233 95.7441 30.91 96.2708 30.91ZM99.6308 25.78C99.5374 24.64 99.1974 23.77 98.6108 23.17C98.0241 22.5633 97.2241 22.26 96.2108 22.26C95.2041 22.26 94.3974 22.5667 93.7908 23.18C93.1841 23.7933 92.8208 24.66 92.7008 25.78H99.6308ZM103.39 32V21.2H111.88V32H110.41V22.6H104.86V32H103.39ZM123.269 21.2V32H121.799V23.53L116.149 32H114.679V21.2H116.149V29.67L121.799 21.2H123.269ZM134.56 32.3C133.766 32.3 133.056 32.1667 132.43 31.9C131.803 31.6267 131.27 31.2433 130.83 30.75C130.396 30.25 130.063 29.65 129.83 28.95C129.596 28.2433 129.48 27.46 129.48 26.6C129.48 25.7267 129.596 24.94 129.83 24.24C130.063 23.54 130.4 22.9433 130.84 22.45C131.28 21.95 131.813 21.5667 132.44 21.3C133.073 21.0333 133.783 20.9 134.57 20.9C135.116 20.9 135.63 20.97 136.11 21.11C136.596 21.25 137.033 21.45 137.42 21.71C137.813 21.9633 138.153 22.2767 138.44 22.65C138.726 23.0167 138.943 23.43 139.09 23.89L137.65 24.35C137.523 24.03 137.356 23.7433 137.15 23.49C136.943 23.2367 136.706 23.0233 136.44 22.85C136.18 22.6767 135.89 22.5433 135.57 22.45C135.25 22.3567 134.913 22.31 134.56 22.31C133.993 22.31 133.49 22.41 133.05 22.61C132.61 22.81 132.24 23.0967 131.94 23.47C131.646 23.8367 131.423 24.2867 131.27 24.82C131.116 25.3467 131.04 25.94 131.04 26.6C131.04 27.2467 131.113 27.8333 131.26 28.36C131.413 28.8867 131.636 29.34 131.93 29.72C132.223 30.0933 132.59 30.3833 133.03 30.59C133.47 30.79 133.98 30.89 134.56 30.89C135.306 30.89 135.933 30.7233 136.44 30.39C136.946 30.05 137.336 29.5567 137.61 28.91L139.09 29.35C138.683 30.3167 138.093 31.05 137.32 31.55C136.553 32.05 135.633 32.3 134.56 32.3ZM145.371 32.3C144.571 32.3 143.854 32.16 143.221 31.88C142.588 31.6 142.051 31.21 141.611 30.71C141.171 30.2033 140.834 29.6 140.601 28.9C140.374 28.2 140.261 27.43 140.261 26.59C140.261 25.7433 140.378 24.97 140.611 24.27C140.851 23.57 141.191 22.97 141.631 22.47C142.071 21.97 142.608 21.5833 143.241 21.31C143.874 21.0367 144.584 20.9 145.371 20.9C146.178 20.9 146.898 21.04 147.531 21.32C148.164 21.6 148.701 21.99 149.141 22.49C149.581 22.99 149.914 23.59 150.141 24.29C150.374 24.9833 150.491 25.75 150.491 26.59C150.491 27.4367 150.374 28.2133 150.141 28.92C149.908 29.62 149.571 30.22 149.131 30.72C148.691 31.22 148.154 31.61 147.521 31.89C146.888 32.1633 146.171 32.3 145.371 32.3ZM145.371 30.89C145.964 30.89 146.481 30.7867 146.921 30.58C147.368 30.3733 147.738 30.0833 148.031 29.71C148.331 29.3367 148.554 28.8867 148.701 28.36C148.854 27.8267 148.931 27.2367 148.931 26.59C148.931 25.93 148.854 25.3367 148.701 24.81C148.554 24.2833 148.331 23.8367 148.031 23.47C147.731 23.0967 147.358 22.81 146.911 22.61C146.471 22.41 145.958 22.31 145.371 22.31C144.778 22.31 144.258 22.4133 143.811 22.62C143.371 22.82 143.001 23.11 142.701 23.49C142.408 23.8633 142.188 24.3133 142.041 24.84C141.894 25.3667 141.821 25.95 141.821 26.59C141.821 27.25 141.898 27.8467 142.051 28.38C142.204 28.9067 142.428 29.3567 142.721 29.73C143.021 30.1033 143.391 30.39 143.831 30.59C144.278 30.79 144.791 30.89 145.371 30.89ZM151.697 30.85C151.87 30.9033 152.02 30.93 152.147 30.93C152.427 30.93 152.66 30.8233 152.847 30.61C153.04 30.3967 153.194 30.09 153.307 29.69C153.427 29.29 153.51 28.8033 153.557 28.23C153.604 27.65 153.627 26.9967 153.627 26.27V21.2H161.367V32H159.897V22.6H155.017V26.6C155.017 28.56 154.817 30 154.417 30.92C154.017 31.84 153.407 32.3 152.587 32.3C152.314 32.3 152.017 32.25 151.697 32.15V30.85ZM168.732 30.91C169.538 30.91 170.212 30.73 170.752 30.37C171.292 30.01 171.722 29.4967 172.042 28.83L173.432 29.34C172.998 30.2933 172.375 31.0267 171.562 31.54C170.755 32.0467 169.812 32.3 168.732 32.3C167.952 32.3 167.242 32.1667 166.602 31.9C165.968 31.6267 165.425 31.2433 164.972 30.75C164.525 30.2567 164.178 29.66 163.932 28.96C163.685 28.2533 163.562 27.4667 163.562 26.6C163.562 25.7267 163.682 24.94 163.922 24.24C164.162 23.5333 164.505 22.9333 164.952 22.44C165.398 21.9467 165.935 21.5667 166.562 21.3C167.188 21.0333 167.892 20.9 168.672 20.9C169.485 20.9 170.205 21.04 170.832 21.32C171.458 21.6 171.985 22.0033 172.412 22.53C172.838 23.0567 173.155 23.6967 173.362 24.45C173.575 25.2033 173.668 26.0567 173.642 27.01H165.132C165.165 27.6233 165.272 28.1733 165.452 28.66C165.632 29.14 165.875 29.5467 166.182 29.88C166.495 30.2133 166.865 30.47 167.292 30.65C167.725 30.8233 168.205 30.91 168.732 30.91ZM172.092 25.78C171.998 24.64 171.658 23.77 171.072 23.17C170.485 22.5633 169.685 22.26 168.672 22.26C167.665 22.26 166.858 22.5667 166.252 23.18C165.645 23.7933 165.282 24.66 165.162 25.78H172.092ZM175.851 32V21.2H177.321V25.9H183.411V21.2H184.881V32H183.411V27.3H177.321V32H175.851ZM192.187 32.3C191.387 32.3 190.671 32.16 190.037 31.88C189.404 31.6 188.867 31.21 188.427 30.71C187.987 30.2033 187.651 29.6 187.417 28.9C187.191 28.2 187.077 27.43 187.077 26.59C187.077 25.7433 187.194 24.97 187.427 24.27C187.667 23.57 188.007 22.97 188.447 22.47C188.887 21.97 189.424 21.5833 190.057 21.31C190.691 21.0367 191.401 20.9 192.187 20.9C192.994 20.9 193.714 21.04 194.347 21.32C194.981 21.6 195.517 21.99 195.957 22.49C196.397 22.99 196.731 23.59 196.957 24.29C197.191 24.9833 197.307 25.75 197.307 26.59C197.307 27.4367 197.191 28.2133 196.957 28.92C196.724 29.62 196.387 30.22 195.947 30.72C195.507 31.22 194.971 31.61 194.337 31.89C193.704 32.1633 192.987 32.3 192.187 32.3ZM192.187 30.89C192.781 30.89 193.297 30.7867 193.737 30.58C194.184 30.3733 194.554 30.0833 194.847 29.71C195.147 29.3367 195.371 28.8867 195.517 28.36C195.671 27.8267 195.747 27.2367 195.747 26.59C195.747 25.93 195.671 25.3367 195.517 24.81C195.371 24.2833 195.147 23.8367 194.847 23.47C194.547 23.0967 194.174 22.81 193.727 22.61C193.287 22.41 192.774 22.31 192.187 22.31C191.594 22.31 191.074 22.4133 190.627 22.62C190.187 22.82 189.817 23.11 189.517 23.49C189.224 23.8633 189.004 24.3133 188.857 24.84C188.711 25.3667 188.637 25.95 188.637 26.59C188.637 27.25 188.714 27.8467 188.867 28.38C189.021 28.9067 189.244 29.3567 189.537 29.73C189.837 30.1033 190.207 30.39 190.647 30.59C191.094 30.79 191.607 30.89 192.187 30.89ZM208.093 21.2V32H206.623V23.53L200.973 32H199.503V21.2H200.973V29.67L206.623 21.2H208.093ZM210.1 30.6H211.15C211.317 30.4 211.453 30.13 211.56 29.79C211.667 29.45 211.75 29.0533 211.81 28.6C211.877 28.1467 211.923 27.6433 211.95 27.09C211.977 26.5367 211.99 25.95 211.99 25.33V21.2H219.83V30.6H221.23V34.27H219.76V32H211.57V34.27H210.1V30.6ZM218.36 30.6V22.6H213.38V26.15C213.38 26.6367 213.363 27.1067 213.33 27.56C213.303 28.0067 213.26 28.4233 213.2 28.81C213.147 29.19 213.08 29.5333 213 29.84C212.927 30.1467 212.84 30.4 212.74 30.6H218.36ZM227.434 20.9C230.301 20.9 231.734 22.3967 231.734 25.39V32H230.274V30.18C229.888 30.8733 229.364 31.4 228.704 31.76C228.044 32.12 227.261 32.3 226.354 32.3C225.774 32.3 225.254 32.2267 224.794 32.08C224.334 31.94 223.944 31.7367 223.624 31.47C223.304 31.1967 223.058 30.8667 222.884 30.48C222.711 30.0933 222.624 29.6567 222.624 29.17C222.624 28.6033 222.728 28.12 222.934 27.72C223.148 27.3133 223.444 26.9767 223.824 26.71C224.211 26.4367 224.674 26.22 225.214 26.06C225.761 25.9 226.364 25.78 227.024 25.7L230.274 25.29C230.274 24.23 230.044 23.46 229.584 22.98C229.124 22.4933 228.401 22.25 227.414 22.25C225.788 22.25 224.791 22.9267 224.424 24.28L223.034 23.95C223.288 22.9633 223.791 22.21 224.544 21.69C225.304 21.1633 226.268 20.9 227.434 20.9ZM227.164 26.89C226.618 26.9567 226.148 27.05 225.754 27.17C225.368 27.29 225.048 27.44 224.794 27.62C224.548 27.7933 224.368 28.0033 224.254 28.25C224.141 28.49 224.084 28.77 224.084 29.09C224.084 30.3567 224.928 30.99 226.614 30.99C227.081 30.99 227.511 30.9267 227.904 30.8C228.298 30.6667 228.644 30.48 228.944 30.24C229.251 29.9933 229.504 29.6967 229.704 29.35C229.904 29.0033 230.048 28.6167 230.134 28.19C230.201 27.9167 230.241 27.63 230.254 27.33C230.268 27.0233 230.274 26.75 230.274 26.51L227.164 26.89ZM241.881 32V20.03L239.181 21.65L238.141 19.84L241.881 17.6H243.981V32H241.881ZM251.925 32.29C250.605 32.29 249.538 32.01 248.725 31.45C247.912 30.8833 247.395 30.0567 247.175 28.97L249.325 28.63C249.638 29.8433 250.518 30.45 251.965 30.45C252.632 30.45 253.162 30.3233 253.555 30.07C253.948 29.81 254.145 29.4433 254.145 28.97C254.145 28.8367 254.128 28.7167 254.095 28.61C254.068 28.4967 254.015 28.3933 253.935 28.3C253.862 28.2067 253.758 28.12 253.625 28.04C253.498 27.96 253.335 27.88 253.135 27.8C252.948 27.7333 252.698 27.6533 252.385 27.56C252.078 27.4667 251.718 27.3633 251.305 27.25C250.718 27.0967 250.188 26.9333 249.715 26.76C249.248 26.58 248.852 26.37 248.525 26.13C248.205 25.89 247.958 25.6067 247.785 25.28C247.612 24.9533 247.525 24.5633 247.525 24.11C247.525 23.63 247.625 23.1933 247.825 22.8C248.032 22.4067 248.318 22.07 248.685 21.79C249.058 21.5033 249.505 21.2833 250.025 21.13C250.545 20.9767 251.118 20.9 251.745 20.9C252.358 20.9 252.922 20.9767 253.435 21.13C253.955 21.2767 254.408 21.4867 254.795 21.76C255.188 22.0333 255.508 22.3667 255.755 22.76C256.002 23.1533 256.158 23.59 256.225 24.07L254.085 24.46C254.045 24.1933 253.958 23.9533 253.825 23.74C253.698 23.5267 253.532 23.3467 253.325 23.2C253.118 23.0467 252.875 22.93 252.595 22.85C252.315 22.77 252.008 22.73 251.675 22.73C251.382 22.73 251.108 22.7633 250.855 22.83C250.602 22.89 250.382 22.98 250.195 23.1C250.015 23.2133 249.872 23.35 249.765 23.51C249.665 23.6633 249.615 23.8367 249.615 24.03C249.615 24.2167 249.665 24.3767 249.765 24.51C249.865 24.6433 249.998 24.76 250.165 24.86C250.338 24.96 250.532 25.0467 250.745 25.12C250.965 25.1933 251.195 25.2667 251.435 25.34C251.715 25.42 252.025 25.5133 252.365 25.62C252.712 25.72 253.078 25.8267 253.465 25.94C253.972 26.0933 254.402 26.2633 254.755 26.45C255.115 26.6367 255.408 26.8467 255.635 27.08C255.862 27.3133 256.025 27.58 256.125 27.88C256.232 28.1733 256.285 28.5067 256.285 28.88C256.285 29.4067 256.185 29.8833 255.985 30.31C255.785 30.73 255.495 31.0867 255.115 31.38C254.742 31.6733 254.285 31.8967 253.745 32.05C253.212 32.21 252.605 32.29 251.925 32.29ZM258.338 30.01L264.428 24.48C264.728 24.2067 264.984 23.95 265.198 23.71C265.411 23.4633 265.584 23.2233 265.718 22.99C265.858 22.7567 265.958 22.5233 266.018 22.29C266.084 22.05 266.118 21.8 266.118 21.54C266.118 21.16 266.048 20.83 265.908 20.55C265.774 20.2633 265.584 20.03 265.338 19.85C265.098 19.6633 264.814 19.5233 264.488 19.43C264.161 19.3367 263.808 19.29 263.428 19.29C262.588 19.29 261.898 19.5233 261.358 19.99C260.818 20.45 260.474 21.09 260.328 21.91L258.098 21.53C258.238 20.87 258.461 20.28 258.768 19.76C259.081 19.2333 259.464 18.79 259.918 18.43C260.378 18.0633 260.901 17.7867 261.488 17.6C262.074 17.4067 262.714 17.31 263.408 17.31C264.094 17.31 264.738 17.3967 265.338 17.57C265.938 17.7433 266.458 18.0067 266.898 18.36C267.344 18.7133 267.694 19.1567 267.948 19.69C268.201 20.2233 268.321 20.85 268.308 21.57C268.301 22.01 268.234 22.43 268.108 22.83C267.988 23.23 267.828 23.6067 267.628 23.96C267.434 24.3067 267.214 24.63 266.968 24.93C266.721 25.2233 266.471 25.4867 266.218 25.72L261.488 30.01H268.318V32H258.338V30.01ZM274.264 32V20.03L271.564 21.65L270.524 19.84L274.264 17.6H276.364V32H274.264ZM279.998 30.01L286.088 24.48C286.388 24.2067 286.644 23.95 286.858 23.71C287.071 23.4633 287.244 23.2233 287.378 22.99C287.518 22.7567 287.618 22.5233 287.678 22.29C287.744 22.05 287.778 21.8 287.778 21.54C287.778 21.16 287.708 20.83 287.568 20.55C287.434 20.2633 287.244 20.03 286.998 19.85C286.758 19.6633 286.474 19.5233 286.148 19.43C285.821 19.3367 285.468 19.29 285.088 19.29C284.248 19.29 283.558 19.5233 283.018 19.99C282.478 20.45 282.134 21.09 281.988 21.91L279.758 21.53C279.898 20.87 280.121 20.28 280.428 19.76C280.741 19.2333 281.124 18.79 281.578 18.43C282.038 18.0633 282.561 17.7867 283.148 17.6C283.734 17.4067 284.374 17.31 285.068 17.31C285.754 17.31 286.398 17.3967 286.998 17.57C287.598 17.7433 288.118 18.0067 288.558 18.36C289.004 18.7133 289.354 19.1567 289.608 19.69C289.861 20.2233 289.981 20.85 289.968 21.57C289.961 22.01 289.894 22.43 289.768 22.83C289.648 23.23 289.488 23.6067 289.288 23.96C289.094 24.3067 288.874 24.63 288.628 24.93C288.381 25.2233 288.131 25.4867 287.878 25.72L283.148 30.01H289.978V32H279.998V30.01ZM292.374 17.6H294.464V22.77C294.798 22.1833 295.248 21.7267 295.814 21.4C296.381 21.0667 297.088 20.9 297.934 20.9C298.661 20.9 299.324 21.04 299.924 21.32C300.524 21.5933 301.038 21.9833 301.464 22.49C301.898 22.99 302.234 23.59 302.474 24.29C302.714 24.99 302.834 25.7633 302.834 26.61C302.834 27.4433 302.714 28.21 302.474 28.91C302.241 29.6033 301.908 30.2033 301.474 30.71C301.048 31.21 300.531 31.6 299.924 31.88C299.324 32.16 298.661 32.3 297.934 32.3C297.088 32.3 296.381 32.1367 295.814 31.81C295.254 31.4767 294.804 31.0167 294.464 30.43V32H292.374V17.6ZM297.534 22.87C297.028 22.87 296.581 22.96 296.194 23.14C295.814 23.3133 295.494 23.5633 295.234 23.89C294.981 24.21 294.788 24.6 294.654 25.06C294.528 25.52 294.464 26.0367 294.464 26.61C294.464 27.1567 294.524 27.66 294.644 28.12C294.771 28.5733 294.961 28.9667 295.214 29.3C295.468 29.6267 295.784 29.88 296.164 30.06C296.551 30.24 297.008 30.33 297.534 30.33C298.048 30.33 298.494 30.2433 298.874 30.07C299.261 29.89 299.581 29.64 299.834 29.32C300.094 28.9933 300.288 28.6033 300.414 28.15C300.548 27.69 300.614 27.1767 300.614 26.61C300.614 26.0567 300.551 25.5533 300.424 25.1C300.298 24.64 300.104 24.2467 299.844 23.92C299.591 23.5867 299.271 23.33 298.884 23.15C298.498 22.9633 298.048 22.87 297.534 22.87ZM305.01 32V29.79H307.22V32H305.01ZM322.365 17.6H323.845V24.43L330.415 17.6H332.295L325.585 24.55L332.845 32H330.925L323.845 24.78V32H322.365V17.6ZM337.949 32.3C337.149 32.3 336.432 32.16 335.799 31.88C335.166 31.6 334.629 31.21 334.189 30.71C333.749 30.2033 333.412 29.6 333.179 28.9C332.952 28.2 332.839 27.43 332.839 26.59C332.839 25.7433 332.956 24.97 333.189 24.27C333.429 23.57 333.769 22.97 334.209 22.47C334.649 21.97 335.186 21.5833 335.819 21.31C336.452 21.0367 337.162 20.9 337.949 20.9C338.756 20.9 339.476 21.04 340.109 21.32C340.742 21.6 341.279 21.99 341.719 22.49C342.159 22.99 342.492 23.59 342.719 24.29C342.952 24.9833 343.069 25.75 343.069 26.59C343.069 27.4367 342.952 28.2133 342.719 28.92C342.486 29.62 342.149 30.22 341.709 30.72C341.269 31.22 340.732 31.61 340.099 31.89C339.466 32.1633 338.749 32.3 337.949 32.3ZM337.949 30.89C338.542 30.89 339.059 30.7867 339.499 30.58C339.946 30.3733 340.316 30.0833 340.609 29.71C340.909 29.3367 341.132 28.8867 341.279 28.36C341.432 27.8267 341.509 27.2367 341.509 26.59C341.509 25.93 341.432 25.3367 341.279 24.81C341.132 24.2833 340.909 23.8367 340.609 23.47C340.309 23.0967 339.936 22.81 339.489 22.61C339.049 22.41 338.536 22.31 337.949 22.31C337.356 22.31 336.836 22.4133 336.389 22.62C335.949 22.82 335.579 23.11 335.279 23.49C334.986 23.8633 334.766 24.3133 334.619 24.84C334.472 25.3667 334.399 25.95 334.399 26.59C334.399 27.25 334.476 27.8467 334.629 28.38C334.782 28.9067 335.006 29.3567 335.299 29.73C335.599 30.1033 335.969 30.39 336.409 30.59C336.856 30.79 337.369 30.89 337.949 30.89ZM345.275 36.8V21.2H346.745V23.01C347.098 22.35 347.585 21.8333 348.205 21.46C348.825 21.0867 349.588 20.9 350.495 20.9C351.262 20.9 351.948 21.04 352.555 21.32C353.168 21.6 353.685 21.9933 354.105 22.5C354.532 23 354.855 23.6 355.075 24.3C355.302 24.9933 355.415 25.7567 355.415 26.59C355.415 27.4367 355.302 28.2133 355.075 28.92C354.848 29.62 354.522 30.22 354.095 30.72C353.668 31.22 353.152 31.61 352.545 31.89C351.938 32.1633 351.255 32.3 350.495 32.3C349.582 32.3 348.818 32.1133 348.205 31.74C347.592 31.3667 347.105 30.85 346.745 30.19V36.8H345.275ZM350.295 30.89C350.895 30.89 351.418 30.7867 351.865 30.58C352.312 30.3667 352.682 30.0733 352.975 29.7C353.268 29.32 353.488 28.8667 353.635 28.34C353.782 27.8133 353.855 27.23 353.855 26.59C353.855 25.9367 353.782 25.3467 353.635 24.82C353.488 24.2933 353.265 23.8467 352.965 23.48C352.672 23.1067 352.302 22.82 351.855 22.62C351.408 22.4133 350.888 22.31 350.295 22.31C349.688 22.31 349.162 22.4167 348.715 22.63C348.275 22.8367 347.908 23.13 347.615 23.51C347.322 23.8833 347.102 24.3333 346.955 24.86C346.815 25.38 346.745 25.9567 346.745 26.59C346.745 27.2367 346.818 27.8267 346.965 28.36C347.118 28.8867 347.342 29.34 347.635 29.72C347.935 30.0933 348.305 30.3833 348.745 30.59C349.192 30.79 349.708 30.89 350.295 30.89ZM362.129 32.3C361.329 32.3 360.612 32.16 359.979 31.88C359.345 31.6 358.809 31.21 358.369 30.71C357.929 30.2033 357.592 29.6 357.359 28.9C357.132 28.2 357.019 27.43 357.019 26.59C357.019 25.7433 357.135 24.97 357.369 24.27C357.609 23.57 357.949 22.97 358.389 22.47C358.829 21.97 359.365 21.5833 359.999 21.31C360.632 21.0367 361.342 20.9 362.129 20.9C362.935 20.9 363.655 21.04 364.289 21.32C364.922 21.6 365.459 21.99 365.899 22.49C366.339 22.99 366.672 23.59 366.899 24.29C367.132 24.9833 367.249 25.75 367.249 26.59C367.249 27.4367 367.132 28.2133 366.899 28.92C366.665 29.62 366.329 30.22 365.889 30.72C365.449 31.22 364.912 31.61 364.279 31.89C363.645 32.1633 362.929 32.3 362.129 32.3ZM362.129 30.89C362.722 30.89 363.239 30.7867 363.679 30.58C364.125 30.3733 364.495 30.0833 364.789 29.71C365.089 29.3367 365.312 28.8867 365.459 28.36C365.612 27.8267 365.689 27.2367 365.689 26.59C365.689 25.93 365.612 25.3367 365.459 24.81C365.312 24.2833 365.089 23.8367 364.789 23.47C364.489 23.0967 364.115 22.81 363.669 22.61C363.229 22.41 362.715 22.31 362.129 22.31C361.535 22.31 361.015 22.4133 360.569 22.62C360.129 22.82 359.759 23.11 359.459 23.49C359.165 23.8633 358.945 24.3133 358.799 24.84C358.652 25.3667 358.579 25.95 358.579 26.59C358.579 27.25 358.655 27.8467 358.809 28.38C358.962 28.9067 359.185 29.3567 359.479 29.73C359.779 30.1033 360.149 30.39 360.589 30.59C361.035 30.79 361.549 30.89 362.129 30.89ZM372.081 32V22.6H368.281V21.2H377.351V22.6H373.551V32H372.081ZM379.249 21.2H380.719V26.4L385.539 21.2H387.499L382.439 26.6L388.159 32H386.019L380.719 26.8V32H379.249V21.2ZM393.476 32.3C392.676 32.3 391.96 32.16 391.326 31.88C390.693 31.6 390.156 31.21 389.716 30.71C389.276 30.2033 388.94 29.6 388.706 28.9C388.48 28.2 388.366 27.43 388.366 26.59C388.366 25.7433 388.483 24.97 388.716 24.27C388.956 23.57 389.296 22.97 389.736 22.47C390.176 21.97 390.713 21.5833 391.346 21.31C391.98 21.0367 392.69 20.9 393.476 20.9C394.283 20.9 395.003 21.04 395.636 21.32C396.27 21.6 396.806 21.99 397.246 22.49C397.686 22.99 398.02 23.59 398.246 24.29C398.48 24.9833 398.596 25.75 398.596 26.59C398.596 27.4367 398.48 28.2133 398.246 28.92C398.013 29.62 397.676 30.22 397.236 30.72C396.796 31.22 396.26 31.61 395.626 31.89C394.993 32.1633 394.276 32.3 393.476 32.3ZM393.476 30.89C394.07 30.89 394.586 30.7867 395.026 30.58C395.473 30.3733 395.843 30.0833 396.136 29.71C396.436 29.3367 396.66 28.8867 396.806 28.36C396.96 27.8267 397.036 27.2367 397.036 26.59C397.036 25.93 396.96 25.3367 396.806 24.81C396.66 24.2833 396.436 23.8367 396.136 23.47C395.836 23.0967 395.463 22.81 395.016 22.61C394.576 22.41 394.063 22.31 393.476 22.31C392.883 22.31 392.363 22.4133 391.916 22.62C391.476 22.82 391.106 23.11 390.806 23.49C390.513 23.8633 390.293 24.3133 390.146 24.84C390 25.3667 389.926 25.95 389.926 26.59C389.926 27.25 390.003 27.8467 390.156 28.38C390.31 28.9067 390.533 29.3567 390.826 29.73C391.126 30.1033 391.496 30.39 391.936 30.59C392.383 30.79 392.896 30.89 393.476 30.89ZM405.372 30.91C406.179 30.91 406.852 30.73 407.392 30.37C407.932 30.01 408.362 29.4967 408.682 28.83L410.072 29.34C409.639 30.2933 409.016 31.0267 408.202 31.54C407.396 32.0467 406.452 32.3 405.372 32.3C404.592 32.3 403.882 32.1667 403.242 31.9C402.609 31.6267 402.066 31.2433 401.612 30.75C401.166 30.2567 400.819 29.66 400.572 28.96C400.326 28.2533 400.202 27.4667 400.202 26.6C400.202 25.7267 400.322 24.94 400.562 24.24C400.802 23.5333 401.146 22.9333 401.592 22.44C402.039 21.9467 402.576 21.5667 403.202 21.3C403.829 21.0333 404.532 20.9 405.312 20.9C406.126 20.9 406.846 21.04 407.472 21.32C408.099 21.6 408.626 22.0033 409.052 22.53C409.479 23.0567 409.796 23.6967 410.002 24.45C410.216 25.2033 410.309 26.0567 410.282 27.01H401.772C401.806 27.6233 401.912 28.1733 402.092 28.66C402.272 29.14 402.516 29.5467 402.822 29.88C403.136 30.2133 403.506 30.47 403.932 30.65C404.366 30.8233 404.846 30.91 405.372 30.91ZM408.732 25.78C408.639 24.64 408.299 23.77 407.712 23.17C407.126 22.5633 406.326 22.26 405.312 22.26C404.306 22.26 403.499 22.5667 402.892 23.18C402.286 23.7933 401.922 24.66 401.802 25.78H408.732ZM420.255 32.3C419.649 32.3 419.085 32.23 418.565 32.09C418.052 31.9567 417.595 31.7467 417.195 31.46C416.802 31.1733 416.472 30.8067 416.205 30.36C415.939 29.9133 415.749 29.38 415.635 28.76L417.055 28.5C417.182 29.3067 417.505 29.92 418.025 30.34C418.545 30.7533 419.272 30.96 420.205 30.96C421.172 30.96 421.905 30.7833 422.405 30.43C422.905 30.07 423.155 29.5767 423.155 28.95C423.155 28.61 423.095 28.3233 422.975 28.09C422.855 27.85 422.689 27.6567 422.475 27.51C422.262 27.3633 422.012 27.2567 421.725 27.19C421.439 27.1233 421.129 27.09 420.795 27.09H419.095V25.84H420.795C421.442 25.84 421.949 25.7067 422.315 25.44C422.689 25.1667 422.875 24.7667 422.875 24.24C422.875 23.6067 422.659 23.1167 422.225 22.77C421.799 22.4167 421.132 22.24 420.225 22.24C419.765 22.24 419.365 22.29 419.025 22.39C418.692 22.49 418.405 22.6333 418.165 22.82C417.932 23 417.739 23.2233 417.585 23.49C417.439 23.75 417.322 24.04 417.235 24.36L415.815 24.1C415.969 23.4933 416.189 22.9867 416.475 22.58C416.769 22.1733 417.109 21.8467 417.495 21.6C417.889 21.3467 418.322 21.1667 418.795 21.06C419.269 20.9533 419.759 20.9 420.265 20.9C420.912 20.9 421.489 20.9767 421.995 21.13C422.502 21.2767 422.929 21.4933 423.275 21.78C423.622 22.06 423.885 22.4033 424.065 22.81C424.252 23.21 424.345 23.66 424.345 24.16C424.345 24.7267 424.215 25.1967 423.955 25.57C423.695 25.9367 423.335 26.2167 422.875 26.41C423.115 26.4833 423.342 26.5967 423.555 26.75C423.769 26.9033 423.955 27.09 424.115 27.31C424.275 27.53 424.399 27.78 424.485 28.06C424.579 28.3333 424.625 28.63 424.625 28.95C424.625 29.4433 424.529 29.8967 424.335 30.31C424.142 30.7167 423.859 31.07 423.485 31.37C423.112 31.6633 422.652 31.89 422.105 32.05C421.565 32.2167 420.949 32.3 420.255 32.3ZM431.028 20.9C433.895 20.9 435.328 22.3967 435.328 25.39V32H433.868V30.18C433.481 30.8733 432.958 31.4 432.298 31.76C431.638 32.12 430.855 32.3 429.948 32.3C429.368 32.3 428.848 32.2267 428.388 32.08C427.928 31.94 427.538 31.7367 427.218 31.47C426.898 31.1967 426.651 30.8667 426.478 30.48C426.305 30.0933 426.218 29.6567 426.218 29.17C426.218 28.6033 426.321 28.12 426.528 27.72C426.741 27.3133 427.038 26.9767 427.418 26.71C427.805 26.4367 428.268 26.22 428.808 26.06C429.355 25.9 429.958 25.78 430.618 25.7L433.868 25.29C433.868 24.23 433.638 23.46 433.178 22.98C432.718 22.4933 431.995 22.25 431.008 22.25C429.381 22.25 428.385 22.9267 428.018 24.28L426.628 23.95C426.881 22.9633 427.385 22.21 428.138 21.69C428.898 21.1633 429.861 20.9 431.028 20.9ZM430.758 26.89C430.211 26.9567 429.741 27.05 429.348 27.17C428.961 27.29 428.641 27.44 428.388 27.62C428.141 27.7933 427.961 28.0033 427.848 28.25C427.735 28.49 427.678 28.77 427.678 29.09C427.678 30.3567 428.521 30.99 430.208 30.99C430.675 30.99 431.105 30.9267 431.498 30.8C431.891 30.6667 432.238 30.48 432.538 30.24C432.845 29.9933 433.098 29.6967 433.298 29.35C433.498 29.0033 433.641 28.6167 433.728 28.19C433.795 27.9167 433.835 27.63 433.848 27.33C433.861 27.0233 433.868 26.75 433.868 26.51L430.758 26.89ZM437.921 32V21.2H439.391L443.241 28.82L447.101 21.2H448.561V32H447.101V24.13L443.901 30.49H442.591L439.391 24.13V32H437.921ZM461.159 32V21.2H462.629V32H461.159ZM456.159 32H451.369V21.2H452.839V25.31H456.159C456.772 25.31 457.309 25.3933 457.769 25.56C458.235 25.7267 458.625 25.9567 458.939 26.25C459.252 26.5433 459.485 26.8967 459.639 27.31C459.799 27.7167 459.879 28.1633 459.879 28.65C459.879 29.1367 459.799 29.5867 459.639 30C459.485 30.4067 459.252 30.76 458.939 31.06C458.625 31.3533 458.235 31.5833 457.769 31.75C457.309 31.9167 456.772 32 456.159 32ZM455.999 30.72C456.405 30.72 456.759 30.67 457.059 30.57C457.365 30.4633 457.619 30.32 457.819 30.14C458.019 29.9533 458.165 29.7333 458.259 29.48C458.359 29.2267 458.409 28.95 458.409 28.65C458.409 28.35 458.359 28.0733 458.259 27.82C458.165 27.5667 458.019 27.35 457.819 27.17C457.619 26.99 457.365 26.85 457.059 26.75C456.759 26.6433 456.405 26.59 455.999 26.59H452.839V30.72H455.999ZM465.421 21.2H466.891V26.4L471.711 21.2H473.671L468.611 26.6L474.331 32H472.191L466.891 26.8V32H465.421V21.2ZM479.544 20.9C482.41 20.9 483.844 22.3967 483.844 25.39V32H482.384V30.18C481.997 30.8733 481.474 31.4 480.814 31.76C480.154 32.12 479.37 32.3 478.464 32.3C477.884 32.3 477.364 32.2267 476.904 32.08C476.444 31.94 476.054 31.7367 475.734 31.47C475.414 31.1967 475.167 30.8667 474.994 30.48C474.82 30.0933 474.734 29.6567 474.734 29.17C474.734 28.6033 474.837 28.12 475.044 27.72C475.257 27.3133 475.554 26.9767 475.934 26.71C476.32 26.4367 476.784 26.22 477.324 26.06C477.87 25.9 478.474 25.78 479.134 25.7L482.384 25.29C482.384 24.23 482.154 23.46 481.694 22.98C481.234 22.4933 480.51 22.25 479.524 22.25C477.897 22.25 476.9 22.9267 476.534 24.28L475.144 23.95C475.397 22.9633 475.9 22.21 476.654 21.69C477.414 21.1633 478.377 20.9 479.544 20.9ZM479.274 26.89C478.727 26.9567 478.257 27.05 477.864 27.17C477.477 27.29 477.157 27.44 476.904 27.62C476.657 27.7933 476.477 28.0033 476.364 28.25C476.25 28.49 476.194 28.77 476.194 29.09C476.194 30.3567 477.037 30.99 478.724 30.99C479.19 30.99 479.62 30.9267 480.014 30.8C480.407 30.6667 480.754 30.48 481.054 30.24C481.36 29.9933 481.614 29.6967 481.814 29.35C482.014 29.0033 482.157 28.6167 482.244 28.19C482.31 27.9167 482.35 27.63 482.364 27.33C482.377 27.0233 482.384 26.75 482.384 26.51L479.274 26.89ZM486.437 32V21.2H487.907V25.9H493.997V21.2H495.467V32H493.997V27.3H487.907V32H486.437ZM506.843 21.2V32H505.373V23.53L499.723 32H498.253V21.2H499.723V29.67L505.373 21.2H506.843ZM514.22 30.91C515.027 30.91 515.7 30.73 516.24 30.37C516.78 30.01 517.21 29.4967 517.53 28.83L518.92 29.34C518.487 30.2933 517.863 31.0267 517.05 31.54C516.243 32.0467 515.3 32.3 514.22 32.3C513.44 32.3 512.73 32.1667 512.09 31.9C511.457 31.6267 510.913 31.2433 510.46 30.75C510.013 30.2567 509.667 29.66 509.42 28.96C509.173 28.2533 509.05 27.4667 509.05 26.6C509.05 25.7267 509.17 24.94 509.41 24.24C509.65 23.5333 509.993 22.9333 510.44 22.44C510.887 21.9467 511.423 21.5667 512.05 21.3C512.677 21.0333 513.38 20.9 514.16 20.9C514.973 20.9 515.693 21.04 516.32 21.32C516.947 21.6 517.473 22.0033 517.9 22.53C518.327 23.0567 518.643 23.6967 518.85 24.45C519.063 25.2033 519.157 26.0567 519.13 27.01H510.62C510.653 27.6233 510.76 28.1733 510.94 28.66C511.12 29.14 511.363 29.5467 511.67 29.88C511.983 30.2133 512.353 30.47 512.78 30.65C513.213 30.8233 513.693 30.91 514.22 30.91ZM517.58 25.78C517.487 24.64 517.147 23.77 516.56 23.17C515.973 22.5633 515.173 22.26 514.16 22.26C513.153 22.26 512.347 22.5667 511.74 23.18C511.133 23.7933 510.77 24.66 510.65 25.78H517.58ZM529.623 32H525.343V21.2H529.513C530.786 21.2 531.75 21.4433 532.403 21.93C533.063 22.4167 533.393 23.14 533.393 24.1C533.393 24.7067 533.253 25.2 532.973 25.58C532.693 25.96 532.326 26.2367 531.873 26.41C532.126 26.4833 532.363 26.5967 532.583 26.75C532.81 26.9033 533.003 27.0933 533.163 27.32C533.33 27.5467 533.46 27.8033 533.553 28.09C533.653 28.3767 533.703 28.6867 533.703 29.02C533.703 30 533.356 30.7433 532.663 31.25C531.976 31.75 530.963 32 529.623 32ZM529.493 22.46H526.733V25.87H529.893C530.2 25.87 530.476 25.8367 530.723 25.77C530.976 25.7033 531.193 25.6033 531.373 25.47C531.553 25.3367 531.693 25.1667 531.793 24.96C531.893 24.7533 531.943 24.51 531.943 24.23C531.943 23.9167 531.896 23.65 531.803 23.43C531.716 23.2033 531.576 23.02 531.383 22.88C531.19 22.7333 530.936 22.6267 530.623 22.56C530.31 22.4933 529.933 22.46 529.493 22.46ZM529.593 30.74C530.486 30.74 531.153 30.6 531.593 30.32C532.033 30.04 532.253 29.5867 532.253 28.96C532.253 28.62 532.193 28.3333 532.073 28.1C531.96 27.8667 531.803 27.6767 531.603 27.53C531.403 27.3833 531.166 27.2767 530.893 27.21C530.62 27.1433 530.326 27.11 530.013 27.11H526.743V30.74H529.593ZM548.219 34.27V32H539.699V21.2H541.169V30.6H546.819V21.2H548.289V30.6H549.689V34.27H548.219ZM555.861 30.91C556.667 30.91 557.341 30.73 557.881 30.37C558.421 30.01 558.851 29.4967 559.171 28.83L560.561 29.34C560.127 30.2933 559.504 31.0267 558.691 31.54C557.884 32.0467 556.941 32.3 555.861 32.3C555.081 32.3 554.371 32.1667 553.731 31.9C553.097 31.6267 552.554 31.2433 552.101 30.75C551.654 30.2567 551.307 29.66 551.061 28.96C550.814 28.2533 550.691 27.4667 550.691 26.6C550.691 25.7267 550.811 24.94 551.051 24.24C551.291 23.5333 551.634 22.9333 552.081 22.44C552.527 21.9467 553.064 21.5667 553.691 21.3C554.317 21.0333 555.021 20.9 555.801 20.9C556.614 20.9 557.334 21.04 557.961 21.32C558.587 21.6 559.114 22.0033 559.541 22.53C559.967 23.0567 560.284 23.6967 560.491 24.45C560.704 25.2033 560.797 26.0567 560.771 27.01H552.261C552.294 27.6233 552.401 28.1733 552.581 28.66C552.761 29.14 553.004 29.5467 553.311 29.88C553.624 30.2133 553.994 30.47 554.421 30.65C554.854 30.8233 555.334 30.91 555.861 30.91ZM559.221 25.78C559.127 24.64 558.787 23.77 558.201 23.17C557.614 22.5633 556.814 22.26 555.801 22.26C554.794 22.26 553.987 22.5667 553.381 23.18C552.774 23.7933 552.411 24.66 552.291 25.78H559.221ZM562.98 32V21.2H571.47V32H570V22.6H564.45V32H562.98ZM582.859 21.2V32H581.389V23.53L575.739 32H574.269V21.2H575.739V29.67L581.389 21.2H582.859ZM594.15 32.3C593.356 32.3 592.646 32.1667 592.02 31.9C591.393 31.6267 590.86 31.2433 590.42 30.75C589.986 30.25 589.653 29.65 589.42 28.95C589.186 28.2433 589.07 27.46 589.07 26.6C589.07 25.7267 589.186 24.94 589.42 24.24C589.653 23.54 589.99 22.9433 590.43 22.45C590.87 21.95 591.403 21.5667 592.03 21.3C592.663 21.0333 593.373 20.9 594.16 20.9C594.706 20.9 595.22 20.97 595.7 21.11C596.186 21.25 596.623 21.45 597.01 21.71C597.403 21.9633 597.743 22.2767 598.03 22.65C598.316 23.0167 598.533 23.43 598.68 23.89L597.24 24.35C597.113 24.03 596.946 23.7433 596.74 23.49C596.533 23.2367 596.296 23.0233 596.03 22.85C595.77 22.6767 595.48 22.5433 595.16 22.45C594.84 22.3567 594.503 22.31 594.15 22.31C593.583 22.31 593.08 22.41 592.64 22.61C592.2 22.81 591.83 23.0967 591.53 23.47C591.236 23.8367 591.013 24.2867 590.86 24.82C590.706 25.3467 590.63 25.94 590.63 26.6C590.63 27.2467 590.703 27.8333 590.85 28.36C591.003 28.8867 591.226 29.34 591.52 29.72C591.813 30.0933 592.18 30.3833 592.62 30.59C593.06 30.79 593.57 30.89 594.15 30.89C594.896 30.89 595.523 30.7233 596.03 30.39C596.536 30.05 596.926 29.5567 597.2 28.91L598.68 29.35C598.273 30.3167 597.683 31.05 596.91 31.55C596.143 32.05 595.223 32.3 594.15 32.3ZM604.961 32.3C604.161 32.3 603.444 32.16 602.811 31.88C602.177 31.6 601.641 31.21 601.201 30.71C600.761 30.2033 600.424 29.6 600.191 28.9C599.964 28.2 599.851 27.43 599.851 26.59C599.851 25.7433 599.967 24.97 600.201 24.27C600.441 23.57 600.781 22.97 601.221 22.47C601.661 21.97 602.197 21.5833 602.831 21.31C603.464 21.0367 604.174 20.9 604.961 20.9C605.767 20.9 606.487 21.04 607.121 21.32C607.754 21.6 608.291 21.99 608.731 22.49C609.171 22.99 609.504 23.59 609.731 24.29C609.964 24.9833 610.081 25.75 610.081 26.59C610.081 27.4367 609.964 28.2133 609.731 28.92C609.497 29.62 609.161 30.22 608.721 30.72C608.281 31.22 607.744 31.61 607.111 31.89C606.477 32.1633 605.761 32.3 604.961 32.3ZM604.961 30.89C605.554 30.89 606.071 30.7867 606.511 30.58C606.957 30.3733 607.327 30.0833 607.621 29.71C607.921 29.3367 608.144 28.8867 608.291 28.36C608.444 27.8267 608.521 27.2367 608.521 26.59C608.521 25.93 608.444 25.3367 608.291 24.81C608.144 24.2833 607.921 23.8367 607.621 23.47C607.321 23.0967 606.947 22.81 606.501 22.61C606.061 22.41 605.547 22.31 604.961 22.31C604.367 22.31 603.847 22.4133 603.401 22.62C602.961 22.82 602.591 23.11 602.291 23.49C601.997 23.8633 601.777 24.3133 601.631 24.84C601.484 25.3667 601.411 25.95 601.411 26.59C601.411 27.25 601.487 27.8467 601.641 28.38C601.794 28.9067 602.017 29.3567 602.311 29.73C602.611 30.1033 602.981 30.39 603.421 30.59C603.867 30.79 604.381 30.89 604.961 30.89ZM611.287 30.85C611.46 30.9033 611.61 30.93 611.737 30.93C612.017 30.93 612.25 30.8233 612.437 30.61C612.63 30.3967 612.783 30.09 612.897 29.69C613.017 29.29 613.1 28.8033 613.147 28.23C613.193 27.65 613.217 26.9967 613.217 26.27V21.2H620.957V32H619.487V22.6H614.607V26.6C614.607 28.56 614.407 30 614.007 30.92C613.607 31.84 612.997 32.3 612.177 32.3C611.903 32.3 611.607 32.25 611.287 32.15V30.85ZM628.322 30.91C629.128 30.91 629.802 30.73 630.342 30.37C630.882 30.01 631.312 29.4967 631.632 28.83L633.022 29.34C632.588 30.2933 631.965 31.0267 631.152 31.54C630.345 32.0467 629.402 32.3 628.322 32.3C627.542 32.3 626.832 32.1667 626.192 31.9C625.558 31.6267 625.015 31.2433 624.562 30.75C624.115 30.2567 623.768 29.66 623.522 28.96C623.275 28.2533 623.152 27.4667 623.152 26.6C623.152 25.7267 623.272 24.94 623.512 24.24C623.752 23.5333 624.095 22.9333 624.542 22.44C624.988 21.9467 625.525 21.5667 626.152 21.3C626.778 21.0333 627.482 20.9 628.262 20.9C629.075 20.9 629.795 21.04 630.422 21.32C631.048 21.6 631.575 22.0033 632.002 22.53C632.428 23.0567 632.745 23.6967 632.952 24.45C633.165 25.2033 633.258 26.0567 633.232 27.01H624.722C624.755 27.6233 624.862 28.1733 625.042 28.66C625.222 29.14 625.465 29.5467 625.772 29.88C626.085 30.2133 626.455 30.47 626.882 30.65C627.315 30.8233 627.795 30.91 628.322 30.91ZM631.682 25.78C631.588 24.64 631.248 23.77 630.662 23.17C630.075 22.5633 629.275 22.26 628.262 22.26C627.255 22.26 626.448 22.5667 625.842 23.18C625.235 23.7933 624.872 24.66 624.752 25.78H631.682ZM635.441 32V21.2H636.911V25.9H643.001V21.2H644.471V32H643.001V27.3H636.911V32H635.441ZM651.777 32.3C650.977 32.3 650.261 32.16 649.627 31.88C648.994 31.6 648.457 31.21 648.017 30.71C647.577 30.2033 647.241 29.6 647.007 28.9C646.781 28.2 646.667 27.43 646.667 26.59C646.667 25.7433 646.784 24.97 647.017 24.27C647.257 23.57 647.597 22.97 648.037 22.47C648.477 21.97 649.014 21.5833 649.647 21.31C650.281 21.0367 650.991 20.9 651.777 20.9C652.584 20.9 653.304 21.04 653.937 21.32C654.571 21.6 655.107 21.99 655.547 22.49C655.987 22.99 656.321 23.59 656.547 24.29C656.781 24.9833 656.897 25.75 656.897 26.59C656.897 27.4367 656.781 28.2133 656.547 28.92C656.314 29.62 655.977 30.22 655.537 30.72C655.097 31.22 654.561 31.61 653.927 31.89C653.294 32.1633 652.577 32.3 651.777 32.3ZM651.777 30.89C652.371 30.89 652.887 30.7867 653.327 30.58C653.774 30.3733 654.144 30.0833 654.437 29.71C654.737 29.3367 654.961 28.8867 655.107 28.36C655.261 27.8267 655.337 27.2367 655.337 26.59C655.337 25.93 655.261 25.3367 655.107 24.81C654.961 24.2833 654.737 23.8367 654.437 23.47C654.137 23.0967 653.764 22.81 653.317 22.61C652.877 22.41 652.364 22.31 651.777 22.31C651.184 22.31 650.664 22.4133 650.217 22.62C649.777 22.82 649.407 23.11 649.107 23.49C648.814 23.8633 648.594 24.3133 648.447 24.84C648.301 25.3667 648.227 25.95 648.227 26.59C648.227 27.25 648.304 27.8467 648.457 28.38C648.611 28.9067 648.834 29.3567 649.127 29.73C649.427 30.1033 649.797 30.39 650.237 30.59C650.684 30.79 651.197 30.89 651.777 30.89ZM667.683 21.2V32H666.213V23.53L660.563 32H659.093V21.2H660.563V29.67L666.213 21.2H667.683ZM669.69 30.6H670.74C670.907 30.4 671.043 30.13 671.15 29.79C671.257 29.45 671.34 29.0533 671.4 28.6C671.467 28.1467 671.513 27.6433 671.54 27.09C671.567 26.5367 671.58 25.95 671.58 25.33V21.2H679.42V30.6H680.82V34.27H679.35V32H671.16V34.27H669.69V30.6ZM677.95 30.6V22.6H672.97V26.15C672.97 26.6367 672.953 27.1067 672.92 27.56C672.893 28.0067 672.85 28.4233 672.79 28.81C672.737 29.19 672.67 29.5333 672.59 29.84C672.517 30.1467 672.43 30.4 672.33 30.6H677.95ZM687.024 20.9C689.891 20.9 691.324 22.3967 691.324 25.39V32H689.864V30.18C689.477 30.8733 688.954 31.4 688.294 31.76C687.634 32.12 686.851 32.3 685.944 32.3C685.364 32.3 684.844 32.2267 684.384 32.08C683.924 31.94 683.534 31.7367 683.214 31.47C682.894 31.1967 682.647 30.8667 682.474 30.48C682.301 30.0933 682.214 29.6567 682.214 29.17C682.214 28.6033 682.317 28.12 682.524 27.72C682.737 27.3133 683.034 26.9767 683.414 26.71C683.801 26.4367 684.264 26.22 684.804 26.06C685.351 25.9 685.954 25.78 686.614 25.7L689.864 25.29C689.864 24.23 689.634 23.46 689.174 22.98C688.714 22.4933 687.991 22.25 687.004 22.25C685.377 22.25 684.381 22.9267 684.014 24.28L682.624 23.95C682.877 22.9633 683.381 22.21 684.134 21.69C684.894 21.1633 685.857 20.9 687.024 20.9ZM686.754 26.89C686.207 26.9567 685.737 27.05 685.344 27.17C684.957 27.29 684.637 27.44 684.384 27.62C684.137 27.7933 683.957 28.0033 683.844 28.25C683.731 28.49 683.674 28.77 683.674 29.09C683.674 30.3567 684.517 30.99 686.204 30.99C686.671 30.99 687.101 30.9267 687.494 30.8C687.887 30.6667 688.234 30.48 688.534 30.24C688.841 29.9933 689.094 29.6967 689.294 29.35C689.494 29.0033 689.637 28.6167 689.724 28.19C689.791 27.9167 689.831 27.63 689.844 27.33C689.857 27.0233 689.864 26.75 689.864 26.51L686.754 26.89ZM701.471 32V20.03L698.771 21.65L697.731 19.84L701.471 17.6H703.571V32H701.471ZM711.515 32.29C710.195 32.29 709.128 32.01 708.315 31.45C707.502 30.8833 706.985 30.0567 706.765 28.97L708.915 28.63C709.228 29.8433 710.108 30.45 711.555 30.45C712.222 30.45 712.752 30.3233 713.145 30.07C713.538 29.81 713.735 29.4433 713.735 28.97C713.735 28.8367 713.718 28.7167 713.685 28.61C713.658 28.4967 713.605 28.3933 713.525 28.3C713.452 28.2067 713.348 28.12 713.215 28.04C713.088 27.96 712.925 27.88 712.725 27.8C712.538 27.7333 712.288 27.6533 711.975 27.56C711.668 27.4667 711.308 27.3633 710.895 27.25C710.308 27.0967 709.778 26.9333 709.305 26.76C708.838 26.58 708.442 26.37 708.115 26.13C707.795 25.89 707.548 25.6067 707.375 25.28C707.202 24.9533 707.115 24.5633 707.115 24.11C707.115 23.63 707.215 23.1933 707.415 22.8C707.622 22.4067 707.908 22.07 708.275 21.79C708.648 21.5033 709.095 21.2833 709.615 21.13C710.135 20.9767 710.708 20.9 711.335 20.9C711.948 20.9 712.512 20.9767 713.025 21.13C713.545 21.2767 713.998 21.4867 714.385 21.76C714.778 22.0333 715.098 22.3667 715.345 22.76C715.592 23.1533 715.748 23.59 715.815 24.07L713.675 24.46C713.635 24.1933 713.548 23.9533 713.415 23.74C713.288 23.5267 713.122 23.3467 712.915 23.2C712.708 23.0467 712.465 22.93 712.185 22.85C711.905 22.77 711.598 22.73 711.265 22.73C710.972 22.73 710.698 22.7633 710.445 22.83C710.192 22.89 709.972 22.98 709.785 23.1C709.605 23.2133 709.462 23.35 709.355 23.51C709.255 23.6633 709.205 23.8367 709.205 24.03C709.205 24.2167 709.255 24.3767 709.355 24.51C709.455 24.6433 709.588 24.76 709.755 24.86C709.928 24.96 710.122 25.0467 710.335 25.12C710.555 25.1933 710.785 25.2667 711.025 25.34C711.305 25.42 711.615 25.5133 711.955 25.62C712.302 25.72 712.668 25.8267 713.055 25.94C713.562 26.0933 713.992 26.2633 714.345 26.45C714.705 26.6367 714.998 26.8467 715.225 27.08C715.452 27.3133 715.615 27.58 715.715 27.88C715.822 28.1733 715.875 28.5067 715.875 28.88C715.875 29.4067 715.775 29.8833 715.575 30.31C715.375 30.73 715.085 31.0867 714.705 31.38C714.332 31.6733 713.875 31.8967 713.335 32.05C712.802 32.21 712.195 32.29 711.515 32.29ZM717.928 30.01L724.018 24.48C724.318 24.2067 724.574 23.95 724.788 23.71C725.001 23.4633 725.174 23.2233 725.308 22.99C725.448 22.7567 725.548 22.5233 725.608 22.29C725.674 22.05 725.708 21.8 725.708 21.54C725.708 21.16 725.638 20.83 725.498 20.55C725.364 20.2633 725.174 20.03 724.928 19.85C724.688 19.6633 724.404 19.5233 724.078 19.43C723.751 19.3367 723.398 19.29 723.018 19.29C722.178 19.29 721.488 19.5233 720.948 19.99C720.408 20.45 720.064 21.09 719.918 21.91L717.688 21.53C717.828 20.87 718.051 20.28 718.358 19.76C718.671 19.2333 719.054 18.79 719.508 18.43C719.968 18.0633 720.491 17.7867 721.078 17.6C721.664 17.4067 722.304 17.31 722.998 17.31C723.684 17.31 724.328 17.3967 724.928 17.57C725.528 17.7433 726.048 18.0067 726.488 18.36C726.934 18.7133 727.284 19.1567 727.538 19.69C727.791 20.2233 727.911 20.85 727.898 21.57C727.891 22.01 727.824 22.43 727.698 22.83C727.578 23.23 727.418 23.6067 727.218 23.96C727.024 24.3067 726.804 24.63 726.558 24.93C726.311 25.2233 726.061 25.4867 725.808 25.72L721.078 30.01H727.908V32H717.928V30.01ZM733.854 32V20.03L731.154 21.65L730.114 19.84L733.854 17.6H735.954V32H733.854ZM739.588 30.01L745.678 24.48C745.978 24.2067 746.234 23.95 746.448 23.71C746.661 23.4633 746.834 23.2233 746.968 22.99C747.108 22.7567 747.208 22.5233 747.268 22.29C747.334 22.05 747.368 21.8 747.368 21.54C747.368 21.16 747.298 20.83 747.158 20.55C747.024 20.2633 746.834 20.03 746.588 19.85C746.348 19.6633 746.064 19.5233 745.738 19.43C745.411 19.3367 745.058 19.29 744.678 19.29C743.838 19.29 743.148 19.5233 742.608 19.99C742.068 20.45 741.724 21.09 741.578 21.91L739.348 21.53C739.488 20.87 739.711 20.28 740.018 19.76C740.331 19.2333 740.714 18.79 741.168 18.43C741.628 18.0633 742.151 17.7867 742.738 17.6C743.324 17.4067 743.964 17.31 744.658 17.31C745.344 17.31 745.988 17.3967 746.588 17.57C747.188 17.7433 747.708 18.0067 748.148 18.36C748.594 18.7133 748.944 19.1567 749.198 19.69C749.451 20.2233 749.571 20.85 749.558 21.57C749.551 22.01 749.484 22.43 749.358 22.83C749.238 23.23 749.078 23.6067 748.878 23.96C748.684 24.3067 748.464 24.63 748.218 24.93C747.971 25.2233 747.721 25.4867 747.468 25.72L742.738 30.01H749.568V32H739.588V30.01ZM751.964 17.6H754.054V22.77C754.388 22.1833 754.838 21.7267 755.404 21.4C755.971 21.0667 756.678 20.9 757.524 20.9C758.251 20.9 758.914 21.04 759.514 21.32C760.114 21.5933 760.628 21.9833 761.054 22.49C761.488 22.99 761.824 23.59 762.064 24.29C762.304 24.99 762.424 25.7633 762.424 26.61C762.424 27.4433 762.304 28.21 762.064 28.91C761.831 29.6033 761.498 30.2033 761.064 30.71C760.638 31.21 760.121 31.6 759.514 31.88C758.914 32.16 758.251 32.3 757.524 32.3C756.678 32.3 755.971 32.1367 755.404 31.81C754.844 31.4767 754.394 31.0167 754.054 30.43V32H751.964V17.6ZM757.124 22.87C756.618 22.87 756.171 22.96 755.784 23.14C755.404 23.3133 755.084 23.5633 754.824 23.89C754.571 24.21 754.378 24.6 754.244 25.06C754.118 25.52 754.054 26.0367 754.054 26.61C754.054 27.1567 754.114 27.66 754.234 28.12C754.361 28.5733 754.551 28.9667 754.804 29.3C755.058 29.6267 755.374 29.88 755.754 30.06C756.141 30.24 756.598 30.33 757.124 30.33C757.638 30.33 758.084 30.2433 758.464 30.07C758.851 29.89 759.171 29.64 759.424 29.32C759.684 28.9933 759.878 28.6033 760.004 28.15C760.138 27.69 760.204 27.1767 760.204 26.61C760.204 26.0567 760.141 25.5533 760.014 25.1C759.888 24.64 759.694 24.2467 759.434 23.92C759.181 23.5867 758.861 23.33 758.474 23.15C758.088 22.9633 757.638 22.87 757.124 22.87Z" fill="black"/>
</svg>
