<svg width="16" height="8" viewBox="0 0 16 8" fill="none" xmlns="http://www.w3.org/2000/svg">
<path d="M0.000177577 7.37219V0.0994649H2.66353C3.17963 0.0994649 3.60695 0.184692 3.94549 0.355147C4.28403 0.523234 4.53735 0.75169 4.70543 1.04052C4.87352 1.32697 4.95756 1.65013 4.95756 2.00998C4.95756 2.31301 4.90193 2.56869 4.79066 2.77702C4.67939 2.98299 4.53024 3.14871 4.34322 3.27418C4.15856 3.39729 3.95496 3.48725 3.73242 3.54407V3.61509C3.9739 3.62693 4.20946 3.70505 4.4391 3.84946C4.67111 3.99151 4.86287 4.19393 5.01438 4.45671C5.1659 4.71949 5.24165 5.0391 5.24165 5.41552C5.24165 5.7872 5.15406 6.12101 4.97887 6.41694C4.80605 6.7105 4.53853 6.94369 4.17631 7.11651C3.8141 7.28697 3.35127 7.37219 2.78782 7.37219H0.000177577ZM1.09748 6.43114H2.68129C3.20685 6.43114 3.58327 6.32934 3.81055 6.12574C4.03782 5.92215 4.15146 5.66765 4.15146 5.36225C4.15146 5.13261 4.09345 4.92191 3.97745 4.73015C3.86145 4.53839 3.69573 4.38569 3.48029 4.27205C3.26722 4.15841 3.01391 4.1016 2.72035 4.1016H1.09748V6.43114ZM1.09748 3.24577H2.56765C2.81386 3.24577 3.03522 3.19842 3.23171 3.10373C3.43058 3.00903 3.58801 2.87645 3.70401 2.706C3.82238 2.53318 3.88157 2.32958 3.88157 2.0952C3.88157 1.79454 3.77622 1.54241 3.56552 1.33881C3.35482 1.13521 3.03166 1.03341 2.59606 1.03341H1.09748V3.24577ZM8.97567 7.47162C8.48799 7.47162 8.05238 7.38758 7.66886 7.21949C7.2877 7.05141 6.98585 6.81822 6.76332 6.51992C6.54315 6.21926 6.42478 5.87125 6.4082 5.47589H7.52326C7.53746 5.69132 7.60967 5.87835 7.73988 6.03697C7.87246 6.19322 8.04528 6.31395 8.25835 6.39918C8.47141 6.48441 8.70816 6.52702 8.96857 6.52702C9.25503 6.52702 9.50835 6.47731 9.72852 6.37787C9.95105 6.27844 10.1251 6.13995 10.2505 5.96239C10.376 5.78247 10.4387 5.57532 10.4387 5.34094C10.4387 5.0971 10.376 4.88285 10.2505 4.69819C10.1274 4.51116 9.94632 4.36438 9.70721 4.25785C9.47047 4.15131 9.18401 4.09804 8.84783 4.09804H8.23349V3.20316H8.84783C9.11772 3.20316 9.35446 3.15463 9.55806 3.05756C9.76403 2.9605 9.92501 2.82555 10.041 2.65273C10.157 2.47754 10.215 2.27276 10.215 2.03839C10.215 1.81348 10.1641 1.61817 10.0623 1.45245C9.96289 1.28436 9.82085 1.15297 9.63619 1.05827C9.45389 0.963575 9.23846 0.916226 8.98988 0.916226C8.75314 0.916226 8.53178 0.960024 8.32582 1.04762C8.12222 1.13285 7.9565 1.25595 7.82866 1.41694C7.70082 1.57555 7.63216 1.76613 7.62269 1.98867H6.5609C6.57274 1.59568 6.68874 1.25003 6.90891 0.951737C7.13145 0.653442 7.42501 0.420251 7.7896 0.252164C8.15418 0.0840766 8.55901 3.3021e-05 9.00408 3.3021e-05C9.47047 3.3021e-05 9.87293 0.0911789 10.2115 0.273471C10.5524 0.453395 10.8152 0.693688 10.9998 0.994351C11.1868 1.29501 11.2792 1.62409 11.2768 1.98157C11.2792 2.38876 11.1655 2.73441 10.9359 3.0185C10.7086 3.30259 10.4056 3.49317 10.0268 3.59023V3.64705C10.5098 3.72044 10.8838 3.9122 11.149 4.22233C11.4165 4.53247 11.5491 4.91717 11.5467 5.37645C11.5491 5.77655 11.4378 6.13521 11.2129 6.45245C10.9904 6.76968 10.6861 7.01945 10.3002 7.20174C9.91436 7.38166 9.47283 7.47162 8.97567 7.47162ZM15.6483 0.0994649V7.37219H14.5474V1.20032H14.5048L12.7647 2.33668V1.28554L14.5794 0.0994649H15.6483Z" fill="black"/>
</svg>
