<svg width="280" height="41" viewBox="0 0 280 41" fill="none" xmlns="http://www.w3.org/2000/svg">
<path d="M17.0723 0H268.001C274.628 0 280.001 5.37258 280.001 12V29C280.001 35.6274 274.628 41 268.001 41H17.0723V0Z" fill="#E3E3E3"/>
<rect width="40.1851" height="41" rx="12" transform="matrix(-1 0 0 1 40.1855 0)" fill="#2A2A2A"/>
<path d="M10.4699 17.5569H29.7161C29.9754 17.5569 30.1855 17.7671 30.1855 18.0263V28.2958C30.1855 28.6846 29.8703 28.9999 29.4814 28.9999H10.7046C10.3157 28.9999 10.0005 28.6846 10.0005 28.2958V18.0263C10.0005 17.7671 10.2107 17.5569 10.4699 17.5569ZM25.9526 26.1733C26.5267 26.1733 26.9922 25.7078 26.9922 25.1336C26.9922 24.5594 26.5267 24.0939 25.9525 24.0939C25.3783 24.0939 24.9128 24.5594 24.9128 25.1336C24.9129 25.7077 25.3783 26.1733 25.9526 26.1733ZM25.9526 22.4629C26.5267 22.4629 26.9922 21.9974 26.9922 21.4232C26.9922 20.849 26.5267 20.3835 25.9525 20.3835C25.3783 20.3835 24.9128 20.849 24.9128 21.4232C24.9128 21.9974 25.3783 22.4629 25.9526 22.4629ZM22.0462 26.1733C22.6204 26.1733 23.0859 25.7078 23.0859 25.1336C23.0859 24.5594 22.6204 24.0939 22.0462 24.0939C21.472 24.0939 21.0065 24.5594 21.0065 25.1336C21.0065 25.7077 21.472 26.1733 22.0462 26.1733ZM22.0462 22.4629C22.6204 22.4629 23.0859 21.9974 23.0859 21.4232C23.0859 20.849 22.6204 20.3835 22.0462 20.3835C21.472 20.3835 21.0065 20.849 21.0065 21.4232C21.0065 21.9974 21.472 22.4629 22.0462 22.4629ZM18.1398 26.1733C18.714 26.1733 19.1795 25.7078 19.1795 25.1336C19.1795 24.5594 18.714 24.0939 18.1398 24.0939C17.5656 24.0939 17.1001 24.5594 17.1001 25.1336C17.1001 25.7077 17.5656 26.1733 18.1398 26.1733ZM18.1398 22.4629C18.714 22.4629 19.1795 21.9974 19.1795 21.4232C19.1795 20.849 18.714 20.3835 18.1398 20.3835C17.5656 20.3835 17.1001 20.849 17.1001 21.4232C17.1001 21.9974 17.5656 22.4629 18.1398 22.4629ZM14.2335 26.1733C14.8077 26.1733 15.2732 25.7078 15.2732 25.1336C15.2732 24.5594 14.8077 24.0939 14.2335 24.0939C13.6593 24.0939 13.1938 24.5594 13.1938 25.1336C13.1938 25.7077 13.6593 26.1733 14.2335 26.1733ZM14.2335 22.4629C14.8077 22.4629 15.2732 21.9974 15.2732 21.4232C15.2732 20.849 14.8077 20.3835 14.2335 20.3835C13.6593 20.3835 13.1938 20.849 13.1938 21.4232C13.1938 21.9974 13.6593 22.4629 14.2335 22.4629Z" fill="#E3E3E3"/>
<path d="M10.7046 13.1285H13.5293V12.7041C13.5293 12.3152 13.8446 12 14.2334 12C14.6223 12 14.9375 12.3153 14.9375 12.7041V13.1285H17.4356V12.7041C17.4356 12.3152 17.7509 12 18.1398 12C18.5286 12 18.8439 12.3153 18.8439 12.7041V13.1285H21.342V12.7041C21.342 12.3152 21.6572 12 22.0461 12C22.435 12 22.7502 12.3153 22.7502 12.7041V13.1285H25.2485V12.7041C25.2485 12.3152 25.5638 12 25.9526 12C26.3415 12 26.6567 12.3153 26.6567 12.7041V13.1285H29.4814C29.8703 13.1285 30.1855 13.4438 30.1855 13.8326V16.3835C30.1855 16.6427 29.9754 16.8529 29.7161 16.8529H10.4699C10.2107 16.8529 10.0005 16.6427 10.0005 16.3835V13.8326C10.0005 13.4438 10.3158 13.1285 10.7046 13.1285Z" fill="#E3E3E3"/>
<path d="M61.1149 27H57.0829V15.48H60.9949C61.5496 15.48 62.0589 15.5387 62.5229 15.656C62.9869 15.7733 63.3842 15.9547 63.7149 16.2C64.0509 16.44 64.3122 16.7467 64.4989 17.12C64.6856 17.4933 64.7789 17.9333 64.7789 18.44C64.7789 18.8027 64.7282 19.128 64.6269 19.416C64.5309 19.704 64.3976 19.9573 64.2269 20.176C64.0616 20.3893 63.8696 20.568 63.6509 20.712C63.4376 20.856 63.2109 20.968 62.9709 21.048C63.2269 21.096 63.4829 21.192 63.7389 21.336C64.0002 21.48 64.2349 21.6693 64.4429 21.904C64.6509 22.1387 64.8189 22.416 64.9469 22.736C65.0802 23.056 65.1469 23.4213 65.1469 23.832C65.1469 24.392 65.0456 24.872 64.8429 25.272C64.6402 25.672 64.3602 26 64.0029 26.256C63.6456 26.512 63.2189 26.7013 62.7229 26.824C62.2322 26.9413 61.6962 27 61.1149 27ZM61.0109 16.608H58.2589V20.512H61.3389C61.6536 20.512 61.9469 20.472 62.2189 20.392C62.4909 20.312 62.7256 20.1893 62.9229 20.024C63.1256 19.8587 63.2829 19.6507 63.3949 19.4C63.5122 19.1493 63.5709 18.8533 63.5709 18.512C63.5709 18.1653 63.5069 17.872 63.3789 17.632C63.2562 17.392 63.0829 17.1973 62.8589 17.048C62.6349 16.8933 62.3656 16.7813 62.0509 16.712C61.7362 16.6427 61.3896 16.608 61.0109 16.608ZM61.1149 25.872C61.5256 25.872 61.9016 25.8373 62.2429 25.768C62.5896 25.6987 62.8882 25.584 63.1389 25.424C63.3896 25.2587 63.5842 25.04 63.7229 24.768C63.8669 24.4907 63.9389 24.144 63.9389 23.728C63.9389 23.3493 63.8669 23.0267 63.7229 22.76C63.5842 22.4933 63.3976 22.2773 63.1629 22.112C62.9282 21.9413 62.6536 21.816 62.3389 21.736C62.0296 21.656 61.7042 21.616 61.3629 21.616H58.2589V25.872H61.1149ZM74.5711 27V18.36H75.7471V27H74.5711ZM70.5711 27H66.7391V18.36H67.9151V21.648H70.5711C71.0618 21.648 71.4911 21.7147 71.8591 21.848C72.2325 21.9813 72.5445 22.1653 72.7951 22.4C73.0458 22.6347 73.2325 22.9173 73.3551 23.248C73.4831 23.5733 73.5471 23.9307 73.5471 24.32C73.5471 24.7093 73.4831 25.0693 73.3551 25.4C73.2325 25.7253 73.0458 26.008 72.7951 26.248C72.5445 26.4827 72.2325 26.6667 71.8591 26.8C71.4911 26.9333 71.0618 27 70.5711 27ZM70.4431 25.976C70.7685 25.976 71.0511 25.936 71.2911 25.856C71.5365 25.7707 71.7391 25.656 71.8991 25.512C72.0591 25.3627 72.1765 25.1867 72.2511 24.984C72.3311 24.7813 72.3711 24.56 72.3711 24.32C72.3711 24.08 72.3311 23.8587 72.2511 23.656C72.1765 23.4533 72.0591 23.28 71.8991 23.136C71.7391 22.992 71.5365 22.88 71.2911 22.8C71.0511 22.7147 70.7685 22.672 70.4431 22.672H67.9151V25.976H70.4431ZM81.3971 27.248C80.7838 27.2427 80.2398 27.136 79.7651 26.928C79.2958 26.72 78.8985 26.4187 78.5731 26.024C78.2478 25.624 77.9971 25.136 77.8211 24.56C77.6451 23.984 77.5465 23.328 77.5251 22.592C77.5145 22.2507 77.5145 21.864 77.5251 21.432C77.5358 21 77.5651 20.576 77.6131 20.16C77.6718 19.7013 77.7438 19.2853 77.8291 18.912C77.9198 18.5333 78.0318 18.1947 78.1651 17.896C78.3038 17.592 78.4691 17.3253 78.6611 17.096C78.8585 16.8613 79.0931 16.6587 79.3651 16.488C79.7545 16.2427 80.1545 16.0667 80.5651 15.96C80.9758 15.848 81.4051 15.7627 81.8531 15.704C82.3065 15.6453 82.7838 15.5893 83.2851 15.536C83.7918 15.4773 84.3331 15.3787 84.9091 15.24L85.0051 16.36C84.4771 16.4933 83.9785 16.5867 83.5091 16.64C83.0451 16.6933 82.6051 16.744 82.1891 16.792C81.7785 16.84 81.3945 16.904 81.0371 16.984C80.6851 17.064 80.3571 17.1973 80.0531 17.384C79.8451 17.512 79.6638 17.6613 79.5091 17.832C79.3598 18.0027 79.2318 18.2133 79.1251 18.464C79.0238 18.7093 78.9385 19.0027 78.8691 19.344C78.8051 19.68 78.7518 20.0773 78.7091 20.536C79.0558 19.9867 79.4745 19.5867 79.9651 19.336C80.4611 19.0853 81.0345 18.96 81.6851 18.96C82.2398 18.96 82.7438 19.0587 83.1971 19.256C83.6558 19.4533 84.0478 19.7333 84.3731 20.096C84.7038 20.4533 84.9598 20.888 85.1411 21.4C85.3225 21.9067 85.4131 22.4693 85.4131 23.088C85.4131 23.7227 85.3171 24.296 85.1251 24.808C84.9331 25.32 84.6611 25.7573 84.3091 26.12C83.9625 26.4827 83.5411 26.7627 83.0451 26.96C82.5545 27.152 82.0051 27.248 81.3971 27.248ZM81.4291 26.12C81.8611 26.12 82.2451 26.0507 82.5811 25.912C82.9225 25.7733 83.2105 25.5733 83.4451 25.312C83.6851 25.0507 83.8665 24.736 83.9891 24.368C84.1118 24 84.1731 23.584 84.1731 23.12C84.1731 22.656 84.1145 22.2373 83.9971 21.864C83.8798 21.4853 83.7065 21.1653 83.4771 20.904C83.2531 20.6427 82.9758 20.4427 82.6451 20.304C82.3145 20.16 81.9385 20.088 81.5171 20.088C81.0798 20.088 80.6905 20.1573 80.3491 20.296C80.0131 20.4347 79.7278 20.6347 79.4931 20.896C79.2638 21.1573 79.0878 21.4747 78.9651 21.848C78.8425 22.2213 78.7811 22.6453 78.7811 23.12C78.7811 23.5733 78.8425 23.9867 78.9651 24.36C79.0878 24.728 79.2638 25.0427 79.4931 25.304C79.7225 25.5653 79.9998 25.768 80.3251 25.912C80.6558 26.0507 81.0238 26.12 81.4291 26.12ZM90.8326 26.128C91.478 26.128 92.0166 25.984 92.4486 25.696C92.8806 25.408 93.2246 24.9973 93.4806 24.464L94.5926 24.872C94.246 25.6347 93.7473 26.2213 93.0966 26.632C92.4513 27.0373 91.6966 27.24 90.8326 27.24C90.2086 27.24 89.6406 27.1333 89.1286 26.92C88.622 26.7013 88.1873 26.3947 87.8246 26C87.4673 25.6053 87.19 25.128 86.9926 24.568C86.7953 24.0027 86.6966 23.3733 86.6966 22.68C86.6966 21.9813 86.7926 21.352 86.9846 20.792C87.1766 20.2267 87.4513 19.7467 87.8086 19.352C88.166 18.9573 88.5953 18.6533 89.0966 18.44C89.598 18.2267 90.1606 18.12 90.7846 18.12C91.4353 18.12 92.0113 18.232 92.5126 18.456C93.014 18.68 93.4353 19.0027 93.7766 19.424C94.118 19.8453 94.3713 20.3573 94.5366 20.96C94.7073 21.5627 94.782 22.2453 94.7606 23.008H87.9526C87.9793 23.4987 88.0646 23.9387 88.2086 24.328C88.3526 24.712 88.5473 25.0373 88.7926 25.304C89.0433 25.5707 89.3393 25.776 89.6806 25.92C90.0273 26.0587 90.4113 26.128 90.8326 26.128ZM93.5206 22.024C93.446 21.112 93.174 20.416 92.7046 19.936C92.2353 19.4507 91.5953 19.208 90.7846 19.208C89.9793 19.208 89.334 19.4533 88.8486 19.944C88.3633 20.4347 88.0726 21.128 87.9766 22.024H93.5206ZM96.536 30.84V18.36H97.712V19.808C97.9947 19.28 98.384 18.8667 98.88 18.568C99.376 18.2693 99.9867 18.12 100.712 18.12C101.325 18.12 101.875 18.232 102.36 18.456C102.851 18.68 103.264 18.9947 103.6 19.4C103.941 19.8 104.2 20.28 104.376 20.84C104.557 21.3947 104.648 22.0053 104.648 22.672C104.648 23.3493 104.557 23.9707 104.376 24.536C104.195 25.096 103.933 25.576 103.592 25.976C103.251 26.376 102.837 26.688 102.352 26.912C101.867 27.1307 101.32 27.24 100.712 27.24C99.9813 27.24 99.3707 27.0907 98.88 26.792C98.3893 26.4933 98 26.08 97.712 25.552V30.84H96.536ZM100.552 26.112C101.032 26.112 101.451 26.0293 101.808 25.864C102.165 25.6933 102.461 25.4587 102.696 25.16C102.931 24.856 103.107 24.4933 103.224 24.072C103.341 23.6507 103.4 23.184 103.4 22.672C103.4 22.1493 103.341 21.6773 103.224 21.256C103.107 20.8347 102.928 20.4773 102.688 20.184C102.453 19.8853 102.157 19.656 101.8 19.496C101.443 19.3307 101.027 19.248 100.552 19.248C100.067 19.248 99.6453 19.3333 99.288 19.504C98.936 19.6693 98.6427 19.904 98.408 20.208C98.1733 20.5067 97.9973 20.8667 97.88 21.288C97.768 21.704 97.712 22.1653 97.712 22.672C97.712 23.1893 97.7707 23.6613 97.888 24.088C98.0107 24.5093 98.1893 24.872 98.424 25.176C98.664 25.4747 98.96 25.7067 99.312 25.872C99.6693 26.032 100.083 26.112 100.552 26.112ZM113.275 18.36V27H112.099V20.224L107.579 27H106.403V18.36H107.579V25.136L112.099 18.36H113.275ZM117.84 27V19.48H114.8V18.36H122.056V19.48H119.016V27H117.84ZM127.239 26.128C127.884 26.128 128.423 25.984 128.855 25.696C129.287 25.408 129.631 24.9973 129.887 24.464L130.999 24.872C130.652 25.6347 130.154 26.2213 129.503 26.632C128.858 27.0373 128.103 27.24 127.239 27.24C126.615 27.24 126.047 27.1333 125.535 26.92C125.028 26.7013 124.594 26.3947 124.231 26C123.874 25.6053 123.596 25.128 123.399 24.568C123.202 24.0027 123.103 23.3733 123.103 22.68C123.103 21.9813 123.199 21.352 123.391 20.792C123.583 20.2267 123.858 19.7467 124.215 19.352C124.572 18.9573 125.002 18.6533 125.503 18.44C126.004 18.2267 126.567 18.12 127.191 18.12C127.842 18.12 128.418 18.232 128.919 18.456C129.42 18.68 129.842 19.0027 130.183 19.424C130.524 19.8453 130.778 20.3573 130.943 20.96C131.114 21.5627 131.188 22.2453 131.167 23.008H124.359C124.386 23.4987 124.471 23.9387 124.615 24.328C124.759 24.712 124.954 25.0373 125.199 25.304C125.45 25.5707 125.746 25.776 126.087 25.92C126.434 26.0587 126.818 26.128 127.239 26.128ZM129.927 22.024C129.852 21.112 129.58 20.416 129.111 19.936C128.642 19.4507 128.002 19.208 127.191 19.208C126.386 19.208 125.74 19.4533 125.255 19.944C124.77 20.4347 124.479 21.128 124.383 22.024H129.927ZM135.505 25.88H136.345C136.479 25.72 136.588 25.504 136.673 25.232C136.759 24.96 136.825 24.6427 136.873 24.28C136.927 23.9173 136.964 23.5147 136.985 23.072C137.007 22.6293 137.017 22.16 137.017 21.664V18.36H143.289V25.88H144.409V28.816H143.233V27H136.681V28.816H135.505V25.88ZM142.113 25.88V19.48H138.129V22.32C138.129 22.7093 138.116 23.0853 138.089 23.448C138.068 23.8053 138.033 24.1387 137.985 24.448C137.943 24.752 137.889 25.0267 137.825 25.272C137.767 25.5173 137.697 25.72 137.617 25.88H142.113ZM149.373 18.12C151.666 18.12 152.813 19.3173 152.813 21.712V27H151.645V25.544C151.335 26.0987 150.917 26.52 150.389 26.808C149.861 27.096 149.234 27.24 148.509 27.24C148.045 27.24 147.629 27.1813 147.261 27.064C146.893 26.952 146.581 26.7893 146.325 26.576C146.069 26.3573 145.871 26.0933 145.733 25.784C145.594 25.4747 145.525 25.1253 145.525 24.736C145.525 24.2827 145.607 23.896 145.773 23.576C145.943 23.2507 146.181 22.9813 146.485 22.768C146.794 22.5493 147.165 22.376 147.597 22.248C148.034 22.12 148.517 22.024 149.045 21.96L151.645 21.632C151.645 20.784 151.461 20.168 151.093 19.784C150.725 19.3947 150.146 19.2 149.357 19.2C148.055 19.2 147.258 19.7413 146.965 20.824L145.853 20.56C146.055 19.7707 146.458 19.168 147.061 18.752C147.669 18.3307 148.439 18.12 149.373 18.12ZM149.157 22.912C148.719 22.9653 148.343 23.04 148.029 23.136C147.719 23.232 147.463 23.352 147.261 23.496C147.063 23.6347 146.919 23.8027 146.829 24C146.738 24.192 146.693 24.416 146.693 24.672C146.693 25.6853 147.367 26.192 148.717 26.192C149.09 26.192 149.434 26.1413 149.749 26.04C150.063 25.9333 150.341 25.784 150.581 25.592C150.826 25.3947 151.029 25.1573 151.189 24.88C151.349 24.6027 151.463 24.2933 151.533 23.952C151.586 23.7333 151.618 23.504 151.629 23.264C151.639 23.0187 151.645 22.8 151.645 22.608L149.157 22.912ZM157.215 27V19.48H154.175V18.36H161.431V19.48H158.391V27H157.215ZM170.79 27V18.36H171.966V27H170.79ZM166.79 27H162.958V18.36H164.134V21.648H166.79C167.281 21.648 167.71 21.7147 168.078 21.848C168.451 21.9813 168.763 22.1653 169.014 22.4C169.265 22.6347 169.451 22.9173 169.574 23.248C169.702 23.5733 169.766 23.9307 169.766 24.32C169.766 24.7093 169.702 25.0693 169.574 25.4C169.451 25.7253 169.265 26.008 169.014 26.248C168.763 26.4827 168.451 26.6667 168.078 26.8C167.71 26.9333 167.281 27 166.79 27ZM166.662 25.976C166.987 25.976 167.27 25.936 167.51 25.856C167.755 25.7707 167.958 25.656 168.118 25.512C168.278 25.3627 168.395 25.1867 168.47 24.984C168.55 24.7813 168.59 24.56 168.59 24.32C168.59 24.08 168.55 23.8587 168.47 23.656C168.395 23.4533 168.278 23.28 168.118 23.136C167.958 22.992 167.755 22.88 167.51 22.8C167.27 22.7147 166.987 22.672 166.662 22.672H164.134V25.976H166.662Z" fill="#6B6B6B"/>
</svg>
