<svg width="190" height="48" viewBox="0 0 190 48" fill="none" xmlns="http://www.w3.org/2000/svg">
<path d="M0 12C0 5.37258 5.37258 0 12 0H178C184.627 0 190 5.37258 190 12V48H0V12Z" fill="#B2B2B2"/>
<path d="M24.136 33H17.68L17.68 15.72H23.956C24.772 15.72 25.528 15.812 26.224 15.996C26.92 16.18 27.524 16.46 28.036 16.836C28.548 17.204 28.948 17.672 29.236 18.24C29.532 18.808 29.68 19.472 29.68 20.232C29.68 20.784 29.604 21.276 29.452 21.708C29.3 22.132 29.1 22.504 28.852 22.824C28.612 23.136 28.336 23.396 28.024 23.604C27.72 23.804 27.416 23.952 27.112 24.048C27.472 24.112 27.836 24.248 28.204 24.456C28.572 24.664 28.904 24.94 29.2 25.284C29.504 25.628 29.752 26.044 29.944 26.532C30.136 27.02 30.232 27.576 30.232 28.2C30.232 29.04 30.072 29.764 29.752 30.372C29.44 30.98 29.008 31.48 28.456 31.872C27.912 32.256 27.268 32.54 26.524 32.724C25.788 32.908 24.992 33 24.136 33ZM24.004 18.084H20.212V22.932H24.244C24.652 22.932 25.028 22.888 25.372 22.8C25.724 22.712 26.028 22.572 26.284 22.38C26.54 22.18 26.74 21.924 26.884 21.612C27.036 21.3 27.112 20.92 27.112 20.472C27.112 20.024 27.032 19.648 26.872 19.344C26.72 19.04 26.504 18.796 26.224 18.612C25.952 18.428 25.624 18.296 25.24 18.216C24.864 18.128 24.452 18.084 24.004 18.084ZM24.136 30.636C24.616 30.636 25.072 30.596 25.504 30.516C25.936 30.436 26.312 30.296 26.632 30.096C26.96 29.896 27.22 29.62 27.412 29.268C27.604 28.916 27.7 28.472 27.7 27.936C27.7 27.416 27.604 26.988 27.412 26.652C27.228 26.308 26.976 26.032 26.656 25.824C26.344 25.616 25.984 25.472 25.576 25.392C25.168 25.304 24.748 25.26 24.316 25.26H20.212V30.636H24.136ZM32.4177 30.612L39.7257 23.976C40.0857 23.648 40.3937 23.34 40.6497 23.052C40.9057 22.756 41.1137 22.468 41.2737 22.188C41.4417 21.908 41.5617 21.628 41.6337 21.348C41.7137 21.06 41.7537 20.76 41.7537 20.448C41.7537 19.992 41.6697 19.596 41.5017 19.26C41.3417 18.916 41.1137 18.636 40.8177 18.42C40.5297 18.196 40.1897 18.028 39.7977 17.916C39.4057 17.804 38.9817 17.748 38.5257 17.748C37.5177 17.748 36.6897 18.028 36.0417 18.588C35.3937 19.14 34.9817 19.908 34.8057 20.892L32.1297 20.436C32.2977 19.644 32.5657 18.936 32.9337 18.312C33.3097 17.68 33.7697 17.148 34.3137 16.716C34.8657 16.276 35.4937 15.944 36.1977 15.72C36.9017 15.488 37.6697 15.372 38.5017 15.372C39.3257 15.372 40.0977 15.476 40.8177 15.684C41.5377 15.892 42.1617 16.208 42.6897 16.632C43.2257 17.056 43.6457 17.588 43.9497 18.228C44.2537 18.868 44.3977 19.62 44.3817 20.484C44.3737 21.012 44.2937 21.516 44.1417 21.996C43.9977 22.476 43.8057 22.928 43.5657 23.352C43.3337 23.768 43.0697 24.156 42.7737 24.516C42.4777 24.868 42.1777 25.184 41.8737 25.464L36.1977 30.612H44.3937V33H32.4177V30.612ZM54.9968 33V29.82L46.3328 29.82V27.456L52.0328 15.72H54.8048L49.1048 27.456L54.9968 27.456V21.84H57.5168V27.456H59.2088V29.82H57.5168V33H54.9968ZM68.9941 15.72L64.3861 33H61.8541L66.4621 15.72L68.9941 15.72ZM79.0133 33.36C77.9813 33.36 77.0413 33.204 76.1933 32.892C75.3453 32.58 74.6173 32.12 74.0093 31.512C73.4093 30.904 72.9453 30.152 72.6173 29.256C72.2893 28.36 72.1253 27.328 72.1253 26.16V15.72L74.6573 15.72V26.076C74.6573 27.708 75.0173 28.936 75.7373 29.76C76.4653 30.584 77.5573 30.996 79.0133 30.996C80.4693 30.996 81.5573 30.584 82.2773 29.76C83.0053 28.936 83.3693 27.708 83.3693 26.076V15.72H85.9013V26.16C85.9013 27.328 85.7373 28.36 85.4093 29.256C85.0813 30.152 84.6133 30.904 84.0053 31.512C83.4053 32.12 82.6813 32.58 81.8333 32.892C80.9853 33.204 80.0453 33.36 79.0133 33.36ZM95.5701 33.36C93.3541 33.36 91.7061 32.696 90.6261 31.368C89.5541 30.04 88.9941 28.004 88.9461 25.26C88.8901 21.932 89.4061 19.452 90.4941 17.82C91.5821 16.18 93.2901 15.36 95.6181 15.36C97.3541 15.36 98.7541 15.768 99.8181 16.584C100.89 17.392 101.618 18.588 102.002 20.172L99.4461 20.592C99.1821 19.592 98.7461 18.864 98.1381 18.408C97.5301 17.952 96.6981 17.724 95.6421 17.724C94.2581 17.724 93.2181 18.196 92.5221 19.14C91.8341 20.076 91.4701 21.512 91.4301 23.448L91.4181 24.048C91.6341 23.688 91.9021 23.376 92.2221 23.112C92.5501 22.848 92.9141 22.632 93.3141 22.464C93.7221 22.296 94.1541 22.172 94.6101 22.092C95.0741 22.004 95.5541 21.96 96.0501 21.96C96.9061 21.96 97.6981 22.076 98.4261 22.308C99.1621 22.54 99.7981 22.892 100.334 23.364C100.87 23.828 101.29 24.416 101.594 25.128C101.906 25.832 102.062 26.664 102.062 27.624C102.062 28.576 101.89 29.412 101.546 30.132C101.21 30.844 100.746 31.44 100.154 31.92C99.5701 32.4 98.8821 32.76 98.0901 33C97.3061 33.24 96.4661 33.36 95.5701 33.36ZM95.5701 30.996C96.1781 30.996 96.7181 30.92 97.1901 30.768C97.6621 30.616 98.0621 30.396 98.3901 30.108C98.7181 29.82 98.9661 29.472 99.1341 29.064C99.3101 28.656 99.3981 28.2 99.3981 27.696C99.3981 27.192 99.3101 26.74 99.1341 26.34C98.9661 25.932 98.7181 25.584 98.3901 25.296C98.0621 25.008 97.6621 24.788 97.1901 24.636C96.7181 24.484 96.1781 24.408 95.5701 24.408C94.9621 24.408 94.4221 24.484 93.9501 24.636C93.4781 24.788 93.0781 25.008 92.7501 25.296C92.4221 25.584 92.1701 25.932 91.9941 26.34C91.8261 26.74 91.7421 27.192 91.7421 27.696C91.7421 28.2 91.8261 28.656 91.9941 29.064C92.1701 29.472 92.4221 29.82 92.7501 30.108C93.0781 30.396 93.4781 30.616 93.9501 30.768C94.4221 30.92 94.9621 30.996 95.5701 30.996ZM112.377 15.72L107.769 33H105.237L109.845 15.72H112.377ZM127.604 31.908C126.956 32.38 126.224 32.74 125.408 32.988C124.592 33.236 123.696 33.36 122.72 33.36C121.424 33.36 120.268 33.144 119.252 32.712C118.244 32.272 117.388 31.656 116.684 30.864C115.988 30.072 115.456 29.124 115.088 28.02C114.728 26.916 114.548 25.696 114.548 24.36C114.548 23.024 114.728 21.804 115.088 20.7C115.456 19.596 115.988 18.648 116.684 17.856C117.388 17.064 118.244 16.452 119.252 16.02C120.268 15.58 121.424 15.36 122.72 15.36C124.016 15.36 125.168 15.58 126.176 16.02C127.192 16.452 128.048 17.064 128.744 17.856C129.44 18.648 129.968 19.596 130.328 20.7C130.696 21.804 130.88 23.024 130.88 24.36C130.88 25.552 130.736 26.648 130.448 27.648C130.16 28.64 129.74 29.524 129.188 30.3L130.64 31.74L129.056 33.348L127.604 31.908ZM122.72 30.972C123.344 30.972 123.912 30.9 124.424 30.756C124.936 30.612 125.396 30.4 125.804 30.12L123.104 27.432L124.712 25.824L127.328 28.428C127.624 27.884 127.844 27.272 127.988 26.592C128.14 25.904 128.216 25.16 128.216 24.36C128.216 23.368 128.1 22.468 127.868 21.66C127.644 20.844 127.304 20.148 126.848 19.572C126.392 18.988 125.82 18.54 125.132 18.228C124.444 17.908 123.64 17.748 122.72 17.748C121.8 17.748 120.996 17.908 120.308 18.228C119.62 18.54 119.048 18.988 118.592 19.572C118.136 20.148 117.792 20.844 117.56 21.66C117.328 22.468 117.212 23.368 117.212 24.36C117.212 25.352 117.324 26.256 117.548 27.072C117.78 27.88 118.124 28.576 118.58 29.16C119.044 29.736 119.62 30.184 120.308 30.504C120.996 30.816 121.8 30.972 122.72 30.972ZM133.514 33V15.72L136.046 15.72V30.636L143.87 30.636V33L133.514 33ZM150.155 33V18.636L146.915 20.58L145.667 18.408L150.155 15.72H152.675V33H150.155ZM164.439 33.36C163.143 33.36 161.987 33.144 160.971 32.712C159.963 32.272 159.107 31.656 158.403 30.864C157.707 30.072 157.175 29.124 156.807 28.02C156.447 26.916 156.267 25.696 156.267 24.36C156.267 23.024 156.447 21.804 156.807 20.7C157.175 19.596 157.707 18.648 158.403 17.856C159.107 17.064 159.963 16.452 160.971 16.02C161.987 15.58 163.143 15.36 164.439 15.36C165.439 15.36 166.351 15.492 167.175 15.756C168.007 16.012 168.747 16.384 169.395 16.872C170.043 17.36 170.595 17.948 171.051 18.636C171.507 19.316 171.863 20.084 172.119 20.94L169.575 21.624C169.231 20.416 168.631 19.468 167.775 18.78C166.919 18.092 165.807 17.748 164.439 17.748C163.543 17.748 162.751 17.908 162.063 18.228C161.375 18.54 160.795 18.988 160.323 19.572C159.859 20.148 159.507 20.844 159.267 21.66C159.035 22.468 158.919 23.368 158.919 24.36C158.919 25.352 159.035 26.256 159.267 27.072C159.499 27.88 159.843 28.576 160.299 29.16C160.763 29.736 161.339 30.184 162.027 30.504C162.715 30.816 163.519 30.972 164.439 30.972C165.807 30.972 166.919 30.628 167.775 29.94C168.631 29.252 169.231 28.304 169.575 27.096L172.119 27.78C171.863 28.628 171.507 29.396 171.051 30.084C170.595 30.772 170.043 31.36 169.395 31.848C168.747 32.336 168.007 32.712 167.175 32.976C166.351 33.232 165.439 33.36 164.439 33.36Z" fill="#6D6D6D"/>
</svg>
