<svg width="202" height="48" viewBox="0 0 202 48" fill="none" xmlns="http://www.w3.org/2000/svg">
<path d="M0 12C0 5.37258 5.37258 0 12 0H190C196.627 0 202 5.37258 202 12V48H0V12Z" fill="#89F180"/>
<path d="M24.136 33H17.68L17.68 15.72H23.956C24.772 15.72 25.528 15.812 26.224 15.996C26.92 16.18 27.524 16.46 28.036 16.836C28.548 17.204 28.948 17.672 29.236 18.24C29.532 18.808 29.68 19.472 29.68 20.232C29.68 20.784 29.604 21.276 29.452 21.708C29.3 22.132 29.1 22.504 28.852 22.824C28.612 23.136 28.336 23.396 28.024 23.604C27.72 23.804 27.416 23.952 27.112 24.048C27.472 24.112 27.836 24.248 28.204 24.456C28.572 24.664 28.904 24.94 29.2 25.284C29.504 25.628 29.752 26.044 29.944 26.532C30.136 27.02 30.232 27.576 30.232 28.2C30.232 29.04 30.072 29.764 29.752 30.372C29.44 30.98 29.008 31.48 28.456 31.872C27.912 32.256 27.268 32.54 26.524 32.724C25.788 32.908 24.992 33 24.136 33ZM24.004 18.084H20.212V22.932H24.244C24.652 22.932 25.028 22.888 25.372 22.8C25.724 22.712 26.028 22.572 26.284 22.38C26.54 22.18 26.74 21.924 26.884 21.612C27.036 21.3 27.112 20.92 27.112 20.472C27.112 20.024 27.032 19.648 26.872 19.344C26.72 19.04 26.504 18.796 26.224 18.612C25.952 18.428 25.624 18.296 25.24 18.216C24.864 18.128 24.452 18.084 24.004 18.084ZM24.136 30.636C24.616 30.636 25.072 30.596 25.504 30.516C25.936 30.436 26.312 30.296 26.632 30.096C26.96 29.896 27.22 29.62 27.412 29.268C27.604 28.916 27.7 28.472 27.7 27.936C27.7 27.416 27.604 26.988 27.412 26.652C27.228 26.308 26.976 26.032 26.656 25.824C26.344 25.616 25.984 25.472 25.576 25.392C25.168 25.304 24.748 25.26 24.316 25.26H20.212V30.636H24.136ZM44.8977 27.708C44.8977 28.588 44.7417 29.38 44.4297 30.084C44.1177 30.78 43.6817 31.372 43.1217 31.86C42.5697 32.34 41.9097 32.712 41.1417 32.976C40.3737 33.232 39.5297 33.36 38.6097 33.36C37.7857 33.36 37.0057 33.256 36.2697 33.048C35.5417 32.848 34.8817 32.532 34.2897 32.1C33.7057 31.668 33.2057 31.116 32.7897 30.444C32.3737 29.772 32.0737 28.972 31.8897 28.044L34.4817 27.648C34.6097 28.184 34.7817 28.66 34.9977 29.076C35.2137 29.492 35.4897 29.844 35.8257 30.132C36.1617 30.412 36.5617 30.628 37.0257 30.78C37.4897 30.924 38.0337 30.996 38.6577 30.996C39.2017 30.996 39.6937 30.912 40.1337 30.744C40.5817 30.576 40.9617 30.348 41.2737 30.06C41.5937 29.772 41.8377 29.436 42.0057 29.052C42.1817 28.66 42.2697 28.244 42.2697 27.804C42.2697 26.804 41.9497 26.052 41.3097 25.548C40.6777 25.036 39.7777 24.78 38.6097 24.78H36.7257V22.716L41.1177 18.084H32.8617V15.72H44.2137V18.084L39.7137 22.752C41.4017 22.888 42.6857 23.368 43.5657 24.192C44.4537 25.016 44.8977 26.188 44.8977 27.708ZM52.2561 33V18.636L49.0161 20.58L47.7681 18.408L52.2561 15.72H54.7761V33H52.2561ZM66.2284 15.72L61.6204 33H59.0884L63.6964 15.72H66.2284ZM76.2477 33.36C75.2157 33.36 74.2757 33.204 73.4277 32.892C72.5797 32.58 71.8517 32.12 71.2437 31.512C70.6437 30.904 70.1797 30.152 69.8517 29.256C69.5237 28.36 69.3597 27.328 69.3597 26.16V15.72H71.8917V26.076C71.8917 27.708 72.2517 28.936 72.9717 29.76C73.6997 30.584 74.7917 30.996 76.2477 30.996C77.7037 30.996 78.7917 30.584 79.5117 29.76C80.2397 28.936 80.6037 27.708 80.6037 26.076V15.72H83.1357V26.16C83.1357 27.328 82.9717 28.36 82.6437 29.256C82.3157 30.152 81.8477 30.904 81.2397 31.512C80.6397 32.12 79.9157 32.58 79.0677 32.892C78.2197 33.204 77.2797 33.36 76.2477 33.36ZM90.7405 33V18.636L87.5005 20.58L86.2525 18.408L90.7405 15.72H93.2605V33H90.7405ZM110.341 27.708C110.341 28.588 110.185 29.38 109.873 30.084C109.561 30.78 109.125 31.372 108.565 31.86C108.013 32.34 107.353 32.712 106.585 32.976C105.817 33.232 104.973 33.36 104.053 33.36C103.229 33.36 102.449 33.256 101.713 33.048C100.985 32.848 100.325 32.532 99.7328 32.1C99.1488 31.668 98.6488 31.116 98.2328 30.444C97.8168 29.772 97.5168 28.972 97.3328 28.044L99.9248 27.648C100.053 28.184 100.225 28.66 100.441 29.076C100.657 29.492 100.933 29.844 101.269 30.132C101.605 30.412 102.005 30.628 102.469 30.78C102.933 30.924 103.477 30.996 104.101 30.996C104.645 30.996 105.137 30.912 105.577 30.744C106.025 30.576 106.405 30.348 106.717 30.06C107.037 29.772 107.281 29.436 107.449 29.052C107.625 28.66 107.713 28.244 107.713 27.804C107.713 26.804 107.393 26.052 106.753 25.548C106.121 25.036 105.221 24.78 104.053 24.78H98.5448L99.1088 15.72H109.177V18.084H101.485L101.209 22.392H104.101C105.109 22.392 106.001 22.516 106.777 22.764C107.553 23.004 108.205 23.352 108.733 23.808C109.261 24.264 109.661 24.82 109.933 25.476C110.205 26.132 110.341 26.876 110.341 27.708ZM120.111 15.72L115.503 33H112.971L117.579 15.72L120.111 15.72ZM135.339 31.908C134.691 32.38 133.959 32.74 133.143 32.988C132.327 33.236 131.431 33.36 130.455 33.36C129.159 33.36 128.003 33.144 126.987 32.712C125.979 32.272 125.123 31.656 124.419 30.864C123.723 30.072 123.191 29.124 122.823 28.02C122.463 26.916 122.283 25.696 122.283 24.36C122.283 23.024 122.463 21.804 122.823 20.7C123.191 19.596 123.723 18.648 124.419 17.856C125.123 17.064 125.979 16.452 126.987 16.02C128.003 15.58 129.159 15.36 130.455 15.36C131.751 15.36 132.903 15.58 133.911 16.02C134.927 16.452 135.783 17.064 136.479 17.856C137.175 18.648 137.703 19.596 138.063 20.7C138.431 21.804 138.615 23.024 138.615 24.36C138.615 25.552 138.471 26.648 138.183 27.648C137.895 28.64 137.475 29.524 136.923 30.3L138.375 31.74L136.791 33.348L135.339 31.908ZM130.455 30.972C131.079 30.972 131.647 30.9 132.159 30.756C132.671 30.612 133.131 30.4 133.539 30.12L130.839 27.432L132.447 25.824L135.062 28.428C135.359 27.884 135.579 27.272 135.723 26.592C135.875 25.904 135.951 25.16 135.951 24.36C135.951 23.368 135.835 22.468 135.603 21.66C135.379 20.844 135.039 20.148 134.583 19.572C134.127 18.988 133.555 18.54 132.867 18.228C132.179 17.908 131.375 17.748 130.455 17.748C129.535 17.748 128.731 17.908 128.043 18.228C127.355 18.54 126.783 18.988 126.327 19.572C125.871 20.148 125.527 20.844 125.295 21.66C125.063 22.468 124.947 23.368 124.947 24.36C124.947 25.352 125.059 26.256 125.283 27.072C125.515 27.88 125.859 28.576 126.315 29.16C126.779 29.736 127.355 30.184 128.043 30.504C128.731 30.816 129.535 30.972 130.455 30.972ZM141.248 33V15.72H143.78V30.636H151.604V33H141.248ZM159.953 33.36C157.737 33.36 156.089 32.696 155.009 31.368C153.937 30.04 153.377 28.004 153.329 25.26C153.273 21.932 153.789 19.452 154.877 17.82C155.965 16.18 157.673 15.36 160.001 15.36C161.737 15.36 163.137 15.768 164.201 16.584C165.273 17.392 166.001 18.588 166.385 20.172L163.829 20.592C163.565 19.592 163.129 18.864 162.521 18.408C161.913 17.952 161.081 17.724 160.025 17.724C158.641 17.724 157.601 18.196 156.905 19.14C156.217 20.076 155.853 21.512 155.813 23.448L155.801 24.048C156.017 23.688 156.285 23.376 156.605 23.112C156.933 22.848 157.297 22.632 157.697 22.464C158.105 22.296 158.537 22.172 158.993 22.092C159.457 22.004 159.937 21.96 160.433 21.96C161.289 21.96 162.081 22.076 162.809 22.308C163.545 22.54 164.181 22.892 164.717 23.364C165.253 23.828 165.673 24.416 165.977 25.128C166.289 25.832 166.445 26.664 166.445 27.624C166.445 28.576 166.273 29.412 165.929 30.132C165.593 30.844 165.129 31.44 164.537 31.92C163.953 32.4 163.265 32.76 162.473 33C161.689 33.24 160.849 33.36 159.953 33.36ZM159.953 30.996C160.561 30.996 161.101 30.92 161.573 30.768C162.045 30.616 162.445 30.396 162.773 30.108C163.101 29.82 163.349 29.472 163.517 29.064C163.693 28.656 163.781 28.2 163.781 27.696C163.781 27.192 163.693 26.74 163.517 26.34C163.349 25.932 163.101 25.584 162.773 25.296C162.445 25.008 162.045 24.788 161.573 24.636C161.101 24.484 160.561 24.408 159.953 24.408C159.345 24.408 158.805 24.484 158.333 24.636C157.861 24.788 157.461 25.008 157.133 25.296C156.805 25.584 156.553 25.932 156.377 26.34C156.209 26.74 156.125 27.192 156.125 27.696C156.125 28.2 156.209 28.656 156.377 29.064C156.553 29.472 156.805 29.82 157.133 30.108C157.461 30.396 157.861 30.616 158.333 30.768C158.805 30.92 159.345 30.996 159.953 30.996ZM177.072 33.36C175.776 33.36 174.62 33.144 173.604 32.712C172.596 32.272 171.74 31.656 171.036 30.864C170.34 30.072 169.808 29.124 169.44 28.02C169.08 26.916 168.9 25.696 168.9 24.36C168.9 23.024 169.08 21.804 169.44 20.7C169.808 19.596 170.34 18.648 171.036 17.856C171.74 17.064 172.596 16.452 173.604 16.02C174.62 15.58 175.776 15.36 177.072 15.36C178.072 15.36 178.984 15.492 179.808 15.756C180.64 16.012 181.38 16.384 182.028 16.872C182.676 17.36 183.228 17.948 183.684 18.636C184.14 19.316 184.496 20.084 184.752 20.94L182.208 21.624C181.864 20.416 181.264 19.468 180.408 18.78C179.552 18.092 178.44 17.748 177.072 17.748C176.176 17.748 175.384 17.908 174.696 18.228C174.008 18.54 173.428 18.988 172.956 19.572C172.492 20.148 172.14 20.844 171.9 21.66C171.668 22.468 171.552 23.368 171.552 24.36C171.552 25.352 171.668 26.256 171.9 27.072C172.132 27.88 172.476 28.576 172.932 29.16C173.396 29.736 173.972 30.184 174.66 30.504C175.348 30.816 176.152 30.972 177.072 30.972C178.44 30.972 179.552 30.628 180.408 29.94C181.264 29.252 181.864 28.304 182.208 27.096L184.752 27.78C184.496 28.628 184.14 29.396 183.684 30.084C183.228 30.772 182.676 31.36 182.028 31.848C181.38 32.336 180.64 32.712 179.808 32.976C178.984 33.232 178.072 33.36 177.072 33.36Z" fill="#218718"/>
</svg>
