<svg width="28" height="28" viewBox="0 0 28 28" fill="none" xmlns="http://www.w3.org/2000/svg">
<g clip-path="url(#clip0_293_189)">
<path d="M8.39757 4.91707L8.97753 4.33711C9.35542 3.95922 9.27563 3.32731 8.8197 3.05376L4.42585 0.417341C3.27228 -0.273195 1.80469 -0.092946 0.857014 0.857136C-0.0930681 1.80645 -0.273317 3.27404 0.417219 4.42597L3.05358 8.81911C3.32746 9.27559 3.96249 9.35472 4.33693 8.97694L4.91771 8.39698L9.3558 12.8283L12.8318 9.35198L8.39757 4.91707Z" fill="white"/>
<path d="M27.4407 3.26657C27.1997 2.76099 26.5236 2.6351 26.1205 3.03984L23.9984 5.16192C23.6876 5.47277 23.1493 5.47277 22.8385 5.16192C22.5188 4.84228 22.5188 4.3216 22.8385 4.00195L24.9605 1.87987C25.3597 1.4807 25.245 0.803346 24.7338 0.55966C22.5412 -0.488149 19.9153 -0.0371425 18.1977 1.68195C16.6204 3.25848 16.1109 5.60166 16.8479 7.67087L7.67034 16.8481C5.60272 16.1111 3.25877 16.6206 1.68142 18.198C-0.0369057 19.9163 -0.487912 22.543 0.559131 24.734C0.803419 25.2465 1.48121 25.3588 1.87934 24.9607L4.00142 22.8387C4.32183 22.5198 4.84257 22.519 5.16139 22.8395C5.48093 23.1574 5.48328 23.675 5.16139 23.9986L3.03931 26.1207C2.64015 26.5199 2.75483 27.1972 3.26604 27.4409C4.05343 27.8173 4.89698 28 5.7349 28C7.22814 28 8.7013 27.4192 9.80117 26.3185C11.3793 24.742 11.888 22.3988 11.151 20.3296L20.3287 11.1525C22.3955 11.8887 24.7403 11.38 26.3184 9.80263C28.0368 8.0843 28.4878 5.45756 27.4407 3.26657Z" fill="white"/>
<path d="M26.789 21.0635C24.0043 18.2891 22.4777 17.1868 19.2134 14.6482L14.5742 19.2879C16.8688 22.2333 18.2582 24.1331 20.8641 26.7399C21.7165 27.5923 22.8492 27.9899 23.9635 27.9899C24.7814 27.9899 25.5889 27.7957 26.2675 27.3079C27.2568 26.595 27.88 25.4967 27.977 24.2959C28.0739 23.0934 27.6413 21.9158 26.789 21.0635ZM24.4262 24.4295C24.0996 24.727 23.5907 24.6985 23.2784 24.3861L20.0297 21.1374C19.7173 20.825 19.6887 20.3161 19.9862 19.9896C20.3038 19.641 20.8437 19.6315 21.1733 19.9611L24.4546 23.2424C24.7842 23.5721 24.7748 24.1119 24.4262 24.4295Z" fill="white"/>
</g>
<defs>
<clipPath id="clip0_293_189">
<rect width="28" height="28" fill="white"/>
</clipPath>
</defs>
</svg>
