<svg width="321" height="60" viewBox="0 0 321 60" fill="none" xmlns="http://www.w3.org/2000/svg">
<g clip-path="url(#clip0_105_267)">
<path d="M20.3976 20.9171L20.9775 20.3371C21.3554 19.9592 21.2756 19.3273 20.8197 19.0538L16.4259 16.4173C15.2723 15.7268 13.8047 15.9071 12.857 16.8571C11.9069 17.8065 11.7267 19.274 12.4172 20.426L15.0536 24.8191C15.3275 25.2756 15.9625 25.3547 16.3369 24.9769L16.9177 24.397L21.3558 28.8283L24.8318 25.352L20.3976 20.9171Z" fill="white"/>
<path d="M39.4407 19.2666C39.1997 18.761 38.5236 18.6351 38.1205 19.0398L35.9984 21.1619C35.6876 21.4728 35.1493 21.4728 34.8385 21.1619C34.5188 20.8423 34.5188 20.3216 34.8385 20.002L36.9605 17.8799C37.3597 17.4807 37.245 16.8033 36.7338 16.5597C34.5412 15.5119 31.9153 15.9629 30.1977 17.682C28.6204 19.2585 28.1109 21.6017 28.8479 23.6709L19.6703 32.8481C17.6027 32.1111 15.2588 32.6206 13.6814 34.198C11.9631 35.9163 11.5121 38.543 12.5591 40.734C12.8034 41.2465 13.4812 41.3588 13.8793 40.9607L16.0014 38.8387C16.3218 38.5198 16.8426 38.519 17.1614 38.8395C17.4809 39.1574 17.4833 39.675 17.1614 39.9986L15.0393 42.1207C14.6401 42.5199 14.7548 43.1972 15.266 43.4409C16.0534 43.8173 16.897 44 17.7349 44C19.2281 44 20.7013 43.4192 21.8012 42.3185C23.3793 40.742 23.888 38.3988 23.151 36.3296L32.3287 27.1525C34.3955 27.8887 36.7403 27.38 38.3184 25.8026C40.0368 24.0843 40.4878 21.4576 39.4407 19.2666Z" fill="white"/>
<path d="M38.789 37.0635C36.0043 34.2891 34.4777 33.1868 31.2134 30.6482L26.5742 35.2879C28.8688 38.2333 30.2582 40.1331 32.8641 42.7399C33.7165 43.5923 34.8492 43.9899 35.9635 43.9899C36.7814 43.9899 37.5889 43.7957 38.2675 43.3079C39.2568 42.595 39.88 41.4967 39.977 40.2959C40.0739 39.0934 39.6413 37.9158 38.789 37.0635ZM36.4262 40.4295C36.0996 40.727 35.5907 40.6985 35.2784 40.3861L32.0297 37.1374C31.7173 36.825 31.6887 36.3161 31.9862 35.9896C32.3038 35.641 32.8437 35.6315 33.1733 35.9611L36.4546 39.2424C36.7842 39.5721 36.7748 40.1119 36.4262 40.4295Z" fill="white"/>
</g>
<path d="M65.748 39V24.084H60.54V21.72H73.452V24.084H68.28V39H65.748ZM80.1289 37.02C80.9529 37.02 81.6329 36.848 82.1689 36.504C82.7129 36.152 83.1449 35.636 83.4649 34.956L85.9369 35.712C85.4249 36.88 84.6649 37.78 83.6569 38.412C82.6569 39.044 81.4809 39.36 80.1289 39.36C79.1689 39.36 78.2969 39.196 77.5129 38.868C76.7369 38.532 76.0689 38.064 75.5089 37.464C74.9489 36.864 74.5169 36.144 74.2129 35.304C73.9089 34.464 73.7569 33.536 73.7569 32.52C73.7569 31.488 73.9089 30.552 74.2129 29.712C74.5169 28.872 74.9489 28.152 75.5089 27.552C76.0689 26.952 76.7369 26.492 77.5129 26.172C78.2969 25.844 79.1609 25.68 80.1049 25.68C81.1129 25.68 82.0049 25.856 82.7809 26.208C83.5569 26.56 84.2009 27.064 84.7129 27.72C85.2329 28.368 85.6089 29.16 85.8409 30.096C86.0809 31.024 86.1689 32.068 86.1049 33.228H76.4569C76.5689 34.436 76.9449 35.372 77.5849 36.036C78.2249 36.692 79.0729 37.02 80.1289 37.02ZM83.5249 31.272C83.4369 30.2 83.0969 29.376 82.5049 28.8C81.9129 28.224 81.1129 27.936 80.1049 27.936C79.1049 27.936 78.2969 28.224 77.6809 28.8C77.0729 29.376 76.6849 30.2 76.5169 31.272H83.5249ZM86.8884 39L91.7364 32.448L86.9964 26.04H89.9724L93.2004 30.492L96.3924 26.04H99.3684L94.6284 32.448L99.4884 39H96.5004L93.2004 34.404L89.8764 39H86.8884ZM101.395 39V26.04H103.903V31.344H110.227V26.04H112.735V39H110.227V33.696H103.903V39H101.395ZM127.022 26.04V39H124.514V29.94L118.598 39H116.09V26.04H118.598V35.1L124.514 26.04H127.022ZM137.491 39V34.104C137.083 34.352 136.599 34.544 136.039 34.68C135.479 34.816 134.863 34.884 134.191 34.884C132.647 34.884 131.503 34.48 130.759 33.672C130.023 32.856 129.655 31.608 129.655 29.928V26.04H132.163V29.568C132.163 30.088 132.203 30.544 132.283 30.936C132.371 31.32 132.511 31.64 132.703 31.896C132.903 32.152 133.167 32.344 133.495 32.472C133.831 32.6 134.243 32.664 134.731 32.664C135.283 32.664 135.779 32.596 136.219 32.46C136.667 32.316 137.091 32.104 137.491 31.824V26.04H140.011V39H137.491ZM149.012 37.02C149.836 37.02 150.516 36.848 151.052 36.504C151.596 36.152 152.028 35.636 152.348 34.956L154.82 35.712C154.308 36.88 153.548 37.78 152.54 38.412C151.54 39.044 150.364 39.36 149.012 39.36C148.052 39.36 147.18 39.196 146.396 38.868C145.62 38.532 144.952 38.064 144.392 37.464C143.832 36.864 143.4 36.144 143.096 35.304C142.792 34.464 142.64 33.536 142.64 32.52C142.64 31.488 142.792 30.552 143.096 29.712C143.4 28.872 143.832 28.152 144.392 27.552C144.952 26.952 145.62 26.492 146.396 26.172C147.18 25.844 148.044 25.68 148.988 25.68C149.996 25.68 150.888 25.856 151.664 26.208C152.44 26.56 153.084 27.064 153.596 27.72C154.116 28.368 154.492 29.16 154.724 30.096C154.964 31.024 155.052 32.068 154.988 33.228H145.34C145.452 34.436 145.828 35.372 146.468 36.036C147.108 36.692 147.956 37.02 149.012 37.02ZM152.408 31.272C152.32 30.2 151.98 29.376 151.388 28.8C150.796 28.224 149.996 27.936 148.988 27.936C147.988 27.936 147.18 28.224 146.564 28.8C145.956 29.376 145.568 30.2 145.4 31.272H152.408ZM163.224 39.36C162.248 39.36 161.372 39.192 160.596 38.856C159.82 38.52 159.16 38.052 158.616 37.452C158.08 36.844 157.668 36.12 157.38 35.28C157.1 34.44 156.96 33.52 156.96 32.52C156.96 31.504 157.104 30.576 157.392 29.736C157.688 28.896 158.108 28.176 158.652 27.576C159.196 26.976 159.856 26.512 160.632 26.184C161.416 25.848 162.292 25.68 163.26 25.68C163.972 25.68 164.632 25.772 165.24 25.956C165.856 26.14 166.404 26.404 166.884 26.748C167.372 27.084 167.784 27.496 168.12 27.984C168.464 28.472 168.716 29.02 168.876 29.628L166.38 30.348C166.132 29.62 165.724 29.056 165.156 28.656C164.596 28.248 163.952 28.044 163.224 28.044C162.624 28.044 162.1 28.152 161.652 28.368C161.204 28.584 160.828 28.888 160.524 29.28C160.228 29.672 160.004 30.144 159.852 30.696C159.7 31.24 159.624 31.848 159.624 32.52C159.624 33.192 159.7 33.804 159.852 34.356C160.004 34.9 160.228 35.368 160.524 35.76C160.828 36.152 161.204 36.456 161.652 36.672C162.108 36.888 162.632 36.996 163.224 36.996C164.04 36.996 164.696 36.812 165.192 36.444C165.696 36.068 166.076 35.532 166.332 34.836L168.876 35.436C168.444 36.716 167.744 37.692 166.776 38.364C165.808 39.028 164.624 39.36 163.224 39.36ZM171.309 26.04H173.817V32.28L178.905 26.04H182.097L176.721 32.52L182.649 39H179.241L173.817 32.748V39H171.309V26.04ZM189.032 25.68C190.84 25.68 192.188 26.14 193.076 27.06C193.964 27.972 194.408 29.372 194.408 31.26V39H191.888V37.104C191 38.608 189.548 39.36 187.532 39.36C186.86 39.36 186.252 39.268 185.708 39.084C185.172 38.908 184.712 38.652 184.328 38.316C183.952 37.98 183.66 37.576 183.452 37.104C183.244 36.632 183.14 36.104 183.14 35.52C183.14 34.872 183.256 34.304 183.488 33.816C183.72 33.32 184.056 32.9 184.496 32.556C184.944 32.204 185.488 31.924 186.128 31.716C186.776 31.5 187.508 31.34 188.324 31.236L191.888 30.792C191.872 29.8 191.624 29.076 191.144 28.62C190.672 28.156 189.96 27.924 189.008 27.924C188.16 27.924 187.484 28.088 186.98 28.416C186.484 28.736 186.132 29.24 185.924 29.928L183.608 29.316C183.944 28.132 184.572 27.232 185.492 26.616C186.42 25.992 187.6 25.68 189.032 25.68ZM188.636 33.096C187.58 33.224 186.812 33.468 186.332 33.828C185.852 34.18 185.612 34.68 185.612 35.328C185.612 36.6 186.444 37.236 188.108 37.236C188.556 37.236 188.972 37.176 189.356 37.056C189.748 36.936 190.096 36.768 190.4 36.552C190.704 36.328 190.96 36.064 191.168 35.76C191.384 35.448 191.544 35.108 191.648 34.74C191.768 34.428 191.836 34.096 191.852 33.744C191.876 33.384 191.888 33.06 191.888 32.772V32.688L188.636 33.096ZM196.876 39L199.348 33.996C198.54 33.66 197.936 33.156 197.536 32.484C197.144 31.812 196.948 31.056 196.948 30.216C196.948 29.632 197.044 29.088 197.236 28.584C197.428 28.072 197.716 27.628 198.1 27.252C198.492 26.876 198.98 26.58 199.564 26.364C200.156 26.148 200.848 26.04 201.64 26.04H207.508V39H205V34.404H201.796L199.504 39H196.876ZM202 28.116C201.56 28.116 201.18 28.172 200.86 28.284C200.54 28.388 200.276 28.532 200.068 28.716C199.868 28.9 199.716 29.12 199.612 29.376C199.516 29.632 199.468 29.912 199.468 30.216C199.468 30.512 199.516 30.792 199.612 31.056C199.716 31.312 199.868 31.536 200.068 31.728C200.276 31.912 200.54 32.06 200.86 32.172C201.18 32.276 201.56 32.328 202 32.328H205V28.116H202ZM221.328 39H215.652V26.04H221.016C222.528 26.04 223.68 26.336 224.472 26.928C225.264 27.52 225.66 28.388 225.66 29.532C225.66 30.252 225.5 30.84 225.18 31.296C224.868 31.752 224.448 32.084 223.92 32.292C224.232 32.372 224.516 32.508 224.772 32.7C225.036 32.884 225.264 33.112 225.456 33.384C225.648 33.648 225.796 33.952 225.9 34.296C226.004 34.64 226.056 35.012 226.056 35.412C226.056 36.588 225.656 37.48 224.856 38.088C224.056 38.696 222.88 39 221.328 39ZM221.028 28.056H217.992V31.392H221.268C221.564 31.392 221.832 31.364 222.072 31.308C222.32 31.244 222.532 31.148 222.708 31.02C222.884 30.884 223.02 30.716 223.116 30.516C223.22 30.308 223.272 30.06 223.272 29.772C223.272 29.148 223.088 28.708 222.72 28.452C222.352 28.188 221.788 28.056 221.028 28.056ZM221.304 36.984C222.064 36.984 222.648 36.844 223.056 36.564C223.472 36.276 223.68 35.82 223.68 35.196C223.68 34.876 223.624 34.604 223.512 34.38C223.408 34.148 223.26 33.96 223.068 33.816C222.884 33.664 222.664 33.556 222.408 33.492C222.152 33.42 221.872 33.384 221.568 33.384H218.004V36.984H221.304ZM228.449 26.04H230.957V32.28L236.045 26.04H239.237L233.861 32.52L239.789 39H236.381L230.957 32.748V39H228.449V26.04ZM239.566 36.996C239.742 37.052 239.922 37.08 240.106 37.08C240.434 37.08 240.702 36.972 240.91 36.756C241.126 36.532 241.298 36.208 241.426 35.784C241.562 35.352 241.654 34.824 241.702 34.2C241.758 33.568 241.786 32.848 241.786 32.04V26.04H251.578V39H249.07V28.392H244.126V32.844C244.126 35.084 243.846 36.732 243.286 37.788C242.734 38.836 241.922 39.36 240.85 39.36C240.474 39.36 240.046 39.292 239.566 39.156V36.996ZM260.118 25.68C261.926 25.68 263.274 26.14 264.162 27.06C265.05 27.972 265.494 29.372 265.494 31.26V39H262.974V37.104C262.086 38.608 260.634 39.36 258.618 39.36C257.946 39.36 257.338 39.268 256.794 39.084C256.258 38.908 255.798 38.652 255.414 38.316C255.038 37.98 254.746 37.576 254.538 37.104C254.33 36.632 254.226 36.104 254.226 35.52C254.226 34.872 254.342 34.304 254.574 33.816C254.806 33.32 255.142 32.9 255.582 32.556C256.03 32.204 256.574 31.924 257.214 31.716C257.862 31.5 258.594 31.34 259.41 31.236L262.974 30.792C262.958 29.8 262.71 29.076 262.23 28.62C261.758 28.156 261.046 27.924 260.094 27.924C259.246 27.924 258.57 28.088 258.066 28.416C257.57 28.736 257.218 29.24 257.01 29.928L254.694 29.316C255.03 28.132 255.658 27.232 256.578 26.616C257.506 25.992 258.686 25.68 260.118 25.68ZM259.722 33.096C258.666 33.224 257.898 33.468 257.418 33.828C256.938 34.18 256.698 34.68 256.698 35.328C256.698 36.6 257.53 37.236 259.194 37.236C259.642 37.236 260.058 37.176 260.442 37.056C260.834 36.936 261.182 36.768 261.486 36.552C261.79 36.328 262.046 36.064 262.254 35.76C262.47 35.448 262.63 35.108 262.734 34.74C262.854 34.428 262.922 34.096 262.938 33.744C262.962 33.384 262.974 33.06 262.974 32.772V32.688L259.722 33.096ZM267.65 36.648H268.91C269.118 36.408 269.282 36.072 269.402 35.64C269.53 35.208 269.626 34.72 269.69 34.176C269.754 33.632 269.794 33.056 269.81 32.448C269.826 31.832 269.834 31.228 269.834 30.636V26.04H279.746V36.648H281.426V41.796H278.918V39H270.158V41.796H267.65V36.648ZM277.238 36.648V28.392H272.174V31.908C272.174 32.412 272.158 32.896 272.126 33.36C272.102 33.824 272.062 34.26 272.006 34.668C271.95 35.076 271.882 35.448 271.802 35.784C271.722 36.12 271.634 36.408 271.538 36.648H277.238ZM283.809 26.04H286.317V32.28L291.405 26.04H294.597L289.221 32.52L295.149 39H291.741L286.317 32.748V39H283.809V26.04ZM301.532 25.68C303.34 25.68 304.688 26.14 305.576 27.06C306.464 27.972 306.908 29.372 306.908 31.26V39H304.388V37.104C303.5 38.608 302.048 39.36 300.032 39.36C299.36 39.36 298.752 39.268 298.208 39.084C297.672 38.908 297.212 38.652 296.828 38.316C296.452 37.98 296.16 37.576 295.952 37.104C295.744 36.632 295.64 36.104 295.64 35.52C295.64 34.872 295.756 34.304 295.988 33.816C296.22 33.32 296.556 32.9 296.996 32.556C297.444 32.204 297.988 31.924 298.628 31.716C299.276 31.5 300.008 31.34 300.824 31.236L304.388 30.792C304.372 29.8 304.124 29.076 303.644 28.62C303.172 28.156 302.46 27.924 301.508 27.924C300.66 27.924 299.984 28.088 299.48 28.416C298.984 28.736 298.632 29.24 298.424 29.928L296.108 29.316C296.444 28.132 297.072 27.232 297.992 26.616C298.92 25.992 300.1 25.68 301.532 25.68ZM301.136 33.096C300.08 33.224 299.312 33.468 298.832 33.828C298.352 34.18 298.112 34.68 298.112 35.328C298.112 36.6 298.944 37.236 300.608 37.236C301.056 37.236 301.472 37.176 301.856 37.056C302.248 36.936 302.596 36.768 302.9 36.552C303.204 36.328 303.46 36.064 303.668 35.76C303.884 35.448 304.044 35.108 304.148 34.74C304.268 34.428 304.336 34.096 304.352 33.744C304.376 33.384 304.388 33.06 304.388 32.772V32.688L301.136 33.096Z" fill="white"/>
<defs>
<clipPath id="clip0_105_267">
<rect width="28" height="28" fill="white" transform="translate(12 16)"/>
</clipPath>
</defs>
</svg>
