<svg width="90" height="45" viewBox="0 0 90 45" fill="none" xmlns="http://www.w3.org/2000/svg">
<rect width="90" height="45" rx="12" fill="#D0FF00"/>
<path d="M24.136 32H17.68V14.72H23.956C24.772 14.72 25.528 14.812 26.224 14.996C26.92 15.18 27.524 15.46 28.036 15.836C28.548 16.204 28.948 16.672 29.236 17.24C29.532 17.808 29.68 18.472 29.68 19.232C29.68 19.784 29.604 20.276 29.452 20.708C29.3 21.132 29.1 21.504 28.852 21.824C28.612 22.136 28.336 22.396 28.024 22.604C27.72 22.804 27.416 22.952 27.112 23.048C27.472 23.112 27.836 23.248 28.204 23.456C28.572 23.664 28.904 23.94 29.2 24.284C29.504 24.628 29.752 25.044 29.944 25.532C30.136 26.02 30.232 26.576 30.232 27.2C30.232 28.04 30.072 28.764 29.752 29.372C29.44 29.98 29.008 30.48 28.456 30.872C27.912 31.256 27.268 31.54 26.524 31.724C25.788 31.908 24.992 32 24.136 32ZM24.004 17.084H20.212V21.932H24.244C24.652 21.932 25.028 21.888 25.372 21.8C25.724 21.712 26.028 21.572 26.284 21.38C26.54 21.18 26.74 20.924 26.884 20.612C27.036 20.3 27.112 19.92 27.112 19.472C27.112 19.024 27.032 18.648 26.872 18.344C26.72 18.04 26.504 17.796 26.224 17.612C25.952 17.428 25.624 17.296 25.24 17.216C24.864 17.128 24.452 17.084 24.004 17.084ZM24.136 29.636C24.616 29.636 25.072 29.596 25.504 29.516C25.936 29.436 26.312 29.296 26.632 29.096C26.96 28.896 27.22 28.62 27.412 28.268C27.604 27.916 27.7 27.472 27.7 26.936C27.7 26.416 27.604 25.988 27.412 25.652C27.228 25.308 26.976 25.032 26.656 24.824C26.344 24.616 25.984 24.472 25.576 24.392C25.168 24.304 24.748 24.26 24.316 24.26H20.212V29.636H24.136ZM31.1697 32L36.0177 25.448L31.2777 19.04H34.2537L37.4817 23.492L40.6737 19.04H43.6497L38.9097 25.448L43.7697 32H40.7817L37.4817 27.404L34.1577 32H31.1697ZM50.8471 32.36C49.8791 32.36 49.0031 32.192 48.2191 31.856C47.4431 31.52 46.7791 31.052 46.2271 30.452C45.6751 29.844 45.2471 29.12 44.9431 28.28C44.6471 27.44 44.4991 26.516 44.4991 25.508C44.4991 24.5 44.6471 23.576 44.9431 22.736C45.2471 21.896 45.6751 21.176 46.2271 20.576C46.7871 19.976 47.4551 19.512 48.2311 19.184C49.0151 18.848 49.8871 18.68 50.8471 18.68C51.8151 18.68 52.6911 18.848 53.4751 19.184C54.2591 19.512 54.9271 19.98 55.4791 20.588C56.0311 21.188 56.4551 21.908 56.7511 22.748C57.0551 23.58 57.2071 24.5 57.2071 25.508C57.2071 26.524 57.0551 27.452 56.7511 28.292C56.4551 29.132 56.0311 29.856 55.4791 30.464C54.9271 31.064 54.2591 31.532 53.4751 31.868C52.6911 32.196 51.8151 32.36 50.8471 32.36ZM50.8471 29.996C51.4471 29.996 51.9751 29.892 52.4311 29.684C52.8951 29.476 53.2831 29.18 53.5951 28.796C53.9071 28.404 54.1431 27.932 54.3031 27.38C54.4631 26.82 54.5431 26.196 54.5431 25.508C54.5431 24.812 54.4631 24.188 54.3031 23.636C54.1431 23.084 53.9071 22.616 53.5951 22.232C53.2831 21.848 52.8951 21.556 52.4311 21.356C51.9751 21.148 51.4471 21.044 50.8471 21.044C50.2391 21.044 49.7031 21.148 49.2391 21.356C48.7831 21.564 48.3991 21.86 48.0871 22.244C47.7831 22.628 47.5511 23.096 47.3911 23.648C47.2391 24.2 47.1631 24.82 47.1631 25.508C47.1631 26.204 47.2431 26.832 47.4031 27.392C47.5631 27.944 47.7991 28.412 48.1111 28.796C48.4231 29.18 48.8071 29.476 49.2631 29.684C49.7271 29.892 50.2551 29.996 50.8471 29.996ZM58.8841 29.648H60.1441C60.3521 29.408 60.5161 29.072 60.6361 28.64C60.7641 28.208 60.8601 27.72 60.9241 27.176C60.9881 26.632 61.0281 26.056 61.0441 25.448C61.0601 24.832 61.0681 24.228 61.0681 23.636V19.04H70.9801V29.648H72.6601V34.796H70.1521V32H61.3921V34.796H58.8841V29.648ZM68.4721 29.648V21.392H63.4081V24.908C63.4081 25.412 63.3921 25.896 63.3601 26.36C63.3361 26.824 63.2961 27.26 63.2401 27.668C63.1841 28.076 63.1161 28.448 63.0361 28.784C62.9561 29.12 62.8681 29.408 62.7721 29.648H68.4721Z" fill="black"/>
</svg>
