<svg width="204" height="88" viewBox="0 0 204 88" fill="none" xmlns="http://www.w3.org/2000/svg">
<g clip-path="url(#clip0_116_270)">
<path d="M60 0H191.57C198.197 0 203.57 5.37258 203.57 12V76C203.57 82.6274 198.197 88 191.57 88H60V0Z" fill="white"/>
<g clip-path="url(#clip1_116_270)">
<path fill-rule="evenodd" clip-rule="evenodd" d="M77.2197 12H86.7008L95.073 20.3722V36.4492C95.073 38.4014 93.4744 40 91.5222 40H77.2197C75.2675 40 73.6689 38.4014 73.6689 36.4492V15.5508C73.6689 13.5986 75.2675 12 77.2197 12Z" fill="#D0FF00"/>
<path fill-rule="evenodd" clip-rule="evenodd" d="M86.7012 12L95.0733 20.3722H87.6053C87.1076 20.3722 86.7012 19.9657 86.7012 19.4681V12Z" fill="#2A2A2A"/>
<path fill-rule="evenodd" clip-rule="evenodd" d="M69.707 23.9229H88.9908C89.4197 23.9229 89.7701 24.2733 89.7701 24.7021V31.7765C89.7701 32.2054 89.4197 32.5558 88.9908 32.5558H69.707C69.2782 32.5558 68.9277 32.2054 68.9277 31.7765V24.7021C68.9277 24.2733 69.2782 23.9229 69.707 23.9229Z" fill="#2A2A2A"/>
<path d="M76.7893 30.6596C76.7893 30.9088 76.5872 31.1109 76.338 31.1109H73.4288C73.1796 31.1109 72.9775 30.9088 72.9775 30.6596V25.8175C72.9775 25.5683 73.1796 25.3662 73.4288 25.3662C73.678 25.3662 73.8801 25.5683 73.8801 25.8175V30.2084H76.338C76.5872 30.2084 76.7893 30.4104 76.7893 30.6596ZM85.2686 28.0113H83.814C83.5648 28.0113 83.3628 28.2134 83.3628 28.4626C83.3628 28.7119 83.5648 28.9139 83.814 28.9139H84.8173V29.8644C84.8173 30.0509 84.6591 30.2084 84.4718 30.2084H83.1548C82.9683 30.2084 82.8108 30.0509 82.8108 29.8644V26.6144C82.8108 26.427 82.9683 26.2688 83.1548 26.2688H84.4718C84.6623 26.2688 84.8173 26.4238 84.8173 26.6144C84.8173 26.8636 85.0194 27.0657 85.2686 27.0657C85.5178 27.0657 85.7199 26.8636 85.7199 26.6144C85.7199 25.9261 85.1599 25.3662 84.4718 25.3662H83.1548C82.4675 25.3662 81.9083 25.9262 81.9083 26.6144V29.8644C81.9083 30.5517 82.4675 31.1109 83.1548 31.1109H84.4718C85.16 31.1109 85.7199 30.5517 85.7199 29.8644V28.4626C85.7198 28.2134 85.5178 28.0113 85.2686 28.0113ZM80.9081 27.2721V29.2051C80.9081 30.2559 80.0531 31.1109 79.0022 31.1109C77.9514 31.1109 77.0964 30.2559 77.0964 29.2051V27.2721C77.0964 26.2212 77.9514 25.3662 79.0022 25.3662C80.0532 25.3662 80.9081 26.2212 80.9081 27.2721ZM80.0056 27.2721C80.0056 26.7188 79.5555 26.2687 79.0022 26.2687C78.449 26.2687 77.9989 26.7188 77.9989 27.2721V29.2051C77.9989 29.7583 78.449 30.2084 79.0022 30.2084C79.5555 30.2084 80.0056 29.7583 80.0056 29.2051V27.2721Z" fill="white"/>
</g>
<g clip-path="url(#clip2_116_270)">
<path d="M109.445 24.409C109.534 23.8992 109.583 23.3748 109.583 22.8387C109.583 17.9652 105.733 14 101 14C96.2673 14 92.4168 17.9652 92.4168 22.8387C92.4168 23.3748 92.4661 23.8988 92.5553 24.409C91.81 24.8849 91.3145 25.7171 91.3145 26.6675V35.3203C91.3145 36.8003 92.5143 38 93.994 38H108.006C109.485 38 110.685 36.8003 110.685 35.3203H110.686V26.6675C110.686 25.7173 110.191 24.8849 109.445 24.409ZM102.182 31.9643V33.8446C102.182 34.4982 101.653 35.0276 101 35.0276C100.346 35.0276 99.817 34.4982 99.817 33.8446V31.9634C99.0584 31.5454 98.5438 30.7387 98.5438 29.8111C98.5438 28.4547 99.6434 27.3549 101 27.3549C102.357 27.3549 103.457 28.4547 103.457 29.8111C103.457 30.7391 102.942 31.5464 102.182 31.9643ZM106.317 23.9876H95.6827C95.6098 23.6168 95.5709 23.2321 95.5709 22.8387C95.5709 19.7042 98.0064 17.1542 101 17.1542C103.994 17.1542 106.429 19.7039 106.429 22.8387C106.429 23.2321 106.391 23.6168 106.317 23.9876Z" fill="#2A2A2A"/>
</g>
<path d="M75.005 55.9525L70.445 61H68.15L73.115 55.495L68.465 50.2H70.685L75.005 55.225V50.2H76.82V55.225L81.1325 50.2H83.3525L78.71 55.495L83.675 61H81.38L76.82 55.9525V61H75.005V55.9525ZM88.1103 61H86.1453L87.7803 57.5275L84.1428 50.2H86.1228L88.7028 55.585L91.2378 50.2H93.1953L88.1103 61ZM94.4574 61V50.2H98.7249C99.3649 50.2 99.9224 50.28 100.397 50.44C100.877 50.6 101.275 50.8325 101.59 51.1375C101.91 51.4375 102.15 51.805 102.31 52.24C102.47 52.675 102.55 53.1675 102.55 53.7175C102.55 54.2675 102.47 54.76 102.31 55.195C102.15 55.63 101.91 55.9975 101.59 56.2975C101.27 56.5975 100.87 56.8275 100.39 56.9875C99.9149 57.1475 99.3599 57.2275 98.7249 57.2275H96.2799V61H94.4574ZM96.2799 55.54H98.7099C99.3649 55.54 99.8649 55.385 100.21 55.075C100.555 54.76 100.727 54.3075 100.727 53.7175C100.727 53.1275 100.555 52.6775 100.21 52.3675C99.8649 52.0525 99.3649 51.895 98.7099 51.895H96.2799V55.54ZM104.202 61V50.2H106.017V54.745H111.125V50.2H112.94V61H111.125V56.44H106.017V61H104.202ZM123.952 60.9925H122.047L121.282 58.6525H117.067L116.302 60.9925H114.397L117.974 50.1925H120.382L123.952 60.9925ZM120.734 56.965L119.174 52.1725L117.614 56.965H120.734ZM125.124 59.5C125.284 59.54 125.422 59.56 125.537 59.56C125.772 59.56 125.967 59.4975 126.122 59.3725C126.282 59.2425 126.409 59.06 126.504 58.825C126.604 58.59 126.679 58.305 126.729 57.97C126.784 57.635 126.822 57.2625 126.842 56.8525C126.862 56.4375 126.872 55.99 126.872 55.51C126.877 55.03 126.879 54.525 126.879 53.995V50.2H134.462V61H132.647V51.895H128.567V55.63C128.567 56.73 128.504 57.64 128.379 58.36C128.259 59.08 128.089 59.6525 127.869 60.0775C127.654 60.4975 127.399 60.7925 127.104 60.9625C126.814 61.1325 126.497 61.2175 126.152 61.2175C125.987 61.2175 125.817 61.2025 125.642 61.1725C125.472 61.1425 125.299 61.1 125.124 61.045V59.5ZM73.6175 75.225C72.8075 75.225 72.0825 75.09 71.4425 74.82C70.8075 74.545 70.2675 74.1625 69.8225 73.6725C69.3775 73.1775 69.0375 72.585 68.8025 71.895C68.5675 71.205 68.45 70.44 68.45 69.6C68.45 68.76 68.5675 67.995 68.8025 67.305C69.0375 66.615 69.3775 66.025 69.8225 65.535C70.2675 65.04 70.8075 64.6575 71.4425 64.3875C72.0825 64.1125 72.8075 63.975 73.6175 63.975C74.2375 63.975 74.8075 64.055 75.3275 64.215C75.8525 64.375 76.32 64.605 76.73 64.905C77.14 65.205 77.4925 65.5675 77.7875 65.9925C78.0825 66.4175 78.3125 66.895 78.4775 67.425L76.655 67.9275C76.55 67.5775 76.4075 67.265 76.2275 66.99C76.0525 66.71 75.8375 66.4725 75.5825 66.2775C75.3325 66.0825 75.0425 65.935 74.7125 65.835C74.3875 65.73 74.0225 65.6775 73.6175 65.6775C73.0925 65.6775 72.625 65.7725 72.215 65.9625C71.81 66.1475 71.4675 66.4125 71.1875 66.7575C70.9125 67.0975 70.7025 67.51 70.5575 67.995C70.4175 68.475 70.3475 69.01 70.3475 69.6C70.3475 70.19 70.415 70.7275 70.55 71.2125C70.69 71.6925 70.895 72.105 71.165 72.45C71.44 72.79 71.78 73.055 72.185 73.245C72.595 73.43 73.0725 73.5225 73.6175 73.5225C74.0225 73.5225 74.3875 73.4725 74.7125 73.3725C75.0425 73.2675 75.3325 73.1175 75.5825 72.9225C75.8375 72.7275 76.0525 72.4925 76.2275 72.2175C76.4075 71.9375 76.55 71.6225 76.655 71.2725L78.4775 71.775C78.3125 72.305 78.0825 72.7825 77.7875 73.2075C77.4925 73.6325 77.14 73.995 76.73 74.295C76.32 74.595 75.8525 74.825 75.3275 74.985C74.8075 75.145 74.2375 75.225 73.6175 75.225ZM84.8417 75.225C84.0317 75.225 83.3067 75.09 82.6667 74.82C82.0317 74.545 81.4917 74.1625 81.0467 73.6725C80.6017 73.1775 80.2617 72.585 80.0267 71.895C79.7917 71.205 79.6742 70.44 79.6742 69.6C79.6742 68.76 79.7917 67.995 80.0267 67.305C80.2617 66.615 80.6017 66.025 81.0467 65.535C81.4917 65.04 82.0317 64.6575 82.6667 64.3875C83.3067 64.1125 84.0317 63.975 84.8417 63.975C85.6517 63.975 86.3767 64.1125 87.0167 64.3875C87.6567 64.6575 88.1992 65.04 88.6442 65.535C89.0892 66.025 89.4292 66.615 89.6642 67.305C89.8992 67.995 90.0167 68.76 90.0167 69.6C90.0167 70.44 89.8992 71.205 89.6642 71.895C89.4292 72.585 89.0892 73.1775 88.6442 73.6725C88.1992 74.1625 87.6567 74.545 87.0167 74.82C86.3767 75.09 85.6517 75.225 84.8417 75.225ZM84.8417 73.5225C85.3867 73.5225 85.8617 73.43 86.2667 73.245C86.6767 73.055 87.0167 72.79 87.2867 72.45C87.5617 72.105 87.7667 71.6925 87.9017 71.2125C88.0367 70.7275 88.1042 70.19 88.1042 69.6C88.1042 69.01 88.0367 68.475 87.9017 67.995C87.7667 67.51 87.5617 67.0975 87.2867 66.7575C87.0167 66.4125 86.6767 66.1475 86.2667 65.9625C85.8617 65.7725 85.3867 65.6775 84.8417 65.6775C84.2967 65.6775 83.8217 65.7725 83.4167 65.9625C83.0117 66.1475 82.6742 66.4125 82.4042 66.7575C82.1342 67.0975 81.9292 67.51 81.7892 67.995C81.6542 68.475 81.5867 69.01 81.5867 69.6C81.5867 70.19 81.6542 70.7275 81.7892 71.2125C81.9242 71.6925 82.1267 72.105 82.3967 72.45C82.6667 72.79 83.0042 73.055 83.4092 73.245C83.8192 73.43 84.2967 73.5225 84.8417 73.5225ZM91.6596 64.2H98.8971V65.895H93.4746V68.145H96.0621C96.6521 68.145 97.1746 68.23 97.6296 68.4C98.0896 68.565 98.4771 68.7975 98.7921 69.0975C99.1071 69.3975 99.3446 69.7575 99.5046 70.1775C99.6696 70.5975 99.7521 71.0625 99.7521 71.5725C99.7521 72.0775 99.6696 72.54 99.5046 72.96C99.3446 73.38 99.1071 73.7425 98.7921 74.0475C98.4771 74.3475 98.0896 74.5825 97.6296 74.7525C97.1746 74.9175 96.6521 75 96.0621 75H91.6596V64.2ZM95.8446 73.305C96.1996 73.305 96.5071 73.2625 96.7671 73.1775C97.0321 73.0925 97.2496 72.975 97.4196 72.825C97.5896 72.67 97.7146 72.4875 97.7946 72.2775C97.8796 72.0625 97.9221 71.8275 97.9221 71.5725C97.9221 71.3175 97.8796 71.085 97.7946 70.875C97.7146 70.66 97.5896 70.4775 97.4196 70.3275C97.2496 70.1725 97.0321 70.0525 96.7671 69.9675C96.5071 69.8825 96.1996 69.84 95.8446 69.84H93.4746V73.305H95.8446ZM103.227 67.9725H105.672C106.312 67.9725 106.869 68.0525 107.344 68.2125C107.824 68.3725 108.222 68.6025 108.537 68.9025C108.857 69.2025 109.097 69.57 109.257 70.005C109.417 70.44 109.497 70.9325 109.497 71.4825C109.497 72.0325 109.417 72.525 109.257 72.96C109.097 73.395 108.857 73.765 108.537 74.07C108.222 74.37 107.824 74.6 107.344 74.76C106.869 74.92 106.312 75 105.672 75H101.412V64.2H103.227V67.9725ZM105.657 73.305C106.312 73.305 106.812 73.15 107.157 72.84C107.502 72.525 107.674 72.0725 107.674 71.4825C107.674 70.8925 107.502 70.4425 107.157 70.1325C106.812 69.8175 106.312 69.66 105.657 69.66H103.227V73.305H105.657ZM110.929 75V64.2H112.752V75H110.929ZM117.462 75V65.895H114.244V64.2H122.487V65.895H119.284V75H117.462ZM132.918 75H131.103V67.32L126.071 75H124.248V64.2H126.071V71.88L131.103 64.2H132.918V75ZM139.492 63.285C139.077 63.285 138.695 63.185 138.345 62.985C138 62.78 137.725 62.505 137.52 62.16C137.32 61.81 137.22 61.4275 137.22 61.0125H138.63C138.63 61.1725 138.667 61.3175 138.742 61.4475C138.822 61.5775 138.927 61.6825 139.057 61.7625C139.187 61.8375 139.332 61.875 139.492 61.875C139.652 61.875 139.797 61.8375 139.927 61.7625C140.057 61.6825 140.16 61.5775 140.235 61.4475C140.315 61.3175 140.355 61.1725 140.355 61.0125H141.765C141.765 61.4275 141.662 61.81 141.457 62.16C141.257 62.505 140.982 62.78 140.632 62.985C140.287 63.185 139.907 63.285 139.492 63.285ZM142.02 75V67.32L136.987 75H135.165V64.2H136.987V71.88L142.02 64.2H143.835V75H142.02Z" fill="#2A2A2A"/>
<rect width="24" height="88" transform="translate(180)" fill="#2A2A2A"/>
<path d="M188 36L196 43.9999L188 52" stroke="white" stroke-width="3" stroke-linecap="round" stroke-linejoin="round"/>
</g>
<rect width="60" height="88" fill="white"/>
<defs>
<clipPath id="clip0_116_270">
<path d="M60 0H191.57C198.197 0 203.57 5.37258 203.57 12V76C203.57 82.6274 198.197 88 191.57 88H60V0Z" fill="white"/>
</clipPath>
<clipPath id="clip1_116_270">
<rect width="28" height="28" fill="white" transform="translate(68 12)"/>
</clipPath>
<clipPath id="clip2_116_270">
<rect width="24" height="24" fill="white" transform="translate(89 14)"/>
</clipPath>
</defs>
</svg>
