<svg width="395" height="43" viewBox="0 0 395 43" fill="none" xmlns="http://www.w3.org/2000/svg">
<path d="M131.887 0H382.815C389.443 0 394.815 5.37258 394.815 12V29C394.815 35.6274 389.443 41 382.815 41H131.887V0Z" fill="#E3E3E3"/>
<rect width="155" height="43" rx="12" transform="matrix(-1 0 0 1 155 0)" fill="#2A2A2A"/>
<path d="M22.044 28H20.78L22.66 24.08L18.764 16.48H20.068L23.268 22.816L26.316 16.48H27.612L22.044 28ZM33.819 28V24.536C33.515 24.712 33.1683 24.848 32.779 24.944C32.395 25.0347 31.9603 25.08 31.475 25.08C30.963 25.08 30.5203 25.016 30.147 24.888C29.7737 24.7547 29.4643 24.552 29.219 24.28C28.979 24.0027 28.8003 23.656 28.683 23.24C28.571 22.8187 28.515 22.32 28.515 21.744V19.36H29.691V21.584C29.691 22.016 29.7203 22.3867 29.779 22.696C29.843 23.0053 29.9497 23.2613 30.099 23.464C30.2537 23.6613 30.4563 23.808 30.707 23.904C30.963 24 31.2803 24.048 31.659 24.048C32.107 24.048 32.5043 23.9973 32.851 23.896C33.1977 23.7947 33.5203 23.6427 33.819 23.44V19.36H34.987V28H33.819ZM40.8854 27.128C41.5307 27.128 42.0694 26.984 42.5014 26.696C42.9334 26.408 43.2774 25.9973 43.5334 25.464L44.6454 25.872C44.2987 26.6347 43.8 27.2213 43.1494 27.632C42.504 28.0373 41.7494 28.24 40.8854 28.24C40.2614 28.24 39.6934 28.1333 39.1814 27.92C38.6747 27.7013 38.24 27.3947 37.8774 27C37.52 26.6053 37.2427 26.128 37.0454 25.568C36.848 25.0027 36.7494 24.3733 36.7494 23.68C36.7494 22.9813 36.8454 22.352 37.0374 21.792C37.2294 21.2267 37.504 20.7467 37.8614 20.352C38.2187 19.9573 38.648 19.6533 39.1494 19.44C39.6507 19.2267 40.2134 19.12 40.8374 19.12C41.488 19.12 42.064 19.232 42.5654 19.456C43.0667 19.68 43.488 20.0027 43.8294 20.424C44.1707 20.8453 44.424 21.3573 44.5894 21.96C44.76 22.5627 44.8347 23.2453 44.8134 24.008H38.0054C38.032 24.4987 38.1174 24.9387 38.2614 25.328C38.4054 25.712 38.6 26.0373 38.8454 26.304C39.096 26.5707 39.392 26.776 39.7334 26.92C40.08 27.0587 40.464 27.128 40.8854 27.128ZM43.5734 23.024C43.4987 22.112 43.2267 21.416 42.7574 20.936C42.288 20.4507 41.648 20.208 40.8374 20.208C40.032 20.208 39.3867 20.4533 38.9014 20.944C38.416 21.4347 38.1254 22.128 38.0294 23.024H43.5734ZM48.9088 28V20.48H45.8688V19.36H53.1248V20.48H50.0848V28H48.9088ZM54.6433 28V19.36H55.8193V23.12H60.6913V19.36H61.8673V28H60.6913V24.24H55.8193V28H54.6433ZM67.4724 19.12C69.7657 19.12 70.9124 20.3173 70.9124 22.712V28H69.7444V26.544C69.435 27.0987 69.0164 27.52 68.4884 27.808C67.9604 28.096 67.3337 28.24 66.6084 28.24C66.1444 28.24 65.7284 28.1813 65.3604 28.064C64.9924 27.952 64.6804 27.7893 64.4244 27.576C64.1684 27.3573 63.971 27.0933 63.8324 26.784C63.6937 26.4747 63.6244 26.1253 63.6244 25.736C63.6244 25.2827 63.707 24.896 63.8724 24.576C64.043 24.2507 64.2804 23.9813 64.5844 23.768C64.8937 23.5493 65.2644 23.376 65.6964 23.248C66.1337 23.12 66.6164 23.024 67.1444 22.96L69.7444 22.632C69.7444 21.784 69.5604 21.168 69.1924 20.784C68.8244 20.3947 68.2457 20.2 67.4564 20.2C66.155 20.2 65.3577 20.7413 65.0644 21.824L63.9524 21.56C64.155 20.7707 64.5577 20.168 65.1604 19.752C65.7684 19.3307 66.539 19.12 67.4724 19.12ZM67.2564 23.912C66.819 23.9653 66.443 24.04 66.1284 24.136C65.819 24.232 65.563 24.352 65.3604 24.496C65.163 24.6347 65.019 24.8027 64.9284 25C64.8377 25.192 64.7924 25.416 64.7924 25.672C64.7924 26.6853 65.467 27.192 66.8164 27.192C67.1897 27.192 67.5337 27.1413 67.8484 27.04C68.163 26.9333 68.4404 26.784 68.6804 26.592C68.9257 26.3947 69.1284 26.1573 69.2884 25.88C69.4484 25.6027 69.563 25.2933 69.6324 24.952C69.6857 24.7333 69.7177 24.504 69.7284 24.264C69.739 24.0187 69.7444 23.8 69.7444 23.608L67.2564 23.912ZM72.603 28L74.251 24.52C73.691 24.3227 73.2697 24.008 72.987 23.576C72.7043 23.1387 72.563 22.6267 72.563 22.04C72.563 21.6507 72.6243 21.2933 72.747 20.968C72.875 20.6373 73.0643 20.3547 73.315 20.12C73.5657 19.88 73.875 19.6933 74.243 19.56C74.6163 19.4267 75.0483 19.36 75.539 19.36H79.371V28H78.195V24.712H75.539H75.419L73.843 28H72.603ZM75.667 20.384C75.3417 20.384 75.0563 20.4267 74.811 20.512C74.571 20.592 74.371 20.7067 74.211 20.856C74.051 21 73.931 21.1733 73.851 21.376C73.7763 21.5787 73.739 21.8 73.739 22.04C73.739 22.28 73.7763 22.5013 73.851 22.704C73.931 22.9067 74.051 23.08 74.211 23.224C74.371 23.368 74.571 23.4827 74.811 23.568C75.0563 23.648 75.3417 23.688 75.667 23.688H78.195V20.384H75.667ZM87.8075 28.24C87.3222 28.24 86.8715 28.184 86.4555 28.072C86.0448 27.9653 85.6795 27.7973 85.3595 27.568C85.0448 27.3387 84.7808 27.0453 84.5675 26.688C84.3542 26.3307 84.2022 25.904 84.1115 25.408L85.2475 25.2C85.3488 25.8453 85.6075 26.336 86.0235 26.672C86.4395 27.0027 87.0208 27.168 87.7675 27.168C88.5408 27.168 89.1275 27.0267 89.5275 26.744C89.9275 26.456 90.1275 26.0613 90.1275 25.56C90.1275 25.288 90.0795 25.0587 89.9835 24.872C89.8875 24.68 89.7542 24.5253 89.5835 24.408C89.4128 24.2907 89.2128 24.2053 88.9835 24.152C88.7542 24.0987 88.5062 24.072 88.2395 24.072H86.8795V23.072H88.2395C88.7568 23.072 89.1622 22.9653 89.4555 22.752C89.7542 22.5333 89.9035 22.2133 89.9035 21.792C89.9035 21.2853 89.7302 20.8933 89.3835 20.616C89.0422 20.3333 88.5088 20.192 87.7835 20.192C87.4155 20.192 87.0955 20.232 86.8235 20.312C86.5568 20.392 86.3275 20.5067 86.1355 20.656C85.9488 20.8 85.7942 20.9787 85.6715 21.192C85.5542 21.4 85.4608 21.632 85.3915 21.888L84.2555 21.68C84.3782 21.1947 84.5542 20.7893 84.7835 20.464C85.0182 20.1387 85.2902 19.8773 85.5995 19.68C85.9142 19.4773 86.2608 19.3333 86.6395 19.248C87.0182 19.1627 87.4102 19.12 87.8155 19.12C88.3328 19.12 88.7942 19.1813 89.1995 19.304C89.6048 19.4213 89.9462 19.5947 90.2235 19.824C90.5008 20.048 90.7115 20.3227 90.8555 20.648C91.0048 20.968 91.0795 21.328 91.0795 21.728C91.0795 22.1813 90.9755 22.5573 90.7675 22.856C90.5595 23.1493 90.2715 23.3733 89.9035 23.528C90.0955 23.5867 90.2768 23.6773 90.4475 23.8C90.6182 23.9227 90.7675 24.072 90.8955 24.248C91.0235 24.424 91.1222 24.624 91.1915 24.848C91.2662 25.0667 91.3035 25.304 91.3035 25.56C91.3035 25.9547 91.2262 26.3173 91.0715 26.648C90.9168 26.9733 90.6902 27.256 90.3915 27.496C90.0928 27.7307 89.7248 27.912 89.2875 28.04C88.8555 28.1733 88.3622 28.24 87.8075 28.24ZM96.4255 19.12C98.7188 19.12 99.8655 20.3173 99.8655 22.712V28H98.6975V26.544C98.3882 27.0987 97.9695 27.52 97.4415 27.808C96.9135 28.096 96.2868 28.24 95.5615 28.24C95.0975 28.24 94.6815 28.1813 94.3135 28.064C93.9455 27.952 93.6335 27.7893 93.3775 27.576C93.1215 27.3573 92.9242 27.0933 92.7855 26.784C92.6468 26.4747 92.5775 26.1253 92.5775 25.736C92.5775 25.2827 92.6602 24.896 92.8255 24.576C92.9962 24.2507 93.2335 23.9813 93.5375 23.768C93.8468 23.5493 94.2175 23.376 94.6495 23.248C95.0868 23.12 95.5695 23.024 96.0975 22.96L98.6975 22.632C98.6975 21.784 98.5135 21.168 98.1455 20.784C97.7775 20.3947 97.1988 20.2 96.4095 20.2C95.1082 20.2 94.3108 20.7413 94.0175 21.824L92.9055 21.56C93.1082 20.7707 93.5108 20.168 94.1135 19.752C94.7215 19.3307 95.4922 19.12 96.4255 19.12ZM96.2095 23.912C95.7722 23.9653 95.3962 24.04 95.0815 24.136C94.7722 24.232 94.5162 24.352 94.3135 24.496C94.1162 24.6347 93.9722 24.8027 93.8815 25C93.7908 25.192 93.7455 25.416 93.7455 25.672C93.7455 26.6853 94.4202 27.192 95.7695 27.192C96.1428 27.192 96.4868 27.1413 96.8015 27.04C97.1162 26.9333 97.3935 26.784 97.6335 26.592C97.8788 26.3947 98.0815 26.1573 98.2415 25.88C98.4015 25.6027 98.5162 25.2933 98.5855 24.952C98.6388 24.7333 98.6708 24.504 98.6815 24.264C98.6922 24.0187 98.6975 23.8 98.6975 23.608L96.2095 23.912ZM101.94 28V19.36H108.732V28H107.556V20.48H103.116V28H101.94ZM117.843 19.36V28H116.667V21.224L112.147 28H110.971V19.36H112.147V26.136L116.667 19.36H117.843ZM123.673 28.24C123.038 28.24 122.47 28.1333 121.969 27.92C121.467 27.7013 121.041 27.3947 120.689 27C120.342 26.6 120.075 26.12 119.889 25.56C119.702 24.9947 119.609 24.368 119.609 23.68C119.609 22.9813 119.702 22.352 119.889 21.792C120.075 21.232 120.345 20.7547 120.697 20.36C121.049 19.96 121.475 19.6533 121.977 19.44C122.483 19.2267 123.051 19.12 123.681 19.12C124.118 19.12 124.529 19.176 124.913 19.288C125.302 19.4 125.651 19.56 125.961 19.768C126.275 19.9707 126.547 20.2213 126.777 20.52C127.006 20.8133 127.179 21.144 127.297 21.512L126.145 21.88C126.043 21.624 125.91 21.3947 125.745 21.192C125.579 20.9893 125.39 20.8187 125.177 20.68C124.969 20.5413 124.737 20.4347 124.481 20.36C124.225 20.2853 123.955 20.248 123.673 20.248C123.219 20.248 122.817 20.328 122.465 20.488C122.113 20.648 121.817 20.8773 121.577 21.176C121.342 21.4693 121.163 21.8293 121.041 22.256C120.918 22.6773 120.857 23.152 120.857 23.68C120.857 24.1973 120.915 24.6667 121.033 25.088C121.155 25.5093 121.334 25.872 121.569 26.176C121.803 26.4747 122.097 26.7067 122.449 26.872C122.801 27.032 123.209 27.112 123.673 27.112C124.27 27.112 124.771 26.9787 125.177 26.712C125.582 26.44 125.894 26.0453 126.113 25.528L127.297 25.88C126.971 26.6533 126.499 27.24 125.881 27.64C125.267 28.04 124.531 28.24 123.673 28.24ZM132.772 28H128.94V19.36H130.108V22.648H132.772C133.263 22.648 133.692 22.7147 134.06 22.848C134.433 22.9813 134.743 23.1653 134.988 23.4C135.239 23.6347 135.425 23.9173 135.548 24.248C135.676 24.5733 135.74 24.9307 135.74 25.32C135.74 25.7093 135.676 26.0693 135.548 26.4C135.425 26.7253 135.239 27.008 134.988 27.248C134.743 27.4827 134.433 27.6667 134.06 27.8C133.692 27.9333 133.263 28 132.772 28ZM132.636 26.976C132.967 26.976 133.252 26.936 133.492 26.856C133.732 26.7707 133.932 26.656 134.092 26.512C134.252 26.3627 134.369 26.1867 134.444 25.984C134.524 25.7813 134.564 25.56 134.564 25.32C134.564 25.08 134.524 24.8587 134.444 24.656C134.369 24.4533 134.252 24.28 134.092 24.136C133.932 23.992 133.732 23.88 133.492 23.8C133.252 23.7147 132.967 23.672 132.636 23.672H130.108V26.976H132.636Z" fill="white"/>
<path d="M164.533 26.872L169.421 22.208C169.949 21.7013 170.336 21.2267 170.581 20.784C170.832 20.3413 170.957 19.8933 170.957 19.44C170.957 19.12 170.893 18.832 170.765 18.576C170.637 18.32 170.461 18.104 170.237 17.928C170.013 17.7467 169.746 17.608 169.437 17.512C169.133 17.416 168.8 17.368 168.437 17.368C168.048 17.368 167.685 17.4267 167.349 17.544C167.018 17.656 166.725 17.8213 166.469 18.04C166.218 18.2533 166.01 18.512 165.845 18.816C165.685 19.1147 165.576 19.4533 165.517 19.832L164.301 19.608C164.392 19.0907 164.554 18.624 164.789 18.208C165.029 17.792 165.325 17.44 165.677 17.152C166.034 16.8587 166.445 16.6347 166.909 16.48C167.378 16.3253 167.885 16.248 168.429 16.248C168.968 16.248 169.464 16.32 169.917 16.464C170.376 16.608 170.773 16.8187 171.109 17.096C171.445 17.368 171.706 17.704 171.893 18.104C172.085 18.4987 172.178 18.952 172.173 19.464C172.173 19.7787 172.128 20.088 172.037 20.392C171.952 20.696 171.834 20.9893 171.685 21.272C171.536 21.5547 171.36 21.8267 171.157 22.088C170.954 22.344 170.733 22.5867 170.493 22.816L166.245 26.872H172.173V28H164.533V26.872ZM178.346 28.24C177.604 28.24 176.959 28.1333 176.41 27.92C175.866 27.7013 175.415 27.3707 175.058 26.928C174.706 26.4853 174.442 25.9227 174.266 25.24C174.09 24.552 173.996 23.7413 173.986 22.808C173.975 21.688 174.052 20.7173 174.218 19.896C174.388 19.0693 174.652 18.3867 175.01 17.848C175.367 17.304 175.82 16.9013 176.37 16.64C176.919 16.3733 177.57 16.24 178.322 16.24C179.458 16.24 180.372 16.512 181.066 17.056C181.764 17.6 182.226 18.4053 182.45 19.472L181.274 19.672C181.092 18.8773 180.762 18.296 180.282 17.928C179.802 17.5547 179.138 17.368 178.29 17.368C177.26 17.368 176.49 17.7387 175.978 18.48C175.471 19.2213 175.199 20.3707 175.162 21.928L175.154 22.296C175.287 22.0293 175.466 21.7947 175.69 21.592C175.914 21.384 176.17 21.2107 176.458 21.072C176.751 20.928 177.071 20.8213 177.418 20.752C177.764 20.6773 178.127 20.64 178.506 20.64C179.108 20.64 179.658 20.7227 180.154 20.888C180.655 21.0533 181.084 21.296 181.442 21.616C181.799 21.936 182.076 22.3307 182.274 22.8C182.476 23.2693 182.578 23.8107 182.578 24.424C182.578 25.0373 182.471 25.5813 182.258 26.056C182.05 26.5253 181.759 26.9227 181.386 27.248C181.012 27.5733 180.567 27.8213 180.05 27.992C179.532 28.1573 178.964 28.24 178.346 28.24ZM178.346 27.112C178.815 27.112 179.234 27.0507 179.602 26.928C179.975 26.8053 180.29 26.6293 180.546 26.4C180.802 26.1707 180.996 25.8933 181.13 25.568C181.263 25.2373 181.33 24.8667 181.33 24.456C181.33 24.0453 181.26 23.6747 181.122 23.344C180.988 23.0133 180.794 22.7333 180.538 22.504C180.282 22.2747 179.97 22.0987 179.602 21.976C179.234 21.8533 178.815 21.792 178.346 21.792C177.876 21.792 177.458 21.8533 177.09 21.976C176.722 22.0987 176.41 22.2747 176.154 22.504C175.898 22.7333 175.703 23.0133 175.57 23.344C175.436 23.6747 175.37 24.0453 175.37 24.456C175.37 24.8667 175.436 25.2373 175.57 25.568C175.703 25.8933 175.898 26.1707 176.154 26.4C176.41 26.6293 176.722 26.8053 177.09 26.928C177.458 27.0507 177.876 27.112 178.346 27.112ZM192.696 24.56C192.696 25.1093 192.597 25.6107 192.4 26.064C192.203 26.5173 191.925 26.9067 191.568 27.232C191.216 27.552 190.792 27.8 190.296 27.976C189.8 28.152 189.256 28.24 188.664 28.24C188.099 28.24 187.579 28.1707 187.104 28.032C186.635 27.8987 186.216 27.696 185.848 27.424C185.48 27.1467 185.168 26.8 184.912 26.384C184.661 25.968 184.472 25.48 184.344 24.92L185.528 24.72C185.64 25.12 185.781 25.472 185.952 25.776C186.123 26.0747 186.333 26.3227 186.584 26.52C186.84 26.7173 187.139 26.8667 187.48 26.968C187.827 27.064 188.227 27.112 188.68 27.112C189.101 27.112 189.483 27.048 189.824 26.92C190.171 26.792 190.467 26.616 190.712 26.392C190.957 26.168 191.147 25.9013 191.28 25.592C191.413 25.2827 191.48 24.9493 191.48 24.592C191.48 23.8187 191.243 23.2373 190.768 22.848C190.293 22.4533 189.592 22.256 188.664 22.256H187.568V21.232L190.792 17.608H185V16.48H192.272V17.608L188.984 21.24C190.173 21.2827 191.088 21.584 191.728 22.144C192.373 22.6987 192.696 23.504 192.696 24.56ZM202.809 24.56C202.809 25.1093 202.711 25.6107 202.513 26.064C202.316 26.5173 202.039 26.9067 201.681 27.232C201.329 27.552 200.905 27.8 200.409 27.976C199.913 28.152 199.369 28.24 198.777 28.24C198.212 28.24 197.692 28.1707 197.217 28.032C196.748 27.8987 196.329 27.696 195.961 27.424C195.593 27.1467 195.281 26.8 195.025 26.384C194.775 25.968 194.585 25.48 194.457 24.92L195.641 24.72C195.753 25.12 195.895 25.472 196.065 25.776C196.236 26.0747 196.447 26.3227 196.697 26.52C196.953 26.7173 197.252 26.8667 197.593 26.968C197.94 27.064 198.34 27.112 198.793 27.112C199.215 27.112 199.596 27.048 199.937 26.92C200.284 26.792 200.58 26.616 200.825 26.392C201.071 26.168 201.26 25.9013 201.393 25.592C201.527 25.2827 201.593 24.9493 201.593 24.592C201.593 23.8187 201.356 23.2373 200.881 22.848C200.407 22.4533 199.705 22.256 198.777 22.256H195.289L195.657 16.48H202.065V17.608H196.761L196.537 21.128H198.793C199.433 21.128 200.001 21.2053 200.497 21.36C200.999 21.5093 201.42 21.7307 201.761 22.024C202.103 22.312 202.361 22.6693 202.537 23.096C202.719 23.5227 202.809 24.0107 202.809 24.56ZM208.69 16.248C209.25 16.248 209.76 16.3227 210.218 16.472C210.682 16.616 211.08 16.8293 211.41 17.112C211.741 17.3893 211.997 17.7307 212.178 18.136C212.365 18.536 212.458 18.9893 212.458 19.496C212.458 19.7787 212.421 20.0533 212.346 20.32C212.272 20.5867 212.162 20.832 212.018 21.056C211.88 21.28 211.709 21.48 211.506 21.656C211.304 21.8267 211.074 21.9627 210.818 22.064C211.106 22.1333 211.37 22.2533 211.61 22.424C211.856 22.5947 212.066 22.8 212.242 23.04C212.418 23.28 212.554 23.5467 212.65 23.84C212.752 24.128 212.802 24.4293 212.802 24.744C212.802 25.288 212.701 25.776 212.498 26.208C212.296 26.64 212.013 27.008 211.65 27.312C211.288 27.6107 210.853 27.84 210.346 28C209.845 28.16 209.293 28.24 208.69 28.24C208.082 28.24 207.525 28.16 207.018 28C206.517 27.84 206.085 27.6107 205.722 27.312C205.36 27.008 205.077 26.64 204.874 26.208C204.672 25.776 204.57 25.288 204.57 24.744C204.57 24.4293 204.618 24.128 204.714 23.84C204.816 23.5467 204.954 23.2827 205.13 23.048C205.306 22.808 205.514 22.6027 205.754 22.432C206 22.2613 206.266 22.1387 206.554 22.064C206.298 21.9627 206.069 21.8267 205.866 21.656C205.664 21.48 205.493 21.28 205.354 21.056C205.216 20.832 205.109 20.5867 205.034 20.32C204.96 20.0533 204.922 19.7787 204.922 19.496C204.922 18.9893 205.013 18.536 205.194 18.136C205.376 17.7307 205.632 17.3893 205.962 17.112C206.298 16.8293 206.696 16.616 207.154 16.472C207.618 16.3227 208.13 16.248 208.69 16.248ZM208.69 21.528C209.101 21.528 209.464 21.4773 209.778 21.376C210.098 21.2693 210.368 21.1253 210.586 20.944C210.805 20.7573 210.97 20.5387 211.082 20.288C211.2 20.0373 211.258 19.7653 211.258 19.472C211.258 19.1467 211.197 18.8533 211.074 18.592C210.952 18.3307 210.778 18.1093 210.554 17.928C210.33 17.7467 210.058 17.608 209.738 17.512C209.424 17.416 209.074 17.368 208.69 17.368C208.306 17.368 207.954 17.416 207.634 17.512C207.32 17.608 207.05 17.7467 206.826 17.928C206.602 18.1093 206.429 18.3307 206.306 18.592C206.184 18.8533 206.122 19.1467 206.122 19.472C206.122 19.7653 206.178 20.0373 206.29 20.288C206.402 20.5387 206.568 20.7573 206.786 20.944C207.005 21.1253 207.274 21.2693 207.594 21.376C207.914 21.4773 208.28 21.528 208.69 21.528ZM208.69 22.656C208.232 22.656 207.821 22.704 207.458 22.8C207.101 22.896 206.797 23.0347 206.546 23.216C206.301 23.3973 206.112 23.6213 205.978 23.888C205.85 24.1493 205.786 24.4453 205.786 24.776C205.786 25.128 205.853 25.448 205.986 25.736C206.125 26.024 206.32 26.272 206.57 26.48C206.826 26.6827 207.133 26.84 207.49 26.952C207.848 27.0587 208.248 27.112 208.69 27.112C209.133 27.112 209.533 27.0587 209.89 26.952C210.248 26.84 210.552 26.6827 210.802 26.48C211.053 26.272 211.245 26.024 211.378 25.736C211.512 25.448 211.578 25.128 211.578 24.776C211.578 24.4453 211.512 24.1493 211.378 23.888C211.25 23.6213 211.064 23.3973 210.818 23.216C210.573 23.0347 210.272 22.896 209.914 22.8C209.557 22.704 209.149 22.656 208.69 22.656ZM219.127 16.248C219.868 16.248 220.511 16.3573 221.055 16.576C221.604 16.7893 222.055 17.1173 222.407 17.56C222.764 18.0027 223.031 18.568 223.207 19.256C223.383 19.9387 223.476 20.7467 223.487 21.68C223.497 22.8 223.417 23.7733 223.247 24.6C223.081 25.4213 222.82 26.104 222.463 26.648C222.105 27.1867 221.652 27.5893 221.103 27.856C220.553 28.1173 219.903 28.248 219.151 28.248C218.015 28.248 217.097 27.976 216.399 27.432C215.705 26.888 215.247 26.0827 215.023 25.016L216.199 24.816C216.38 25.6107 216.711 26.1947 217.191 26.568C217.671 26.936 218.335 27.12 219.183 27.12C220.212 27.12 220.98 26.7493 221.487 26.008C221.999 25.2667 222.273 24.1173 222.311 22.56L222.319 22.192C222.185 22.4587 222.007 22.696 221.783 22.904C221.559 23.1067 221.3 23.28 221.007 23.424C220.719 23.5627 220.401 23.6693 220.055 23.744C219.708 23.8133 219.345 23.848 218.967 23.848C218.364 23.848 217.812 23.7653 217.311 23.6C216.815 23.4347 216.388 23.192 216.031 22.872C215.673 22.552 215.393 22.1573 215.191 21.688C214.993 21.2187 214.895 20.6773 214.895 20.064C214.895 19.4507 214.999 18.9093 215.207 18.44C215.42 17.9653 215.713 17.5653 216.087 17.24C216.46 16.9147 216.905 16.6693 217.423 16.504C217.94 16.3333 218.508 16.248 219.127 16.248ZM219.127 17.376C218.657 17.376 218.236 17.4373 217.863 17.56C217.495 17.6827 217.183 17.8587 216.927 18.088C216.671 18.3173 216.476 18.5973 216.343 18.928C216.209 19.2533 216.143 19.6213 216.143 20.032C216.143 20.4427 216.209 20.8133 216.343 21.144C216.481 21.4747 216.679 21.7547 216.935 21.984C217.191 22.2133 217.503 22.3893 217.871 22.512C218.239 22.6347 218.657 22.696 219.127 22.696C219.596 22.696 220.015 22.6347 220.383 22.512C220.751 22.3893 221.063 22.2133 221.319 21.984C221.575 21.7547 221.769 21.4747 221.903 21.144C222.036 20.8133 222.103 20.4427 222.103 20.032C222.103 19.6213 222.036 19.2533 221.903 18.928C221.769 18.5973 221.575 18.3173 221.319 18.088C221.063 17.8587 220.751 17.6827 220.383 17.56C220.015 17.4373 219.596 17.376 219.127 17.376ZM228.205 28V17.848L226.045 19.152L225.461 18.136L228.205 16.48H229.389V28H228.205Z" fill="black"/>
</svg>
