<svg width="395" height="43" viewBox="0 0 395 43" fill="none" xmlns="http://www.w3.org/2000/svg">
<path d="M131.887 0H382.815C389.443 0 394.815 5.37258 394.815 12V29C394.815 35.6274 389.443 41 382.815 41H131.887V0Z" fill="#E3E3E3"/>
<rect width="155" height="43" rx="12" transform="matrix(-1 0 0 1 155 0)" fill="#2A2A2A"/>
<path d="M50.12 28V16.48H58.624V28H57.448V17.608H51.296V28H50.12ZM64.238 19.12C66.5313 19.12 67.678 20.3173 67.678 22.712V28H66.51V26.544C66.2007 27.0987 65.782 27.52 65.254 27.808C64.726 28.096 64.0993 28.24 63.374 28.24C62.91 28.24 62.494 28.1813 62.126 28.064C61.758 27.952 61.446 27.7893 61.19 27.576C60.934 27.3573 60.7367 27.0933 60.598 26.784C60.4593 26.4747 60.39 26.1253 60.39 25.736C60.39 25.2827 60.4727 24.896 60.638 24.576C60.8087 24.2507 61.046 23.9813 61.35 23.768C61.6593 23.5493 62.03 23.376 62.462 23.248C62.8993 23.12 63.382 23.024 63.91 22.96L66.51 22.632C66.51 21.784 66.326 21.168 65.958 20.784C65.59 20.3947 65.0113 20.2 64.222 20.2C62.9207 20.2 62.1233 20.7413 61.83 21.824L60.718 21.56C60.9207 20.7707 61.3233 20.168 61.926 19.752C62.534 19.3307 63.3047 19.12 64.238 19.12ZM64.022 23.912C63.5847 23.9653 63.2087 24.04 62.894 24.136C62.5847 24.232 62.3287 24.352 62.126 24.496C61.9287 24.6347 61.7847 24.8027 61.694 25C61.6033 25.192 61.558 25.416 61.558 25.672C61.558 26.6853 62.2327 27.192 63.582 27.192C63.9553 27.192 64.2993 27.1413 64.614 27.04C64.9287 26.9333 65.206 26.784 65.446 26.592C65.6913 26.3947 65.894 26.1573 66.054 25.88C66.214 25.6027 66.3287 25.2933 66.398 24.952C66.4513 24.7333 66.4833 24.504 66.494 24.264C66.5047 24.0187 66.51 23.8 66.51 23.608L64.022 23.912ZM69.7606 31.84V19.36H70.9366V20.808C71.2193 20.28 71.6086 19.8667 72.1046 19.568C72.6006 19.2693 73.2113 19.12 73.9366 19.12C74.55 19.12 75.0993 19.232 75.5846 19.456C76.0753 19.68 76.4886 19.9947 76.8246 20.4C77.166 20.8 77.4246 21.28 77.6006 21.84C77.782 22.3947 77.8726 23.0053 77.8726 23.672C77.8726 24.3493 77.782 24.9707 77.6006 25.536C77.4193 26.096 77.158 26.576 76.8166 26.976C76.4753 27.376 76.062 27.688 75.5766 27.912C75.0913 28.1307 74.5446 28.24 73.9366 28.24C73.206 28.24 72.5953 28.0907 72.1046 27.792C71.614 27.4933 71.2246 27.08 70.9366 26.552V31.84H69.7606ZM73.7766 27.112C74.2566 27.112 74.6753 27.0293 75.0326 26.864C75.39 26.6933 75.686 26.4587 75.9206 26.16C76.1553 25.856 76.3313 25.4933 76.4486 25.072C76.566 24.6507 76.6246 24.184 76.6246 23.672C76.6246 23.1493 76.566 22.6773 76.4486 22.256C76.3313 21.8347 76.1526 21.4773 75.9126 21.184C75.678 20.8853 75.382 20.656 75.0246 20.496C74.6673 20.3307 74.2513 20.248 73.7766 20.248C73.2913 20.248 72.87 20.3333 72.5126 20.504C72.1606 20.6693 71.8673 20.904 71.6326 21.208C71.398 21.5067 71.222 21.8667 71.1046 22.288C70.9926 22.704 70.9366 23.1653 70.9366 23.672C70.9366 24.1893 70.9953 24.6613 71.1126 25.088C71.2353 25.5093 71.414 25.872 71.6486 26.176C71.8886 26.4747 72.1846 26.7067 72.5366 26.872C72.894 27.032 73.3073 27.112 73.7766 27.112ZM83.2436 28.24C82.6036 28.24 82.0303 28.128 81.5236 27.904C81.017 27.68 80.5876 27.368 80.2356 26.968C79.8836 26.5627 79.6143 26.08 79.4276 25.52C79.2463 24.96 79.1556 24.344 79.1556 23.672C79.1556 22.9947 79.249 22.376 79.4356 21.816C79.6276 21.256 79.8996 20.776 80.2516 20.376C80.6036 19.976 81.033 19.6667 81.5396 19.448C82.0463 19.2293 82.6143 19.12 83.2436 19.12C83.889 19.12 84.465 19.232 84.9716 19.456C85.4783 19.68 85.9076 19.992 86.2596 20.392C86.6116 20.792 86.8783 21.272 87.0596 21.832C87.2463 22.3867 87.3396 23 87.3396 23.672C87.3396 24.3493 87.2463 24.9707 87.0596 25.536C86.873 26.096 86.6036 26.576 86.2516 26.976C85.8996 27.376 85.4703 27.688 84.9636 27.912C84.457 28.1307 83.8836 28.24 83.2436 28.24ZM83.2436 27.112C83.7183 27.112 84.1316 27.0293 84.4836 26.864C84.841 26.6987 85.137 26.4667 85.3716 26.168C85.6116 25.8693 85.7903 25.5093 85.9076 25.088C86.0303 24.6613 86.0916 24.1893 86.0916 23.672C86.0916 23.144 86.0303 22.6693 85.9076 22.248C85.7903 21.8267 85.6116 21.4693 85.3716 21.176C85.1316 20.8773 84.833 20.648 84.4756 20.488C84.1236 20.328 83.713 20.248 83.2436 20.248C82.769 20.248 82.353 20.3307 81.9956 20.496C81.6436 20.656 81.3476 20.888 81.1076 21.192C80.873 21.4907 80.697 21.8507 80.5796 22.272C80.4623 22.6933 80.4036 23.16 80.4036 23.672C80.4036 24.2 80.465 24.6773 80.5876 25.104C80.7103 25.5253 80.889 25.8853 81.1236 26.184C81.3636 26.4827 81.6596 26.712 82.0116 26.872C82.369 27.032 82.7796 27.112 83.2436 27.112ZM88.3044 27.08C88.443 27.1227 88.563 27.144 88.6644 27.144C88.8884 27.144 89.075 27.0587 89.2244 26.888C89.379 26.7173 89.5017 26.472 89.5924 26.152C89.6884 25.832 89.755 25.4427 89.7924 24.984C89.8297 24.52 89.8484 23.9973 89.8484 23.416V19.36H96.0404V28H94.8644V20.48H90.9604V23.68C90.9604 25.248 90.8004 26.4 90.4804 27.136C90.1604 27.872 89.6724 28.24 89.0164 28.24C88.7977 28.24 88.5604 28.2 88.3044 28.12V27.08ZM102.1 28H98.2683V19.36H99.4363V22.648H102.1C102.591 22.648 103.02 22.7147 103.388 22.848C103.762 22.9813 104.071 23.1653 104.316 23.4C104.567 23.6347 104.754 23.9173 104.876 24.248C105.004 24.5733 105.068 24.9307 105.068 25.32C105.068 25.7093 105.004 26.0693 104.876 26.4C104.754 26.7253 104.567 27.008 104.316 27.248C104.071 27.4827 103.762 27.6667 103.388 27.8C103.02 27.9333 102.591 28 102.1 28ZM101.964 26.976C102.295 26.976 102.58 26.936 102.82 26.856C103.06 26.7707 103.26 26.656 103.42 26.512C103.58 26.3627 103.698 26.1867 103.772 25.984C103.852 25.7813 103.892 25.56 103.892 25.32C103.892 25.08 103.852 24.8587 103.772 24.656C103.698 24.4533 103.58 24.28 103.42 24.136C103.26 23.992 103.06 23.88 102.82 23.8C102.58 23.7147 102.295 23.672 101.964 23.672H99.4363V26.976H101.964Z" fill="white"/>
<circle cx="169.113" cy="20.5" r="4" fill="#2A2A2A"/>
<circle cx="179.655" cy="20.5" r="4" fill="#2A2A2A"/>
<circle cx="190.198" cy="20.5" r="4" fill="#2A2A2A"/>
<circle cx="200.74" cy="20.5" r="4" fill="#2A2A2A"/>
<circle cx="211.283" cy="20.5" r="4" fill="#2A2A2A"/>
<circle cx="221.825" cy="20.5" r="4" fill="#2A2A2A"/>
<circle cx="232.368" cy="20.5" r="4" fill="#2A2A2A"/>
<circle cx="242.91" cy="20.5" r="4" fill="#2A2A2A"/>
<circle cx="253.453" cy="20.5" r="4" fill="#2A2A2A"/>
<circle cx="263.995" cy="20.5" r="4" fill="#2A2A2A"/>
<circle cx="274.538" cy="20.5" r="4" fill="#2A2A2A"/>
<circle cx="285.08" cy="20.5" r="4" fill="#2A2A2A"/>
<circle cx="295.623" cy="20.5" r="4" fill="#2A2A2A"/>
<circle cx="306.165" cy="20.5" r="4" fill="#2A2A2A"/>
<circle cx="316.708" cy="20.5" r="4" fill="#2A2A2A"/>
<circle cx="327.25" cy="20.5" r="4" fill="#2A2A2A"/>
<circle cx="337.793" cy="20.5" r="4" fill="#2A2A2A"/>
</svg>
