<svg width="106" height="46" viewBox="0 0 106 46" fill="none" xmlns="http://www.w3.org/2000/svg">
<rect width="106" height="45.0716" rx="12" fill="#D0FF00"/>
<path d="M24.136 32.0359H17.68V14.7559H23.956C24.772 14.7559 25.528 14.8479 26.224 15.0319C26.92 15.2159 27.524 15.4959 28.036 15.8719C28.548 16.2399 28.948 16.7079 29.236 17.2759C29.532 17.8439 29.68 18.5079 29.68 19.2679C29.68 19.8199 29.604 20.3119 29.452 20.7439C29.3 21.1679 29.1 21.5399 28.852 21.8599C28.612 22.1719 28.336 22.4319 28.024 22.6399C27.72 22.8399 27.416 22.9879 27.112 23.0839C27.472 23.1479 27.836 23.2839 28.204 23.4919C28.572 23.6999 28.904 23.9759 29.2 24.3199C29.504 24.6639 29.752 25.0799 29.944 25.5679C30.136 26.0559 30.232 26.6119 30.232 27.2359C30.232 28.0759 30.072 28.7999 29.752 29.4079C29.44 30.0159 29.008 30.5159 28.456 30.9079C27.912 31.2919 27.268 31.5759 26.524 31.7599C25.788 31.9439 24.992 32.0359 24.136 32.0359ZM24.004 17.1199H20.212V21.9679H24.244C24.652 21.9679 25.028 21.9239 25.372 21.8359C25.724 21.7479 26.028 21.6079 26.284 21.4159C26.54 21.2159 26.74 20.9599 26.884 20.6479C27.036 20.3359 27.112 19.9559 27.112 19.5079C27.112 19.0599 27.032 18.6839 26.872 18.3799C26.72 18.0759 26.504 17.8319 26.224 17.6479C25.952 17.4639 25.624 17.3319 25.24 17.2519C24.864 17.1639 24.452 17.1199 24.004 17.1199ZM24.136 29.6719C24.616 29.6719 25.072 29.6319 25.504 29.5519C25.936 29.4719 26.312 29.3319 26.632 29.1319C26.96 28.9319 27.22 28.6559 27.412 28.3039C27.604 27.9519 27.7 27.5079 27.7 26.9719C27.7 26.4519 27.604 26.0239 27.412 25.6879C27.228 25.3439 26.976 25.0679 26.656 24.8599C26.344 24.6519 25.984 24.5079 25.576 24.4279C25.168 24.3399 24.748 24.2959 24.316 24.2959H20.212V29.6719H24.136ZM44.5857 32.0359V19.0759H47.0937V32.0359H44.5857ZM38.4777 32.0359H32.6097V19.0759H35.1177V23.6719H38.4777C39.2697 23.6719 39.9577 23.7799 40.5417 23.9959C41.1337 24.2119 41.6217 24.5119 42.0057 24.8959C42.3977 25.2719 42.6897 25.7159 42.8817 26.2279C43.0737 26.7319 43.1697 27.2759 43.1697 27.8599C43.1697 28.4439 43.0737 28.9919 42.8817 29.5039C42.6897 30.0079 42.3977 30.4479 42.0057 30.8239C41.6217 31.1999 41.1337 31.4959 40.5417 31.7119C39.9577 31.9279 39.2697 32.0359 38.4777 32.0359ZM38.1177 29.9599C38.5577 29.9599 38.9377 29.9079 39.2577 29.8039C39.5777 29.6919 39.8377 29.5439 40.0377 29.3599C40.2457 29.1759 40.3977 28.9559 40.4937 28.6999C40.5977 28.4359 40.6497 28.1559 40.6497 27.8599C40.6497 27.5559 40.5977 27.2759 40.4937 27.0199C40.3977 26.7639 40.2457 26.5439 40.0377 26.3599C39.8377 26.1679 39.5777 26.0199 39.2577 25.9159C38.9377 25.8039 38.5577 25.7479 38.1177 25.7479H35.1177V29.9599H38.1177ZM56.2296 17.5879C55.5976 17.5879 55.0176 17.4359 54.4896 17.1319C53.9616 16.8199 53.5416 16.3999 53.2296 15.8719C52.9256 15.3439 52.7736 14.7639 52.7736 14.1319H54.7656C54.7656 14.3959 54.8296 14.6399 54.9576 14.8639C55.0936 15.0879 55.2736 15.2679 55.4976 15.4039C55.7216 15.5319 55.9656 15.5959 56.2296 15.5959C56.5016 15.5959 56.7456 15.5319 56.9616 15.4039C57.1856 15.2679 57.3616 15.0879 57.4896 14.8639C57.6256 14.6399 57.6936 14.3959 57.6936 14.1319H59.6856C59.6856 14.7639 59.5296 15.3439 59.2176 15.8719C58.9136 16.3999 58.4976 16.8199 57.9696 17.1319C57.4416 17.4359 56.8616 17.5879 56.2296 17.5879ZM61.3656 19.0759V32.0359H58.8576V22.9759L52.9416 32.0359H50.4336V19.0759H52.9416V28.1359L58.8576 19.0759H61.3656ZM67.9831 32.0359V21.4279H63.6391V19.0759H74.8351V21.4279H70.4911V32.0359H67.9831ZM88.0375 19.0759V32.0359H85.5295V22.9759L79.6135 32.0359H77.1055V19.0759H79.6135V28.1359L85.5295 19.0759H88.0375Z" fill="black"/>
</svg>
