<svg width="280" height="42" viewBox="0 0 280 42" fill="none" xmlns="http://www.w3.org/2000/svg">
<path d="M17.0723 0H268.001C274.628 0 280.001 5.37258 280.001 12V29.0652C280.001 35.6926 274.628 41.0652 268.001 41.0652H17.0723V0Z" fill="#E3E3E3"/>
<rect width="40.1851" height="41" rx="12" transform="matrix(-1 0 0 1 40.1855 0)" fill="#2A2A2A"/>
<path d="M10.4699 17.5569H29.7161C29.9754 17.5569 30.1855 17.7671 30.1855 18.0263V28.2958C30.1855 28.6846 29.8703 28.9999 29.4814 28.9999H10.7046C10.3157 28.9999 10.0005 28.6846 10.0005 28.2958V18.0263C10.0005 17.7671 10.2107 17.5569 10.4699 17.5569ZM25.9526 26.1733C26.5267 26.1733 26.9922 25.7078 26.9922 25.1336C26.9922 24.5594 26.5267 24.0939 25.9525 24.0939C25.3783 24.0939 24.9128 24.5594 24.9128 25.1336C24.9129 25.7077 25.3783 26.1733 25.9526 26.1733ZM25.9526 22.4629C26.5267 22.4629 26.9922 21.9974 26.9922 21.4232C26.9922 20.849 26.5267 20.3835 25.9525 20.3835C25.3783 20.3835 24.9128 20.849 24.9128 21.4232C24.9128 21.9974 25.3783 22.4629 25.9526 22.4629ZM22.0462 26.1733C22.6204 26.1733 23.0859 25.7078 23.0859 25.1336C23.0859 24.5594 22.6204 24.0939 22.0462 24.0939C21.472 24.0939 21.0065 24.5594 21.0065 25.1336C21.0065 25.7077 21.472 26.1733 22.0462 26.1733ZM22.0462 22.4629C22.6204 22.4629 23.0859 21.9974 23.0859 21.4232C23.0859 20.849 22.6204 20.3835 22.0462 20.3835C21.472 20.3835 21.0065 20.849 21.0065 21.4232C21.0065 21.9974 21.472 22.4629 22.0462 22.4629ZM18.1398 26.1733C18.714 26.1733 19.1795 25.7078 19.1795 25.1336C19.1795 24.5594 18.714 24.0939 18.1398 24.0939C17.5656 24.0939 17.1001 24.5594 17.1001 25.1336C17.1001 25.7077 17.5656 26.1733 18.1398 26.1733ZM18.1398 22.4629C18.714 22.4629 19.1795 21.9974 19.1795 21.4232C19.1795 20.849 18.714 20.3835 18.1398 20.3835C17.5656 20.3835 17.1001 20.849 17.1001 21.4232C17.1001 21.9974 17.5656 22.4629 18.1398 22.4629ZM14.2335 26.1733C14.8077 26.1733 15.2732 25.7078 15.2732 25.1336C15.2732 24.5594 14.8077 24.0939 14.2335 24.0939C13.6593 24.0939 13.1938 24.5594 13.1938 25.1336C13.1938 25.7077 13.6593 26.1733 14.2335 26.1733ZM14.2335 22.4629C14.8077 22.4629 15.2732 21.9974 15.2732 21.4232C15.2732 20.849 14.8077 20.3835 14.2335 20.3835C13.6593 20.3835 13.1938 20.849 13.1938 21.4232C13.1938 21.9974 13.6593 22.4629 14.2335 22.4629Z" fill="#E3E3E3"/>
<path d="M10.7046 13.1285H13.5293V12.7041C13.5293 12.3152 13.8446 12 14.2334 12C14.6223 12 14.9375 12.3153 14.9375 12.7041V13.1285H17.4356V12.7041C17.4356 12.3152 17.7509 12 18.1398 12C18.5286 12 18.8439 12.3153 18.8439 12.7041V13.1285H21.342V12.7041C21.342 12.3152 21.6572 12 22.0461 12C22.435 12 22.7502 12.3153 22.7502 12.7041V13.1285H25.2485V12.7041C25.2485 12.3152 25.5638 12 25.9526 12C26.3415 12 26.6567 12.3153 26.6567 12.7041V13.1285H29.4814C29.8703 13.1285 30.1855 13.4438 30.1855 13.8326V16.3835C30.1855 16.6427 29.9754 16.8529 29.7161 16.8529H10.4699C10.2107 16.8529 10.0005 16.6427 10.0005 16.3835V13.8326C10.0005 13.4438 10.3158 13.1285 10.7046 13.1285Z" fill="#E3E3E3"/>
<path d="M52.3895 28.019V17.867L50.2295 19.171L49.6455 18.155L52.3895 16.499H53.5735V28.019H52.3895ZM56.53 26.891L61.418 22.227C61.946 21.7204 62.3327 21.2457 62.578 20.803C62.8287 20.3604 62.954 19.9124 62.954 19.459C62.954 19.139 62.89 18.851 62.762 18.595C62.634 18.339 62.458 18.123 62.234 17.947C62.01 17.7657 61.7434 17.627 61.434 17.531C61.13 17.435 60.7967 17.387 60.434 17.387C60.0447 17.387 59.682 17.4457 59.346 17.563C59.0154 17.675 58.722 17.8404 58.466 18.059C58.2154 18.2724 58.0074 18.531 57.842 18.835C57.682 19.1337 57.5727 19.4724 57.514 19.851L56.298 19.627C56.3887 19.1097 56.5514 18.643 56.786 18.227C57.026 17.811 57.322 17.459 57.674 17.171C58.0314 16.8777 58.442 16.6537 58.906 16.499C59.3754 16.3444 59.882 16.267 60.426 16.267C60.9647 16.267 61.4607 16.339 61.914 16.483C62.3727 16.627 62.77 16.8377 63.106 17.115C63.442 17.387 63.7034 17.723 63.89 18.123C64.082 18.5177 64.1754 18.971 64.17 19.483C64.17 19.7977 64.1247 20.107 64.034 20.411C63.9487 20.715 63.8314 21.0084 63.682 21.291C63.5327 21.5737 63.3567 21.8457 63.154 22.107C62.9514 22.363 62.73 22.6057 62.49 22.835L58.242 26.891H64.17V28.019H56.53V26.891ZM66.3108 28.019V26.651H67.6788V28.019H66.3108ZM70.8114 28.019V17.867L68.6514 19.171L68.0674 18.155L70.8114 16.499H71.9954V28.019H70.8114ZM74.9519 26.891L79.8399 22.227C80.3679 21.7204 80.7546 21.2457 80.9999 20.803C81.2506 20.3604 81.3759 19.9124 81.3759 19.459C81.3759 19.139 81.3119 18.851 81.1839 18.595C81.0559 18.339 80.8799 18.123 80.6559 17.947C80.4319 17.7657 80.1653 17.627 79.8559 17.531C79.5519 17.435 79.2186 17.387 78.8559 17.387C78.4666 17.387 78.1039 17.4457 77.7679 17.563C77.4373 17.675 77.1439 17.8404 76.8879 18.059C76.6373 18.2724 76.4293 18.531 76.2639 18.835C76.1039 19.1337 75.9946 19.4724 75.9359 19.851L74.7199 19.627C74.8106 19.1097 74.9733 18.643 75.2079 18.227C75.4479 17.811 75.7439 17.459 76.0959 17.171C76.4533 16.8777 76.8639 16.6537 77.3279 16.499C77.7973 16.3444 78.3039 16.267 78.8479 16.267C79.3866 16.267 79.8826 16.339 80.3359 16.483C80.7946 16.627 81.1919 16.8377 81.5279 17.115C81.8639 17.387 82.1253 17.723 82.3119 18.123C82.5039 18.5177 82.5973 18.971 82.5919 19.483C82.5919 19.7977 82.5466 20.107 82.4559 20.411C82.3706 20.715 82.2533 21.0084 82.1039 21.291C81.9546 21.5737 81.7786 21.8457 81.5759 22.107C81.3733 22.363 81.1519 22.6057 80.9119 22.835L76.6639 26.891H82.5919V28.019H74.9519V26.891ZM84.7327 28.019V26.651H86.1007V28.019H84.7327ZM88.4832 26.891L93.3712 22.227C93.8992 21.7204 94.2858 21.2457 94.5312 20.803C94.7818 20.3604 94.9072 19.9124 94.9072 19.459C94.9072 19.139 94.8432 18.851 94.7152 18.595C94.5872 18.339 94.4112 18.123 94.1872 17.947C93.9632 17.7657 93.6965 17.627 93.3872 17.531C93.0832 17.435 92.7498 17.387 92.3872 17.387C91.9978 17.387 91.6352 17.4457 91.2992 17.563C90.9685 17.675 90.6752 17.8404 90.4192 18.059C90.1685 18.2724 89.9605 18.531 89.7952 18.835C89.6352 19.1337 89.5258 19.4724 89.4672 19.851L88.2512 19.627C88.3418 19.1097 88.5045 18.643 88.7392 18.227C88.9792 17.811 89.2752 17.459 89.6272 17.171C89.9845 16.8777 90.3952 16.6537 90.8592 16.499C91.3285 16.3444 91.8352 16.267 92.3792 16.267C92.9178 16.267 93.4138 16.339 93.8672 16.483C94.3258 16.627 94.7232 16.8377 95.0592 17.115C95.3952 17.387 95.6565 17.723 95.8432 18.123C96.0352 18.5177 96.1285 18.971 96.1232 19.483C96.1232 19.7977 96.0778 20.107 95.9872 20.411C95.9018 20.715 95.7845 21.0084 95.6352 21.291C95.4858 21.5737 95.3098 21.8457 95.1072 22.107C94.9045 22.363 94.6832 22.6057 94.4432 22.835L90.1952 26.891H96.1232V28.019H88.4832V26.891ZM102.528 28.259C101.808 28.259 101.168 28.123 100.608 27.851C100.048 27.579 99.5786 27.1844 99.1999 26.667C98.8213 26.1497 98.5333 25.5204 98.3359 24.779C98.1386 24.0377 98.0399 23.1977 98.0399 22.259C98.0399 21.3204 98.1386 20.4804 98.3359 19.739C98.5333 18.9977 98.8213 18.3684 99.1999 17.851C99.5786 17.3337 100.048 16.939 100.608 16.667C101.168 16.395 101.808 16.259 102.528 16.259C103.248 16.259 103.885 16.395 104.44 16.667C105 16.939 105.469 17.3337 105.848 17.851C106.227 18.3684 106.515 18.9977 106.712 19.739C106.909 20.4804 107.008 21.3204 107.008 22.259C107.008 23.1977 106.909 24.0377 106.712 24.779C106.515 25.5204 106.227 26.1497 105.848 26.667C105.469 27.1844 105 27.579 104.44 27.851C103.885 28.123 103.248 28.259 102.528 28.259ZM102.528 27.131C103.035 27.131 103.485 27.027 103.88 26.819C104.28 26.6057 104.619 26.2937 104.896 25.883C105.179 25.4724 105.392 24.963 105.536 24.355C105.685 23.747 105.76 23.0484 105.76 22.259C105.76 21.4644 105.685 20.7657 105.536 20.163C105.392 19.555 105.179 19.0457 104.896 18.635C104.619 18.2244 104.28 17.915 103.88 17.707C103.485 17.4937 103.035 17.387 102.528 17.387C102.021 17.387 101.568 17.491 101.168 17.699C100.768 17.907 100.427 18.2164 100.144 18.627C99.8666 19.0377 99.6533 19.547 99.5039 20.155C99.3599 20.7577 99.2879 21.459 99.2879 22.259C99.2879 23.0484 99.3599 23.747 99.5039 24.355C99.6533 24.9577 99.8666 25.4644 100.144 25.875C100.421 26.2857 100.76 26.5977 101.16 26.811C101.56 27.0244 102.016 27.131 102.528 27.131ZM109.155 26.891L114.043 22.227C114.571 21.7204 114.958 21.2457 115.203 20.803C115.454 20.3604 115.579 19.9124 115.579 19.459C115.579 19.139 115.515 18.851 115.387 18.595C115.259 18.339 115.083 18.123 114.859 17.947C114.635 17.7657 114.368 17.627 114.059 17.531C113.755 17.435 113.422 17.387 113.059 17.387C112.67 17.387 112.307 17.4457 111.971 17.563C111.64 17.675 111.347 17.8404 111.091 18.059C110.84 18.2724 110.632 18.531 110.467 18.835C110.307 19.1337 110.198 19.4724 110.139 19.851L108.923 19.627C109.014 19.1097 109.176 18.643 109.411 18.227C109.651 17.811 109.947 17.459 110.299 17.171C110.656 16.8777 111.067 16.6537 111.531 16.499C112 16.3444 112.507 16.267 113.051 16.267C113.59 16.267 114.086 16.339 114.539 16.483C114.998 16.627 115.395 16.8377 115.731 17.115C116.067 17.387 116.328 17.723 116.515 18.123C116.707 18.5177 116.8 18.971 116.795 19.483C116.795 19.7977 116.75 20.107 116.659 20.411C116.574 20.715 116.456 21.0084 116.307 21.291C116.158 21.5737 115.982 21.8457 115.779 22.107C115.576 22.363 115.355 22.6057 115.115 22.835L110.867 26.891H116.795V28.019H109.155V26.891ZM126.744 24.579C126.744 25.1284 126.645 25.6297 126.448 26.083C126.25 26.5364 125.973 26.9257 125.616 27.251C125.264 27.571 124.84 27.819 124.344 27.995C123.848 28.171 123.304 28.259 122.712 28.259C122.146 28.259 121.626 28.1897 121.152 28.051C120.682 27.9177 120.264 27.715 119.896 27.443C119.528 27.1657 119.216 26.819 118.96 26.403C118.709 25.987 118.52 25.499 118.392 24.939L119.576 24.739C119.688 25.139 119.829 25.491 120 25.795C120.17 26.0937 120.381 26.3417 120.632 26.539C120.888 26.7364 121.186 26.8857 121.528 26.987C121.874 27.083 122.274 27.131 122.728 27.131C123.149 27.131 123.53 27.067 123.872 26.939C124.218 26.811 124.514 26.635 124.76 26.411C125.005 26.187 125.194 25.9204 125.328 25.611C125.461 25.3017 125.528 24.9684 125.528 24.611C125.528 23.8377 125.29 23.2564 124.816 22.867C124.341 22.4724 123.64 22.275 122.712 22.275H119.224L119.592 16.499H126V17.627H120.696L120.472 21.147H122.728C123.368 21.147 123.936 21.2244 124.432 21.379C124.933 21.5284 125.354 21.7497 125.696 22.043C126.037 22.331 126.296 22.6884 126.472 23.115C126.653 23.5417 126.744 24.0297 126.744 24.579ZM131.708 23.483V22.475H142.268V23.483H131.708ZM150.14 28.019V17.867L147.98 19.171L147.396 18.155L150.14 16.499H151.324V28.019H150.14ZM154.28 26.891L159.168 22.227C159.696 21.7204 160.083 21.2457 160.328 20.803C160.579 20.3604 160.704 19.9124 160.704 19.459C160.704 19.139 160.64 18.851 160.512 18.595C160.384 18.339 160.208 18.123 159.984 17.947C159.76 17.7657 159.493 17.627 159.184 17.531C158.88 17.435 158.547 17.387 158.184 17.387C157.795 17.387 157.432 17.4457 157.096 17.563C156.765 17.675 156.472 17.8404 156.216 18.059C155.965 18.2724 155.757 18.531 155.592 18.835C155.432 19.1337 155.323 19.4724 155.264 19.851L154.048 19.627C154.139 19.1097 154.301 18.643 154.536 18.227C154.776 17.811 155.072 17.459 155.424 17.171C155.781 16.8777 156.192 16.6537 156.656 16.499C157.125 16.3444 157.632 16.267 158.176 16.267C158.715 16.267 159.211 16.339 159.664 16.483C160.123 16.627 160.52 16.8377 160.856 17.115C161.192 17.387 161.453 17.723 161.64 18.123C161.832 18.5177 161.925 18.971 161.92 19.483C161.92 19.7977 161.875 20.107 161.784 20.411C161.699 20.715 161.581 21.0084 161.432 21.291C161.283 21.5737 161.107 21.8457 160.904 22.107C160.701 22.363 160.48 22.6057 160.24 22.835L155.992 26.891H161.92V28.019H154.28V26.891ZM164.061 28.019V26.651H165.429V28.019H164.061ZM172.387 28.259C171.667 28.259 171.027 28.123 170.467 27.851C169.907 27.579 169.438 27.1844 169.059 26.667C168.681 26.1497 168.393 25.5204 168.195 24.779C167.998 24.0377 167.899 23.1977 167.899 22.259C167.899 21.3204 167.998 20.4804 168.195 19.739C168.393 18.9977 168.681 18.3684 169.059 17.851C169.438 17.3337 169.907 16.939 170.467 16.667C171.027 16.395 171.667 16.259 172.387 16.259C173.107 16.259 173.745 16.395 174.299 16.667C174.859 16.939 175.329 17.3337 175.707 17.851C176.086 18.3684 176.374 18.9977 176.571 19.739C176.769 20.4804 176.867 21.3204 176.867 22.259C176.867 23.1977 176.769 24.0377 176.571 24.779C176.374 25.5204 176.086 26.1497 175.707 26.667C175.329 27.1844 174.859 27.579 174.299 27.851C173.745 28.123 173.107 28.259 172.387 28.259ZM172.387 27.131C172.894 27.131 173.345 27.027 173.739 26.819C174.139 26.6057 174.478 26.2937 174.755 25.883C175.038 25.4724 175.251 24.963 175.395 24.355C175.545 23.747 175.619 23.0484 175.619 22.259C175.619 21.4644 175.545 20.7657 175.395 20.163C175.251 19.555 175.038 19.0457 174.755 18.635C174.478 18.2244 174.139 17.915 173.739 17.707C173.345 17.4937 172.894 17.387 172.387 17.387C171.881 17.387 171.427 17.491 171.027 17.699C170.627 17.907 170.286 18.2164 170.003 18.627C169.726 19.0377 169.513 19.547 169.363 20.155C169.219 20.7577 169.147 21.459 169.147 22.259C169.147 23.0484 169.219 23.747 169.363 24.355C169.513 24.9577 169.726 25.4644 170.003 25.875C170.281 26.2857 170.619 26.5977 171.019 26.811C171.419 27.0244 171.875 27.131 172.387 27.131ZM180.561 28.019V17.867L178.401 19.171L177.817 18.155L180.561 16.499H181.745V28.019H180.561ZM184.373 28.019V26.651H185.741V28.019H184.373ZM188.124 26.891L193.012 22.227C193.54 21.7204 193.926 21.2457 194.172 20.803C194.422 20.3604 194.548 19.9124 194.548 19.459C194.548 19.139 194.484 18.851 194.356 18.595C194.228 18.339 194.052 18.123 193.828 17.947C193.604 17.7657 193.337 17.627 193.028 17.531C192.724 17.435 192.39 17.387 192.028 17.387C191.638 17.387 191.276 17.4457 190.94 17.563C190.609 17.675 190.316 17.8404 190.06 18.059C189.809 18.2724 189.601 18.531 189.436 18.835C189.276 19.1337 189.166 19.4724 189.108 19.851L187.892 19.627C187.982 19.1097 188.145 18.643 188.38 18.227C188.62 17.811 188.916 17.459 189.268 17.171C189.625 16.8777 190.036 16.6537 190.5 16.499C190.969 16.3444 191.476 16.267 192.02 16.267C192.558 16.267 193.054 16.339 193.508 16.483C193.966 16.627 194.364 16.8377 194.7 17.115C195.036 17.387 195.297 17.723 195.484 18.123C195.676 18.5177 195.769 18.971 195.764 19.483C195.764 19.7977 195.718 20.107 195.628 20.411C195.542 20.715 195.425 21.0084 195.276 21.291C195.126 21.5737 194.95 21.8457 194.748 22.107C194.545 22.363 194.324 22.6057 194.084 22.835L189.836 26.891H195.764V28.019H188.124V26.891ZM202.169 28.259C201.449 28.259 200.809 28.123 200.249 27.851C199.689 27.579 199.219 27.1844 198.841 26.667C198.462 26.1497 198.174 25.5204 197.977 24.779C197.779 24.0377 197.681 23.1977 197.681 22.259C197.681 21.3204 197.779 20.4804 197.977 19.739C198.174 18.9977 198.462 18.3684 198.841 17.851C199.219 17.3337 199.689 16.939 200.249 16.667C200.809 16.395 201.449 16.259 202.169 16.259C202.889 16.259 203.526 16.395 204.081 16.667C204.641 16.939 205.11 17.3337 205.489 17.851C205.867 18.3684 206.155 18.9977 206.353 19.739C206.55 20.4804 206.649 21.3204 206.649 22.259C206.649 23.1977 206.55 24.0377 206.353 24.779C206.155 25.5204 205.867 26.1497 205.489 26.667C205.11 27.1844 204.641 27.579 204.081 27.851C203.526 28.123 202.889 28.259 202.169 28.259ZM202.169 27.131C202.675 27.131 203.126 27.027 203.521 26.819C203.921 26.6057 204.259 26.2937 204.537 25.883C204.819 25.4724 205.033 24.963 205.177 24.355C205.326 23.747 205.401 23.0484 205.401 22.259C205.401 21.4644 205.326 20.7657 205.177 20.163C205.033 19.555 204.819 19.0457 204.537 18.635C204.259 18.2244 203.921 17.915 203.521 17.707C203.126 17.4937 202.675 17.387 202.169 17.387C201.662 17.387 201.209 17.491 200.809 17.699C200.409 17.907 200.067 18.2164 199.785 18.627C199.507 19.0377 199.294 19.547 199.145 20.155C199.001 20.7577 198.929 21.459 198.929 22.259C198.929 23.0484 199.001 23.747 199.145 24.355C199.294 24.9577 199.507 25.4644 199.785 25.875C200.062 26.2857 200.401 26.5977 200.801 26.811C201.201 27.0244 201.657 27.131 202.169 27.131ZM208.796 26.891L213.684 22.227C214.212 21.7204 214.598 21.2457 214.844 20.803C215.094 20.3604 215.22 19.9124 215.22 19.459C215.22 19.139 215.156 18.851 215.028 18.595C214.9 18.339 214.724 18.123 214.5 17.947C214.276 17.7657 214.009 17.627 213.7 17.531C213.396 17.435 213.062 17.387 212.7 17.387C212.31 17.387 211.948 17.4457 211.612 17.563C211.281 17.675 210.988 17.8404 210.732 18.059C210.481 18.2724 210.273 18.531 210.108 18.835C209.948 19.1337 209.838 19.4724 209.78 19.851L208.564 19.627C208.654 19.1097 208.817 18.643 209.052 18.227C209.292 17.811 209.588 17.459 209.94 17.171C210.297 16.8777 210.708 16.6537 211.172 16.499C211.641 16.3444 212.148 16.267 212.692 16.267C213.23 16.267 213.726 16.339 214.18 16.483C214.638 16.627 215.036 16.8377 215.372 17.115C215.708 17.387 215.969 17.723 216.156 18.123C216.348 18.5177 216.441 18.971 216.436 19.483C216.436 19.7977 216.39 20.107 216.3 20.411C216.214 20.715 216.097 21.0084 215.948 21.291C215.798 21.5737 215.622 21.8457 215.42 22.107C215.217 22.363 214.996 22.6057 214.756 22.835L210.508 26.891H216.436V28.019H208.796V26.891ZM222.608 28.259C221.867 28.259 221.222 28.1524 220.672 27.939C220.128 27.7204 219.678 27.3897 219.32 26.947C218.968 26.5044 218.704 25.9417 218.528 25.259C218.352 24.571 218.259 23.7604 218.248 22.827C218.238 21.707 218.315 20.7364 218.48 19.915C218.651 19.0884 218.915 18.4057 219.272 17.867C219.63 17.323 220.083 16.9204 220.632 16.659C221.182 16.3924 221.832 16.259 222.584 16.259C223.72 16.259 224.635 16.531 225.328 17.075C226.027 17.619 226.488 18.4244 226.712 19.491L225.536 19.691C225.355 18.8964 225.024 18.315 224.544 17.947C224.064 17.5737 223.4 17.387 222.552 17.387C221.523 17.387 220.752 17.7577 220.24 18.499C219.734 19.2404 219.462 20.3897 219.424 21.947L219.416 22.315C219.55 22.0484 219.728 21.8137 219.952 21.611C220.176 21.403 220.432 21.2297 220.72 21.091C221.014 20.947 221.334 20.8404 221.68 20.771C222.027 20.6964 222.39 20.659 222.768 20.659C223.371 20.659 223.92 20.7417 224.416 20.907C224.918 21.0724 225.347 21.315 225.704 21.635C226.062 21.955 226.339 22.3497 226.536 22.819C226.739 23.2884 226.84 23.8297 226.84 24.443C226.84 25.0564 226.734 25.6004 226.52 26.075C226.312 26.5444 226.022 26.9417 225.648 27.267C225.275 27.5924 224.83 27.8404 224.312 28.011C223.795 28.1764 223.227 28.259 222.608 28.259ZM222.608 27.131C223.078 27.131 223.496 27.0697 223.864 26.947C224.238 26.8244 224.552 26.6484 224.808 26.419C225.064 26.1897 225.259 25.9124 225.392 25.587C225.526 25.2564 225.592 24.8857 225.592 24.475C225.592 24.0644 225.523 23.6937 225.384 23.363C225.251 23.0324 225.056 22.7524 224.8 22.523C224.544 22.2937 224.232 22.1177 223.864 21.995C223.496 21.8724 223.078 21.811 222.608 21.811C222.139 21.811 221.72 21.8724 221.352 21.995C220.984 22.1177 220.672 22.2937 220.416 22.523C220.16 22.7524 219.966 23.0324 219.832 23.363C219.699 23.6937 219.632 24.0644 219.632 24.475C219.632 24.8857 219.699 25.2564 219.832 25.587C219.966 25.9124 220.16 26.1897 220.416 26.419C220.672 26.6484 220.984 26.8244 221.352 26.947C221.72 27.0697 222.139 27.131 222.608 27.131Z" fill="black"/>
<path d="M254 17.5278L262 25.5406L270 17.5278" stroke="#2A2A2A" stroke-width="2" stroke-linecap="round" stroke-linejoin="round"/>
</svg>
