<svg width="204" height="89" viewBox="0 0 204 89" fill="none" xmlns="http://www.w3.org/2000/svg">
<g clip-path="url(#clip0_116_811)">
<path d="M60 0H191.57C198.197 0 203.57 5.37258 203.57 12V76.14C203.57 82.7674 198.197 88.14 191.57 88.14H60V0Z" fill="white"/>
<g clip-path="url(#clip1_116_811)">
<path fill-rule="evenodd" clip-rule="evenodd" d="M77.2197 12.0701H86.7008L95.073 20.4422V36.5193C95.073 38.4715 93.4744 40.0701 91.5222 40.0701H77.2197C75.2675 40.0701 73.6689 38.4715 73.6689 36.5193V15.6209C73.6689 13.6686 75.2675 12.0701 77.2197 12.0701Z" fill="#D0FF00"/>
<path fill-rule="evenodd" clip-rule="evenodd" d="M86.7012 12.0701L95.0733 20.4422H87.6053C87.1076 20.4422 86.7012 20.0358 86.7012 19.5381V12.0701Z" fill="#2A2A2A"/>
<path fill-rule="evenodd" clip-rule="evenodd" d="M69.707 23.9929H88.9908C89.4197 23.9929 89.7701 24.3434 89.7701 24.7722V31.8466C89.7701 32.2755 89.4197 32.6259 88.9908 32.6259H69.707C69.2782 32.6259 68.9277 32.2755 68.9277 31.8466V24.7722C68.9277 24.3434 69.2782 23.9929 69.707 23.9929Z" fill="#2A2A2A"/>
<path d="M76.7893 30.7297C76.7893 30.9789 76.5872 31.181 76.338 31.181H73.4288C73.1796 31.181 72.9775 30.9789 72.9775 30.7297V25.8876C72.9775 25.6383 73.1796 25.4363 73.4288 25.4363C73.678 25.4363 73.8801 25.6383 73.8801 25.8876V30.2784H76.338C76.5872 30.2784 76.7893 30.4805 76.7893 30.7297ZM85.2686 28.0814H83.814C83.5648 28.0814 83.3628 28.2834 83.3628 28.5327C83.3628 28.782 83.5648 28.984 83.814 28.984H84.8173V29.9344C84.8173 30.1209 84.6591 30.2784 84.4718 30.2784H83.1548C82.9683 30.2784 82.8108 30.1209 82.8108 29.9344V26.6845C82.8108 26.4971 82.9683 26.3388 83.1548 26.3388H84.4718C84.6623 26.3388 84.8173 26.4939 84.8173 26.6845C84.8173 26.9337 85.0194 27.1357 85.2686 27.1357C85.5178 27.1357 85.7199 26.9337 85.7199 26.6845C85.7199 25.9962 85.1599 25.4363 84.4718 25.4363H83.1548C82.4675 25.4363 81.9083 25.9962 81.9083 26.6845V29.9344C81.9083 30.6217 82.4675 31.181 83.1548 31.181H84.4718C85.16 31.181 85.7199 30.6217 85.7199 29.9344V28.5327C85.7198 28.2835 85.5178 28.0814 85.2686 28.0814ZM80.9081 27.3421V29.2751C80.9081 30.3259 80.0531 31.1809 79.0022 31.1809C77.9514 31.1809 77.0964 30.3259 77.0964 29.2751V27.3421C77.0964 26.2913 77.9514 25.4363 79.0022 25.4363C80.0532 25.4363 80.9081 26.2913 80.9081 27.3421ZM80.0056 27.3421C80.0056 26.7889 79.5555 26.3388 79.0022 26.3388C78.449 26.3388 77.9989 26.7889 77.9989 27.3421V29.2751C77.9989 29.8283 78.449 30.2784 79.0022 30.2784C79.5555 30.2784 80.0056 29.8283 80.0056 29.2751V27.3421Z" fill="white"/>
</g>
<g clip-path="url(#clip2_116_811)">
<path d="M109.445 24.4791C109.534 23.9693 109.583 23.4449 109.583 22.9088C109.583 18.0353 105.733 14.0701 101 14.0701C96.2673 14.0701 92.4168 18.0353 92.4168 22.9088C92.4168 23.4449 92.4661 23.9689 92.5553 24.4791C91.81 24.955 91.3145 25.7872 91.3145 26.7376V35.3904C91.3145 36.8704 92.5143 38.0701 93.994 38.0701H108.006C109.485 38.0701 110.685 36.8704 110.685 35.3904H110.686V26.7376C110.686 25.7874 110.191 24.955 109.445 24.4791ZM102.182 32.0343V33.9147C102.182 34.5682 101.653 35.0976 101 35.0976C100.346 35.0976 99.817 34.5682 99.817 33.9147V32.0335C99.0584 31.6154 98.5438 30.8088 98.5438 29.8811C98.5438 28.5248 99.6434 27.425 101 27.425C102.357 27.425 103.457 28.5248 103.457 29.8811C103.457 30.8092 102.942 31.6165 102.182 32.0343ZM106.317 24.0577H95.6827C95.6098 23.6868 95.5709 23.3022 95.5709 22.9088C95.5709 19.7742 98.0064 17.2243 101 17.2243C103.994 17.2243 106.429 19.774 106.429 22.9088C106.429 23.3022 106.391 23.6868 106.317 24.0577Z" fill="#2A2A2A"/>
</g>
<path d="M75.005 56.0226L70.445 61.0701H68.15L73.115 55.5651L68.465 50.2701H70.685L75.005 55.2951V50.2701H76.82V55.2951L81.1325 50.2701H83.3525L78.71 55.5651L83.675 61.0701H81.38L76.82 56.0226V61.0701H75.005V56.0226ZM88.1103 61.0701H86.1453L87.7803 57.5976L84.1428 50.2701H86.1228L88.7028 55.6551L91.2378 50.2701H93.1953L88.1103 61.0701ZM94.4574 61.0701V50.2701H98.7249C99.3649 50.2701 99.9224 50.3501 100.397 50.5101C100.877 50.6701 101.275 50.9026 101.59 51.2076C101.91 51.5076 102.15 51.8751 102.31 52.3101C102.47 52.7451 102.55 53.2376 102.55 53.7876C102.55 54.3376 102.47 54.8301 102.31 55.2651C102.15 55.7001 101.91 56.0676 101.59 56.3676C101.27 56.6676 100.87 56.8976 100.39 57.0576C99.9149 57.2176 99.3599 57.2976 98.7249 57.2976H96.2799V61.0701H94.4574ZM96.2799 55.6101H98.7099C99.3649 55.6101 99.8649 55.4551 100.21 55.1451C100.555 54.8301 100.727 54.3776 100.727 53.7876C100.727 53.1976 100.555 52.7476 100.21 52.4376C99.8649 52.1226 99.3649 51.9651 98.7099 51.9651H96.2799V55.6101ZM104.202 61.0701V50.2701H106.017V54.8151H111.125V50.2701H112.94V61.0701H111.125V56.5101H106.017V61.0701H104.202ZM123.952 61.0626H122.047L121.282 58.7226H117.067L116.302 61.0626H114.397L117.974 50.2626H120.382L123.952 61.0626ZM120.734 57.0351L119.174 52.2426L117.614 57.0351H120.734ZM125.124 59.5701C125.284 59.6101 125.422 59.6301 125.537 59.6301C125.772 59.6301 125.967 59.5676 126.122 59.4426C126.282 59.3126 126.409 59.1301 126.504 58.8951C126.604 58.6601 126.679 58.3751 126.729 58.0401C126.784 57.7051 126.822 57.3326 126.842 56.9226C126.862 56.5076 126.872 56.0601 126.872 55.5801C126.877 55.1001 126.879 54.5951 126.879 54.0651V50.2701H134.462V61.0701H132.647V51.9651H128.567V55.7001C128.567 56.8001 128.504 57.7101 128.379 58.4301C128.259 59.1501 128.089 59.7226 127.869 60.1476C127.654 60.5676 127.399 60.8626 127.104 61.0326C126.814 61.2026 126.497 61.2876 126.152 61.2876C125.987 61.2876 125.817 61.2726 125.642 61.2426C125.472 61.2126 125.299 61.1701 125.124 61.1151V59.5701ZM73.6175 75.2951C72.8075 75.2951 72.0825 75.1601 71.4425 74.8901C70.8075 74.6151 70.2675 74.2326 69.8225 73.7426C69.3775 73.2476 69.0375 72.6551 68.8025 71.9651C68.5675 71.2751 68.45 70.5101 68.45 69.6701C68.45 68.8301 68.5675 68.0651 68.8025 67.3751C69.0375 66.6851 69.3775 66.0951 69.8225 65.6051C70.2675 65.1101 70.8075 64.7276 71.4425 64.4576C72.0825 64.1826 72.8075 64.0451 73.6175 64.0451C74.2375 64.0451 74.8075 64.1251 75.3275 64.2851C75.8525 64.4451 76.32 64.6751 76.73 64.9751C77.14 65.2751 77.4925 65.6376 77.7875 66.0626C78.0825 66.4876 78.3125 66.9651 78.4775 67.4951L76.655 67.9976C76.55 67.6476 76.4075 67.3351 76.2275 67.0601C76.0525 66.7801 75.8375 66.5426 75.5825 66.3476C75.3325 66.1526 75.0425 66.0051 74.7125 65.9051C74.3875 65.8001 74.0225 65.7476 73.6175 65.7476C73.0925 65.7476 72.625 65.8426 72.215 66.0326C71.81 66.2176 71.4675 66.4826 71.1875 66.8276C70.9125 67.1676 70.7025 67.5801 70.5575 68.0651C70.4175 68.5451 70.3475 69.0801 70.3475 69.6701C70.3475 70.2601 70.415 70.7976 70.55 71.2826C70.69 71.7626 70.895 72.1751 71.165 72.5201C71.44 72.8601 71.78 73.1251 72.185 73.3151C72.595 73.5001 73.0725 73.5926 73.6175 73.5926C74.0225 73.5926 74.3875 73.5426 74.7125 73.4426C75.0425 73.3376 75.3325 73.1876 75.5825 72.9926C75.8375 72.7976 76.0525 72.5626 76.2275 72.2876C76.4075 72.0076 76.55 71.6926 76.655 71.3426L78.4775 71.8451C78.3125 72.3751 78.0825 72.8526 77.7875 73.2776C77.4925 73.7026 77.14 74.0651 76.73 74.3651C76.32 74.6651 75.8525 74.8951 75.3275 75.0551C74.8075 75.2151 74.2375 75.2951 73.6175 75.2951ZM84.8417 75.2951C84.0317 75.2951 83.3067 75.1601 82.6667 74.8901C82.0317 74.6151 81.4917 74.2326 81.0467 73.7426C80.6017 73.2476 80.2617 72.6551 80.0267 71.9651C79.7917 71.2751 79.6742 70.5101 79.6742 69.6701C79.6742 68.8301 79.7917 68.0651 80.0267 67.3751C80.2617 66.6851 80.6017 66.0951 81.0467 65.6051C81.4917 65.1101 82.0317 64.7276 82.6667 64.4576C83.3067 64.1826 84.0317 64.0451 84.8417 64.0451C85.6517 64.0451 86.3767 64.1826 87.0167 64.4576C87.6567 64.7276 88.1992 65.1101 88.6442 65.6051C89.0892 66.0951 89.4292 66.6851 89.6642 67.3751C89.8992 68.0651 90.0167 68.8301 90.0167 69.6701C90.0167 70.5101 89.8992 71.2751 89.6642 71.9651C89.4292 72.6551 89.0892 73.2476 88.6442 73.7426C88.1992 74.2326 87.6567 74.6151 87.0167 74.8901C86.3767 75.1601 85.6517 75.2951 84.8417 75.2951ZM84.8417 73.5926C85.3867 73.5926 85.8617 73.5001 86.2667 73.3151C86.6767 73.1251 87.0167 72.8601 87.2867 72.5201C87.5617 72.1751 87.7667 71.7626 87.9017 71.2826C88.0367 70.7976 88.1042 70.2601 88.1042 69.6701C88.1042 69.0801 88.0367 68.5451 87.9017 68.0651C87.7667 67.5801 87.5617 67.1676 87.2867 66.8276C87.0167 66.4826 86.6767 66.2176 86.2667 66.0326C85.8617 65.8426 85.3867 65.7476 84.8417 65.7476C84.2967 65.7476 83.8217 65.8426 83.4167 66.0326C83.0117 66.2176 82.6742 66.4826 82.4042 66.8276C82.1342 67.1676 81.9292 67.5801 81.7892 68.0651C81.6542 68.5451 81.5867 69.0801 81.5867 69.6701C81.5867 70.2601 81.6542 70.7976 81.7892 71.2826C81.9242 71.7626 82.1267 72.1751 82.3967 72.5201C82.6667 72.8601 83.0042 73.1251 83.4092 73.3151C83.8192 73.5001 84.2967 73.5926 84.8417 73.5926ZM91.6596 64.2701H98.8971V65.9651H93.4746V68.2151H96.0621C96.6521 68.2151 97.1746 68.3001 97.6296 68.4701C98.0896 68.6351 98.4771 68.8676 98.7921 69.1676C99.1071 69.4676 99.3446 69.8276 99.5046 70.2476C99.6696 70.6676 99.7521 71.1326 99.7521 71.6426C99.7521 72.1476 99.6696 72.6101 99.5046 73.0301C99.3446 73.4501 99.1071 73.8126 98.7921 74.1176C98.4771 74.4176 98.0896 74.6526 97.6296 74.8226C97.1746 74.9876 96.6521 75.0701 96.0621 75.0701H91.6596V64.2701ZM95.8446 73.3751C96.1996 73.3751 96.5071 73.3326 96.7671 73.2476C97.0321 73.1626 97.2496 73.0451 97.4196 72.8951C97.5896 72.7401 97.7146 72.5576 97.7946 72.3476C97.8796 72.1326 97.9221 71.8976 97.9221 71.6426C97.9221 71.3876 97.8796 71.1551 97.7946 70.9451C97.7146 70.7301 97.5896 70.5476 97.4196 70.3976C97.2496 70.2426 97.0321 70.1226 96.7671 70.0376C96.5071 69.9526 96.1996 69.9101 95.8446 69.9101H93.4746V73.3751H95.8446ZM103.227 68.0426H105.672C106.312 68.0426 106.869 68.1226 107.344 68.2826C107.824 68.4426 108.222 68.6726 108.537 68.9726C108.857 69.2726 109.097 69.6401 109.257 70.0751C109.417 70.5101 109.497 71.0026 109.497 71.5526C109.497 72.1026 109.417 72.5951 109.257 73.0301C109.097 73.4651 108.857 73.8351 108.537 74.1401C108.222 74.4401 107.824 74.6701 107.344 74.8301C106.869 74.9901 106.312 75.0701 105.672 75.0701H101.412V64.2701H103.227V68.0426ZM105.657 73.3751C106.312 73.3751 106.812 73.2201 107.157 72.9101C107.502 72.5951 107.674 72.1426 107.674 71.5526C107.674 70.9626 107.502 70.5126 107.157 70.2026C106.812 69.8876 106.312 69.7301 105.657 69.7301H103.227V73.3751H105.657ZM110.929 75.0701V64.2701H112.752V75.0701H110.929ZM117.462 75.0701V65.9651H114.244V64.2701H122.487V65.9651H119.284V75.0701H117.462ZM132.918 75.0701H131.103V67.3901L126.071 75.0701H124.248V64.2701H126.071V71.9501L131.103 64.2701H132.918V75.0701ZM139.492 63.3551C139.077 63.3551 138.695 63.2551 138.345 63.0551C138 62.8501 137.725 62.5751 137.52 62.2301C137.32 61.8801 137.22 61.4976 137.22 61.0826H138.63C138.63 61.2426 138.667 61.3876 138.742 61.5176C138.822 61.6476 138.927 61.7526 139.057 61.8326C139.187 61.9076 139.332 61.9451 139.492 61.9451C139.652 61.9451 139.797 61.9076 139.927 61.8326C140.057 61.7526 140.16 61.6476 140.235 61.5176C140.315 61.3876 140.355 61.2426 140.355 61.0826H141.765C141.765 61.4976 141.662 61.8801 141.457 62.2301C141.257 62.5751 140.982 62.8501 140.632 63.0551C140.287 63.2551 139.907 63.3551 139.492 63.3551ZM142.02 75.0701V67.3901L136.987 75.0701H135.165V64.2701H136.987V71.9501L142.02 64.2701H143.835V75.0701H142.02Z" fill="#2A2A2A"/>
<rect width="24" height="88" transform="translate(180 0.0700684)" fill="#2A2A2A"/>
<path d="M188 36.0701L196 44.07L188 52.0701" stroke="white" stroke-width="3" stroke-linecap="round" stroke-linejoin="round"/>
</g>
<rect width="60" height="88.14" fill="white"/>
<defs>
<clipPath id="clip0_116_811">
<path d="M60 0H191.57C198.197 0 203.57 5.37258 203.57 12V76.14C203.57 82.7674 198.197 88.14 191.57 88.14H60V0Z" fill="white"/>
</clipPath>
<clipPath id="clip1_116_811">
<rect width="28" height="28" fill="white" transform="translate(68 12.0701)"/>
</clipPath>
<clipPath id="clip2_116_811">
<rect width="24" height="24" fill="white" transform="translate(89 14.0701)"/>
</clipPath>
</defs>
</svg>
