<svg width="209" height="63" viewBox="0 0 209 63" fill="none" xmlns="http://www.w3.org/2000/svg">
<path d="M2 59.6493L2.00002 3.01368C2.00002 2.45384 2.45386 2 3.0137 2L49.6747 2.00007C50.2346 2.00007 50.6884 2.45391 50.6884 3.01375V26.5617C50.6884 27.1215 51.1422 27.5754 51.7021 27.5754H71.7108H205.797C206.357 27.5754 206.811 28.0292 206.811 28.5891V45.3017C206.811 45.8615 206.357 46.3154 205.797 46.3154H72.7245C72.1646 46.3154 71.7108 46.7692 71.7108 47.3291V59.6493C71.7108 60.2091 71.257 60.663 70.6971 60.663H3.01368C2.45384 60.663 2 60.2091 2 59.6493Z" fill="#14E401" fill-opacity="0.5" stroke="#218718" stroke-width="4"/>
</svg>
