<svg width="77" height="134" viewBox="0 0 77 134" fill="none" xmlns="http://www.w3.org/2000/svg">
<path d="M74.5472 88.2084L61.7795 130.42C61.6436 130.87 61.2155 131.166 60.7469 131.135L5.82514 127.508C5.31451 127.475 4.90992 127.064 4.88365 126.553L2.0015 70.4789C1.99534 70.359 2.01062 70.239 2.0466 70.1245L10.8049 42.256L27.077 2.62605C27.2467 2.21277 27.6678 1.96022 28.1123 2.00523L68.4291 6.08789C69.0305 6.14878 69.4438 6.72099 69.3127 7.31102L61.603 42.0056C61.5664 42.1699 61.5716 42.3407 61.618 42.5025L74.5514 87.6381C74.6048 87.8247 74.6034 88.0226 74.5472 88.2084Z" fill="#14E401" fill-opacity="0.5" stroke="#14E401" stroke-width="4"/>
</svg>
