<svg width="66" height="131" viewBox="0 0 66 131" fill="none" xmlns="http://www.w3.org/2000/svg">
<path d="M62.1027 128.06H3.00952C2.45209 128.06 2.0002 127.609 2.0002 127.051L2 69.0966C2 69.0361 2.00544 68.9757 2.01626 68.9162L7.15362 40.6463C7.21447 40.3115 7.43997 40.0299 7.7534 39.8973L15.2712 36.7167C15.6189 36.5695 15.8555 36.2406 15.8843 35.8642L18.4054 2.93231C18.4467 2.39287 18.906 1.98192 19.4467 2.00064L52.8782 3.15767C53.4217 3.17648 53.8526 3.62254 53.8526 4.16639V37.4648C53.8526 37.8594 54.0826 38.2179 54.4413 38.3823L59.6517 40.7703C59.9903 40.9256 60.2162 41.2594 60.2389 41.6313C61.1626 56.7635 61.8083 65.4258 63.112 80.7055V127.051C63.112 127.609 62.6601 128.06 62.1027 128.06Z" fill="#2A2A2A" fill-opacity="0.5" stroke="#2A2A2A" stroke-width="4"/>
</svg>
