<svg width="56" height="91" viewBox="0 0 56 91" fill="none" xmlns="http://www.w3.org/2000/svg">
<path d="M53.9359 66.2788L50.1854 87.1801C50.0942 87.6886 49.6338 88.0461 49.1186 88.0085L2.93592 84.6409C2.40837 84.6024 2 84.1632 2 83.6342V40.4388C2 40.2796 2.03764 40.1227 2.10986 39.9809L11.6446 21.2522L21.3322 2.54521C21.5155 2.19129 21.8899 1.97836 22.2877 2.00177L49.926 3.6275C50.4737 3.65972 50.8954 4.12359 50.8754 4.67191L50.0249 27.9688L50.9032 61.2415C50.9085 61.444 50.9747 61.6402 51.0931 61.8046L53.7615 65.5108C53.9212 65.7326 53.9841 66.0098 53.9359 66.2788Z" fill="#FF0000" fill-opacity="0.5" stroke="#FF0000" stroke-width="4"/>
</svg>
