<svg width="74" height="143" viewBox="0 0 74 143" fill="none" xmlns="http://www.w3.org/2000/svg">
<path d="M61.5284 100.807L59.4025 139.379C59.373 139.914 58.9305 140.333 58.3947 140.333H12.5478C11.9904 140.333 11.5385 139.881 11.5385 139.324V100.862C11.5385 100.305 11.0866 99.8531 10.5292 99.8531H3.00916C2.44272 99.8531 1.98719 99.3871 2.0001 98.8208L4.1853 2.98631C4.1978 2.43799 4.64589 2 5.19436 2H70.1338C70.6913 2 71.1432 2.45189 71.1432 3.00933V98.8438C71.1432 99.4013 70.6913 99.8531 70.1338 99.8531H62.5362C62.0003 99.8531 61.5579 100.272 61.5284 100.807Z" fill="#2A2A2A" fill-opacity="0.5" stroke="#2A2A2A" stroke-width="4"/>
</svg>
