<svg width="78" height="107" viewBox="0 0 78 107" fill="none" xmlns="http://www.w3.org/2000/svg">
<path d="M75.3852 81.7521L58.4456 103.873C58.075 104.357 57.3631 104.405 56.9315 103.974L2.29617 49.4742C1.90093 49.0799 1.90081 48.4397 2.29591 48.0453L19.4909 30.8802C19.8756 30.4962 19.8871 29.8766 19.517 29.4785L10.6106 19.9009C10.2289 19.4905 10.2547 18.8478 10.668 18.4693L28.3599 2.26503C28.7552 1.90293 29.3647 1.91309 29.7477 2.28816L69.6072 41.3172C69.9335 41.6368 70.0046 42.1357 69.7805 42.5336L58.1339 63.2165C57.9061 63.6209 57.9836 64.1286 58.3216 64.4467L75.2756 80.4035C75.6527 80.7583 75.7 81.341 75.3852 81.7521Z" fill="#2A2A2A" fill-opacity="0.5" stroke="#2A2A2A" stroke-width="4"/>
</svg>
