<svg width="106" height="45" viewBox="0 0 106 45" fill="none" xmlns="http://www.w3.org/2000/svg">
<rect width="106" height="45" rx="12" fill="#D0FF00"/>
<path d="M24.136 32H17.68V14.72H23.956C24.772 14.72 25.528 14.812 26.224 14.996C26.92 15.18 27.524 15.46 28.036 15.836C28.548 16.204 28.948 16.672 29.236 17.24C29.532 17.808 29.68 18.472 29.68 19.232C29.68 19.784 29.604 20.276 29.452 20.708C29.3 21.132 29.1 21.504 28.852 21.824C28.612 22.136 28.336 22.396 28.024 22.604C27.72 22.804 27.416 22.952 27.112 23.048C27.472 23.112 27.836 23.248 28.204 23.456C28.572 23.664 28.904 23.94 29.2 24.284C29.504 24.628 29.752 25.044 29.944 25.532C30.136 26.02 30.232 26.576 30.232 27.2C30.232 28.04 30.072 28.764 29.752 29.372C29.44 29.98 29.008 30.48 28.456 30.872C27.912 31.256 27.268 31.54 26.524 31.724C25.788 31.908 24.992 32 24.136 32ZM24.004 17.084H20.212V21.932H24.244C24.652 21.932 25.028 21.888 25.372 21.8C25.724 21.712 26.028 21.572 26.284 21.38C26.54 21.18 26.74 20.924 26.884 20.612C27.036 20.3 27.112 19.92 27.112 19.472C27.112 19.024 27.032 18.648 26.872 18.344C26.72 18.04 26.504 17.796 26.224 17.612C25.952 17.428 25.624 17.296 25.24 17.216C24.864 17.128 24.452 17.084 24.004 17.084ZM24.136 29.636C24.616 29.636 25.072 29.596 25.504 29.516C25.936 29.436 26.312 29.296 26.632 29.096C26.96 28.896 27.22 28.62 27.412 28.268C27.604 27.916 27.7 27.472 27.7 26.936C27.7 26.416 27.604 25.988 27.412 25.652C27.228 25.308 26.976 25.032 26.656 24.824C26.344 24.616 25.984 24.472 25.576 24.392C25.168 24.304 24.748 24.26 24.316 24.26H20.212V29.636H24.136ZM44.5857 32V19.04H47.0937V32H44.5857ZM38.4777 32H32.6097V19.04H35.1177V23.636H38.4777C39.2697 23.636 39.9577 23.744 40.5417 23.96C41.1337 24.176 41.6217 24.476 42.0057 24.86C42.3977 25.236 42.6897 25.68 42.8817 26.192C43.0737 26.696 43.1697 27.24 43.1697 27.824C43.1697 28.408 43.0737 28.956 42.8817 29.468C42.6897 29.972 42.3977 30.412 42.0057 30.788C41.6217 31.164 41.1337 31.46 40.5417 31.676C39.9577 31.892 39.2697 32 38.4777 32ZM38.1177 29.924C38.5577 29.924 38.9377 29.872 39.2577 29.768C39.5777 29.656 39.8377 29.508 40.0377 29.324C40.2457 29.14 40.3977 28.92 40.4937 28.664C40.5977 28.4 40.6497 28.12 40.6497 27.824C40.6497 27.52 40.5977 27.24 40.4937 26.984C40.3977 26.728 40.2457 26.508 40.0377 26.324C39.8377 26.132 39.5777 25.984 39.2577 25.88C38.9377 25.768 38.5577 25.712 38.1177 25.712H35.1177V29.924H38.1177ZM56.2296 17.552C55.5976 17.552 55.0176 17.4 54.4896 17.096C53.9616 16.784 53.5416 16.364 53.2296 15.836C52.9256 15.308 52.7736 14.728 52.7736 14.096H54.7656C54.7656 14.36 54.8296 14.604 54.9576 14.828C55.0936 15.052 55.2736 15.232 55.4976 15.368C55.7216 15.496 55.9656 15.56 56.2296 15.56C56.5016 15.56 56.7456 15.496 56.9616 15.368C57.1856 15.232 57.3616 15.052 57.4896 14.828C57.6256 14.604 57.6936 14.36 57.6936 14.096H59.6856C59.6856 14.728 59.5296 15.308 59.2176 15.836C58.9136 16.364 58.4976 16.784 57.9696 17.096C57.4416 17.4 56.8616 17.552 56.2296 17.552ZM61.3656 19.04V32H58.8576V22.94L52.9416 32H50.4336V19.04H52.9416V28.1L58.8576 19.04H61.3656ZM67.9831 32V21.392H63.6391V19.04H74.8351V21.392H70.4911V32H67.9831ZM88.0375 19.04V32H85.5295V22.94L79.6135 32H77.1055V19.04H79.6135V28.1L85.5295 19.04H88.0375Z" fill="black"/>
</svg>
