<svg width="164" height="45" viewBox="0 0 164 45" fill="none" xmlns="http://www.w3.org/2000/svg">
<rect width="164" height="45" rx="12" fill="#E3E3E3"/>
<path d="M17.68 32V14.72H30.964V32H28.432V17.084H20.212V32H17.68ZM34.3206 37.76V19.04H36.8286V20.924C37.2366 20.22 37.7766 19.672 38.4486 19.28C39.1286 18.88 39.9766 18.68 40.9926 18.68C41.8646 18.68 42.6606 18.848 43.3806 19.184C44.1086 19.52 44.7286 19.992 45.2406 20.6C45.7606 21.2 46.1606 21.92 46.4406 22.76C46.7286 23.592 46.8726 24.508 46.8726 25.508C46.8726 26.524 46.7286 27.452 46.4406 28.292C46.1526 29.132 45.7486 29.856 45.2286 30.464C44.7166 31.064 44.1006 31.532 43.3806 31.868C42.6606 32.196 41.8646 32.36 40.9926 32.36C39.9766 32.36 39.1286 32.164 38.4486 31.772C37.7686 31.372 37.2286 30.82 36.8286 30.116V37.76H34.3206ZM40.5126 29.996C41.1286 29.996 41.6686 29.888 42.1326 29.672C42.5966 29.448 42.9806 29.14 43.2846 28.748C43.5966 28.348 43.8286 27.876 43.9806 27.332C44.1326 26.78 44.2086 26.172 44.2086 25.508C44.2086 24.828 44.1286 24.216 43.9686 23.672C43.8166 23.12 43.5846 22.652 43.2726 22.268C42.9686 21.876 42.5846 21.576 42.1206 21.368C41.6646 21.152 41.1286 21.044 40.5126 21.044C39.8806 21.044 39.3326 21.152 38.8686 21.368C38.4126 21.584 38.0326 21.892 37.7286 22.292C37.4246 22.684 37.1966 23.152 37.0446 23.696C36.9006 24.24 36.8286 24.844 36.8286 25.508C36.8286 26.188 36.9046 26.808 37.0566 27.368C37.2166 27.92 37.4486 28.392 37.7526 28.784C38.0646 29.168 38.4486 29.468 38.9046 29.684C39.3686 29.892 39.9046 29.996 40.5126 29.996ZM60.4281 19.04V32H57.9201V22.94L52.0041 32H49.4961V19.04H52.0041V28.1L57.9201 19.04H60.4281ZM63.7696 32V19.04H66.2776L70.4176 27.092L74.5456 19.04H77.0656V32H74.5456V23.852L71.4256 29.96H69.3976L66.2776 23.852V32H63.7696ZM86.0742 30.02C86.8982 30.02 87.5782 29.848 88.1142 29.504C88.6582 29.152 89.0902 28.636 89.4102 27.956L91.8822 28.712C91.3702 29.88 90.6102 30.78 89.6022 31.412C88.6022 32.044 87.4262 32.36 86.0742 32.36C85.1142 32.36 84.2422 32.196 83.4582 31.868C82.6822 31.532 82.0142 31.064 81.4542 30.464C80.8942 29.864 80.4622 29.144 80.1582 28.304C79.8542 27.464 79.7022 26.536 79.7022 25.52C79.7022 24.488 79.8542 23.552 80.1582 22.712C80.4622 21.872 80.8942 21.152 81.4542 20.552C82.0142 19.952 82.6822 19.492 83.4582 19.172C84.2422 18.844 85.1062 18.68 86.0502 18.68C87.0582 18.68 87.9502 18.856 88.7262 19.208C89.5022 19.56 90.1462 20.064 90.6582 20.72C91.1782 21.368 91.5542 22.16 91.7862 23.096C92.0262 24.024 92.1142 25.068 92.0502 26.228H82.4022C82.5142 27.436 82.8902 28.372 83.5302 29.036C84.1702 29.692 85.0182 30.02 86.0742 30.02ZM89.4702 24.272C89.3822 23.2 89.0422 22.376 88.4502 21.8C87.8582 21.224 87.0582 20.936 86.0502 20.936C85.0502 20.936 84.2422 21.224 83.6262 21.8C83.0182 22.376 82.6302 23.2 82.4622 24.272H89.4702ZM94.7305 32V19.04H97.2385V24.344H103.563V19.04H106.071V32H103.563V26.696H97.2385V32H94.7305ZM120.358 19.04V32H117.85V22.94L111.934 32H109.426V19.04H111.934V28.1L117.85 19.04H120.358ZM126.975 32V21.392H122.631V19.04H133.827V21.392H129.483V32H126.975ZM141.966 32H136.098V19.04H138.618V23.636H141.966C142.758 23.636 143.45 23.744 144.042 23.96C144.634 24.176 145.122 24.476 145.506 24.86C145.898 25.236 146.19 25.68 146.382 26.192C146.574 26.696 146.67 27.24 146.67 27.824C146.67 28.408 146.574 28.956 146.382 29.468C146.19 29.972 145.898 30.412 145.506 30.788C145.122 31.164 144.634 31.46 144.042 31.676C143.45 31.892 142.758 32 141.966 32ZM141.618 29.924C142.058 29.924 142.434 29.872 142.746 29.768C143.066 29.656 143.33 29.508 143.538 29.324C143.746 29.14 143.898 28.92 143.994 28.664C144.098 28.4 144.15 28.12 144.15 27.824C144.15 27.52 144.098 27.24 143.994 26.984C143.898 26.728 143.746 26.508 143.538 26.324C143.33 26.132 143.066 25.984 142.746 25.88C142.434 25.768 142.058 25.712 141.618 25.712H138.618V29.924H141.618Z" fill="black"/>
</svg>
