<svg width="164" height="46" viewBox="0 0 164 46" fill="none" xmlns="http://www.w3.org/2000/svg">
<rect width="164" height="45.0716" rx="12" fill="#E3E3E3"/>
<path d="M17.68 32.0359V14.7559H30.964V32.0359H28.432V17.1199H20.212V32.0359H17.68ZM34.3206 37.7959V19.0759H36.8286V20.9599C37.2366 20.2559 37.7766 19.7079 38.4486 19.3159C39.1286 18.9159 39.9766 18.7159 40.9926 18.7159C41.8646 18.7159 42.6606 18.8839 43.3806 19.2199C44.1086 19.5559 44.7286 20.0279 45.2406 20.6359C45.7606 21.2359 46.1606 21.9559 46.4406 22.7959C46.7286 23.6279 46.8726 24.5439 46.8726 25.5439C46.8726 26.5599 46.7286 27.4879 46.4406 28.3279C46.1526 29.1679 45.7486 29.8919 45.2286 30.4999C44.7166 31.0999 44.1006 31.5679 43.3806 31.9039C42.6606 32.2319 41.8646 32.3959 40.9926 32.3959C39.9766 32.3959 39.1286 32.1999 38.4486 31.8079C37.7686 31.4079 37.2286 30.8559 36.8286 30.1519V37.7959H34.3206ZM40.5126 30.0319C41.1286 30.0319 41.6686 29.9239 42.1326 29.7079C42.5966 29.4839 42.9806 29.1759 43.2846 28.7839C43.5966 28.3839 43.8286 27.9119 43.9806 27.3679C44.1326 26.8159 44.2086 26.2079 44.2086 25.5439C44.2086 24.8639 44.1286 24.2519 43.9686 23.7079C43.8166 23.1559 43.5846 22.6879 43.2726 22.3039C42.9686 21.9119 42.5846 21.6119 42.1206 21.4039C41.6646 21.1879 41.1286 21.0799 40.5126 21.0799C39.8806 21.0799 39.3326 21.1879 38.8686 21.4039C38.4126 21.6199 38.0326 21.9279 37.7286 22.3279C37.4246 22.7199 37.1966 23.1879 37.0446 23.7319C36.9006 24.2759 36.8286 24.8799 36.8286 25.5439C36.8286 26.2239 36.9046 26.8439 37.0566 27.4039C37.2166 27.9559 37.4486 28.4279 37.7526 28.8199C38.0646 29.2039 38.4486 29.5039 38.9046 29.7199C39.3686 29.9279 39.9046 30.0319 40.5126 30.0319ZM60.4281 19.0759V32.0359H57.9201V22.9759L52.0041 32.0359H49.4961V19.0759H52.0041V28.1359L57.9201 19.0759H60.4281ZM63.7696 32.0359V19.0759H66.2776L70.4176 27.1279L74.5456 19.0759H77.0656V32.0359H74.5456V23.8879L71.4256 29.9959H69.3976L66.2776 23.8879V32.0359H63.7696ZM86.0742 30.0559C86.8982 30.0559 87.5782 29.8839 88.1142 29.5399C88.6582 29.1879 89.0902 28.6719 89.4102 27.9919L91.8822 28.7479C91.3702 29.9159 90.6102 30.8159 89.6022 31.4479C88.6022 32.0799 87.4262 32.3959 86.0742 32.3959C85.1142 32.3959 84.2422 32.2319 83.4582 31.9039C82.6822 31.5679 82.0142 31.0999 81.4542 30.4999C80.8942 29.8999 80.4622 29.1799 80.1582 28.3399C79.8542 27.4999 79.7022 26.5719 79.7022 25.5559C79.7022 24.5239 79.8542 23.5879 80.1582 22.7479C80.4622 21.9079 80.8942 21.1879 81.4542 20.5879C82.0142 19.9879 82.6822 19.5279 83.4582 19.2079C84.2422 18.8799 85.1062 18.7159 86.0502 18.7159C87.0582 18.7159 87.9502 18.8919 88.7262 19.2439C89.5022 19.5959 90.1462 20.0999 90.6582 20.7559C91.1782 21.4039 91.5542 22.1959 91.7862 23.1319C92.0262 24.0599 92.1142 25.1039 92.0502 26.2639H82.4022C82.5142 27.4719 82.8902 28.4079 83.5302 29.0719C84.1702 29.7279 85.0182 30.0559 86.0742 30.0559ZM89.4702 24.3079C89.3822 23.2359 89.0422 22.4119 88.4502 21.8359C87.8582 21.2599 87.0582 20.9719 86.0502 20.9719C85.0502 20.9719 84.2422 21.2599 83.6262 21.8359C83.0182 22.4119 82.6302 23.2359 82.4622 24.3079H89.4702ZM94.7305 32.0359V19.0759H97.2385V24.3799H103.563V19.0759H106.071V32.0359H103.563V26.7319H97.2385V32.0359H94.7305ZM120.358 19.0759V32.0359H117.85V22.9759L111.934 32.0359H109.426V19.0759H111.934V28.1359L117.85 19.0759H120.358ZM126.975 32.0359V21.4279H122.631V19.0759H133.827V21.4279H129.483V32.0359H126.975ZM141.966 32.0359H136.098V19.0759H138.618V23.6719H141.966C142.758 23.6719 143.45 23.7799 144.042 23.9959C144.634 24.2119 145.122 24.5119 145.506 24.8959C145.898 25.2719 146.19 25.7159 146.382 26.2279C146.574 26.7319 146.67 27.2759 146.67 27.8599C146.67 28.4439 146.574 28.9919 146.382 29.5039C146.19 30.0079 145.898 30.4479 145.506 30.8239C145.122 31.1999 144.634 31.4959 144.042 31.7119C143.45 31.9279 142.758 32.0359 141.966 32.0359ZM141.618 29.9599C142.058 29.9599 142.434 29.9079 142.746 29.8039C143.066 29.6919 143.33 29.5439 143.538 29.3599C143.746 29.1759 143.898 28.9559 143.994 28.6999C144.098 28.4359 144.15 28.1559 144.15 27.8599C144.15 27.5559 144.098 27.2759 143.994 27.0199C143.898 26.7639 143.746 26.5439 143.538 26.3599C143.33 26.1679 143.066 26.0199 142.746 25.9159C142.434 25.8039 142.058 25.7479 141.618 25.7479H138.618V29.9599H141.618Z" fill="black"/>
</svg>
