<svg width="77" height="65" viewBox="0 0 77 65" fill="none" xmlns="http://www.w3.org/2000/svg">
<g clip-path="url(#clip0_116_842)">
<path fill-rule="evenodd" clip-rule="evenodd" d="M9.21975 0H18.7008L27.073 8.37216V24.4492C27.073 26.4014 25.4744 28 23.5222 28H9.21975C7.26752 28 5.66895 26.4014 5.66895 24.4492V3.5508C5.66895 1.59857 7.26752 0 9.21975 0Z" fill="#D0FF00"/>
<path fill-rule="evenodd" clip-rule="evenodd" d="M18.7012 0L27.0733 8.37216H19.6053C19.1076 8.37216 18.7012 7.96573 18.7012 7.46807V0Z" fill="#2A2A2A"/>
<path fill-rule="evenodd" clip-rule="evenodd" d="M1.70703 11.9229H20.9908C21.4197 11.9229 21.7701 12.2733 21.7701 12.7021V19.7765C21.7701 20.2054 21.4197 20.5558 20.9908 20.5558H1.70703C1.27817 20.5558 0.927734 20.2054 0.927734 19.7765V12.7021C0.927734 12.2733 1.27823 11.9229 1.70703 11.9229Z" fill="#2A2A2A"/>
<path d="M8.78926 18.6596C8.78926 18.9088 8.58719 19.1109 8.33798 19.1109H5.42882C5.17961 19.1109 4.97754 18.9088 4.97754 18.6596V13.8175C4.97754 13.5683 5.17961 13.3662 5.42882 13.3662C5.67803 13.3662 5.8801 13.5683 5.8801 13.8175V18.2084H8.33798C8.58719 18.2084 8.78926 18.4104 8.78926 18.6596ZM17.2686 16.0113H15.814C15.5648 16.0113 15.3628 16.2134 15.3628 16.4626C15.3628 16.7119 15.5648 16.9139 15.814 16.9139H16.8173V17.8644C16.8173 18.0509 16.6591 18.2084 16.4718 18.2084H15.1548C14.9683 18.2084 14.8108 18.0509 14.8108 17.8644V14.6144C14.8108 14.427 14.9683 14.2688 15.1548 14.2688H16.4718C16.6623 14.2688 16.8173 14.4238 16.8173 14.6144C16.8173 14.8636 17.0194 15.0657 17.2686 15.0657C17.5178 15.0657 17.7199 14.8636 17.7199 14.6144C17.7199 13.9261 17.1599 13.3662 16.4718 13.3662H15.1548C14.4675 13.3662 13.9083 13.9262 13.9083 14.6144V17.8644C13.9083 18.5517 14.4675 19.1109 15.1548 19.1109H16.4718C17.16 19.1109 17.7199 18.5517 17.7199 17.8644V16.4626C17.7198 16.2134 17.5178 16.0113 17.2686 16.0113ZM12.9081 15.2721V17.2051C12.9081 18.2559 12.0531 19.1109 11.0022 19.1109C9.95142 19.1109 9.09644 18.2559 9.09644 17.2051V15.2721C9.09644 14.2212 9.95142 13.3662 11.0022 13.3662C12.0532 13.3662 12.9081 14.2212 12.9081 15.2721ZM12.0056 15.2721C12.0056 14.7188 11.5555 14.2687 11.0022 14.2687C10.449 14.2687 9.99895 14.7188 9.99895 15.2721V17.2051C9.99895 17.7583 10.449 18.2084 11.0022 18.2084C11.5555 18.2084 12.0056 17.7583 12.0056 17.2051V15.2721Z" fill="white"/>
</g>
<path d="M7.005 43.9525L2.445 49H0.15L5.115 43.495L0.465 38.2H2.685L7.005 43.225V38.2H8.82V43.225L13.1325 38.2H15.3525L10.71 43.495L15.675 49H13.38L8.82 43.9525V49H7.005V43.9525ZM20.1103 49H18.1453L19.7803 45.5275L16.1428 38.2H18.1228L20.7028 43.585L23.2378 38.2H25.1953L20.1103 49ZM26.4574 49V38.2H30.7249C31.3649 38.2 31.9224 38.28 32.3974 38.44C32.8774 38.6 33.2749 38.8325 33.5899 39.1375C33.9099 39.4375 34.1499 39.805 34.3099 40.24C34.4699 40.675 34.5499 41.1675 34.5499 41.7175C34.5499 42.2675 34.4699 42.76 34.3099 43.195C34.1499 43.63 33.9099 43.9975 33.5899 44.2975C33.2699 44.5975 32.8699 44.8275 32.3899 44.9875C31.9149 45.1475 31.3599 45.2275 30.7249 45.2275H28.2799V49H26.4574ZM28.2799 43.54H30.7099C31.3649 43.54 31.8649 43.385 32.2099 43.075C32.5549 42.76 32.7274 42.3075 32.7274 41.7175C32.7274 41.1275 32.5549 40.6775 32.2099 40.3675C31.8649 40.0525 31.3649 39.895 30.7099 39.895H28.2799V43.54ZM36.2021 49V38.2H38.0171V42.745H43.1246V38.2H44.9396V49H43.1246V44.44H38.0171V49H36.2021ZM55.952 48.9925H54.047L53.282 46.6525H49.067L48.302 48.9925H46.397L49.9745 38.1925H52.382L55.952 48.9925ZM52.7345 44.965L51.1745 40.1725L49.6145 44.965H52.7345ZM57.1242 47.5C57.2842 47.54 57.4217 47.56 57.5367 47.56C57.7717 47.56 57.9667 47.4975 58.1217 47.3725C58.2817 47.2425 58.4092 47.06 58.5042 46.825C58.6042 46.59 58.6792 46.305 58.7292 45.97C58.7842 45.635 58.8217 45.2625 58.8417 44.8525C58.8617 44.4375 58.8717 43.99 58.8717 43.51C58.8767 43.03 58.8792 42.525 58.8792 41.995V38.2H66.4617V49H64.6467V39.895H60.5667V43.63C60.5667 44.73 60.5042 45.64 60.3792 46.36C60.2592 47.08 60.0892 47.6525 59.8692 48.0775C59.6542 48.4975 59.3992 48.7925 59.1042 48.9625C58.8142 49.1325 58.4967 49.2175 58.1517 49.2175C57.9867 49.2175 57.8167 49.2025 57.6417 49.1725C57.4717 49.1425 57.2992 49.1 57.1242 49.045V47.5ZM5.6175 63.225C4.8075 63.225 4.0825 63.09 3.4425 62.82C2.8075 62.545 2.2675 62.1625 1.8225 61.6725C1.3775 61.1775 1.0375 60.585 0.8025 59.895C0.5675 59.205 0.45 58.44 0.45 57.6C0.45 56.76 0.5675 55.995 0.8025 55.305C1.0375 54.615 1.3775 54.025 1.8225 53.535C2.2675 53.04 2.8075 52.6575 3.4425 52.3875C4.0825 52.1125 4.8075 51.975 5.6175 51.975C6.2375 51.975 6.8075 52.055 7.3275 52.215C7.8525 52.375 8.32 52.605 8.73 52.905C9.14 53.205 9.4925 53.5675 9.7875 53.9925C10.0825 54.4175 10.3125 54.895 10.4775 55.425L8.655 55.9275C8.55 55.5775 8.4075 55.265 8.2275 54.99C8.0525 54.71 7.8375 54.4725 7.5825 54.2775C7.3325 54.0825 7.0425 53.935 6.7125 53.835C6.3875 53.73 6.0225 53.6775 5.6175 53.6775C5.0925 53.6775 4.625 53.7725 4.215 53.9625C3.81 54.1475 3.4675 54.4125 3.1875 54.7575C2.9125 55.0975 2.7025 55.51 2.5575 55.995C2.4175 56.475 2.3475 57.01 2.3475 57.6C2.3475 58.19 2.415 58.7275 2.55 59.2125C2.69 59.6925 2.895 60.105 3.165 60.45C3.44 60.79 3.78 61.055 4.185 61.245C4.595 61.43 5.0725 61.5225 5.6175 61.5225C6.0225 61.5225 6.3875 61.4725 6.7125 61.3725C7.0425 61.2675 7.3325 61.1175 7.5825 60.9225C7.8375 60.7275 8.0525 60.4925 8.2275 60.2175C8.4075 59.9375 8.55 59.6225 8.655 59.2725L10.4775 59.775C10.3125 60.305 10.0825 60.7825 9.7875 61.2075C9.4925 61.6325 9.14 61.995 8.73 62.295C8.32 62.595 7.8525 62.825 7.3275 62.985C6.8075 63.145 6.2375 63.225 5.6175 63.225ZM16.8417 63.225C16.0317 63.225 15.3067 63.09 14.6667 62.82C14.0317 62.545 13.4917 62.1625 13.0467 61.6725C12.6017 61.1775 12.2617 60.585 12.0267 59.895C11.7917 59.205 11.6742 58.44 11.6742 57.6C11.6742 56.76 11.7917 55.995 12.0267 55.305C12.2617 54.615 12.6017 54.025 13.0467 53.535C13.4917 53.04 14.0317 52.6575 14.6667 52.3875C15.3067 52.1125 16.0317 51.975 16.8417 51.975C17.6517 51.975 18.3767 52.1125 19.0167 52.3875C19.6567 52.6575 20.1992 53.04 20.6442 53.535C21.0892 54.025 21.4292 54.615 21.6642 55.305C21.8992 55.995 22.0167 56.76 22.0167 57.6C22.0167 58.44 21.8992 59.205 21.6642 59.895C21.4292 60.585 21.0892 61.1775 20.6442 61.6725C20.1992 62.1625 19.6567 62.545 19.0167 62.82C18.3767 63.09 17.6517 63.225 16.8417 63.225ZM16.8417 61.5225C17.3867 61.5225 17.8617 61.43 18.2667 61.245C18.6767 61.055 19.0167 60.79 19.2867 60.45C19.5617 60.105 19.7667 59.6925 19.9017 59.2125C20.0367 58.7275 20.1042 58.19 20.1042 57.6C20.1042 57.01 20.0367 56.475 19.9017 55.995C19.7667 55.51 19.5617 55.0975 19.2867 54.7575C19.0167 54.4125 18.6767 54.1475 18.2667 53.9625C17.8617 53.7725 17.3867 53.6775 16.8417 53.6775C16.2967 53.6775 15.8217 53.7725 15.4167 53.9625C15.0117 54.1475 14.6742 54.4125 14.4042 54.7575C14.1342 55.0975 13.9292 55.51 13.7892 55.995C13.6542 56.475 13.5867 57.01 13.5867 57.6C13.5867 58.19 13.6542 58.7275 13.7892 59.2125C13.9242 59.6925 14.1267 60.105 14.3967 60.45C14.6667 60.79 15.0042 61.055 15.4092 61.245C15.8192 61.43 16.2967 61.5225 16.8417 61.5225ZM23.6596 52.2H30.8971V53.895H25.4746V56.145H28.0621C28.6521 56.145 29.1746 56.23 29.6296 56.4C30.0896 56.565 30.4771 56.7975 30.7921 57.0975C31.1071 57.3975 31.3446 57.7575 31.5046 58.1775C31.6696 58.5975 31.7521 59.0625 31.7521 59.5725C31.7521 60.0775 31.6696 60.54 31.5046 60.96C31.3446 61.38 31.1071 61.7425 30.7921 62.0475C30.4771 62.3475 30.0896 62.5825 29.6296 62.7525C29.1746 62.9175 28.6521 63 28.0621 63H23.6596V52.2ZM27.8446 61.305C28.1996 61.305 28.5071 61.2625 28.7671 61.1775C29.0321 61.0925 29.2496 60.975 29.4196 60.825C29.5896 60.67 29.7146 60.4875 29.7946 60.2775C29.8796 60.0625 29.9221 59.8275 29.9221 59.5725C29.9221 59.3175 29.8796 59.085 29.7946 58.875C29.7146 58.66 29.5896 58.4775 29.4196 58.3275C29.2496 58.1725 29.0321 58.0525 28.7671 57.9675C28.5071 57.8825 28.1996 57.84 27.8446 57.84H25.4746V61.305H27.8446ZM35.2268 55.9725H37.6718C38.3118 55.9725 38.8693 56.0525 39.3443 56.2125C39.8243 56.3725 40.2218 56.6025 40.5368 56.9025C40.8568 57.2025 41.0968 57.57 41.2568 58.005C41.4168 58.44 41.4968 58.9325 41.4968 59.4825C41.4968 60.0325 41.4168 60.525 41.2568 60.96C41.0968 61.395 40.8568 61.765 40.5368 62.07C40.2218 62.37 39.8243 62.6 39.3443 62.76C38.8693 62.92 38.3118 63 37.6718 63H33.4118V52.2H35.2268V55.9725ZM37.6568 61.305C38.3118 61.305 38.8118 61.15 39.1568 60.84C39.5018 60.525 39.6743 60.0725 39.6743 59.4825C39.6743 58.8925 39.5018 58.4425 39.1568 58.1325C38.8118 57.8175 38.3118 57.66 37.6568 57.66H35.2268V61.305H37.6568ZM42.9293 63V52.2H44.7518V63H42.9293ZM49.4616 63V53.895H46.2441V52.2H54.4866V53.895H51.2841V63H49.4616ZM64.9182 63H63.1032V55.32L58.0707 63H56.2482V52.2H58.0707V59.88L63.1032 52.2H64.9182V63ZM71.4923 51.285C71.0773 51.285 70.6948 51.185 70.3448 50.985C69.9998 50.78 69.7248 50.505 69.5198 50.16C69.3198 49.81 69.2198 49.4275 69.2198 49.0125H70.6298C70.6298 49.1725 70.6673 49.3175 70.7423 49.4475C70.8223 49.5775 70.9273 49.6825 71.0573 49.7625C71.1873 49.8375 71.3323 49.875 71.4923 49.875C71.6523 49.875 71.7973 49.8375 71.9273 49.7625C72.0573 49.6825 72.1598 49.5775 72.2348 49.4475C72.3148 49.3175 72.3548 49.1725 72.3548 49.0125H73.7648C73.7648 49.4275 73.6623 49.81 73.4573 50.16C73.2573 50.505 72.9823 50.78 72.6323 50.985C72.2873 51.185 71.9073 51.285 71.4923 51.285ZM74.0198 63V55.32L68.9873 63H67.1648V52.2H68.9873V59.88L74.0198 52.2H75.8348V63H74.0198Z" fill="#2A2A2A"/>
<defs>
<clipPath id="clip0_116_842">
<rect width="28" height="28" fill="white"/>
</clipPath>
</defs>
</svg>
