<svg width="161" height="23" viewBox="0 0 161 23" fill="none" xmlns="http://www.w3.org/2000/svg">
<path d="M34.2046 18.3C33.3912 18.3 32.6612 18.16 32.0146 17.88C31.3679 17.6 30.8179 17.21 30.3646 16.71C29.9179 16.2033 29.5746 15.6 29.3346 14.9C29.1012 14.2 28.9846 13.4333 28.9846 12.6C28.9846 11.7533 29.1046 10.98 29.3446 10.28C29.5912 9.58 29.9412 8.98 30.3946 8.48C30.8479 7.98 31.3979 7.59333 32.0446 7.32C32.6979 7.04 33.4279 6.9 34.2346 6.9C34.8279 6.9 35.3779 6.97667 35.8846 7.13C36.3979 7.28333 36.8546 7.50333 37.2546 7.79C37.6612 8.07 38.0046 8.41333 38.2846 8.82C38.5712 9.22667 38.7812 9.68333 38.9146 10.19L36.8346 10.79C36.6279 10.1833 36.2879 9.71333 35.8146 9.38C35.3479 9.04 34.8112 8.87 34.2046 8.87C33.7046 8.87 33.2679 8.96 32.8946 9.14C32.5212 9.32 32.2079 9.57333 31.9546 9.9C31.7079 10.2267 31.5212 10.62 31.3946 11.08C31.2679 11.5333 31.2046 12.04 31.2046 12.6C31.2046 13.16 31.2679 13.67 31.3946 14.13C31.5212 14.5833 31.7079 14.9733 31.9546 15.3C32.2079 15.6267 32.5212 15.88 32.8946 16.06C33.2746 16.24 33.7112 16.33 34.2046 16.33C34.8846 16.33 35.4312 16.1767 35.8446 15.87C36.2646 15.5567 36.5812 15.11 36.7946 14.53L38.9146 15.03C38.5546 16.0967 37.9712 16.91 37.1646 17.47C36.3579 18.0233 35.3712 18.3 34.2046 18.3ZM40.9418 7.2H43.0318V12.4L47.2718 7.2H49.9318L45.4518 12.6L50.3918 18H47.5518L43.0318 12.79V18H40.9418V7.2ZM55.711 6.9C57.2176 6.9 58.341 7.28333 59.081 8.05C59.821 8.81 60.191 9.97667 60.191 11.55V18H58.091V16.42C57.351 17.6733 56.141 18.3 54.461 18.3C53.901 18.3 53.3943 18.2233 52.941 18.07C52.4943 17.9233 52.111 17.71 51.791 17.43C51.4776 17.15 51.2343 16.8133 51.061 16.42C50.8876 16.0267 50.801 15.5867 50.801 15.1C50.801 14.56 50.8976 14.0867 51.091 13.68C51.2843 13.2667 51.5643 12.9167 51.931 12.63C52.3043 12.3367 52.7576 12.1033 53.291 11.93C53.831 11.75 54.441 11.6167 55.121 11.53L58.091 11.16C58.0776 10.3333 57.871 9.73 57.471 9.35C57.0776 8.96333 56.4843 8.77 55.691 8.77C54.9843 8.77 54.421 8.90667 54.001 9.18C53.5876 9.44667 53.2943 9.86667 53.121 10.44L51.191 9.93C51.471 8.94333 51.9943 8.19333 52.761 7.68C53.5343 7.16 54.5176 6.9 55.711 6.9ZM55.381 13.08C54.501 13.1867 53.861 13.39 53.461 13.69C53.061 13.9833 52.861 14.4 52.861 14.94C52.861 16 53.5543 16.53 54.941 16.53C55.3143 16.53 55.661 16.48 55.981 16.38C56.3076 16.28 56.5976 16.14 56.851 15.96C57.1043 15.7733 57.3176 15.5533 57.491 15.3C57.671 15.04 57.8043 14.7567 57.891 14.45C57.991 14.19 58.0476 13.9133 58.061 13.62C58.081 13.32 58.091 13.05 58.091 12.81V12.74L55.381 13.08ZM68.7177 18V13.92C68.3777 14.1267 67.9744 14.2867 67.5077 14.4C67.041 14.5133 66.5277 14.57 65.9677 14.57C64.681 14.57 63.7277 14.2333 63.1077 13.56C62.4944 12.88 62.1877 11.84 62.1877 10.44V7.2H64.2777V10.14C64.2777 10.5733 64.311 10.9533 64.3777 11.28C64.451 11.6 64.5677 11.8667 64.7277 12.08C64.8944 12.2933 65.1144 12.4533 65.3877 12.56C65.6677 12.6667 66.011 12.72 66.4177 12.72C66.8777 12.72 67.291 12.6633 67.6577 12.55C68.031 12.43 68.3844 12.2533 68.7177 12.02V7.2H70.8177V18H68.7177ZM77.918 6.9C79.4247 6.9 80.548 7.28333 81.288 8.05C82.028 8.81 82.398 9.97667 82.398 11.55V18H80.298V16.42C79.558 17.6733 78.348 18.3 76.668 18.3C76.108 18.3 75.6013 18.2233 75.148 18.07C74.7013 17.9233 74.318 17.71 73.998 17.43C73.6847 17.15 73.4413 16.8133 73.268 16.42C73.0947 16.0267 73.008 15.5867 73.008 15.1C73.008 14.56 73.1047 14.0867 73.298 13.68C73.4913 13.2667 73.7713 12.9167 74.138 12.63C74.5113 12.3367 74.9647 12.1033 75.498 11.93C76.038 11.75 76.648 11.6167 77.328 11.53L80.298 11.16C80.2847 10.3333 80.078 9.73 79.678 9.35C79.2847 8.96333 78.6913 8.77 77.898 8.77C77.1913 8.77 76.628 8.90667 76.208 9.18C75.7947 9.44667 75.5013 9.86667 75.328 10.44L73.398 9.93C73.678 8.94333 74.2013 8.19333 74.968 7.68C75.7413 7.16 76.7247 6.9 77.918 6.9ZM77.588 13.08C76.708 13.1867 76.068 13.39 75.668 13.69C75.268 13.9833 75.068 14.4 75.068 14.94C75.068 16 75.7613 16.53 77.148 16.53C77.5213 16.53 77.868 16.48 78.188 16.38C78.5147 16.28 78.8047 16.14 79.058 15.96C79.3113 15.7733 79.5247 15.5533 79.698 15.3C79.878 15.04 80.0113 14.7567 80.098 14.45C80.198 14.19 80.2547 13.9133 80.268 13.62C80.288 13.32 80.298 13.05 80.298 12.81V12.74L77.588 13.08ZM87.7147 18V9.16H84.0947V7.2H93.4247V9.16H89.8047V18H87.7147ZM100.207 18H95.3168V7.2H97.4168V11.03H100.207C100.867 11.03 101.443 11.12 101.937 11.3C102.43 11.48 102.837 11.73 103.157 12.05C103.483 12.3633 103.727 12.7333 103.887 13.16C104.047 13.58 104.127 14.0333 104.127 14.52C104.127 15.0067 104.047 15.4633 103.887 15.89C103.727 16.31 103.483 16.6767 103.157 16.99C102.837 17.3033 102.43 17.55 101.937 17.73C101.443 17.91 100.867 18 100.207 18ZM99.9168 16.27C100.283 16.27 100.597 16.2267 100.857 16.14C101.123 16.0467 101.343 15.9233 101.517 15.77C101.69 15.6167 101.817 15.4333 101.897 15.22C101.983 15 102.027 14.7667 102.027 14.52C102.027 14.2667 101.983 14.0333 101.897 13.82C101.817 13.6067 101.69 13.4233 101.517 13.27C101.343 13.11 101.123 12.9867 100.857 12.9C100.597 12.8067 100.283 12.76 99.9168 12.76H97.4168V16.27H99.9168ZM115.607 18.18C114.8 18.16 114.04 18.03 113.327 17.79C112.613 17.5433 111.99 17.1867 111.457 16.72C110.923 16.2533 110.5 15.68 110.187 15C109.88 14.3133 109.727 13.5167 109.727 12.61C109.727 11.7033 109.88 10.9067 110.187 10.22C110.5 9.53333 110.923 8.95667 111.457 8.49C111.99 8.02333 112.613 7.66667 113.327 7.42C114.04 7.17333 114.8 7.04 115.607 7.02V3.8H117.707V7.02C118.513 7.04 119.273 7.17333 119.987 7.42C120.7 7.66 121.323 8.01333 121.857 8.48C122.39 8.94667 122.81 9.52667 123.117 10.22C123.43 10.9067 123.587 11.7033 123.587 12.61C123.587 13.5167 123.43 14.3133 123.117 15C122.81 15.6867 122.39 16.2633 121.857 16.73C121.323 17.19 120.7 17.5433 119.987 17.79C119.273 18.03 118.513 18.16 117.707 18.18V22.5H115.607V18.18ZM117.707 16.26C118.267 16.2467 118.777 16.1567 119.237 15.99C119.697 15.8167 120.09 15.5733 120.417 15.26C120.743 14.9467 120.997 14.5667 121.177 14.12C121.357 13.6733 121.447 13.17 121.447 12.61C121.447 12.05 121.357 11.5467 121.177 11.1C120.997 10.6467 120.743 10.2633 120.417 9.95C120.09 9.63667 119.697 9.39333 119.237 9.22C118.777 9.04667 118.267 8.95333 117.707 8.94V16.26ZM115.607 8.94C115.047 8.95333 114.537 9.04667 114.077 9.22C113.617 9.39333 113.223 9.64 112.897 9.96C112.57 10.2733 112.317 10.6533 112.137 11.1C111.957 11.5467 111.867 12.05 111.867 12.61C111.867 13.17 111.957 13.6733 112.137 14.12C112.317 14.5667 112.57 14.9467 112.897 15.26C113.223 15.5667 113.617 15.8067 114.077 15.98C114.537 16.1533 115.047 16.2467 115.607 16.26V8.94ZM130.106 6.9C131.612 6.9 132.736 7.28333 133.476 8.05C134.216 8.81 134.586 9.97667 134.586 11.55V18H132.486V16.42C131.746 17.6733 130.536 18.3 128.856 18.3C128.296 18.3 127.789 18.2233 127.336 18.07C126.889 17.9233 126.506 17.71 126.186 17.43C125.872 17.15 125.629 16.8133 125.456 16.42C125.282 16.0267 125.196 15.5867 125.196 15.1C125.196 14.56 125.292 14.0867 125.486 13.68C125.679 13.2667 125.959 12.9167 126.326 12.63C126.699 12.3367 127.152 12.1033 127.686 11.93C128.226 11.75 128.836 11.6167 129.516 11.53L132.486 11.16C132.472 10.3333 132.266 9.73 131.866 9.35C131.472 8.96333 130.879 8.77 130.086 8.77C129.379 8.77 128.816 8.90667 128.396 9.18C127.982 9.44667 127.689 9.86667 127.516 10.44L125.586 9.93C125.866 8.94333 126.389 8.19333 127.156 7.68C127.929 7.16 128.912 6.9 130.106 6.9ZM129.776 13.08C128.896 13.1867 128.256 13.39 127.856 13.69C127.456 13.9833 127.256 14.4 127.256 14.94C127.256 16 127.949 16.53 129.336 16.53C129.709 16.53 130.056 16.48 130.376 16.38C130.702 16.28 130.992 16.14 131.246 15.96C131.499 15.7733 131.712 15.5533 131.886 15.3C132.066 15.04 132.199 14.7567 132.286 14.45C132.386 14.19 132.442 13.9133 132.456 13.62C132.476 13.32 132.486 13.05 132.486 12.81V12.74L129.776 13.08ZM142.002 5.96C141.476 5.96 140.992 5.83333 140.552 5.58C140.112 5.32 139.762 4.97 139.502 4.53C139.249 4.09 139.122 3.60667 139.122 3.08H140.782C140.782 3.3 140.836 3.50333 140.942 3.69C141.056 3.87667 141.206 4.02667 141.392 4.14C141.579 4.24667 141.782 4.3 142.002 4.3C142.229 4.3 142.432 4.24667 142.612 4.14C142.799 4.02667 142.946 3.87667 143.052 3.69C143.166 3.50333 143.222 3.3 143.222 3.08H144.882C144.882 3.60667 144.752 4.09 144.492 4.53C144.239 4.97 143.892 5.32 143.452 5.58C143.012 5.83333 142.529 5.96 142.002 5.96ZM146.282 7.2V18H144.192V10.45L139.262 18H137.172V7.2H139.262V14.75L144.192 7.2H146.282ZM148.077 16.33C148.223 16.3767 148.373 16.4 148.527 16.4C148.8 16.4 149.023 16.31 149.197 16.13C149.377 15.9433 149.52 15.6733 149.627 15.32C149.74 14.96 149.817 14.52 149.857 14C149.903 13.4733 149.927 12.8733 149.927 12.2V7.2H158.087V18H155.997V9.16H151.877V12.87C151.877 14.7367 151.643 16.11 151.177 16.99C150.717 17.8633 150.04 18.3 149.147 18.3C148.833 18.3 148.477 18.2433 148.077 18.13V16.33Z" fill="black"/>
<path fill-rule="evenodd" clip-rule="evenodd" d="M20 11.0175V19.0302C20 19.5831 19.552 20.0318 19 20.0318H1C0.448 20.0318 0 19.5831 0 19.0302V11.0175C0 10.4646 0.448 10.0159 1 10.0159C1.552 10.0159 2 10.4646 2 11.0175V18.0286H18V11.0175C18 10.4646 18.448 10.0159 19 10.0159C19.552 10.0159 20 10.4646 20 11.0175Z" fill="black"/>
<path fill-rule="evenodd" clip-rule="evenodd" d="M11 1.00159V13.0207C11 13.5736 10.552 14.0223 10 14.0223C9.448 14.0223 9 13.5736 9 13.0207V1.00159C9 0.448713 9.448 0 10 0C10.552 0 11 0.448713 11 1.00159Z" fill="black"/>
<path fill-rule="evenodd" clip-rule="evenodd" d="M9.44513 12.1874L12.4451 10.1843C12.9051 9.87777 13.5261 10.002 13.8321 10.4617C14.1381 10.9224 14.0141 11.5444 13.5551 11.8509L10.5551 13.8541C10.0951 14.1606 9.47413 14.0364 9.16813 13.5766C8.86213 13.1159 8.98613 12.4939 9.44513 12.1874Z" fill="black"/>
<path fill-rule="evenodd" clip-rule="evenodd" d="M9.44513 13.8541L6.44513 11.8509C5.98613 11.5444 5.86213 10.9224 6.16813 10.4617C6.47413 10.002 7.09513 9.87777 7.55513 10.1843L10.5551 12.1874C11.0141 12.4939 11.1381 13.1159 10.8321 13.5766C10.5261 14.0364 9.90513 14.1606 9.44513 13.8541Z" fill="black"/>
</svg>
